%TF.GenerationSoftware,KiCad,Pcbnew,10.0.4*%
%TF.CreationDate,2026-07-29T18:51:37+01:00*%
%TF.ProjectId,ISLKey,49534c4b-6579-42e6-9b69-6361645f7063,rev?*%
%TF.SameCoordinates,Original*%
%TF.FileFunction,Soldermask,Bot*%
%TF.FilePolarity,Negative*%
%FSLAX46Y46*%
G04 Gerber Fmt 4.6, Leading zero omitted, Abs format (unit mm)*
G04 Created by KiCad (PCBNEW 10.0.4) date 2026-07-29 18:51:37*
%MOMM*%
%LPD*%
G01*
G04 APERTURE LIST*
G04 Aperture macros list*
%AMRoundRect*
0 Rectangle with rounded corners*
0 $1 Rounding radius*
0 $2 $3 $4 $5 $6 $7 $8 $9 X,Y pos of 4 corners*
0 Add a 4 corners polygon primitive as box body*
4,1,4,$2,$3,$4,$5,$6,$7,$8,$9,$2,$3,0*
0 Add four circle primitives for the rounded corners*
1,1,$1+$1,$2,$3*
1,1,$1+$1,$4,$5*
1,1,$1+$1,$6,$7*
1,1,$1+$1,$8,$9*
0 Add four rect primitives between the rounded corners*
20,1,$1+$1,$2,$3,$4,$5,0*
20,1,$1+$1,$4,$5,$6,$7,0*
20,1,$1+$1,$6,$7,$8,$9,0*
20,1,$1+$1,$8,$9,$2,$3,0*%
G04 Aperture macros list end*
%ADD10RoundRect,0.250000X-1.050000X-1.050000X1.050000X-1.050000X1.050000X1.050000X-1.050000X1.050000X0*%
%ADD11C,2.600000*%
%ADD12C,3.000000*%
%ADD13C,2.500000*%
%ADD14RoundRect,0.250000X1.050000X-1.050000X1.050000X1.050000X-1.050000X1.050000X-1.050000X-1.050000X0*%
%ADD15RoundRect,0.500000X-0.500000X-0.900000X0.500000X-0.900000X0.500000X0.900000X-0.500000X0.900000X0*%
%ADD16O,2.000000X2.800000*%
%ADD17RoundRect,0.250000X-1.050000X1.050000X-1.050000X-1.050000X1.050000X-1.050000X1.050000X1.050000X0*%
%ADD18C,3.200000*%
%ADD19R,2.800000X2.800000*%
%ADD20C,2.800000*%
%ADD21R,1.500000X2.500000*%
%ADD22O,1.500000X2.500000*%
%ADD23C,1.524000*%
%ADD24C,2.390000*%
%ADD25C,3.450000*%
%ADD26R,1.700000X1.700000*%
%ADD27C,1.700000*%
%ADD28R,1.050000X1.500000*%
%ADD29O,1.050000X1.500000*%
%ADD30RoundRect,0.250000X-0.700000X-0.700000X0.700000X-0.700000X0.700000X0.700000X-0.700000X0.700000X0*%
%ADD31C,1.900000*%
%ADD32C,2.700000*%
%ADD33RoundRect,0.250000X-0.550000X-0.550000X0.550000X-0.550000X0.550000X0.550000X-0.550000X0.550000X0*%
%ADD34C,1.600000*%
G04 APERTURE END LIST*
D10*
%TO.C,J10*%
X102920000Y-144355000D03*
D11*
X108000000Y-144355000D03*
%TD*%
D12*
%TO.C,K1*%
X171500000Y-42855000D03*
D13*
X173450000Y-48905000D03*
D12*
X185650000Y-48905000D03*
X185700000Y-36855000D03*
D13*
X173450000Y-36905000D03*
%TD*%
D14*
%TO.C,J6*%
X205565000Y-48090000D03*
D11*
X205565000Y-43010000D03*
X205565000Y-37930000D03*
%TD*%
D15*
%TO.C,F1*%
X171650000Y-82355000D03*
X178920000Y-82355000D03*
D16*
X188000000Y-82355000D03*
X195270000Y-82355000D03*
%TD*%
D17*
%TO.C,J3*%
X97080000Y-75745000D03*
D11*
X97080000Y-80825000D03*
%TD*%
D18*
%TO.C,H2*%
X221800000Y-31355000D03*
%TD*%
D14*
%TO.C,J8*%
X206500000Y-83935000D03*
D11*
X206500000Y-78855000D03*
%TD*%
D17*
%TO.C,J4*%
X96655000Y-92745000D03*
D11*
X96655000Y-97825000D03*
%TD*%
D19*
%TO.C,BR1*%
X110860000Y-109855000D03*
D20*
X115940000Y-109855000D03*
X121020000Y-109855000D03*
X126100000Y-109855000D03*
%TD*%
D21*
%TO.C,U4*%
X161955000Y-100780000D03*
D22*
X164495000Y-100780000D03*
X167035000Y-100780000D03*
%TD*%
D23*
%TO.C,M1*%
X156740000Y-36970000D03*
X156740000Y-57290000D03*
X125625000Y-58560000D03*
X128165000Y-58560000D03*
X130705000Y-58560000D03*
X133245000Y-58560000D03*
X135785000Y-58560000D03*
X138325000Y-58560000D03*
X140865000Y-58560000D03*
X143405000Y-58560000D03*
X145945000Y-58560000D03*
X148485000Y-58560000D03*
X151025000Y-58560000D03*
X153565000Y-58560000D03*
X153565000Y-35700000D03*
X151025000Y-35700000D03*
X148485000Y-35700000D03*
X145945000Y-35700000D03*
X143405000Y-35700000D03*
X140865000Y-35700000D03*
X138325000Y-35700000D03*
X135785000Y-35700000D03*
X133245000Y-35700000D03*
X130705000Y-35700000D03*
X128165000Y-35700000D03*
X125625000Y-35700000D03*
%TD*%
D24*
%TO.C,BT1*%
X120250000Y-124855000D03*
D25*
X128760000Y-140855000D03*
X184000000Y-124855000D03*
%TD*%
D26*
%TO.C,J15*%
X130525000Y-69380000D03*
D27*
X130525000Y-71920000D03*
%TD*%
D18*
%TO.C,H3*%
X218500000Y-146355000D03*
%TD*%
D14*
%TO.C,J7*%
X205565000Y-70090000D03*
D11*
X205565000Y-65010000D03*
X205565000Y-59930000D03*
%TD*%
D28*
%TO.C,Q1*%
X185960000Y-115855000D03*
D29*
X187230000Y-115855000D03*
X188500000Y-115855000D03*
%TD*%
D26*
%TO.C,J13*%
X140913800Y-47130000D03*
D27*
X140913800Y-49670000D03*
%TD*%
D18*
%TO.C,H1*%
X85500000Y-31355000D03*
%TD*%
D28*
%TO.C,Q2*%
X193470000Y-115855000D03*
D29*
X194740000Y-115855000D03*
X196010000Y-115855000D03*
%TD*%
D26*
%TO.C,J9*%
X195000000Y-46855000D03*
D27*
X195000000Y-49395000D03*
%TD*%
D18*
%TO.C,H4*%
X88000000Y-146855000D03*
%TD*%
D12*
%TO.C,K2*%
X172000000Y-64855000D03*
D13*
X173950000Y-70905000D03*
D12*
X186150000Y-70905000D03*
X186200000Y-58855000D03*
D13*
X173950000Y-58905000D03*
%TD*%
D14*
%TO.C,J11*%
X206500000Y-99435000D03*
D11*
X206500000Y-94355000D03*
%TD*%
D30*
%TO.C,U3*%
X117525000Y-69380000D03*
D31*
X117525000Y-71920000D03*
X117525000Y-74460000D03*
X117525000Y-82080000D03*
X117525000Y-84620000D03*
X117525000Y-87160000D03*
D32*
X111725000Y-72980000D03*
X121125000Y-83580000D03*
%TD*%
D33*
%TO.C,U1*%
X173780000Y-114645000D03*
D34*
X173780000Y-117185000D03*
X181400000Y-117185000D03*
X181400000Y-114645000D03*
%TD*%
D17*
%TO.C,J5*%
X96655000Y-109745000D03*
D11*
X96655000Y-114825000D03*
%TD*%
M02*
