M48
; DRILL file KiCad 10.0.4 date 2026-07-29T18:51:37
; FORMAT={-:-/ absolute / metric / decimal}
; #@! TF.CreationDate,2026-07-29T18:51:37+01:00
; #@! TF.GenerationSoftware,Kicad,Pcbnew,10.0.4
; #@! TF.FileFunction,MixedPlating,1,2
FMAT,2
METRIC
; #@! TA.AperFunction,Plated,PTH,ViaDrill
T1C0.300
; #@! TA.AperFunction,Plated,PTH,ComponentDrill
T2C0.750
; #@! TA.AperFunction,Plated,PTH,ComponentDrill
T3C0.762
; #@! TA.AperFunction,Plated,PTH,ComponentDrill
T4C0.800
; #@! TA.AperFunction,Plated,PTH,ComponentDrill
T5C1.000
; #@! TA.AperFunction,Plated,PTH,ComponentDrill
T6C1.020
; #@! TA.AperFunction,Plated,PTH,ComponentDrill
T7C1.100
; #@! TA.AperFunction,Plated,PTH,ComponentDrill
T8C1.300
; #@! TA.AperFunction,Plated,PTH,ComponentDrill
T9C1.400
; #@! TA.AperFunction,Plated,PTH,ComponentDrill
T10C1.500
; #@! TA.AperFunction,NonPlated,NPTH,ComponentDrill
T11C1.524
; #@! TA.AperFunction,NonPlated,NPTH,ComponentDrill
T12C2.390
; #@! TA.AperFunction,NonPlated,NPTH,ComponentDrill
T13C3.200
; #@! TA.AperFunction,NonPlated,NPTH,ComponentDrill
T14C3.450
%
G90
G05
T1
X123.538Y-74.974
X132.481Y-109.764
X139.741Y-132.855
X141.947Y-132.855
X152.072Y-86.351
X152.072Y-98.398
X153.215Y-97.27
X155.135Y-95.178
X155.347Y-94.153
X155.986Y-65.914
X165.968Y-107.217
X166.797Y-59.669
X170.079Y-89.411
X170.425Y-92.026
X171.162Y-116.386
X176.672Y-110.931
X184.454Y-88.659
X190.32Y-91.567
X192.641Y-95.215
X193.87Y-108.34
X194.74Y-98.236
X206.409Y-107.409
X208.524Y-62.089
T2
X185.96Y-115.855
X187.23Y-115.855
X188.5Y-115.855
X193.47Y-115.855
X194.74Y-115.855
X196.01Y-115.855
T3
X125.625Y-35.7
X125.625Y-58.56
X128.165Y-35.7
X128.165Y-58.56
X130.705Y-35.7
X130.705Y-58.56
X133.245Y-35.7
X133.245Y-58.56
X135.785Y-35.7
X135.785Y-58.56
X138.325Y-35.7
X138.325Y-58.56
X140.865Y-35.7
X140.865Y-58.56
X143.405Y-35.7
X143.405Y-58.56
X145.945Y-35.7
X145.945Y-58.56
X148.485Y-35.7
X148.485Y-58.56
X151.025Y-35.7
X151.025Y-58.56
X153.565Y-35.7
X153.565Y-58.56
T4
X173.78Y-114.645
X173.78Y-117.185
X181.4Y-114.645
X181.4Y-117.185
T5
X130.525Y-69.38
X130.525Y-71.92
X140.914Y-47.13
X140.914Y-49.67
X161.955Y-100.78
X164.495Y-100.78
X167.035Y-100.78
X173.45Y-36.905
X173.45Y-48.905
X173.95Y-58.905
X173.95Y-70.905
X195.0Y-46.855
X195.0Y-49.395
T7
X117.525Y-69.38
X117.525Y-71.92
X117.525Y-74.46
X117.525Y-82.08
X117.525Y-84.62
X117.525Y-87.16
T8
X96.655Y-92.745
X96.655Y-97.825
X96.655Y-109.745
X96.655Y-114.825
X97.08Y-75.745
X97.08Y-80.825
X102.92Y-144.355
X108.0Y-144.355
X171.5Y-42.855
X172.0Y-64.855
X185.65Y-48.905
X185.7Y-36.855
X186.15Y-70.905
X186.2Y-58.855
X205.565Y-37.93
X205.565Y-43.01
X205.565Y-48.09
X205.565Y-59.93
X205.565Y-65.01
X205.565Y-70.09
X206.5Y-78.855
X206.5Y-83.935
X206.5Y-94.355
X206.5Y-99.435
T9
X110.86Y-109.855
X115.94Y-109.855
X121.02Y-109.855
X126.1Y-109.855
T10
X111.725Y-72.98
X121.125Y-83.58
T11
X156.74Y-36.97
X156.74Y-57.29
T12
X120.25Y-124.855
T13
X85.5Y-31.355
X88.0Y-146.855
X218.5Y-146.355
X221.8Y-31.355
T14
X128.76Y-140.855
X184.0Y-124.855
T6
X171.65Y-81.93G85X171.65Y-82.78
G05
X178.92Y-81.93G85X178.92Y-82.78
G05
X188.0Y-81.93G85X188.0Y-82.78
G05
X195.27Y-81.93G85X195.27Y-82.78
G05
M30
