%TF.GenerationSoftware,KiCad,Pcbnew,10.0.4*%
%TF.CreationDate,2026-07-29T18:51:37+01:00*%
%TF.ProjectId,ISLKey,49534c4b-6579-42e6-9b69-6361645f7063,rev?*%
%TF.SameCoordinates,Original*%
%TF.FileFunction,Paste,Top*%
%TF.FilePolarity,Positive*%
%FSLAX46Y46*%
G04 Gerber Fmt 4.6, Leading zero omitted, Abs format (unit mm)*
G04 Created by KiCad (PCBNEW 10.0.4) date 2026-07-29 18:51:37*
%MOMM*%
%LPD*%
G01*
G04 APERTURE LIST*
G04 Aperture macros list*
%AMRoundRect*
0 Rectangle with rounded corners*
0 $1 Rounding radius*
0 $2 $3 $4 $5 $6 $7 $8 $9 X,Y pos of 4 corners*
0 Add a 4 corners polygon primitive as box body*
4,1,4,$2,$3,$4,$5,$6,$7,$8,$9,$2,$3,0*
0 Add four circle primitives for the rounded corners*
1,1,$1+$1,$2,$3*
1,1,$1+$1,$4,$5*
1,1,$1+$1,$6,$7*
1,1,$1+$1,$8,$9*
0 Add four rect primitives between the rounded corners*
20,1,$1+$1,$2,$3,$4,$5,0*
20,1,$1+$1,$4,$5,$6,$7,0*
20,1,$1+$1,$6,$7,$8,$9,0*
20,1,$1+$1,$8,$9,$2,$3,0*%
G04 Aperture macros list end*
%ADD10RoundRect,0.250000X-1.000000X-0.650000X1.000000X-0.650000X1.000000X0.650000X-1.000000X0.650000X0*%
%ADD11RoundRect,0.250000X-0.250000X-0.475000X0.250000X-0.475000X0.250000X0.475000X-0.250000X0.475000X0*%
%ADD12RoundRect,0.243750X-0.243750X-0.456250X0.243750X-0.456250X0.243750X0.456250X-0.243750X0.456250X0*%
%ADD13RoundRect,0.250000X-0.262500X-0.450000X0.262500X-0.450000X0.262500X0.450000X-0.262500X0.450000X0*%
%ADD14RoundRect,0.150000X-0.875000X-0.150000X0.875000X-0.150000X0.875000X0.150000X-0.875000X0.150000X0*%
%ADD15RoundRect,0.250003X-3.499997X-2.999997X3.499997X-2.999997X3.499997X2.999997X-3.499997X2.999997X0*%
%ADD16R,5.100000X5.100000*%
%ADD17RoundRect,0.250000X-1.500000X-0.550000X1.500000X-0.550000X1.500000X0.550000X-1.500000X0.550000X0*%
%ADD18RoundRect,0.250000X-1.950000X-1.000000X1.950000X-1.000000X1.950000X1.000000X-1.950000X1.000000X0*%
G04 APERTURE END LIST*
D10*
%TO.C,D2*%
X166292500Y-109110000D03*
X170292500Y-109110000D03*
%TD*%
D11*
%TO.C,C6*%
X201842500Y-108340000D03*
X203742500Y-108340000D03*
%TD*%
D12*
%TO.C,D5*%
X180075000Y-108355000D03*
X181950000Y-108355000D03*
%TD*%
D10*
%TO.C,D1*%
X157197500Y-109110000D03*
X161197500Y-109110000D03*
%TD*%
D13*
%TO.C,R3*%
X172265000Y-90355000D03*
X174090000Y-90355000D03*
%TD*%
D11*
%TO.C,C3*%
X196392500Y-108340000D03*
X198292500Y-108340000D03*
%TD*%
D14*
%TO.C,U5*%
X145540000Y-96000000D03*
X145540000Y-97270000D03*
X145540000Y-98540000D03*
X145540000Y-99810000D03*
X145540000Y-101080000D03*
X145540000Y-102350000D03*
X145540000Y-103620000D03*
X145540000Y-104890000D03*
X154840000Y-104890000D03*
X154840000Y-103620000D03*
X154840000Y-102350000D03*
X154840000Y-101080000D03*
X154840000Y-99810000D03*
X154840000Y-98540000D03*
X154840000Y-97270000D03*
X154840000Y-96000000D03*
%TD*%
D15*
%TO.C,BT1*%
X116690000Y-132855000D03*
X196070000Y-132855000D03*
%TD*%
D16*
%TO.C,BT3*%
X139625000Y-76927500D03*
X165225000Y-76927500D03*
%TD*%
D13*
%TO.C,R8*%
X183085000Y-90355000D03*
X184910000Y-90355000D03*
%TD*%
D17*
%TO.C,C1*%
X146010000Y-111070000D03*
X151610000Y-111070000D03*
%TD*%
D13*
%TO.C,R2*%
X212720000Y-108310000D03*
X214545000Y-108310000D03*
%TD*%
%TO.C,R5*%
X188495000Y-90355000D03*
X190320000Y-90355000D03*
%TD*%
D12*
%TO.C,D3*%
X185525000Y-108355000D03*
X187400000Y-108355000D03*
%TD*%
D13*
%TO.C,R1*%
X207310000Y-108310000D03*
X209135000Y-108310000D03*
%TD*%
D11*
%TO.C,C2*%
X190942500Y-108340000D03*
X192842500Y-108340000D03*
%TD*%
D12*
%TO.C,D4*%
X174625000Y-108355000D03*
X176500000Y-108355000D03*
%TD*%
D17*
%TO.C,C5*%
X134360000Y-111070000D03*
X139960000Y-111070000D03*
%TD*%
D18*
%TO.C,C4*%
X131360000Y-100430000D03*
X139760000Y-100430000D03*
%TD*%
D13*
%TO.C,R7*%
X166855000Y-90355000D03*
X168680000Y-90355000D03*
%TD*%
%TO.C,R6*%
X193905000Y-90355000D03*
X195730000Y-90355000D03*
%TD*%
%TO.C,R4*%
X177675000Y-90355000D03*
X179500000Y-90355000D03*
%TD*%
M02*
