%TF.GenerationSoftware,KiCad,Pcbnew,10.0.4*%
%TF.CreationDate,2026-07-29T18:51:36+01:00*%
%TF.ProjectId,ISLKey,49534c4b-6579-42e6-9b69-6361645f7063,rev?*%
%TF.SameCoordinates,Original*%
%TF.FileFunction,Copper,L2,Bot*%
%TF.FilePolarity,Positive*%
%FSLAX46Y46*%
G04 Gerber Fmt 4.6, Leading zero omitted, Abs format (unit mm)*
G04 Created by KiCad (PCBNEW 10.0.4) date 2026-07-29 18:51:36*
%MOMM*%
%LPD*%
G01*
G04 APERTURE LIST*
G04 Aperture macros list*
%AMRoundRect*
0 Rectangle with rounded corners*
0 $1 Rounding radius*
0 $2 $3 $4 $5 $6 $7 $8 $9 X,Y pos of 4 corners*
0 Add a 4 corners polygon primitive as box body*
4,1,4,$2,$3,$4,$5,$6,$7,$8,$9,$2,$3,0*
0 Add four circle primitives for the rounded corners*
1,1,$1+$1,$2,$3*
1,1,$1+$1,$4,$5*
1,1,$1+$1,$6,$7*
1,1,$1+$1,$8,$9*
0 Add four rect primitives between the rounded corners*
20,1,$1+$1,$2,$3,$4,$5,0*
20,1,$1+$1,$4,$5,$6,$7,0*
20,1,$1+$1,$6,$7,$8,$9,0*
20,1,$1+$1,$8,$9,$2,$3,0*%
G04 Aperture macros list end*
%TA.AperFunction,ComponentPad*%
%ADD10RoundRect,0.250000X-1.050000X-1.050000X1.050000X-1.050000X1.050000X1.050000X-1.050000X1.050000X0*%
%TD*%
%TA.AperFunction,ComponentPad*%
%ADD11C,2.600000*%
%TD*%
%TA.AperFunction,ComponentPad*%
%ADD12C,3.000000*%
%TD*%
%TA.AperFunction,ComponentPad*%
%ADD13C,2.500000*%
%TD*%
%TA.AperFunction,ComponentPad*%
%ADD14RoundRect,0.250000X1.050000X-1.050000X1.050000X1.050000X-1.050000X1.050000X-1.050000X-1.050000X0*%
%TD*%
%TA.AperFunction,ComponentPad*%
%ADD15RoundRect,0.500000X-0.500000X-0.900000X0.500000X-0.900000X0.500000X0.900000X-0.500000X0.900000X0*%
%TD*%
%TA.AperFunction,ComponentPad*%
%ADD16O,2.000000X2.800000*%
%TD*%
%TA.AperFunction,ComponentPad*%
%ADD17RoundRect,0.250000X-1.050000X1.050000X-1.050000X-1.050000X1.050000X-1.050000X1.050000X1.050000X0*%
%TD*%
%TA.AperFunction,ComponentPad*%
%ADD18R,2.800000X2.800000*%
%TD*%
%TA.AperFunction,ComponentPad*%
%ADD19C,2.800000*%
%TD*%
%TA.AperFunction,ComponentPad*%
%ADD20R,1.500000X2.500000*%
%TD*%
%TA.AperFunction,ComponentPad*%
%ADD21O,1.500000X2.500000*%
%TD*%
%TA.AperFunction,ComponentPad*%
%ADD22C,1.524000*%
%TD*%
%TA.AperFunction,ComponentPad*%
%ADD23R,1.700000X1.700000*%
%TD*%
%TA.AperFunction,ComponentPad*%
%ADD24C,1.700000*%
%TD*%
%TA.AperFunction,ComponentPad*%
%ADD25R,1.050000X1.500000*%
%TD*%
%TA.AperFunction,ComponentPad*%
%ADD26O,1.050000X1.500000*%
%TD*%
%TA.AperFunction,ComponentPad*%
%ADD27RoundRect,0.250000X-0.700000X-0.700000X0.700000X-0.700000X0.700000X0.700000X-0.700000X0.700000X0*%
%TD*%
%TA.AperFunction,ComponentPad*%
%ADD28C,1.900000*%
%TD*%
%TA.AperFunction,ComponentPad*%
%ADD29C,2.700000*%
%TD*%
%TA.AperFunction,ComponentPad*%
%ADD30RoundRect,0.250000X-0.550000X-0.550000X0.550000X-0.550000X0.550000X0.550000X-0.550000X0.550000X0*%
%TD*%
%TA.AperFunction,ComponentPad*%
%ADD31C,1.600000*%
%TD*%
%TA.AperFunction,ViaPad*%
%ADD32C,0.600000*%
%TD*%
%TA.AperFunction,Conductor*%
%ADD33C,0.200000*%
%TD*%
G04 APERTURE END LIST*
D10*
%TO.P,J10,1*%
%TO.N,ACL*%
X102920000Y-144355000D03*
D11*
%TO.P,J10,2*%
%TO.N,ACN*%
X108000000Y-144355000D03*
%TD*%
D12*
%TO.P,K1,1*%
%TO.N,LK1_COM*%
X171500000Y-42855000D03*
D13*
%TO.P,K1,2*%
%TO.N,K1_C*%
X173450000Y-48905000D03*
D12*
%TO.P,K1,3*%
%TO.N,LK1_NO*%
X185650000Y-48905000D03*
%TO.P,K1,4*%
%TO.N,LK1_NC*%
X185700000Y-36855000D03*
D13*
%TO.P,K1,5*%
%TO.N,+5V*%
X173450000Y-36905000D03*
%TD*%
D14*
%TO.P,J6,1*%
%TO.N,LK1_COM*%
X205565000Y-48090000D03*
D11*
%TO.P,J6,2*%
%TO.N,LK1_NO*%
X205565000Y-43010000D03*
%TO.P,J6,3*%
%TO.N,LK1_NC*%
X205565000Y-37930000D03*
%TD*%
D15*
%TO.P,F1,1*%
%TO.N,ACL*%
X171650000Y-82355000D03*
X178920000Y-82355000D03*
D16*
%TO.P,F1,2*%
%TO.N,ACIN1*%
X188000000Y-82355000D03*
X195270000Y-82355000D03*
%TD*%
D17*
%TO.P,J3,1*%
%TO.N,EXIT*%
X97080000Y-75745000D03*
D11*
%TO.P,J3,2*%
%TO.N,GND*%
X97080000Y-80825000D03*
%TD*%
D14*
%TO.P,J8,1*%
%TO.N,FIRE_A*%
X206500000Y-83935000D03*
D11*
%TO.P,J8,2*%
%TO.N,FIRE_B*%
X206500000Y-78855000D03*
%TD*%
D17*
%TO.P,J4,1*%
%TO.N,DOOR*%
X96655000Y-92745000D03*
D11*
%TO.P,J4,2*%
%TO.N,GND*%
X96655000Y-97825000D03*
%TD*%
D18*
%TO.P,BR1,1*%
%TO.N,RAWP*%
X110860000Y-109855000D03*
D19*
%TO.P,BR1,2*%
%TO.N,ACIN1*%
X115940000Y-109855000D03*
%TO.P,BR1,3*%
%TO.N,ACN*%
X121020000Y-109855000D03*
%TO.P,BR1,4*%
%TO.N,PGND*%
X126100000Y-109855000D03*
%TD*%
D20*
%TO.P,U4,1*%
%TO.N,+12V*%
X161955000Y-100780000D03*
D21*
%TO.P,U4,2*%
%TO.N,GND*%
X164495000Y-100780000D03*
%TO.P,U4,3*%
%TO.N,+5V*%
X167035000Y-100780000D03*
%TD*%
D22*
%TO.P,M1,1*%
%TO.N,+5V*%
X125625000Y-58560000D03*
%TO.P,M1,2*%
%TO.N,GND*%
X128165000Y-58560000D03*
%TO.P,M1,3*%
%TO.N,TAMPER*%
X130705000Y-58560000D03*
%TO.P,M1,4*%
%TO.N,FIRE_SENSE*%
X133245000Y-58560000D03*
%TO.P,M1,5*%
%TO.N,DOOR*%
X135785000Y-58560000D03*
%TO.P,M1,6*%
%TO.N,RLY2*%
X138325000Y-58560000D03*
%TO.P,M1,7*%
%TO.N,RLY1*%
X140865000Y-58560000D03*
%TO.P,M1,8*%
%TO.N,N/C*%
X143405000Y-58560000D03*
%TO.P,M1,9*%
X145945000Y-58560000D03*
%TO.P,M1,10*%
X148485000Y-58560000D03*
%TO.P,M1,11*%
X151025000Y-58560000D03*
%TO.P,M1,12*%
%TO.N,+3V3*%
X153565000Y-58560000D03*
%TO.P,M1,13*%
%TO.N,GND*%
X153565000Y-35700000D03*
%TO.P,M1,14*%
X151025000Y-35700000D03*
%TO.P,M1,15*%
%TO.N,I2C_SDA*%
X148485000Y-35700000D03*
%TO.P,M1,16*%
%TO.N,I2C_SCL*%
X145945000Y-35700000D03*
%TO.P,M1,17*%
%TO.N,N/C*%
X143405000Y-35700000D03*
%TO.P,M1,18*%
X140865000Y-35700000D03*
%TO.P,M1,19*%
X138325000Y-35700000D03*
%TO.P,M1,20*%
%TO.N,EXIT*%
X135785000Y-35700000D03*
%TO.P,M1,21*%
%TO.N,N/C*%
X133245000Y-35700000D03*
%TO.P,M1,22*%
%TO.N,GND*%
X130705000Y-35700000D03*
%TO.P,M1,23*%
X128165000Y-35700000D03*
%TO.P,M1,24*%
%TO.N,+3V3*%
X125625000Y-35700000D03*
%TD*%
D23*
%TO.P,J15,1*%
%TO.N,DCDC_CTRL*%
X130525000Y-69380000D03*
D24*
%TO.P,J15,2*%
%TO.N,RAWP*%
X130525000Y-71920000D03*
%TD*%
D14*
%TO.P,J7,1*%
%TO.N,LK2_COM*%
X205565000Y-70090000D03*
D11*
%TO.P,J7,2*%
%TO.N,LK2_NO*%
X205565000Y-65010000D03*
%TO.P,J7,3*%
%TO.N,LK2_NC*%
X205565000Y-59930000D03*
%TD*%
D25*
%TO.P,Q1,1*%
%TO.N,GND*%
X185960000Y-115855000D03*
D26*
%TO.P,Q1,2*%
%TO.N,RLY1_B*%
X187230000Y-115855000D03*
%TO.P,Q1,3*%
%TO.N,K1_C*%
X188500000Y-115855000D03*
%TD*%
D23*
%TO.P,J13,1*%
%TO.N,VBAT*%
X140913800Y-47130000D03*
D24*
%TO.P,J13,2*%
%TO.N,GND_BAT*%
X140913800Y-49670000D03*
%TD*%
D25*
%TO.P,Q2,1*%
%TO.N,GND*%
X193470000Y-115855000D03*
D26*
%TO.P,Q2,2*%
%TO.N,RLY2_B*%
X194740000Y-115855000D03*
%TO.P,Q2,3*%
%TO.N,K2_C*%
X196010000Y-115855000D03*
%TD*%
D23*
%TO.P,J9,1*%
%TO.N,LK1_COM*%
X195000000Y-46855000D03*
D24*
%TO.P,J9,2*%
%TO.N,FIRE_A*%
X195000000Y-49395000D03*
%TD*%
D12*
%TO.P,K2,1*%
%TO.N,LK2_COM*%
X172000000Y-64855000D03*
D13*
%TO.P,K2,2*%
%TO.N,K2_C*%
X173950000Y-70905000D03*
D12*
%TO.P,K2,3*%
%TO.N,LK2_NO*%
X186150000Y-70905000D03*
%TO.P,K2,4*%
%TO.N,LK2_NC*%
X186200000Y-58855000D03*
D13*
%TO.P,K2,5*%
%TO.N,+5V*%
X173950000Y-58905000D03*
%TD*%
D14*
%TO.P,J11,1*%
%TO.N,+12V*%
X206500000Y-99435000D03*
D11*
%TO.P,J11,2*%
%TO.N,GND*%
X206500000Y-94355000D03*
%TD*%
D27*
%TO.P,U3,1*%
%TO.N,PGND*%
X117525000Y-69380000D03*
D28*
%TO.P,U3,2*%
%TO.N,RAWP*%
X117525000Y-71920000D03*
%TO.P,U3,3*%
%TO.N,DCDC_CTRL*%
X117525000Y-74460000D03*
%TO.P,U3,6*%
%TO.N,+12V*%
X117525000Y-82080000D03*
%TO.P,U3,7*%
%TO.N,GND*%
X117525000Y-84620000D03*
%TO.P,U3,8*%
%TO.N,N/C*%
X117525000Y-87160000D03*
D29*
%TO.P,U3,9*%
X111725000Y-72980000D03*
%TO.P,U3,10*%
X121125000Y-83580000D03*
%TD*%
D30*
%TO.P,U1,1*%
%TO.N,OPTO_A*%
X173780000Y-114645000D03*
D31*
%TO.P,U1,2*%
%TO.N,FIRE_B*%
X173780000Y-117185000D03*
%TO.P,U1,3*%
%TO.N,GND*%
X181400000Y-117185000D03*
%TO.P,U1,4*%
%TO.N,FIRE_SENSE*%
X181400000Y-114645000D03*
%TD*%
D17*
%TO.P,J5,1*%
%TO.N,TAMPER*%
X96655000Y-109745000D03*
D11*
%TO.P,J5,2*%
%TO.N,GND*%
X96655000Y-114825000D03*
%TD*%
D32*
%TO.N,+5V*%
X166797200Y-59669100D03*
%TO.N,K2_C*%
X192641300Y-95214500D03*
%TO.N,ACL*%
X171162400Y-116386500D03*
%TO.N,K1_C*%
X176671900Y-110931400D03*
X170079500Y-89411200D03*
%TO.N,+3V3*%
X153214700Y-97270000D03*
X193870000Y-108340000D03*
%TO.N,GND*%
X170424600Y-92026200D03*
%TO.N,ACIN1*%
X184453800Y-88659200D03*
%TO.N,RLY2_B*%
X194740000Y-98236200D03*
%TO.N,DOOR*%
X123537800Y-74973800D03*
%TO.N,+12V*%
X165968400Y-107217300D03*
X132481000Y-109764400D03*
%TO.N,FIRE_SENSE*%
X155985800Y-65914000D03*
%TO.N,RLY1*%
X206408900Y-107408900D03*
X208523800Y-62089500D03*
%TO.N,I2C_SDA*%
X155346800Y-94152900D03*
%TO.N,I2C_SCL*%
X155135000Y-95178300D03*
%TO.N,RTC_VBAT*%
X152072500Y-98398200D03*
X152072500Y-86351100D03*
%TO.N,VBAT*%
X139740800Y-132855000D03*
%TO.N,GND_BAT*%
X141946800Y-132855000D03*
%TO.N,OPTO_A*%
X190320000Y-91566700D03*
%TD*%
%TO.N,+5V*%
D33*
X167035000Y-100780000D02*
X167035000Y-99228300D01*
X166797200Y-98990500D02*
X166797200Y-59669100D01*
X173950000Y-58905000D02*
X175033500Y-57821500D01*
X167035000Y-99228300D02*
X166797200Y-98990500D01*
X175033500Y-57821500D02*
X175033500Y-38488500D01*
X175033500Y-38488500D02*
X173450000Y-36905000D01*
%TO.N,K2_C*%
X196010000Y-98583200D02*
X192641300Y-95214500D01*
X196010000Y-115855000D02*
X196010000Y-98583200D01*
%TO.N,ACL*%
X178920000Y-82355000D02*
X178920000Y-109590200D01*
X178920000Y-109590200D02*
X176977100Y-111533100D01*
X171162400Y-115288800D02*
X171162400Y-116386500D01*
X176977100Y-111533100D02*
X174918100Y-111533100D01*
X174918100Y-111533100D02*
X171162400Y-115288800D01*
%TO.N,ACN*%
X121020000Y-109855000D02*
X108000000Y-122875000D01*
X108000000Y-122875000D02*
X108000000Y-144355000D01*
%TO.N,K1_C*%
X173450000Y-48905000D02*
X170079500Y-52275500D01*
X176671900Y-110931400D02*
X176671900Y-96003600D01*
X170079500Y-52275500D02*
X170079500Y-89411200D01*
X176671900Y-96003600D02*
X170079500Y-89411200D01*
%TO.N,LK1_NO*%
X205565000Y-43010000D02*
X191545000Y-43010000D01*
X191545000Y-43010000D02*
X185650000Y-48905000D01*
%TO.N,+3V3*%
X153565000Y-97094900D02*
X153389900Y-97270000D01*
X153565000Y-58560000D02*
X153565000Y-97094900D01*
X183174300Y-115773300D02*
X179821200Y-115773300D01*
X176830600Y-118763900D02*
X172084900Y-118763900D01*
X153389900Y-97270000D02*
X153214700Y-97270000D01*
X153389900Y-100068900D02*
X153389900Y-97270000D01*
X190607600Y-108340000D02*
X183174300Y-115773300D01*
X179821200Y-115773300D02*
X176830600Y-118763900D01*
X172084900Y-118763900D02*
X153389900Y-100068900D01*
X193870000Y-108340000D02*
X190607600Y-108340000D01*
%TO.N,GND*%
X95039800Y-113209800D02*
X95039800Y-99440200D01*
X165546700Y-101291800D02*
X165546700Y-100780000D01*
X170424600Y-99384500D02*
X167466100Y-102343000D01*
X193470000Y-115855000D02*
X192643300Y-115855000D01*
X170424600Y-92026200D02*
X170424600Y-99384500D01*
X128165000Y-35700000D02*
X128165000Y-58560000D01*
X98293100Y-96186900D02*
X98293100Y-82038100D01*
X96655000Y-114825000D02*
X95039800Y-113209800D01*
X166597900Y-102343000D02*
X165546700Y-101291800D01*
X98293100Y-82038100D02*
X97080000Y-80825000D01*
X185960000Y-115855000D02*
X185960000Y-116906700D01*
X167466100Y-102343000D02*
X166597900Y-102343000D01*
X191591600Y-116906700D02*
X185960000Y-116906700D01*
X95039800Y-99440200D02*
X96655000Y-97825000D01*
X96655000Y-97825000D02*
X98293100Y-96186900D01*
X164495000Y-100780000D02*
X165546700Y-100780000D01*
X192643300Y-115855000D02*
X191591600Y-116906700D01*
%TO.N,ACIN1*%
X188000000Y-85113000D02*
X188000000Y-82355000D01*
X184453800Y-88659200D02*
X188000000Y-85113000D01*
%TO.N,EXIT*%
X135785000Y-35700000D02*
X134707400Y-34622400D01*
X126895000Y-35431700D02*
X126895000Y-45930000D01*
X127704300Y-34622400D02*
X126895000Y-35431700D01*
X134707400Y-34622400D02*
X127704300Y-34622400D01*
X126895000Y-45930000D02*
X97080000Y-75745000D01*
%TO.N,RLY2_B*%
X194740000Y-115855000D02*
X194740000Y-98236200D01*
%TO.N,FIRE_A*%
X195000000Y-49395000D02*
X195000000Y-64991300D01*
X208109400Y-82325600D02*
X206500000Y-83935000D01*
X195000000Y-64991300D02*
X208109400Y-78100700D01*
X208109400Y-78100700D02*
X208109400Y-82325600D01*
%TO.N,FIRE_B*%
X179898100Y-111066900D02*
X173780000Y-117185000D01*
X206500000Y-78855000D02*
X179898100Y-105456900D01*
X179898100Y-105456900D02*
X179898100Y-111066900D01*
%TO.N,DOOR*%
X135785000Y-58560000D02*
X123537800Y-70807200D01*
X123537800Y-70807200D02*
X123537800Y-74973800D01*
%TO.N,RAWP*%
X110860000Y-78585000D02*
X117525000Y-71920000D01*
X110860000Y-109855000D02*
X110860000Y-78585000D01*
%TO.N,PGND*%
X126100000Y-78388400D02*
X126100000Y-109855000D01*
X117525000Y-69813400D02*
X126100000Y-78388400D01*
X117525000Y-69380000D02*
X117525000Y-69813400D01*
%TO.N,+12V*%
X130631500Y-111613900D02*
X132481000Y-109764400D01*
X125405300Y-111613900D02*
X130631500Y-111613900D01*
X161955000Y-103203900D02*
X165968400Y-107217300D01*
X117525000Y-82080000D02*
X118776700Y-83331700D01*
X161955000Y-100780000D02*
X161955000Y-103203900D01*
X118776700Y-83331700D02*
X118776700Y-104985300D01*
X118776700Y-104985300D02*
X125405300Y-111613900D01*
%TO.N,TAMPER*%
X115893000Y-72055900D02*
X106694100Y-81254800D01*
X115893000Y-68785200D02*
X115893000Y-72055900D01*
X130705000Y-58560000D02*
X121599900Y-67665100D01*
X106694100Y-81254800D02*
X106694100Y-99706000D01*
X117013100Y-67665100D02*
X115893000Y-68785200D01*
X106694000Y-99706000D02*
X96655000Y-109745000D01*
X106694100Y-99706000D02*
X106694000Y-99706000D01*
X121599900Y-67665100D02*
X117013100Y-67665100D01*
%TO.N,FIRE_SENSE*%
X179940000Y-114645000D02*
X176273500Y-118311500D01*
X181400000Y-114645000D02*
X179940000Y-114645000D01*
X172236600Y-118311500D02*
X155985800Y-102060700D01*
X155985800Y-102060700D02*
X155985800Y-65914000D01*
X176273500Y-118311500D02*
X172236600Y-118311500D01*
%TO.N,RLY1*%
X208523800Y-105294000D02*
X208523800Y-62089500D01*
X206408900Y-107408900D02*
X208523800Y-105294000D01*
%TO.N,I2C_SDA*%
X155346800Y-42561800D02*
X155346800Y-94152900D01*
X148485000Y-35700000D02*
X155346800Y-42561800D01*
%TO.N,I2C_SCL*%
X154743400Y-44498400D02*
X145945000Y-35700000D01*
X155135000Y-95178300D02*
X154743400Y-94786700D01*
X154743400Y-94786700D02*
X154743400Y-44498400D01*
%TO.N,RTC_VBAT*%
X152072500Y-98398200D02*
X152072500Y-86351100D01*
%TO.N,VBAT*%
X139740800Y-49166800D02*
X139740800Y-132855000D01*
X140625900Y-48281700D02*
X139740800Y-49166800D01*
X140913800Y-47130000D02*
X140913800Y-48281700D01*
X140913800Y-48281700D02*
X140625900Y-48281700D01*
%TO.N,GND_BAT*%
X141946800Y-132855000D02*
X141946800Y-50703000D01*
X141946800Y-50703000D02*
X140913800Y-49670000D01*
%TO.N,OPTO_A*%
X174433300Y-114645000D02*
X179334500Y-109743800D01*
X173780000Y-114645000D02*
X174433300Y-114645000D01*
X179334500Y-102552200D02*
X190320000Y-91566700D01*
X179334500Y-109743800D02*
X179334500Y-102552200D01*
%TD*%
%TA.AperFunction,Conductor*%
%TO.N,GND*%
G36*
X227242539Y-25920185D02*
G01*
X227288294Y-25972989D01*
X227299500Y-26024500D01*
X227299500Y-152275500D01*
X227279815Y-152342539D01*
X227227011Y-152388294D01*
X227175500Y-152399500D01*
X80124500Y-152399500D01*
X80057461Y-152379815D01*
X80011706Y-152327011D01*
X80000500Y-152275500D01*
X80000500Y-146733711D01*
X86149500Y-146733711D01*
X86149500Y-146976288D01*
X86181161Y-147216785D01*
X86243947Y-147451104D01*
X86296400Y-147577736D01*
X86336776Y-147675212D01*
X86458064Y-147885289D01*
X86458066Y-147885292D01*
X86458067Y-147885293D01*
X86605733Y-148077736D01*
X86605739Y-148077743D01*
X86777256Y-148249260D01*
X86777262Y-148249265D01*
X86969711Y-148396936D01*
X87179788Y-148518224D01*
X87403900Y-148611054D01*
X87638211Y-148673838D01*
X87818586Y-148697584D01*
X87878711Y-148705500D01*
X87878712Y-148705500D01*
X88121289Y-148705500D01*
X88169388Y-148699167D01*
X88361789Y-148673838D01*
X88596100Y-148611054D01*
X88820212Y-148518224D01*
X89030289Y-148396936D01*
X89222738Y-148249265D01*
X89394265Y-148077738D01*
X89541936Y-147885289D01*
X89663224Y-147675212D01*
X89756054Y-147451100D01*
X89818838Y-147216789D01*
X89850500Y-146976288D01*
X89850500Y-146733712D01*
X89818838Y-146493211D01*
X89756054Y-146258900D01*
X89745620Y-146233711D01*
X216649500Y-146233711D01*
X216649500Y-146476288D01*
X216681161Y-146716785D01*
X216743947Y-146951104D01*
X216754379Y-146976288D01*
X216836776Y-147175212D01*
X216958064Y-147385289D01*
X216958066Y-147385292D01*
X216958067Y-147385293D01*
X217105733Y-147577736D01*
X217105739Y-147577743D01*
X217277256Y-147749260D01*
X217277262Y-147749265D01*
X217469711Y-147896936D01*
X217679788Y-148018224D01*
X217903900Y-148111054D01*
X218138211Y-148173838D01*
X218318586Y-148197584D01*
X218378711Y-148205500D01*
X218378712Y-148205500D01*
X218621289Y-148205500D01*
X218669388Y-148199167D01*
X218861789Y-148173838D01*
X219096100Y-148111054D01*
X219320212Y-148018224D01*
X219530289Y-147896936D01*
X219722738Y-147749265D01*
X219894265Y-147577738D01*
X220041936Y-147385289D01*
X220163224Y-147175212D01*
X220256054Y-146951100D01*
X220318838Y-146716789D01*
X220350500Y-146476288D01*
X220350500Y-146233712D01*
X220318838Y-145993211D01*
X220256054Y-145758900D01*
X220163224Y-145534788D01*
X220041936Y-145324711D01*
X219910221Y-145153056D01*
X219894266Y-145132263D01*
X219894260Y-145132256D01*
X219722743Y-144960739D01*
X219722736Y-144960733D01*
X219530293Y-144813067D01*
X219530292Y-144813066D01*
X219530289Y-144813064D01*
X219320212Y-144691776D01*
X219320205Y-144691773D01*
X219096104Y-144598947D01*
X218861785Y-144536161D01*
X218621289Y-144504500D01*
X218621288Y-144504500D01*
X218378712Y-144504500D01*
X218378711Y-144504500D01*
X218138214Y-144536161D01*
X217903895Y-144598947D01*
X217679794Y-144691773D01*
X217679785Y-144691777D01*
X217469706Y-144813067D01*
X217277263Y-144960733D01*
X217277256Y-144960739D01*
X217105739Y-145132256D01*
X217105733Y-145132263D01*
X216958067Y-145324706D01*
X216836777Y-145534785D01*
X216836773Y-145534794D01*
X216743947Y-145758895D01*
X216681161Y-145993214D01*
X216649500Y-146233711D01*
X89745620Y-146233711D01*
X89663224Y-146034788D01*
X89541936Y-145824711D01*
X89394265Y-145632262D01*
X89394260Y-145632256D01*
X89222743Y-145460739D01*
X89222736Y-145460733D01*
X89030293Y-145313067D01*
X89030292Y-145313066D01*
X89030289Y-145313064D01*
X88820212Y-145191776D01*
X88820205Y-145191773D01*
X88596104Y-145098947D01*
X88361785Y-145036161D01*
X88121289Y-145004500D01*
X88121288Y-145004500D01*
X87878712Y-145004500D01*
X87878711Y-145004500D01*
X87638214Y-145036161D01*
X87403895Y-145098947D01*
X87179794Y-145191773D01*
X87179785Y-145191777D01*
X86969706Y-145313067D01*
X86777263Y-145460733D01*
X86777256Y-145460739D01*
X86605739Y-145632256D01*
X86605733Y-145632263D01*
X86458067Y-145824706D01*
X86336777Y-146034785D01*
X86336773Y-146034794D01*
X86243947Y-146258895D01*
X86181161Y-146493214D01*
X86149500Y-146733711D01*
X80000500Y-146733711D01*
X80000500Y-143254983D01*
X101119500Y-143254983D01*
X101119500Y-145455001D01*
X101119501Y-145455018D01*
X101130000Y-145557796D01*
X101130001Y-145557799D01*
X101180962Y-145711587D01*
X101185186Y-145724334D01*
X101277288Y-145873656D01*
X101401344Y-145997712D01*
X101550666Y-146089814D01*
X101717203Y-146144999D01*
X101819991Y-146155500D01*
X104020008Y-146155499D01*
X104122797Y-146144999D01*
X104289334Y-146089814D01*
X104438656Y-145997712D01*
X104562712Y-145873656D01*
X104654814Y-145724334D01*
X104709999Y-145557797D01*
X104720500Y-145455009D01*
X104720499Y-143254992D01*
X104709999Y-143152203D01*
X104654814Y-142985666D01*
X104562712Y-142836344D01*
X104438656Y-142712288D01*
X104306176Y-142630574D01*
X104289336Y-142620187D01*
X104289331Y-142620185D01*
X104287862Y-142619698D01*
X104122797Y-142565001D01*
X104122795Y-142565000D01*
X104020010Y-142554500D01*
X101819998Y-142554500D01*
X101819981Y-142554501D01*
X101717203Y-142565000D01*
X101717200Y-142565001D01*
X101550668Y-142620185D01*
X101550663Y-142620187D01*
X101401342Y-142712289D01*
X101277289Y-142836342D01*
X101185187Y-142985663D01*
X101185185Y-142985668D01*
X101180962Y-142998412D01*
X101130001Y-143152203D01*
X101130001Y-143152204D01*
X101130000Y-143152204D01*
X101119500Y-143254983D01*
X80000500Y-143254983D01*
X80000500Y-108644983D01*
X94854500Y-108644983D01*
X94854500Y-110845001D01*
X94854501Y-110845018D01*
X94865000Y-110947796D01*
X94865001Y-110947799D01*
X94899723Y-111052581D01*
X94920186Y-111114334D01*
X95012288Y-111263656D01*
X95136344Y-111387712D01*
X95285666Y-111479814D01*
X95452203Y-111534999D01*
X95554991Y-111545500D01*
X97755008Y-111545499D01*
X97857797Y-111534999D01*
X98024334Y-111479814D01*
X98173656Y-111387712D01*
X98297712Y-111263656D01*
X98389814Y-111114334D01*
X98444999Y-110947797D01*
X98455500Y-110845009D01*
X98455499Y-108845095D01*
X98475184Y-108778057D01*
X98491813Y-108757420D01*
X107056575Y-100192658D01*
X107057387Y-100191948D01*
X107062813Y-100186521D01*
X107062816Y-100186520D01*
X107174620Y-100074716D01*
X107253677Y-99937784D01*
X107294600Y-99785057D01*
X107294600Y-81554897D01*
X107314285Y-81487858D01*
X107330919Y-81467216D01*
X110047819Y-78750316D01*
X110109142Y-78716831D01*
X110178834Y-78721815D01*
X110234767Y-78763687D01*
X110259184Y-78829151D01*
X110259500Y-78837997D01*
X110259500Y-107830500D01*
X110239815Y-107897539D01*
X110187011Y-107943294D01*
X110135500Y-107954500D01*
X109412129Y-107954500D01*
X109412123Y-107954501D01*
X109352516Y-107960908D01*
X109217671Y-108011202D01*
X109217664Y-108011206D01*
X109102455Y-108097452D01*
X109102452Y-108097455D01*
X109016206Y-108212664D01*
X109016202Y-108212671D01*
X108965908Y-108347517D01*
X108962882Y-108375668D01*
X108959501Y-108407123D01*
X108959500Y-108407135D01*
X108959500Y-111302870D01*
X108959501Y-111302876D01*
X108965908Y-111362483D01*
X109016202Y-111497328D01*
X109016206Y-111497335D01*
X109102452Y-111612544D01*
X109102455Y-111612547D01*
X109217664Y-111698793D01*
X109217671Y-111698797D01*
X109352517Y-111749091D01*
X109352516Y-111749091D01*
X109359444Y-111749835D01*
X109412127Y-111755500D01*
X112307872Y-111755499D01*
X112367483Y-111749091D01*
X112502331Y-111698796D01*
X112617546Y-111612546D01*
X112703796Y-111497331D01*
X112754091Y-111362483D01*
X112760500Y-111302873D01*
X112760499Y-109730441D01*
X114039500Y-109730441D01*
X114039500Y-109979558D01*
X114039501Y-109979575D01*
X114072017Y-110226561D01*
X114136498Y-110467207D01*
X114231830Y-110697361D01*
X114231837Y-110697376D01*
X114356400Y-110913126D01*
X114508060Y-111110774D01*
X114508066Y-111110781D01*
X114684218Y-111286933D01*
X114684225Y-111286939D01*
X114881873Y-111438599D01*
X115097623Y-111563162D01*
X115097638Y-111563169D01*
X115158552Y-111588400D01*
X115327793Y-111658502D01*
X115568435Y-111722982D01*
X115815435Y-111755500D01*
X115815442Y-111755500D01*
X116064558Y-111755500D01*
X116064565Y-111755500D01*
X116311565Y-111722982D01*
X116552207Y-111658502D01*
X116782373Y-111563164D01*
X116998127Y-111438599D01*
X117195776Y-111286938D01*
X117371938Y-111110776D01*
X117523599Y-110913127D01*
X117648164Y-110697373D01*
X117743502Y-110467207D01*
X117807982Y-110226565D01*
X117840500Y-109979565D01*
X117840500Y-109730435D01*
X117807982Y-109483435D01*
X117743502Y-109242793D01*
X117665718Y-109055006D01*
X117648169Y-109012638D01*
X117648162Y-109012623D01*
X117523599Y-108796873D01*
X117371939Y-108599225D01*
X117371933Y-108599218D01*
X117195781Y-108423066D01*
X117195774Y-108423060D01*
X116998126Y-108271400D01*
X116782376Y-108146837D01*
X116782361Y-108146830D01*
X116552207Y-108051498D01*
X116426441Y-108017799D01*
X116311565Y-107987018D01*
X116311564Y-107987017D01*
X116311561Y-107987017D01*
X116064575Y-107954501D01*
X116064570Y-107954500D01*
X116064565Y-107954500D01*
X115815435Y-107954500D01*
X115815429Y-107954500D01*
X115815424Y-107954501D01*
X115568438Y-107987017D01*
X115327792Y-108051498D01*
X115097638Y-108146830D01*
X115097623Y-108146837D01*
X114881873Y-108271400D01*
X114684225Y-108423060D01*
X114684218Y-108423066D01*
X114508066Y-108599218D01*
X114508060Y-108599225D01*
X114356400Y-108796873D01*
X114231837Y-109012623D01*
X114231830Y-109012638D01*
X114136498Y-109242792D01*
X114072017Y-109483438D01*
X114039501Y-109730424D01*
X114039500Y-109730441D01*
X112760499Y-109730441D01*
X112760499Y-108407128D01*
X112754091Y-108347517D01*
X112725701Y-108271400D01*
X112703797Y-108212671D01*
X112703793Y-108212664D01*
X112617547Y-108097455D01*
X112617544Y-108097452D01*
X112502335Y-108011206D01*
X112502328Y-108011202D01*
X112367482Y-107960908D01*
X112367483Y-107960908D01*
X112307883Y-107954501D01*
X112307881Y-107954500D01*
X112307873Y-107954500D01*
X112307865Y-107954500D01*
X111584500Y-107954500D01*
X111517461Y-107934815D01*
X111471706Y-107882011D01*
X111460500Y-107830500D01*
X111460500Y-78885096D01*
X111480185Y-78818057D01*
X111496814Y-78797420D01*
X115862819Y-74431414D01*
X115924142Y-74397930D01*
X115993834Y-74402914D01*
X116049767Y-74444786D01*
X116074184Y-74510250D01*
X116074500Y-74519096D01*
X116074500Y-74574162D01*
X116110215Y-74799660D01*
X116180770Y-75016803D01*
X116277828Y-75207289D01*
X116284421Y-75220228D01*
X116418621Y-75404937D01*
X116580063Y-75566379D01*
X116764772Y-75700579D01*
X116860884Y-75749550D01*
X116968196Y-75804229D01*
X116968198Y-75804229D01*
X116968201Y-75804231D01*
X117084592Y-75842049D01*
X117185339Y-75874784D01*
X117410838Y-75910500D01*
X117410843Y-75910500D01*
X117639162Y-75910500D01*
X117864660Y-75874784D01*
X118081799Y-75804231D01*
X118285228Y-75700579D01*
X118469937Y-75566379D01*
X118631379Y-75404937D01*
X118765579Y-75220228D01*
X118869231Y-75016799D01*
X118939784Y-74799660D01*
X118949858Y-74736054D01*
X118975500Y-74574162D01*
X118975500Y-74345837D01*
X118939784Y-74120339D01*
X118886062Y-73955001D01*
X118869231Y-73903201D01*
X118869229Y-73903198D01*
X118869229Y-73903196D01*
X118765578Y-73699771D01*
X118675725Y-73576100D01*
X118631379Y-73515063D01*
X118469937Y-73353621D01*
X118382807Y-73290317D01*
X118340143Y-73234988D01*
X118334164Y-73165374D01*
X118366770Y-73103579D01*
X118382804Y-73089684D01*
X118469937Y-73026379D01*
X118631379Y-72864937D01*
X118765579Y-72680228D01*
X118869231Y-72476799D01*
X118921947Y-72314555D01*
X118961385Y-72256881D01*
X119025744Y-72229683D01*
X119094590Y-72241598D01*
X119127559Y-72265194D01*
X125463181Y-78600816D01*
X125496666Y-78662139D01*
X125499500Y-78688497D01*
X125499500Y-107963794D01*
X125479815Y-108030833D01*
X125427011Y-108076588D01*
X125422953Y-108078355D01*
X125257633Y-108146832D01*
X125257623Y-108146837D01*
X125041873Y-108271400D01*
X124844225Y-108423060D01*
X124844218Y-108423066D01*
X124668066Y-108599218D01*
X124668060Y-108599225D01*
X124516400Y-108796873D01*
X124391837Y-109012623D01*
X124391830Y-109012638D01*
X124296499Y-109242790D01*
X124296498Y-109242793D01*
X124293465Y-109254111D01*
X124264793Y-109361116D01*
X124228427Y-109420776D01*
X124165580Y-109451304D01*
X124096204Y-109443009D01*
X124057337Y-109416702D01*
X119413519Y-104772884D01*
X119380034Y-104711561D01*
X119377200Y-104685203D01*
X119377200Y-84707294D01*
X119396885Y-84640255D01*
X119449689Y-84594500D01*
X119518847Y-84584556D01*
X119582403Y-84613581D01*
X119599576Y-84631808D01*
X119730733Y-84802736D01*
X119730739Y-84802743D01*
X119902256Y-84974260D01*
X119902262Y-84974265D01*
X120094711Y-85121936D01*
X120304788Y-85243224D01*
X120528900Y-85336054D01*
X120763211Y-85398838D01*
X120943586Y-85422584D01*
X121003711Y-85430500D01*
X121003712Y-85430500D01*
X121246289Y-85430500D01*
X121294388Y-85424167D01*
X121486789Y-85398838D01*
X121721100Y-85336054D01*
X121945212Y-85243224D01*
X122155289Y-85121936D01*
X122347738Y-84974265D01*
X122519265Y-84802738D01*
X122666936Y-84610289D01*
X122788224Y-84400212D01*
X122881054Y-84176100D01*
X122943838Y-83941789D01*
X122975500Y-83701288D01*
X122975500Y-83458712D01*
X122943838Y-83218211D01*
X122881054Y-82983900D01*
X122788224Y-82759788D01*
X122666936Y-82549711D01*
X122519265Y-82357262D01*
X122519260Y-82357256D01*
X122347743Y-82185739D01*
X122347736Y-82185733D01*
X122155293Y-82038067D01*
X122155292Y-82038066D01*
X122155289Y-82038064D01*
X121945212Y-81916776D01*
X121945205Y-81916773D01*
X121721104Y-81823947D01*
X121486785Y-81761161D01*
X121246289Y-81729500D01*
X121246288Y-81729500D01*
X121003712Y-81729500D01*
X121003711Y-81729500D01*
X120763214Y-81761161D01*
X120528895Y-81823947D01*
X120304794Y-81916773D01*
X120304785Y-81916777D01*
X120094706Y-82038067D01*
X119902263Y-82185733D01*
X119902256Y-82185739D01*
X119730739Y-82357256D01*
X119730733Y-82357263D01*
X119583067Y-82549706D01*
X119461777Y-82759785D01*
X119461772Y-82759794D01*
X119413366Y-82876659D01*
X119392777Y-82902207D01*
X119373117Y-82928472D01*
X119370965Y-82929274D01*
X119369525Y-82931062D01*
X119338397Y-82941422D01*
X119307653Y-82952890D01*
X119305409Y-82952401D01*
X119303231Y-82953127D01*
X119271434Y-82945011D01*
X119239380Y-82938039D01*
X119236930Y-82936205D01*
X119235531Y-82935848D01*
X119211125Y-82916888D01*
X119167328Y-82873092D01*
X119145416Y-82851180D01*
X119145413Y-82851178D01*
X118938118Y-82643883D01*
X118904633Y-82582560D01*
X118907867Y-82517886D01*
X118939784Y-82419660D01*
X118959265Y-82296658D01*
X118975500Y-82194162D01*
X118975500Y-81965837D01*
X118939784Y-81740339D01*
X118895364Y-81603631D01*
X118869231Y-81523201D01*
X118869229Y-81523198D01*
X118869229Y-81523196D01*
X118795761Y-81379008D01*
X118765579Y-81319772D01*
X118631379Y-81135063D01*
X118469937Y-80973621D01*
X118285228Y-80839421D01*
X118228434Y-80810483D01*
X118081803Y-80735770D01*
X117864660Y-80665215D01*
X117639162Y-80629500D01*
X117639157Y-80629500D01*
X117410843Y-80629500D01*
X117410838Y-80629500D01*
X117185339Y-80665215D01*
X116968196Y-80735770D01*
X116764771Y-80839421D01*
X116580061Y-80973622D01*
X116418622Y-81135061D01*
X116284421Y-81319771D01*
X116180770Y-81523196D01*
X116110215Y-81740339D01*
X116074500Y-81965837D01*
X116074500Y-82194162D01*
X116110215Y-82419660D01*
X116180770Y-82636803D01*
X116243438Y-82759794D01*
X116284421Y-82840228D01*
X116418621Y-83024937D01*
X116580063Y-83186379D01*
X116764772Y-83320579D01*
X116785209Y-83330992D01*
X116968196Y-83424229D01*
X116968198Y-83424229D01*
X116968201Y-83424231D01*
X117069407Y-83457115D01*
X117185339Y-83494784D01*
X117410838Y-83530500D01*
X117410843Y-83530500D01*
X117639162Y-83530500D01*
X117741658Y-83514265D01*
X117864660Y-83494784D01*
X117962886Y-83462867D01*
X117978096Y-83462433D01*
X117992356Y-83457115D01*
X118012311Y-83461456D01*
X118032724Y-83460873D01*
X118046810Y-83468960D01*
X118060629Y-83471967D01*
X118088883Y-83493118D01*
X118139881Y-83544116D01*
X118173366Y-83605439D01*
X118176200Y-83631797D01*
X118176200Y-85675769D01*
X118156515Y-85742808D01*
X118103711Y-85788563D01*
X118034553Y-85798507D01*
X118013882Y-85793700D01*
X117864663Y-85745216D01*
X117639162Y-85709500D01*
X117639157Y-85709500D01*
X117410843Y-85709500D01*
X117410838Y-85709500D01*
X117185339Y-85745215D01*
X116968196Y-85815770D01*
X116764771Y-85919421D01*
X116580061Y-86053622D01*
X116418622Y-86215061D01*
X116284421Y-86399771D01*
X116180770Y-86603196D01*
X116110215Y-86820339D01*
X116074500Y-87045837D01*
X116074500Y-87274162D01*
X116110215Y-87499660D01*
X116180770Y-87716803D01*
X116252770Y-87858110D01*
X116284421Y-87920228D01*
X116418621Y-88104937D01*
X116580063Y-88266379D01*
X116764772Y-88400579D01*
X116860884Y-88449550D01*
X116968196Y-88504229D01*
X116968198Y-88504229D01*
X116968201Y-88504231D01*
X117036116Y-88526298D01*
X117185339Y-88574784D01*
X117410838Y-88610500D01*
X117410843Y-88610500D01*
X117639162Y-88610500D01*
X117864660Y-88574784D01*
X118013884Y-88526297D01*
X118083722Y-88524303D01*
X118143555Y-88560383D01*
X118174384Y-88623083D01*
X118176200Y-88644229D01*
X118176200Y-104898630D01*
X118176199Y-104898648D01*
X118176199Y-105064354D01*
X118176198Y-105064354D01*
X118176199Y-105064357D01*
X118217123Y-105217085D01*
X118221755Y-105225107D01*
X118221757Y-105225117D01*
X118221760Y-105225116D01*
X118296177Y-105354012D01*
X118296181Y-105354017D01*
X118415049Y-105472885D01*
X118415055Y-105472890D01*
X120718722Y-107776557D01*
X120752207Y-107837880D01*
X120747223Y-107907572D01*
X120705351Y-107963505D01*
X120652203Y-107985153D01*
X120652417Y-107986226D01*
X120648442Y-107987016D01*
X120407792Y-108051498D01*
X120177638Y-108146830D01*
X120177623Y-108146837D01*
X119961873Y-108271400D01*
X119764225Y-108423060D01*
X119764218Y-108423066D01*
X119588066Y-108599218D01*
X119588060Y-108599225D01*
X119436400Y-108796873D01*
X119311837Y-109012623D01*
X119311830Y-109012638D01*
X119216498Y-109242792D01*
X119152017Y-109483438D01*
X119119501Y-109730424D01*
X119119500Y-109730441D01*
X119119500Y-109979558D01*
X119119501Y-109979575D01*
X119152017Y-110226561D01*
X119216498Y-110467207D01*
X119284977Y-110632532D01*
X119292446Y-110702001D01*
X119261170Y-110764480D01*
X119258097Y-110767665D01*
X107631286Y-122394478D01*
X107519481Y-122506282D01*
X107519479Y-122506285D01*
X107469361Y-122593094D01*
X107469359Y-122593096D01*
X107440425Y-122643209D01*
X107440424Y-122643210D01*
X107440423Y-122643215D01*
X107399499Y-122795943D01*
X107399499Y-122795945D01*
X107399499Y-122964046D01*
X107399500Y-122964059D01*
X107399500Y-142572033D01*
X107379815Y-142639072D01*
X107327011Y-142684827D01*
X107322954Y-142686594D01*
X107201950Y-142736716D01*
X107201943Y-142736719D01*
X106997545Y-142854730D01*
X106810302Y-142998406D01*
X106810295Y-142998412D01*
X106643412Y-143165295D01*
X106643406Y-143165302D01*
X106499730Y-143352545D01*
X106381719Y-143556943D01*
X106381714Y-143556954D01*
X106291394Y-143775006D01*
X106230306Y-144002989D01*
X106199501Y-144236979D01*
X106199500Y-144236995D01*
X106199500Y-144473004D01*
X106199501Y-144473020D01*
X106230306Y-144707010D01*
X106291394Y-144934993D01*
X106381714Y-145153045D01*
X106381719Y-145153056D01*
X106452677Y-145275957D01*
X106499727Y-145357450D01*
X106499729Y-145357453D01*
X106499730Y-145357454D01*
X106643406Y-145544697D01*
X106643412Y-145544704D01*
X106810295Y-145711587D01*
X106810302Y-145711593D01*
X106871954Y-145758900D01*
X106997550Y-145855273D01*
X107128918Y-145931118D01*
X107201943Y-145973280D01*
X107201948Y-145973282D01*
X107201951Y-145973284D01*
X107420007Y-146063606D01*
X107647986Y-146124693D01*
X107881989Y-146155500D01*
X107881996Y-146155500D01*
X108118004Y-146155500D01*
X108118011Y-146155500D01*
X108352014Y-146124693D01*
X108579993Y-146063606D01*
X108798049Y-145973284D01*
X109002450Y-145855273D01*
X109189699Y-145711592D01*
X109356592Y-145544699D01*
X109500273Y-145357450D01*
X109618284Y-145153049D01*
X109708606Y-144934993D01*
X109769693Y-144707014D01*
X109800500Y-144473011D01*
X109800500Y-144236989D01*
X109769693Y-144002986D01*
X109708606Y-143775007D01*
X109618284Y-143556951D01*
X109618282Y-143556948D01*
X109618280Y-143556943D01*
X109576118Y-143483918D01*
X109500273Y-143352550D01*
X109356592Y-143165301D01*
X109356587Y-143165295D01*
X109189704Y-142998412D01*
X109189697Y-142998406D01*
X109002454Y-142854730D01*
X109002453Y-142854729D01*
X109002450Y-142854727D01*
X108920957Y-142807677D01*
X108798056Y-142736719D01*
X108798049Y-142736716D01*
X108677046Y-142686594D01*
X108622643Y-142642752D01*
X108600579Y-142576458D01*
X108600500Y-142572033D01*
X108600500Y-140725525D01*
X126784500Y-140725525D01*
X126784500Y-140984474D01*
X126784501Y-140984491D01*
X126818299Y-141241217D01*
X126818300Y-141241222D01*
X126818301Y-141241228D01*
X126818302Y-141241230D01*
X126885324Y-141491364D01*
X126984423Y-141730609D01*
X126984427Y-141730619D01*
X127113906Y-141954883D01*
X127271551Y-142160331D01*
X127271557Y-142160338D01*
X127454661Y-142343442D01*
X127454668Y-142343448D01*
X127660116Y-142501093D01*
X127884380Y-142630572D01*
X127884381Y-142630572D01*
X127884384Y-142630574D01*
X128123634Y-142729675D01*
X128373772Y-142796699D01*
X128630519Y-142830500D01*
X128630526Y-142830500D01*
X128889474Y-142830500D01*
X128889481Y-142830500D01*
X129146228Y-142796699D01*
X129396366Y-142729675D01*
X129635616Y-142630574D01*
X129859884Y-142501093D01*
X130065333Y-142343447D01*
X130248447Y-142160333D01*
X130406093Y-141954884D01*
X130535574Y-141730616D01*
X130634675Y-141491366D01*
X130701699Y-141241228D01*
X130735500Y-140984481D01*
X130735500Y-140725519D01*
X130701699Y-140468772D01*
X130634675Y-140218634D01*
X130535574Y-139979384D01*
X130406093Y-139755116D01*
X130248447Y-139549667D01*
X130248442Y-139549661D01*
X130065338Y-139366557D01*
X130065331Y-139366551D01*
X129859883Y-139208906D01*
X129635619Y-139079427D01*
X129635609Y-139079423D01*
X129396364Y-138980324D01*
X129271297Y-138946813D01*
X129146228Y-138913301D01*
X129146222Y-138913300D01*
X129146217Y-138913299D01*
X128889491Y-138879501D01*
X128889486Y-138879500D01*
X128889481Y-138879500D01*
X128630519Y-138879500D01*
X128630513Y-138879500D01*
X128630508Y-138879501D01*
X128373782Y-138913299D01*
X128373775Y-138913300D01*
X128373772Y-138913301D01*
X128320908Y-138927465D01*
X128123635Y-138980324D01*
X127884390Y-139079423D01*
X127884380Y-139079427D01*
X127660116Y-139208906D01*
X127454668Y-139366551D01*
X127454661Y-139366557D01*
X127271557Y-139549661D01*
X127271551Y-139549668D01*
X127113906Y-139755116D01*
X126984427Y-139979380D01*
X126984423Y-139979390D01*
X126885324Y-140218635D01*
X126818302Y-140468769D01*
X126818299Y-140468782D01*
X126784501Y-140725508D01*
X126784500Y-140725525D01*
X108600500Y-140725525D01*
X108600500Y-124741231D01*
X118804500Y-124741231D01*
X118804500Y-124968768D01*
X118840093Y-125193490D01*
X118910400Y-125409876D01*
X118910401Y-125409879D01*
X119013697Y-125612607D01*
X119147434Y-125796680D01*
X119308320Y-125957566D01*
X119492393Y-126091303D01*
X119591825Y-126141966D01*
X119695120Y-126194598D01*
X119695123Y-126194599D01*
X119803316Y-126229752D01*
X119911511Y-126264907D01*
X120015591Y-126281391D01*
X120136232Y-126300500D01*
X120136237Y-126300500D01*
X120363768Y-126300500D01*
X120472710Y-126283244D01*
X120588489Y-126264907D01*
X120804879Y-126194598D01*
X121007607Y-126091303D01*
X121191680Y-125957566D01*
X121352566Y-125796680D01*
X121486303Y-125612607D01*
X121589598Y-125409879D01*
X121659907Y-125193489D01*
X121678244Y-125077710D01*
X121695500Y-124968768D01*
X121695500Y-124741231D01*
X121674793Y-124610499D01*
X121659907Y-124516511D01*
X121589598Y-124300121D01*
X121589598Y-124300120D01*
X121486302Y-124097392D01*
X121352566Y-123913320D01*
X121191680Y-123752434D01*
X121007607Y-123618697D01*
X120804879Y-123515401D01*
X120804876Y-123515400D01*
X120588490Y-123445093D01*
X120363768Y-123409500D01*
X120363763Y-123409500D01*
X120136237Y-123409500D01*
X120136232Y-123409500D01*
X119911509Y-123445093D01*
X119695123Y-123515400D01*
X119695120Y-123515401D01*
X119492392Y-123618697D01*
X119387372Y-123694998D01*
X119308320Y-123752434D01*
X119308318Y-123752436D01*
X119308317Y-123752436D01*
X119147436Y-123913317D01*
X119147436Y-123913318D01*
X119147434Y-123913320D01*
X119099439Y-123979380D01*
X119013697Y-124097392D01*
X118910401Y-124300120D01*
X118910400Y-124300123D01*
X118840093Y-124516509D01*
X118804500Y-124741231D01*
X108600500Y-124741231D01*
X108600500Y-123175097D01*
X108620185Y-123108058D01*
X108636819Y-123087416D01*
X114317376Y-117406859D01*
X120107335Y-111616899D01*
X120168656Y-111583416D01*
X120238348Y-111588400D01*
X120242435Y-111590008D01*
X120407793Y-111658502D01*
X120648435Y-111722982D01*
X120895435Y-111755500D01*
X120895442Y-111755500D01*
X121144558Y-111755500D01*
X121144565Y-111755500D01*
X121391565Y-111722982D01*
X121632207Y-111658502D01*
X121862373Y-111563164D01*
X122078127Y-111438599D01*
X122275776Y-111286938D01*
X122451938Y-111110776D01*
X122603599Y-110913127D01*
X122728164Y-110697373D01*
X122823502Y-110467207D01*
X122887982Y-110226565D01*
X122887983Y-110226556D01*
X122888774Y-110222583D01*
X122890018Y-110222830D01*
X122916064Y-110163905D01*
X122974377Y-110125416D01*
X123044242Y-110124563D01*
X123098442Y-110156277D01*
X124920439Y-111978274D01*
X124920449Y-111978285D01*
X124924779Y-111982615D01*
X124924780Y-111982616D01*
X125036584Y-112094420D01*
X125104448Y-112133601D01*
X125173515Y-112173477D01*
X125326243Y-112214401D01*
X125326246Y-112214401D01*
X125491953Y-112214401D01*
X125491969Y-112214400D01*
X130544831Y-112214400D01*
X130544847Y-112214401D01*
X130552443Y-112214401D01*
X130710554Y-112214401D01*
X130710557Y-112214401D01*
X130863285Y-112173477D01*
X130932352Y-112133601D01*
X131000216Y-112094420D01*
X131112020Y-111982616D01*
X131112020Y-111982614D01*
X131122224Y-111972411D01*
X131122227Y-111972406D01*
X132495662Y-110598972D01*
X132556983Y-110565489D01*
X132559150Y-110565038D01*
X132623618Y-110552214D01*
X132714497Y-110534137D01*
X132860179Y-110473794D01*
X132991289Y-110386189D01*
X133102789Y-110274689D01*
X133190394Y-110143579D01*
X133250737Y-109997897D01*
X133281500Y-109843242D01*
X133281500Y-109685558D01*
X133281500Y-109685555D01*
X133281499Y-109685553D01*
X133250738Y-109530910D01*
X133250738Y-109530908D01*
X133250737Y-109530903D01*
X133231075Y-109483435D01*
X133190397Y-109385227D01*
X133190390Y-109385214D01*
X133102789Y-109254111D01*
X133102786Y-109254107D01*
X132991292Y-109142613D01*
X132991288Y-109142610D01*
X132860185Y-109055009D01*
X132860172Y-109055002D01*
X132714501Y-108994664D01*
X132714489Y-108994661D01*
X132559845Y-108963900D01*
X132559842Y-108963900D01*
X132402158Y-108963900D01*
X132402155Y-108963900D01*
X132247510Y-108994661D01*
X132247498Y-108994664D01*
X132101827Y-109055002D01*
X132101814Y-109055009D01*
X131970711Y-109142610D01*
X131970707Y-109142613D01*
X131859213Y-109254107D01*
X131859210Y-109254111D01*
X131771609Y-109385214D01*
X131771602Y-109385227D01*
X131711264Y-109530898D01*
X131711261Y-109530908D01*
X131680361Y-109686250D01*
X131647976Y-109748161D01*
X131646425Y-109749739D01*
X130419084Y-110977081D01*
X130357761Y-111010566D01*
X130331403Y-111013400D01*
X127840481Y-111013400D01*
X127773442Y-110993715D01*
X127727687Y-110940911D01*
X127717743Y-110871753D01*
X127733093Y-110827401D01*
X127769420Y-110764480D01*
X127808164Y-110697373D01*
X127903502Y-110467207D01*
X127967982Y-110226565D01*
X128000500Y-109979565D01*
X128000500Y-109730435D01*
X127967982Y-109483435D01*
X127903502Y-109242793D01*
X127825718Y-109055006D01*
X127808169Y-109012638D01*
X127808162Y-109012623D01*
X127683599Y-108796873D01*
X127531939Y-108599225D01*
X127531933Y-108599218D01*
X127355781Y-108423066D01*
X127355774Y-108423060D01*
X127158126Y-108271400D01*
X126942376Y-108146837D01*
X126942366Y-108146832D01*
X126777047Y-108078355D01*
X126722644Y-108034514D01*
X126700579Y-107968220D01*
X126700500Y-107963794D01*
X126700500Y-78309345D01*
X126700500Y-78309343D01*
X126659577Y-78156616D01*
X126659577Y-78156615D01*
X126629477Y-78104480D01*
X126580520Y-78019684D01*
X126468716Y-77907880D01*
X126468715Y-77907879D01*
X126464385Y-77903549D01*
X126464374Y-77903539D01*
X124185619Y-75624784D01*
X124152134Y-75563461D01*
X124157118Y-75493769D01*
X124170198Y-75468212D01*
X124247190Y-75352985D01*
X124247190Y-75352984D01*
X124247194Y-75352979D01*
X124307537Y-75207297D01*
X124338300Y-75052642D01*
X124338300Y-74894958D01*
X124338300Y-74894955D01*
X124338299Y-74894953D01*
X124324351Y-74824833D01*
X124307537Y-74740303D01*
X124268058Y-74644991D01*
X124247197Y-74594627D01*
X124247190Y-74594614D01*
X124159198Y-74462925D01*
X124138320Y-74396247D01*
X124138300Y-74394034D01*
X124138300Y-71107296D01*
X124157985Y-71040257D01*
X124174614Y-71019620D01*
X126712099Y-68482135D01*
X129174500Y-68482135D01*
X129174500Y-70277870D01*
X129174501Y-70277876D01*
X129180908Y-70337483D01*
X129231202Y-70472328D01*
X129231206Y-70472335D01*
X129317452Y-70587544D01*
X129317455Y-70587547D01*
X129432664Y-70673793D01*
X129432671Y-70673797D01*
X129564082Y-70722810D01*
X129620016Y-70764681D01*
X129644433Y-70830145D01*
X129629582Y-70898418D01*
X129608431Y-70926673D01*
X129494889Y-71040215D01*
X129369951Y-71212179D01*
X129273444Y-71401585D01*
X129207753Y-71603760D01*
X129174500Y-71813713D01*
X129174500Y-72026286D01*
X129205800Y-72223911D01*
X129207754Y-72236243D01*
X129264952Y-72412281D01*
X129273444Y-72438414D01*
X129369951Y-72627820D01*
X129494890Y-72799786D01*
X129645213Y-72950109D01*
X129817179Y-73075048D01*
X129817181Y-73075049D01*
X129817184Y-73075051D01*
X130006588Y-73171557D01*
X130208757Y-73237246D01*
X130418713Y-73270500D01*
X130418714Y-73270500D01*
X130631286Y-73270500D01*
X130631287Y-73270500D01*
X130841243Y-73237246D01*
X131043412Y-73171557D01*
X131232816Y-73075051D01*
X131299812Y-73026376D01*
X131404786Y-72950109D01*
X131404788Y-72950106D01*
X131404792Y-72950104D01*
X131555104Y-72799792D01*
X131555106Y-72799788D01*
X131555109Y-72799786D01*
X131680048Y-72627820D01*
X131680047Y-72627820D01*
X131680051Y-72627816D01*
X131776557Y-72438412D01*
X131842246Y-72236243D01*
X131875500Y-72026287D01*
X131875500Y-71813713D01*
X131842246Y-71603757D01*
X131776557Y-71401588D01*
X131680051Y-71212184D01*
X131680049Y-71212181D01*
X131680048Y-71212179D01*
X131555109Y-71040213D01*
X131441569Y-70926673D01*
X131408084Y-70865350D01*
X131413068Y-70795658D01*
X131454940Y-70739725D01*
X131485915Y-70722810D01*
X131617331Y-70673796D01*
X131732546Y-70587546D01*
X131818796Y-70472331D01*
X131869091Y-70337483D01*
X131875500Y-70277873D01*
X131875499Y-68482128D01*
X131869091Y-68422517D01*
X131866841Y-68416485D01*
X131818797Y-68287671D01*
X131818793Y-68287664D01*
X131732547Y-68172455D01*
X131732544Y-68172452D01*
X131617335Y-68086206D01*
X131617328Y-68086202D01*
X131482482Y-68035908D01*
X131482483Y-68035908D01*
X131422883Y-68029501D01*
X131422881Y-68029500D01*
X131422873Y-68029500D01*
X131422864Y-68029500D01*
X129627129Y-68029500D01*
X129627123Y-68029501D01*
X129567516Y-68035908D01*
X129432671Y-68086202D01*
X129432664Y-68086206D01*
X129317455Y-68172452D01*
X129317452Y-68172455D01*
X129231206Y-68287664D01*
X129231202Y-68287671D01*
X129180908Y-68422517D01*
X129174501Y-68482116D01*
X129174501Y-68482123D01*
X129174500Y-68482135D01*
X126712099Y-68482135D01*
X135370473Y-59823760D01*
X135431794Y-59790277D01*
X135484521Y-59790841D01*
X135484552Y-59790651D01*
X135485843Y-59790855D01*
X135487099Y-59790869D01*
X135489352Y-59791409D01*
X135489364Y-59791413D01*
X135685639Y-59822500D01*
X135685640Y-59822500D01*
X135884360Y-59822500D01*
X135884361Y-59822500D01*
X136080636Y-59791413D01*
X136269632Y-59730005D01*
X136446694Y-59639787D01*
X136607464Y-59522981D01*
X136747981Y-59382464D01*
X136864787Y-59221694D01*
X136944515Y-59065218D01*
X136992490Y-59014423D01*
X137060311Y-58997628D01*
X137126446Y-59020165D01*
X137165484Y-59065218D01*
X137245213Y-59221694D01*
X137362019Y-59382464D01*
X137502536Y-59522981D01*
X137663306Y-59639787D01*
X137716253Y-59666765D01*
X137840367Y-59730005D01*
X137840370Y-59730006D01*
X137895579Y-59747944D01*
X138029364Y-59791413D01*
X138225639Y-59822500D01*
X138225640Y-59822500D01*
X138424360Y-59822500D01*
X138424361Y-59822500D01*
X138620636Y-59791413D01*
X138809632Y-59730005D01*
X138809632Y-59730004D01*
X138809637Y-59730003D01*
X138933747Y-59666765D01*
X138960004Y-59653385D01*
X139028674Y-59640489D01*
X139093414Y-59666765D01*
X139133672Y-59723871D01*
X139140300Y-59763870D01*
X139140300Y-132275234D01*
X139120615Y-132342273D01*
X139119402Y-132344125D01*
X139031409Y-132475814D01*
X139031402Y-132475827D01*
X138971064Y-132621498D01*
X138971061Y-132621510D01*
X138940300Y-132776153D01*
X138940300Y-132933846D01*
X138971061Y-133088489D01*
X138971064Y-133088501D01*
X139031402Y-133234172D01*
X139031409Y-133234185D01*
X139119010Y-133365288D01*
X139119013Y-133365292D01*
X139230507Y-133476786D01*
X139230511Y-133476789D01*
X139361614Y-133564390D01*
X139361627Y-133564397D01*
X139507298Y-133624735D01*
X139507303Y-133624737D01*
X139661953Y-133655499D01*
X139661956Y-133655500D01*
X139661958Y-133655500D01*
X139819644Y-133655500D01*
X139819645Y-133655499D01*
X139974297Y-133624737D01*
X140119979Y-133564394D01*
X140251089Y-133476789D01*
X140362589Y-133365289D01*
X140450194Y-133234179D01*
X140510537Y-133088497D01*
X140541300Y-132933842D01*
X140541300Y-132776158D01*
X140541300Y-132776155D01*
X140541299Y-132776153D01*
X140510538Y-132621510D01*
X140510537Y-132621503D01*
X140510535Y-132621498D01*
X140450197Y-132475827D01*
X140450190Y-132475814D01*
X140362198Y-132344125D01*
X140341320Y-132277447D01*
X140341300Y-132275234D01*
X140341300Y-59887982D01*
X140360985Y-59820943D01*
X140413789Y-59775188D01*
X140482947Y-59765244D01*
X140503617Y-59770050D01*
X140569364Y-59791413D01*
X140765639Y-59822500D01*
X140765640Y-59822500D01*
X140964360Y-59822500D01*
X140964361Y-59822500D01*
X141160636Y-59791413D01*
X141183980Y-59783827D01*
X141253819Y-59781831D01*
X141313653Y-59817909D01*
X141344483Y-59880609D01*
X141346300Y-59901758D01*
X141346300Y-132275234D01*
X141326615Y-132342273D01*
X141325402Y-132344125D01*
X141237409Y-132475814D01*
X141237402Y-132475827D01*
X141177064Y-132621498D01*
X141177061Y-132621510D01*
X141146300Y-132776153D01*
X141146300Y-132933846D01*
X141177061Y-133088489D01*
X141177064Y-133088501D01*
X141237402Y-133234172D01*
X141237409Y-133234185D01*
X141325010Y-133365288D01*
X141325013Y-133365292D01*
X141436507Y-133476786D01*
X141436511Y-133476789D01*
X141567614Y-133564390D01*
X141567627Y-133564397D01*
X141713298Y-133624735D01*
X141713303Y-133624737D01*
X141867953Y-133655499D01*
X141867956Y-133655500D01*
X141867958Y-133655500D01*
X142025644Y-133655500D01*
X142025645Y-133655499D01*
X142180297Y-133624737D01*
X142325979Y-133564394D01*
X142457089Y-133476789D01*
X142568589Y-133365289D01*
X142656194Y-133234179D01*
X142716537Y-133088497D01*
X142747300Y-132933842D01*
X142747300Y-132776158D01*
X142747300Y-132776155D01*
X142747299Y-132776153D01*
X142716538Y-132621510D01*
X142716537Y-132621503D01*
X142716535Y-132621498D01*
X142656197Y-132475827D01*
X142656190Y-132475814D01*
X142568198Y-132344125D01*
X142547320Y-132277447D01*
X142547300Y-132275234D01*
X142547300Y-124725525D01*
X182024500Y-124725525D01*
X182024500Y-124984474D01*
X182024501Y-124984491D01*
X182058299Y-125241217D01*
X182058300Y-125241222D01*
X182058301Y-125241228D01*
X182058302Y-125241230D01*
X182125324Y-125491364D01*
X182224423Y-125730609D01*
X182224427Y-125730619D01*
X182353906Y-125954883D01*
X182511551Y-126160331D01*
X182511557Y-126160338D01*
X182694661Y-126343442D01*
X182694668Y-126343448D01*
X182900116Y-126501093D01*
X183124380Y-126630572D01*
X183124381Y-126630572D01*
X183124384Y-126630574D01*
X183363634Y-126729675D01*
X183613772Y-126796699D01*
X183870519Y-126830500D01*
X183870526Y-126830500D01*
X184129474Y-126830500D01*
X184129481Y-126830500D01*
X184386228Y-126796699D01*
X184636366Y-126729675D01*
X184875616Y-126630574D01*
X185099884Y-126501093D01*
X185305333Y-126343447D01*
X185488447Y-126160333D01*
X185646093Y-125954884D01*
X185775574Y-125730616D01*
X185874675Y-125491366D01*
X185941699Y-125241228D01*
X185975500Y-124984481D01*
X185975500Y-124725519D01*
X185941699Y-124468772D01*
X185874675Y-124218634D01*
X185775574Y-123979384D01*
X185646093Y-123755116D01*
X185644035Y-123752434D01*
X185488448Y-123549668D01*
X185488442Y-123549661D01*
X185305338Y-123366557D01*
X185305331Y-123366551D01*
X185099883Y-123208906D01*
X184875619Y-123079427D01*
X184875609Y-123079423D01*
X184636364Y-122980324D01*
X184511297Y-122946813D01*
X184386228Y-122913301D01*
X184386222Y-122913300D01*
X184386217Y-122913299D01*
X184129491Y-122879501D01*
X184129486Y-122879500D01*
X184129481Y-122879500D01*
X183870519Y-122879500D01*
X183870513Y-122879500D01*
X183870508Y-122879501D01*
X183613782Y-122913299D01*
X183613775Y-122913300D01*
X183613772Y-122913301D01*
X183560908Y-122927465D01*
X183363635Y-122980324D01*
X183124390Y-123079423D01*
X183124380Y-123079427D01*
X182900116Y-123208906D01*
X182694668Y-123366551D01*
X182694661Y-123366557D01*
X182511557Y-123549661D01*
X182511551Y-123549668D01*
X182353906Y-123755116D01*
X182224427Y-123979380D01*
X182224423Y-123979390D01*
X182125324Y-124218635D01*
X182058302Y-124468769D01*
X182058299Y-124468782D01*
X182024501Y-124725508D01*
X182024500Y-124725525D01*
X142547300Y-124725525D01*
X142547300Y-59740744D01*
X142566985Y-59673705D01*
X142619789Y-59627950D01*
X142688947Y-59618006D01*
X142738588Y-59638156D01*
X142739150Y-59637241D01*
X142743297Y-59639782D01*
X142743304Y-59639785D01*
X142743306Y-59639787D01*
X142796253Y-59666765D01*
X142920367Y-59730005D01*
X142920370Y-59730006D01*
X142975579Y-59747944D01*
X143109364Y-59791413D01*
X143305639Y-59822500D01*
X143305640Y-59822500D01*
X143504360Y-59822500D01*
X143504361Y-59822500D01*
X143700636Y-59791413D01*
X143889632Y-59730005D01*
X144066694Y-59639787D01*
X144227464Y-59522981D01*
X144367981Y-59382464D01*
X144484787Y-59221694D01*
X144564515Y-59065218D01*
X144612490Y-59014423D01*
X144680311Y-58997628D01*
X144746446Y-59020165D01*
X144785484Y-59065218D01*
X144865213Y-59221694D01*
X144982019Y-59382464D01*
X145122536Y-59522981D01*
X145283306Y-59639787D01*
X145336253Y-59666765D01*
X145460367Y-59730005D01*
X145460370Y-59730006D01*
X145515579Y-59747944D01*
X145649364Y-59791413D01*
X145845639Y-59822500D01*
X145845640Y-59822500D01*
X146044360Y-59822500D01*
X146044361Y-59822500D01*
X146240636Y-59791413D01*
X146429632Y-59730005D01*
X146606694Y-59639787D01*
X146767464Y-59522981D01*
X146907981Y-59382464D01*
X147024787Y-59221694D01*
X147104515Y-59065218D01*
X147152490Y-59014423D01*
X147220311Y-58997628D01*
X147286446Y-59020165D01*
X147325484Y-59065218D01*
X147405213Y-59221694D01*
X147522019Y-59382464D01*
X147662536Y-59522981D01*
X147823306Y-59639787D01*
X147876253Y-59666765D01*
X148000367Y-59730005D01*
X148000370Y-59730006D01*
X148055579Y-59747944D01*
X148189364Y-59791413D01*
X148385639Y-59822500D01*
X148385640Y-59822500D01*
X148584360Y-59822500D01*
X148584361Y-59822500D01*
X148780636Y-59791413D01*
X148969632Y-59730005D01*
X149146694Y-59639787D01*
X149307464Y-59522981D01*
X149447981Y-59382464D01*
X149564787Y-59221694D01*
X149644515Y-59065218D01*
X149692490Y-59014423D01*
X149760311Y-58997628D01*
X149826446Y-59020165D01*
X149865484Y-59065218D01*
X149945213Y-59221694D01*
X150062019Y-59382464D01*
X150202536Y-59522981D01*
X150363306Y-59639787D01*
X150416253Y-59666765D01*
X150540367Y-59730005D01*
X150540370Y-59730006D01*
X150595579Y-59747944D01*
X150729364Y-59791413D01*
X150925639Y-59822500D01*
X150925640Y-59822500D01*
X151124360Y-59822500D01*
X151124361Y-59822500D01*
X151320636Y-59791413D01*
X151509632Y-59730005D01*
X151686694Y-59639787D01*
X151847464Y-59522981D01*
X151987981Y-59382464D01*
X152104787Y-59221694D01*
X152184515Y-59065218D01*
X152232490Y-59014423D01*
X152300311Y-58997628D01*
X152366446Y-59020165D01*
X152405484Y-59065218D01*
X152485213Y-59221694D01*
X152602019Y-59382464D01*
X152742536Y-59522981D01*
X152873327Y-59618006D01*
X152903309Y-59639789D01*
X152905285Y-59641000D01*
X152905878Y-59641656D01*
X152907248Y-59642651D01*
X152907039Y-59642938D01*
X152952163Y-59692810D01*
X152964500Y-59746730D01*
X152964500Y-85836436D01*
X152944815Y-85903475D01*
X152892011Y-85949230D01*
X152822853Y-85959174D01*
X152759297Y-85930149D01*
X152737398Y-85905327D01*
X152694289Y-85840811D01*
X152694286Y-85840807D01*
X152582792Y-85729313D01*
X152582788Y-85729310D01*
X152451685Y-85641709D01*
X152451672Y-85641702D01*
X152306001Y-85581364D01*
X152305989Y-85581361D01*
X152151345Y-85550600D01*
X152151342Y-85550600D01*
X151993658Y-85550600D01*
X151993655Y-85550600D01*
X151839010Y-85581361D01*
X151838998Y-85581364D01*
X151693327Y-85641702D01*
X151693314Y-85641709D01*
X151562211Y-85729310D01*
X151562207Y-85729313D01*
X151450713Y-85840807D01*
X151450710Y-85840811D01*
X151363109Y-85971914D01*
X151363102Y-85971927D01*
X151302764Y-86117598D01*
X151302761Y-86117610D01*
X151272000Y-86272253D01*
X151272000Y-86429946D01*
X151302761Y-86584589D01*
X151302764Y-86584601D01*
X151363102Y-86730272D01*
X151363109Y-86730285D01*
X151451102Y-86861974D01*
X151471980Y-86928651D01*
X151472000Y-86930865D01*
X151472000Y-97818434D01*
X151452315Y-97885473D01*
X151451102Y-97887325D01*
X151363109Y-98019014D01*
X151363102Y-98019027D01*
X151302764Y-98164698D01*
X151302761Y-98164710D01*
X151272000Y-98319353D01*
X151272000Y-98477044D01*
X151302761Y-98631689D01*
X151302764Y-98631701D01*
X151363102Y-98777372D01*
X151363109Y-98777385D01*
X151450710Y-98908488D01*
X151450713Y-98908492D01*
X151562207Y-99019986D01*
X151562211Y-99019989D01*
X151693314Y-99107590D01*
X151693327Y-99107597D01*
X151838998Y-99167935D01*
X151839003Y-99167937D01*
X151993653Y-99198699D01*
X151993656Y-99198700D01*
X151993658Y-99198700D01*
X152151344Y-99198700D01*
X152151345Y-99198699D01*
X152305997Y-99167937D01*
X152451679Y-99107594D01*
X152582789Y-99019989D01*
X152586735Y-99016751D01*
X152651045Y-98989438D01*
X152719913Y-99001229D01*
X152771473Y-99048381D01*
X152789400Y-99112604D01*
X152789400Y-99982230D01*
X152789399Y-99982248D01*
X152789399Y-100147954D01*
X152789398Y-100147954D01*
X152830323Y-100300685D01*
X152859258Y-100350800D01*
X152859259Y-100350804D01*
X152859260Y-100350804D01*
X152909379Y-100437614D01*
X152909381Y-100437617D01*
X153028249Y-100556485D01*
X153028254Y-100556489D01*
X171716184Y-119244420D01*
X171716186Y-119244421D01*
X171716190Y-119244424D01*
X171853109Y-119323473D01*
X171853116Y-119323477D01*
X172005843Y-119364401D01*
X172005845Y-119364401D01*
X172171554Y-119364401D01*
X172171570Y-119364400D01*
X176743931Y-119364400D01*
X176743947Y-119364401D01*
X176751543Y-119364401D01*
X176909654Y-119364401D01*
X176909657Y-119364401D01*
X177062385Y-119323477D01*
X177112504Y-119294539D01*
X177199316Y-119244420D01*
X177311120Y-119132616D01*
X177311120Y-119132614D01*
X177321328Y-119122407D01*
X177321329Y-119122404D01*
X180033616Y-116410119D01*
X180094939Y-116376634D01*
X180121297Y-116373800D01*
X183087631Y-116373800D01*
X183087647Y-116373801D01*
X183095243Y-116373801D01*
X183253354Y-116373801D01*
X183253357Y-116373801D01*
X183406085Y-116332877D01*
X183489876Y-116284500D01*
X183543016Y-116253820D01*
X183654820Y-116142016D01*
X183654820Y-116142014D01*
X183665024Y-116131811D01*
X183665027Y-116131806D01*
X184267841Y-115528992D01*
X186204500Y-115528992D01*
X186204500Y-116181007D01*
X186243907Y-116379119D01*
X186243909Y-116379127D01*
X186321212Y-116565752D01*
X186321217Y-116565762D01*
X186433441Y-116733718D01*
X186576281Y-116876558D01*
X186744237Y-116988782D01*
X186744241Y-116988784D01*
X186744244Y-116988786D01*
X186930873Y-117066091D01*
X187128992Y-117105499D01*
X187128996Y-117105500D01*
X187128997Y-117105500D01*
X187331004Y-117105500D01*
X187331005Y-117105499D01*
X187529127Y-117066091D01*
X187715756Y-116988786D01*
X187796110Y-116935094D01*
X187862786Y-116914217D01*
X187930166Y-116932701D01*
X187933865Y-116935078D01*
X188014244Y-116988786D01*
X188200873Y-117066091D01*
X188398992Y-117105499D01*
X188398996Y-117105500D01*
X188398997Y-117105500D01*
X188601004Y-117105500D01*
X188601005Y-117105499D01*
X188799127Y-117066091D01*
X188985756Y-116988786D01*
X189153718Y-116876558D01*
X189296558Y-116733718D01*
X189408786Y-116565756D01*
X189486091Y-116379127D01*
X189525500Y-116181003D01*
X189525500Y-115528997D01*
X189486091Y-115330873D01*
X189408786Y-115144244D01*
X189408784Y-115144241D01*
X189408782Y-115144237D01*
X189296558Y-114976281D01*
X189153718Y-114833441D01*
X188985762Y-114721217D01*
X188985752Y-114721212D01*
X188799127Y-114643909D01*
X188799119Y-114643907D01*
X188601007Y-114604500D01*
X188601003Y-114604500D01*
X188398997Y-114604500D01*
X188398992Y-114604500D01*
X188200880Y-114643907D01*
X188200872Y-114643909D01*
X188014244Y-114721213D01*
X187933891Y-114774904D01*
X187867213Y-114795782D01*
X187799833Y-114777297D01*
X187796109Y-114774904D01*
X187715755Y-114721213D01*
X187529127Y-114643909D01*
X187529119Y-114643907D01*
X187331007Y-114604500D01*
X187331003Y-114604500D01*
X187128997Y-114604500D01*
X187128992Y-114604500D01*
X186930880Y-114643907D01*
X186930872Y-114643909D01*
X186744247Y-114721212D01*
X186744237Y-114721217D01*
X186576281Y-114833441D01*
X186433441Y-114976281D01*
X186321217Y-115144237D01*
X186321212Y-115144247D01*
X186243909Y-115330872D01*
X186243907Y-115330880D01*
X186204500Y-115528992D01*
X184267841Y-115528992D01*
X190820017Y-108976819D01*
X190881340Y-108943334D01*
X190907698Y-108940500D01*
X193290234Y-108940500D01*
X193357273Y-108960185D01*
X193359125Y-108961398D01*
X193490814Y-109049390D01*
X193490827Y-109049397D01*
X193636498Y-109109735D01*
X193636503Y-109109737D01*
X193791153Y-109140499D01*
X193791156Y-109140500D01*
X193791158Y-109140500D01*
X193948843Y-109140500D01*
X193991308Y-109132053D01*
X194060899Y-109138280D01*
X194116077Y-109181142D01*
X194139322Y-109247032D01*
X194139500Y-109253670D01*
X194139500Y-114731603D01*
X194119815Y-114798642D01*
X194090279Y-114828711D01*
X194090990Y-114829578D01*
X194086278Y-114833444D01*
X193943441Y-114976281D01*
X193831217Y-115144237D01*
X193831212Y-115144247D01*
X193753909Y-115330872D01*
X193753907Y-115330880D01*
X193714500Y-115528992D01*
X193714500Y-116181007D01*
X193753907Y-116379119D01*
X193753909Y-116379127D01*
X193831212Y-116565752D01*
X193831217Y-116565762D01*
X193943441Y-116733718D01*
X194086281Y-116876558D01*
X194254237Y-116988782D01*
X194254241Y-116988784D01*
X194254244Y-116988786D01*
X194440873Y-117066091D01*
X194638992Y-117105499D01*
X194638996Y-117105500D01*
X194638997Y-117105500D01*
X194841004Y-117105500D01*
X194841005Y-117105499D01*
X195039127Y-117066091D01*
X195225756Y-116988786D01*
X195306110Y-116935094D01*
X195372786Y-116914217D01*
X195440166Y-116932701D01*
X195443865Y-116935078D01*
X195524244Y-116988786D01*
X195710873Y-117066091D01*
X195908992Y-117105499D01*
X195908996Y-117105500D01*
X195908997Y-117105500D01*
X196111004Y-117105500D01*
X196111005Y-117105499D01*
X196309127Y-117066091D01*
X196495756Y-116988786D01*
X196663718Y-116876558D01*
X196806558Y-116733718D01*
X196918786Y-116565756D01*
X196996091Y-116379127D01*
X197035500Y-116181003D01*
X197035500Y-115528997D01*
X196996091Y-115330873D01*
X196918786Y-115144244D01*
X196918784Y-115144241D01*
X196918782Y-115144237D01*
X196806558Y-114976281D01*
X196663721Y-114833444D01*
X196659010Y-114829578D01*
X196660156Y-114828181D01*
X196620802Y-114781088D01*
X196610500Y-114731603D01*
X196610500Y-98504144D01*
X196610499Y-98504138D01*
X196606440Y-98488991D01*
X196603239Y-98477042D01*
X196569577Y-98351415D01*
X196530943Y-98284500D01*
X196530943Y-98284498D01*
X196490524Y-98214490D01*
X196490521Y-98214486D01*
X196490520Y-98214484D01*
X196378716Y-98102680D01*
X196378715Y-98102679D01*
X196374385Y-98098349D01*
X196374374Y-98098339D01*
X193475874Y-95199839D01*
X193442389Y-95138516D01*
X193441938Y-95136349D01*
X193411038Y-94981010D01*
X193411037Y-94981003D01*
X193398238Y-94950103D01*
X193350697Y-94835327D01*
X193350690Y-94835314D01*
X193263089Y-94704211D01*
X193263086Y-94704207D01*
X193151592Y-94592713D01*
X193151588Y-94592710D01*
X193020485Y-94505109D01*
X193020472Y-94505102D01*
X192874801Y-94444764D01*
X192874789Y-94444761D01*
X192720145Y-94414000D01*
X192720142Y-94414000D01*
X192562458Y-94414000D01*
X192562455Y-94414000D01*
X192407810Y-94444761D01*
X192407798Y-94444764D01*
X192262127Y-94505102D01*
X192262114Y-94505109D01*
X192131011Y-94592710D01*
X192131007Y-94592713D01*
X192019513Y-94704207D01*
X192019510Y-94704211D01*
X191931909Y-94835314D01*
X191931902Y-94835327D01*
X191871564Y-94980998D01*
X191871561Y-94981010D01*
X191840800Y-95135653D01*
X191840800Y-95293346D01*
X191871561Y-95447989D01*
X191871564Y-95448001D01*
X191931902Y-95593672D01*
X191931909Y-95593685D01*
X192019510Y-95724788D01*
X192019513Y-95724792D01*
X192131007Y-95836286D01*
X192131011Y-95836289D01*
X192262114Y-95923890D01*
X192262127Y-95923897D01*
X192394674Y-95978799D01*
X192407803Y-95984237D01*
X192472447Y-95997095D01*
X192563149Y-96015138D01*
X192625060Y-96047523D01*
X192626639Y-96049074D01*
X194123162Y-97545597D01*
X194156647Y-97606920D01*
X194151663Y-97676612D01*
X194123167Y-97720955D01*
X194118209Y-97725912D01*
X194118208Y-97725914D01*
X194030609Y-97857014D01*
X194030602Y-97857027D01*
X193970264Y-98002698D01*
X193970261Y-98002710D01*
X193939500Y-98157353D01*
X193939500Y-98315046D01*
X193970261Y-98469689D01*
X193970264Y-98469701D01*
X194030602Y-98615372D01*
X194030609Y-98615385D01*
X194118602Y-98747074D01*
X194139480Y-98813751D01*
X194139500Y-98815965D01*
X194139500Y-107426329D01*
X194119815Y-107493368D01*
X194067011Y-107539123D01*
X193997853Y-107549067D01*
X193991310Y-107547947D01*
X193948842Y-107539500D01*
X193791158Y-107539500D01*
X193791155Y-107539500D01*
X193636510Y-107570261D01*
X193636498Y-107570264D01*
X193490827Y-107630602D01*
X193490814Y-107630609D01*
X193359125Y-107718602D01*
X193292447Y-107739480D01*
X193290234Y-107739500D01*
X190694270Y-107739500D01*
X190694254Y-107739499D01*
X190686658Y-107739499D01*
X190528543Y-107739499D01*
X190452179Y-107759961D01*
X190375814Y-107780423D01*
X190375809Y-107780426D01*
X190238890Y-107859475D01*
X190238882Y-107859481D01*
X182961884Y-115136481D01*
X182934956Y-115151184D01*
X182909138Y-115167777D01*
X182902937Y-115168668D01*
X182900561Y-115169966D01*
X182874203Y-115172800D01*
X182766605Y-115172800D01*
X182699566Y-115153115D01*
X182653811Y-115100311D01*
X182643867Y-115031153D01*
X182648674Y-115010481D01*
X182649840Y-115006894D01*
X182668477Y-114949534D01*
X182700500Y-114747352D01*
X182700500Y-114542648D01*
X182668477Y-114340466D01*
X182605220Y-114145781D01*
X182605218Y-114145778D01*
X182605218Y-114145776D01*
X182571503Y-114079607D01*
X182512287Y-113963390D01*
X182504556Y-113952749D01*
X182391971Y-113797786D01*
X182247213Y-113653028D01*
X182081613Y-113532715D01*
X182081612Y-113532714D01*
X182081610Y-113532713D01*
X182024653Y-113503691D01*
X181899223Y-113439781D01*
X181704534Y-113376522D01*
X181529995Y-113348878D01*
X181502352Y-113344500D01*
X181297648Y-113344500D01*
X181273329Y-113348351D01*
X181095465Y-113376522D01*
X180900776Y-113439781D01*
X180718386Y-113532715D01*
X180552786Y-113653028D01*
X180408028Y-113797786D01*
X180287715Y-113963385D01*
X180280883Y-113976795D01*
X180270433Y-113987859D01*
X180264111Y-114001703D01*
X180246931Y-114012743D01*
X180232909Y-114027591D01*
X180217227Y-114031832D01*
X180205333Y-114039477D01*
X180170398Y-114044500D01*
X180026669Y-114044500D01*
X180026653Y-114044499D01*
X180019057Y-114044499D01*
X179860943Y-114044499D01*
X179753587Y-114073265D01*
X179708210Y-114085424D01*
X179708209Y-114085425D01*
X179658096Y-114114359D01*
X179658095Y-114114360D01*
X179614689Y-114139420D01*
X179571285Y-114164479D01*
X179571282Y-114164481D01*
X179459480Y-114276284D01*
X179459478Y-114276286D01*
X177755985Y-115979780D01*
X176061084Y-117674681D01*
X175999761Y-117708166D01*
X175973403Y-117711000D01*
X175147190Y-117711000D01*
X175080151Y-117691315D01*
X175034396Y-117638511D01*
X175024452Y-117569353D01*
X175029259Y-117548681D01*
X175048477Y-117489534D01*
X175080500Y-117287351D01*
X175080500Y-117082648D01*
X175048478Y-116880472D01*
X175048477Y-116880471D01*
X175048477Y-116880466D01*
X175043825Y-116866151D01*
X175041832Y-116796312D01*
X175074075Y-116740158D01*
X180256606Y-111557628D01*
X180256611Y-111557624D01*
X180266814Y-111547420D01*
X180266816Y-111547420D01*
X180378620Y-111435616D01*
X180430320Y-111346069D01*
X180457677Y-111298685D01*
X180498601Y-111145957D01*
X180498601Y-110987843D01*
X180498601Y-110980248D01*
X180498600Y-110980230D01*
X180498600Y-105756997D01*
X180518285Y-105689958D01*
X180534919Y-105669316D01*
X192359234Y-93845001D01*
X205663872Y-80540362D01*
X205725193Y-80506879D01*
X205794885Y-80511863D01*
X205798962Y-80513467D01*
X205920007Y-80563606D01*
X206147986Y-80624693D01*
X206381989Y-80655500D01*
X206381996Y-80655500D01*
X206618004Y-80655500D01*
X206618011Y-80655500D01*
X206852014Y-80624693D01*
X207079993Y-80563606D01*
X207298049Y-80473284D01*
X207322899Y-80458936D01*
X207390797Y-80442463D01*
X207456825Y-80465314D01*
X207500017Y-80520234D01*
X207508900Y-80566323D01*
X207508900Y-82010500D01*
X207489215Y-82077539D01*
X207436411Y-82123294D01*
X207384900Y-82134500D01*
X205399998Y-82134500D01*
X205399981Y-82134501D01*
X205297203Y-82145000D01*
X205297200Y-82145001D01*
X205130668Y-82200185D01*
X205130663Y-82200187D01*
X204981342Y-82292289D01*
X204857289Y-82416342D01*
X204765187Y-82565663D01*
X204765186Y-82565666D01*
X204710001Y-82732203D01*
X204710001Y-82732204D01*
X204710000Y-82732204D01*
X204699500Y-82834983D01*
X204699500Y-85035001D01*
X204699501Y-85035018D01*
X204710000Y-85137796D01*
X204710001Y-85137799D01*
X204727981Y-85192057D01*
X204765186Y-85304334D01*
X204857288Y-85453656D01*
X204981344Y-85577712D01*
X205130666Y-85669814D01*
X205297203Y-85724999D01*
X205399991Y-85735500D01*
X207600008Y-85735499D01*
X207702797Y-85724999D01*
X207760295Y-85705945D01*
X207830123Y-85703543D01*
X207890165Y-85739274D01*
X207921358Y-85801794D01*
X207923300Y-85823651D01*
X207923300Y-97546348D01*
X207903615Y-97613387D01*
X207850811Y-97659142D01*
X207781653Y-97669086D01*
X207760297Y-97664054D01*
X207702799Y-97645001D01*
X207702795Y-97645000D01*
X207600010Y-97634500D01*
X205399998Y-97634500D01*
X205399981Y-97634501D01*
X205297203Y-97645000D01*
X205297200Y-97645001D01*
X205130668Y-97700185D01*
X205130663Y-97700187D01*
X204981342Y-97792289D01*
X204857289Y-97916342D01*
X204765187Y-98065663D01*
X204765186Y-98065666D01*
X204710001Y-98232203D01*
X204710001Y-98232204D01*
X204710000Y-98232204D01*
X204699500Y-98334983D01*
X204699500Y-100535001D01*
X204699501Y-100535018D01*
X204710000Y-100637796D01*
X204710001Y-100637799D01*
X204765185Y-100804331D01*
X204765186Y-100804334D01*
X204857288Y-100953656D01*
X204981344Y-101077712D01*
X205130666Y-101169814D01*
X205297203Y-101224999D01*
X205399991Y-101235500D01*
X207600008Y-101235499D01*
X207702797Y-101224999D01*
X207760295Y-101205945D01*
X207830123Y-101203543D01*
X207890165Y-101239274D01*
X207921358Y-101301794D01*
X207923300Y-101323651D01*
X207923300Y-104993903D01*
X207903615Y-105060942D01*
X207886981Y-105081584D01*
X206394239Y-106574325D01*
X206332916Y-106607810D01*
X206330750Y-106608261D01*
X206175408Y-106639161D01*
X206175398Y-106639164D01*
X206029727Y-106699502D01*
X206029714Y-106699509D01*
X205898611Y-106787110D01*
X205898607Y-106787113D01*
X205787113Y-106898607D01*
X205787110Y-106898611D01*
X205699509Y-107029714D01*
X205699502Y-107029727D01*
X205639164Y-107175398D01*
X205639161Y-107175410D01*
X205608400Y-107330053D01*
X205608400Y-107487746D01*
X205639161Y-107642389D01*
X205639164Y-107642401D01*
X205699502Y-107788072D01*
X205699509Y-107788085D01*
X205787110Y-107919188D01*
X205787113Y-107919192D01*
X205898607Y-108030686D01*
X205898611Y-108030689D01*
X206029714Y-108118290D01*
X206029727Y-108118297D01*
X206098630Y-108146837D01*
X206175403Y-108178637D01*
X206330053Y-108209399D01*
X206330056Y-108209400D01*
X206330058Y-108209400D01*
X206487744Y-108209400D01*
X206487745Y-108209399D01*
X206642397Y-108178637D01*
X206788079Y-108118294D01*
X206919189Y-108030689D01*
X207030689Y-107919189D01*
X207118294Y-107788079D01*
X207178637Y-107642397D01*
X207208281Y-107493368D01*
X207209538Y-107487050D01*
X207241923Y-107425139D01*
X207243419Y-107423615D01*
X208882306Y-105784727D01*
X208882311Y-105784724D01*
X208892514Y-105774520D01*
X208892516Y-105774520D01*
X209004320Y-105662716D01*
X209077504Y-105535957D01*
X209083377Y-105525785D01*
X209124300Y-105373058D01*
X209124300Y-105214943D01*
X209124300Y-62669265D01*
X209143985Y-62602226D01*
X209145198Y-62600374D01*
X209233190Y-62468685D01*
X209233190Y-62468684D01*
X209233194Y-62468679D01*
X209293537Y-62322997D01*
X209324300Y-62168342D01*
X209324300Y-62010658D01*
X209324300Y-62010655D01*
X209324299Y-62010653D01*
X209293538Y-61856010D01*
X209293537Y-61856003D01*
X209293535Y-61855998D01*
X209233197Y-61710327D01*
X209233190Y-61710314D01*
X209145589Y-61579211D01*
X209145586Y-61579207D01*
X209034092Y-61467713D01*
X209034088Y-61467710D01*
X208902985Y-61380109D01*
X208902972Y-61380102D01*
X208757301Y-61319764D01*
X208757289Y-61319761D01*
X208602645Y-61289000D01*
X208602642Y-61289000D01*
X208444958Y-61289000D01*
X208444955Y-61289000D01*
X208290310Y-61319761D01*
X208290298Y-61319764D01*
X208144627Y-61380102D01*
X208144614Y-61380109D01*
X208013511Y-61467710D01*
X208013507Y-61467713D01*
X207902013Y-61579207D01*
X207902010Y-61579211D01*
X207814409Y-61710314D01*
X207814402Y-61710327D01*
X207754064Y-61855998D01*
X207754061Y-61856010D01*
X207723300Y-62010653D01*
X207723300Y-62168346D01*
X207754061Y-62322989D01*
X207754064Y-62323001D01*
X207814402Y-62468672D01*
X207814409Y-62468685D01*
X207902402Y-62600374D01*
X207923280Y-62667051D01*
X207923300Y-62669265D01*
X207923300Y-76766003D01*
X207903615Y-76833042D01*
X207850811Y-76878797D01*
X207781653Y-76888741D01*
X207718097Y-76859716D01*
X207711619Y-76853684D01*
X199847918Y-68989983D01*
X203764500Y-68989983D01*
X203764500Y-71190001D01*
X203764501Y-71190018D01*
X203775000Y-71292796D01*
X203775001Y-71292799D01*
X203782947Y-71316777D01*
X203830186Y-71459334D01*
X203922288Y-71608656D01*
X204046344Y-71732712D01*
X204195666Y-71824814D01*
X204362203Y-71879999D01*
X204464991Y-71890500D01*
X206665008Y-71890499D01*
X206767797Y-71879999D01*
X206934334Y-71824814D01*
X207083656Y-71732712D01*
X207207712Y-71608656D01*
X207299814Y-71459334D01*
X207354999Y-71292797D01*
X207365500Y-71190009D01*
X207365499Y-68989992D01*
X207354999Y-68887203D01*
X207299814Y-68720666D01*
X207207712Y-68571344D01*
X207083656Y-68447288D01*
X206943219Y-68360666D01*
X206934336Y-68355187D01*
X206934331Y-68355185D01*
X206932862Y-68354698D01*
X206767797Y-68300001D01*
X206767795Y-68300000D01*
X206665010Y-68289500D01*
X204464998Y-68289500D01*
X204464981Y-68289501D01*
X204362203Y-68300000D01*
X204362200Y-68300001D01*
X204195668Y-68355185D01*
X204195663Y-68355187D01*
X204046342Y-68447289D01*
X203922289Y-68571342D01*
X203830187Y-68720663D01*
X203830186Y-68720666D01*
X203775001Y-68887203D01*
X203775001Y-68887204D01*
X203775000Y-68887204D01*
X203764500Y-68989983D01*
X199847918Y-68989983D01*
X195749930Y-64891995D01*
X203764500Y-64891995D01*
X203764500Y-65128004D01*
X203764501Y-65128020D01*
X203795306Y-65362010D01*
X203856394Y-65589993D01*
X203946714Y-65808045D01*
X203946719Y-65808056D01*
X203962367Y-65835158D01*
X204064727Y-66012450D01*
X204064729Y-66012453D01*
X204064730Y-66012454D01*
X204208406Y-66199697D01*
X204208412Y-66199704D01*
X204375295Y-66366587D01*
X204375301Y-66366592D01*
X204562550Y-66510273D01*
X204693918Y-66586118D01*
X204766943Y-66628280D01*
X204766948Y-66628282D01*
X204766951Y-66628284D01*
X204985007Y-66718606D01*
X205212986Y-66779693D01*
X205446989Y-66810500D01*
X205446996Y-66810500D01*
X205683004Y-66810500D01*
X205683011Y-66810500D01*
X205917014Y-66779693D01*
X206144993Y-66718606D01*
X206363049Y-66628284D01*
X206567450Y-66510273D01*
X206754699Y-66366592D01*
X206921592Y-66199699D01*
X207065273Y-66012450D01*
X207183284Y-65808049D01*
X207273606Y-65589993D01*
X207334693Y-65362014D01*
X207365500Y-65128011D01*
X207365500Y-64891989D01*
X207334693Y-64657986D01*
X207273606Y-64430007D01*
X207183284Y-64211951D01*
X207183282Y-64211948D01*
X207183280Y-64211943D01*
X207141118Y-64138918D01*
X207065273Y-64007550D01*
X206921592Y-63820301D01*
X206921587Y-63820295D01*
X206754704Y-63653412D01*
X206754697Y-63653406D01*
X206567454Y-63509730D01*
X206567453Y-63509729D01*
X206567450Y-63509727D01*
X206485957Y-63462677D01*
X206363056Y-63391719D01*
X206363045Y-63391714D01*
X206144993Y-63301394D01*
X205917010Y-63240306D01*
X205683020Y-63209501D01*
X205683017Y-63209500D01*
X205683011Y-63209500D01*
X205446989Y-63209500D01*
X205446983Y-63209500D01*
X205446979Y-63209501D01*
X205212989Y-63240306D01*
X204985006Y-63301394D01*
X204766954Y-63391714D01*
X204766943Y-63391719D01*
X204562545Y-63509730D01*
X204375302Y-63653406D01*
X204375295Y-63653412D01*
X204208412Y-63820295D01*
X204208406Y-63820302D01*
X204064730Y-64007545D01*
X203946719Y-64211943D01*
X203946714Y-64211954D01*
X203856394Y-64430006D01*
X203795306Y-64657989D01*
X203764501Y-64891979D01*
X203764500Y-64891995D01*
X195749930Y-64891995D01*
X195636819Y-64778884D01*
X195603334Y-64717561D01*
X195600500Y-64691203D01*
X195600500Y-59811995D01*
X203764500Y-59811995D01*
X203764500Y-60048004D01*
X203764501Y-60048020D01*
X203795306Y-60282010D01*
X203856394Y-60509993D01*
X203946714Y-60728045D01*
X203946719Y-60728056D01*
X204000537Y-60821270D01*
X204064727Y-60932450D01*
X204064729Y-60932453D01*
X204064730Y-60932454D01*
X204208406Y-61119697D01*
X204208412Y-61119704D01*
X204375295Y-61286587D01*
X204375302Y-61286593D01*
X204485306Y-61371001D01*
X204562550Y-61430273D01*
X204693918Y-61506118D01*
X204766943Y-61548280D01*
X204766948Y-61548282D01*
X204766951Y-61548284D01*
X204985007Y-61638606D01*
X205212986Y-61699693D01*
X205446989Y-61730500D01*
X205446996Y-61730500D01*
X205683004Y-61730500D01*
X205683011Y-61730500D01*
X205917014Y-61699693D01*
X206144993Y-61638606D01*
X206363049Y-61548284D01*
X206567450Y-61430273D01*
X206754699Y-61286592D01*
X206921592Y-61119699D01*
X207065273Y-60932450D01*
X207183284Y-60728049D01*
X207273606Y-60509993D01*
X207334693Y-60282014D01*
X207365500Y-60048011D01*
X207365500Y-59811989D01*
X207334693Y-59577986D01*
X207273606Y-59350007D01*
X207183284Y-59131951D01*
X207183282Y-59131948D01*
X207183280Y-59131943D01*
X207132870Y-59044632D01*
X207065273Y-58927550D01*
X206959936Y-58790272D01*
X206921593Y-58740302D01*
X206921587Y-58740295D01*
X206754704Y-58573412D01*
X206754697Y-58573406D01*
X206567454Y-58429730D01*
X206567453Y-58429729D01*
X206567450Y-58429727D01*
X206485957Y-58382677D01*
X206363056Y-58311719D01*
X206363045Y-58311714D01*
X206144993Y-58221394D01*
X205917010Y-58160306D01*
X205683020Y-58129501D01*
X205683017Y-58129500D01*
X205683011Y-58129500D01*
X205446989Y-58129500D01*
X205446983Y-58129500D01*
X205446979Y-58129501D01*
X205212989Y-58160306D01*
X204985006Y-58221394D01*
X204766954Y-58311714D01*
X204766943Y-58311719D01*
X204562545Y-58429730D01*
X204375302Y-58573406D01*
X204375295Y-58573412D01*
X204208412Y-58740295D01*
X204208406Y-58740302D01*
X204064730Y-58927545D01*
X203946719Y-59131943D01*
X203946714Y-59131954D01*
X203856394Y-59350006D01*
X203795306Y-59577989D01*
X203764501Y-59811979D01*
X203764500Y-59811995D01*
X195600500Y-59811995D01*
X195600500Y-50680718D01*
X195620185Y-50613679D01*
X195668207Y-50570233D01*
X195707815Y-50550052D01*
X195707815Y-50550051D01*
X195707816Y-50550051D01*
X195806516Y-50478342D01*
X195879786Y-50425109D01*
X195879788Y-50425106D01*
X195879792Y-50425104D01*
X196030104Y-50274792D01*
X196030106Y-50274788D01*
X196030109Y-50274786D01*
X196155048Y-50102820D01*
X196155047Y-50102820D01*
X196155051Y-50102816D01*
X196251557Y-49913412D01*
X196317246Y-49711243D01*
X196350500Y-49501287D01*
X196350500Y-49288713D01*
X196317246Y-49078757D01*
X196251557Y-48876588D01*
X196155051Y-48687184D01*
X196155049Y-48687181D01*
X196155048Y-48687179D01*
X196030109Y-48515213D01*
X195916569Y-48401673D01*
X195883084Y-48340350D01*
X195888068Y-48270658D01*
X195929940Y-48214725D01*
X195960915Y-48197810D01*
X196092331Y-48148796D01*
X196207546Y-48062546D01*
X196293796Y-47947331D01*
X196344091Y-47812483D01*
X196350500Y-47752873D01*
X196350499Y-46989983D01*
X203764500Y-46989983D01*
X203764500Y-49190001D01*
X203764501Y-49190018D01*
X203775000Y-49292796D01*
X203775001Y-49292799D01*
X203795201Y-49353757D01*
X203830186Y-49459334D01*
X203922288Y-49608656D01*
X204046344Y-49732712D01*
X204195666Y-49824814D01*
X204362203Y-49879999D01*
X204464991Y-49890500D01*
X206665008Y-49890499D01*
X206767797Y-49879999D01*
X206934334Y-49824814D01*
X207083656Y-49732712D01*
X207207712Y-49608656D01*
X207299814Y-49459334D01*
X207354999Y-49292797D01*
X207365500Y-49190009D01*
X207365499Y-46989992D01*
X207365176Y-46986834D01*
X207354999Y-46887203D01*
X207354998Y-46887200D01*
X207299814Y-46720666D01*
X207207712Y-46571344D01*
X207083656Y-46447288D01*
X206934334Y-46355186D01*
X206767797Y-46300001D01*
X206767795Y-46300000D01*
X206665010Y-46289500D01*
X204464998Y-46289500D01*
X204464981Y-46289501D01*
X204362203Y-46300000D01*
X204362200Y-46300001D01*
X204195668Y-46355185D01*
X204195663Y-46355187D01*
X204046342Y-46447289D01*
X203922289Y-46571342D01*
X203830187Y-46720663D01*
X203830186Y-46720666D01*
X203775001Y-46887203D01*
X203775001Y-46887204D01*
X203775000Y-46887204D01*
X203764500Y-46989983D01*
X196350499Y-46989983D01*
X196350499Y-46720668D01*
X196350499Y-45957129D01*
X196350498Y-45957123D01*
X196350497Y-45957116D01*
X196344091Y-45897517D01*
X196321223Y-45836206D01*
X196293797Y-45762671D01*
X196293793Y-45762664D01*
X196207547Y-45647455D01*
X196207544Y-45647452D01*
X196092335Y-45561206D01*
X196092328Y-45561202D01*
X195957482Y-45510908D01*
X195957483Y-45510908D01*
X195897883Y-45504501D01*
X195897881Y-45504500D01*
X195897873Y-45504500D01*
X195897864Y-45504500D01*
X194102129Y-45504500D01*
X194102123Y-45504501D01*
X194042516Y-45510908D01*
X193907671Y-45561202D01*
X193907664Y-45561206D01*
X193792455Y-45647452D01*
X193792452Y-45647455D01*
X193706206Y-45762664D01*
X193706202Y-45762671D01*
X193655908Y-45897517D01*
X193649501Y-45957116D01*
X193649501Y-45957123D01*
X193649500Y-45957135D01*
X193649500Y-47752870D01*
X193649501Y-47752876D01*
X193655908Y-47812483D01*
X193706202Y-47947328D01*
X193706206Y-47947335D01*
X193792452Y-48062544D01*
X193792455Y-48062547D01*
X193907664Y-48148793D01*
X193907671Y-48148797D01*
X194039082Y-48197810D01*
X194095016Y-48239681D01*
X194119433Y-48305145D01*
X194104582Y-48373418D01*
X194083431Y-48401673D01*
X193969889Y-48515215D01*
X193844951Y-48687179D01*
X193748444Y-48876585D01*
X193682753Y-49078760D01*
X193649500Y-49288713D01*
X193649500Y-49501286D01*
X193680921Y-49699675D01*
X193682754Y-49711243D01*
X193740998Y-49890500D01*
X193748444Y-49913414D01*
X193844951Y-50102820D01*
X193969890Y-50274786D01*
X194120213Y-50425109D01*
X194292184Y-50550051D01*
X194292184Y-50550052D01*
X194331793Y-50570233D01*
X194382590Y-50618206D01*
X194399500Y-50680718D01*
X194399500Y-64904630D01*
X194399499Y-64904648D01*
X194399499Y-65070354D01*
X194399498Y-65070354D01*
X194399499Y-65070357D01*
X194435472Y-65204609D01*
X194440424Y-65223087D01*
X194453719Y-65246114D01*
X194453720Y-65246116D01*
X194519477Y-65360012D01*
X194519481Y-65360017D01*
X194638349Y-65478885D01*
X194638355Y-65478890D01*
X206072450Y-76912985D01*
X206105935Y-76974308D01*
X206100951Y-77044000D01*
X206059079Y-77099933D01*
X206016864Y-77120441D01*
X205974047Y-77131913D01*
X205920007Y-77146394D01*
X205920005Y-77146394D01*
X205920004Y-77146395D01*
X205701954Y-77236714D01*
X205701943Y-77236719D01*
X205497545Y-77354730D01*
X205310302Y-77498406D01*
X205310295Y-77498412D01*
X205143412Y-77665295D01*
X205143406Y-77665302D01*
X204999730Y-77852545D01*
X204881719Y-78056943D01*
X204881714Y-78056954D01*
X204791394Y-78275006D01*
X204730306Y-78502989D01*
X204699501Y-78736979D01*
X204699500Y-78736995D01*
X204699500Y-78973004D01*
X204699501Y-78973020D01*
X204730306Y-79207010D01*
X204791395Y-79434997D01*
X204841514Y-79555994D01*
X204848983Y-79625464D01*
X204817708Y-79687943D01*
X204814634Y-79691128D01*
X180146681Y-104359082D01*
X180085358Y-104392567D01*
X180015666Y-104387583D01*
X179959733Y-104345711D01*
X179935316Y-104280247D01*
X179935000Y-104271401D01*
X179935000Y-102852297D01*
X179954685Y-102785258D01*
X179971319Y-102764616D01*
X185129015Y-97606920D01*
X190334662Y-92401272D01*
X190395983Y-92367789D01*
X190398150Y-92367338D01*
X190456085Y-92355813D01*
X190553497Y-92336437D01*
X190699179Y-92276094D01*
X190830289Y-92188489D01*
X190941789Y-92076989D01*
X191029394Y-91945879D01*
X191089737Y-91800197D01*
X191120500Y-91645542D01*
X191120500Y-91487858D01*
X191120500Y-91487855D01*
X191120499Y-91487853D01*
X191089738Y-91333210D01*
X191089738Y-91333208D01*
X191089737Y-91333203D01*
X191045474Y-91226342D01*
X191029397Y-91187527D01*
X191029390Y-91187514D01*
X190941789Y-91056411D01*
X190941786Y-91056407D01*
X190830292Y-90944913D01*
X190830288Y-90944910D01*
X190699185Y-90857309D01*
X190699172Y-90857302D01*
X190553501Y-90796964D01*
X190553489Y-90796961D01*
X190398845Y-90766200D01*
X190398842Y-90766200D01*
X190241158Y-90766200D01*
X190241155Y-90766200D01*
X190086510Y-90796961D01*
X190086498Y-90796964D01*
X189940827Y-90857302D01*
X189940814Y-90857309D01*
X189809711Y-90944910D01*
X189809707Y-90944913D01*
X189698213Y-91056407D01*
X189698210Y-91056411D01*
X189610609Y-91187514D01*
X189610602Y-91187527D01*
X189550264Y-91333198D01*
X189550261Y-91333208D01*
X189519361Y-91488550D01*
X189486976Y-91550461D01*
X189485425Y-91552039D01*
X179732181Y-101305284D01*
X179670858Y-101338769D01*
X179601166Y-101333785D01*
X179545233Y-101291913D01*
X179520816Y-101226449D01*
X179520500Y-101217603D01*
X179520500Y-88580353D01*
X183653300Y-88580353D01*
X183653300Y-88738046D01*
X183684061Y-88892689D01*
X183684064Y-88892701D01*
X183744402Y-89038372D01*
X183744409Y-89038385D01*
X183832010Y-89169488D01*
X183832013Y-89169492D01*
X183943507Y-89280986D01*
X183943511Y-89280989D01*
X184074614Y-89368590D01*
X184074627Y-89368597D01*
X184220298Y-89428935D01*
X184220303Y-89428937D01*
X184374953Y-89459699D01*
X184374956Y-89459700D01*
X184374958Y-89459700D01*
X184532644Y-89459700D01*
X184532645Y-89459699D01*
X184687297Y-89428937D01*
X184832979Y-89368594D01*
X184964089Y-89280989D01*
X185075589Y-89169489D01*
X185163194Y-89038379D01*
X185165831Y-89032014D01*
X185176867Y-89005366D01*
X185223537Y-88892697D01*
X185242913Y-88795285D01*
X185254438Y-88737350D01*
X185286823Y-88675439D01*
X185288319Y-88673915D01*
X188368713Y-85593521D01*
X188368716Y-85593520D01*
X188480520Y-85481716D01*
X188530639Y-85394904D01*
X188559577Y-85344785D01*
X188600500Y-85192057D01*
X188600500Y-85033943D01*
X188600500Y-84209067D01*
X188620185Y-84142028D01*
X188668205Y-84098582D01*
X188786433Y-84038343D01*
X188977510Y-83899517D01*
X189144517Y-83732510D01*
X189283343Y-83541433D01*
X189390568Y-83330992D01*
X189463553Y-83106368D01*
X189476450Y-83024938D01*
X189500500Y-82873097D01*
X189500500Y-81836902D01*
X193769500Y-81836902D01*
X193769500Y-82873097D01*
X193806446Y-83106368D01*
X193879433Y-83330996D01*
X193946626Y-83462868D01*
X193986657Y-83541433D01*
X194125483Y-83732510D01*
X194292490Y-83899517D01*
X194483567Y-84038343D01*
X194582991Y-84089002D01*
X194694003Y-84145566D01*
X194694005Y-84145566D01*
X194694008Y-84145568D01*
X194787976Y-84176100D01*
X194918631Y-84218553D01*
X195151903Y-84255500D01*
X195151908Y-84255500D01*
X195388097Y-84255500D01*
X195621368Y-84218553D01*
X195658743Y-84206409D01*
X195845992Y-84145568D01*
X196056433Y-84038343D01*
X196247510Y-83899517D01*
X196414517Y-83732510D01*
X196553343Y-83541433D01*
X196660568Y-83330992D01*
X196733553Y-83106368D01*
X196746450Y-83024938D01*
X196770500Y-82873097D01*
X196770500Y-81836902D01*
X196733553Y-81603631D01*
X196689229Y-81467216D01*
X196660568Y-81379008D01*
X196660566Y-81379005D01*
X196660566Y-81379003D01*
X196553342Y-81168566D01*
X196414517Y-80977490D01*
X196247510Y-80810483D01*
X196056433Y-80671657D01*
X196024719Y-80655498D01*
X195845996Y-80564433D01*
X195621368Y-80491446D01*
X195388097Y-80454500D01*
X195388092Y-80454500D01*
X195151908Y-80454500D01*
X195151903Y-80454500D01*
X194918631Y-80491446D01*
X194694003Y-80564433D01*
X194483566Y-80671657D01*
X194395323Y-80735770D01*
X194292490Y-80810483D01*
X194292488Y-80810485D01*
X194292487Y-80810485D01*
X194125485Y-80977487D01*
X194125485Y-80977488D01*
X194125483Y-80977490D01*
X194092411Y-81023010D01*
X193986657Y-81168566D01*
X193879433Y-81379003D01*
X193806446Y-81603631D01*
X193769500Y-81836902D01*
X189500500Y-81836902D01*
X189463553Y-81603631D01*
X189419229Y-81467216D01*
X189390568Y-81379008D01*
X189390566Y-81379005D01*
X189390566Y-81379003D01*
X189283342Y-81168566D01*
X189144517Y-80977490D01*
X188977510Y-80810483D01*
X188786433Y-80671657D01*
X188754719Y-80655498D01*
X188575996Y-80564433D01*
X188351368Y-80491446D01*
X188118097Y-80454500D01*
X188118092Y-80454500D01*
X187881908Y-80454500D01*
X187881903Y-80454500D01*
X187648631Y-80491446D01*
X187424003Y-80564433D01*
X187213566Y-80671657D01*
X187125323Y-80735770D01*
X187022490Y-80810483D01*
X187022488Y-80810485D01*
X187022487Y-80810485D01*
X186855485Y-80977487D01*
X186855485Y-80977488D01*
X186855483Y-80977490D01*
X186822411Y-81023010D01*
X186716657Y-81168566D01*
X186609433Y-81379003D01*
X186536446Y-81603631D01*
X186499500Y-81836902D01*
X186499500Y-82873097D01*
X186536446Y-83106368D01*
X186609433Y-83330996D01*
X186676626Y-83462868D01*
X186716657Y-83541433D01*
X186855483Y-83732510D01*
X187022490Y-83899517D01*
X187114146Y-83966109D01*
X187213568Y-84038344D01*
X187288177Y-84076358D01*
X187331794Y-84098582D01*
X187382590Y-84146556D01*
X187399500Y-84209067D01*
X187399500Y-84812903D01*
X187379815Y-84879942D01*
X187363181Y-84900584D01*
X184439139Y-87824625D01*
X184377816Y-87858110D01*
X184375650Y-87858561D01*
X184220308Y-87889461D01*
X184220298Y-87889464D01*
X184074627Y-87949802D01*
X184074614Y-87949809D01*
X183943511Y-88037410D01*
X183943507Y-88037413D01*
X183832013Y-88148907D01*
X183832010Y-88148911D01*
X183744409Y-88280014D01*
X183744402Y-88280027D01*
X183684064Y-88425698D01*
X183684061Y-88425710D01*
X183653300Y-88580353D01*
X179520500Y-88580353D01*
X179520500Y-84360390D01*
X179540185Y-84293351D01*
X179592989Y-84247596D01*
X179610382Y-84241176D01*
X179793049Y-84188909D01*
X179973407Y-84094698D01*
X180131109Y-83966109D01*
X180259698Y-83808407D01*
X180353909Y-83628049D01*
X180409886Y-83432418D01*
X180420500Y-83313037D01*
X180420499Y-81396964D01*
X180409886Y-81277582D01*
X180353909Y-81081951D01*
X180259698Y-80901593D01*
X180185408Y-80810483D01*
X180131109Y-80743890D01*
X179973409Y-80615304D01*
X179973410Y-80615304D01*
X179973407Y-80615302D01*
X179793049Y-80521091D01*
X179793048Y-80521090D01*
X179793045Y-80521089D01*
X179655656Y-80481778D01*
X179597418Y-80465114D01*
X179597415Y-80465113D01*
X179597413Y-80465113D01*
X179527942Y-80458937D01*
X179478037Y-80454500D01*
X179478032Y-80454500D01*
X178361971Y-80454500D01*
X178361965Y-80454500D01*
X178361964Y-80454501D01*
X178350316Y-80455536D01*
X178242584Y-80465113D01*
X178046954Y-80521089D01*
X177965562Y-80563605D01*
X177866593Y-80615302D01*
X177866591Y-80615303D01*
X177866590Y-80615304D01*
X177708890Y-80743890D01*
X177592947Y-80886085D01*
X177580302Y-80901593D01*
X177542678Y-80973621D01*
X177486089Y-81081954D01*
X177430114Y-81277583D01*
X177430113Y-81277586D01*
X177419500Y-81396966D01*
X177419500Y-83313028D01*
X177419500Y-83313033D01*
X177419501Y-83313036D01*
X177420172Y-83320579D01*
X177430113Y-83432415D01*
X177486089Y-83628045D01*
X177486090Y-83628048D01*
X177486091Y-83628049D01*
X177580302Y-83808407D01*
X177580304Y-83808409D01*
X177708890Y-83966109D01*
X177797478Y-84038342D01*
X177866593Y-84094698D01*
X178046951Y-84188909D01*
X178229612Y-84241174D01*
X178288649Y-84278541D01*
X178318113Y-84341895D01*
X178319500Y-84360390D01*
X178319500Y-109290102D01*
X178299815Y-109357141D01*
X178283181Y-109377783D01*
X177484081Y-110176883D01*
X177422758Y-110210368D01*
X177353066Y-110205384D01*
X177297133Y-110163512D01*
X177272716Y-110098048D01*
X177272400Y-110089202D01*
X177272400Y-95924545D01*
X177272400Y-95924543D01*
X177231477Y-95771816D01*
X177183428Y-95688592D01*
X177152424Y-95634890D01*
X177152421Y-95634886D01*
X177152420Y-95634884D01*
X177040616Y-95523080D01*
X177040615Y-95523079D01*
X177036285Y-95518749D01*
X177036274Y-95518739D01*
X170914074Y-89396539D01*
X170880589Y-89335216D01*
X170880138Y-89333049D01*
X170849238Y-89177710D01*
X170849237Y-89177703D01*
X170845834Y-89169488D01*
X170788897Y-89032027D01*
X170788890Y-89032014D01*
X170700898Y-88900325D01*
X170680020Y-88833647D01*
X170680000Y-88831434D01*
X170680000Y-84325625D01*
X170699685Y-84258586D01*
X170752489Y-84212831D01*
X170821647Y-84202887D01*
X170838110Y-84206408D01*
X170972582Y-84244886D01*
X171091963Y-84255500D01*
X172208036Y-84255499D01*
X172327418Y-84244886D01*
X172523049Y-84188909D01*
X172703407Y-84094698D01*
X172861109Y-83966109D01*
X172989698Y-83808407D01*
X173083909Y-83628049D01*
X173139886Y-83432418D01*
X173150500Y-83313037D01*
X173150499Y-81396964D01*
X173139886Y-81277582D01*
X173083909Y-81081951D01*
X172989698Y-80901593D01*
X172915408Y-80810483D01*
X172861109Y-80743890D01*
X172703409Y-80615304D01*
X172703410Y-80615304D01*
X172703407Y-80615302D01*
X172523049Y-80521091D01*
X172523048Y-80521090D01*
X172523045Y-80521089D01*
X172385656Y-80481778D01*
X172327418Y-80465114D01*
X172327415Y-80465113D01*
X172327413Y-80465113D01*
X172257942Y-80458937D01*
X172208037Y-80454500D01*
X172208032Y-80454500D01*
X171091971Y-80454500D01*
X171091965Y-80454500D01*
X171091964Y-80454501D01*
X171080316Y-80455536D01*
X170972584Y-80465113D01*
X170838111Y-80503590D01*
X170768243Y-80503107D01*
X170709727Y-80464926D01*
X170681143Y-80401171D01*
X170680000Y-80384374D01*
X170680000Y-70790258D01*
X172199500Y-70790258D01*
X172199500Y-71019741D01*
X172221918Y-71190016D01*
X172229452Y-71247238D01*
X172280583Y-71438064D01*
X172288842Y-71468887D01*
X172376650Y-71680876D01*
X172376657Y-71680890D01*
X172491392Y-71879617D01*
X172631081Y-72061661D01*
X172631089Y-72061670D01*
X172793330Y-72223911D01*
X172793338Y-72223918D01*
X172975382Y-72363607D01*
X172975385Y-72363608D01*
X172975388Y-72363611D01*
X173174112Y-72478344D01*
X173174117Y-72478346D01*
X173174123Y-72478349D01*
X173265480Y-72516190D01*
X173386113Y-72566158D01*
X173607762Y-72625548D01*
X173835266Y-72655500D01*
X173835273Y-72655500D01*
X174064727Y-72655500D01*
X174064734Y-72655500D01*
X174292238Y-72625548D01*
X174513887Y-72566158D01*
X174725888Y-72478344D01*
X174924612Y-72363611D01*
X175106661Y-72223919D01*
X175106665Y-72223914D01*
X175106670Y-72223911D01*
X175268911Y-72061670D01*
X175268914Y-72061665D01*
X175268919Y-72061661D01*
X175408611Y-71879612D01*
X175523344Y-71680888D01*
X175611158Y-71468887D01*
X175670548Y-71247238D01*
X175700500Y-71019734D01*
X175700500Y-70790266D01*
X175698342Y-70773872D01*
X184149500Y-70773872D01*
X184149500Y-71036127D01*
X184176123Y-71238339D01*
X184183730Y-71296116D01*
X184230024Y-71468887D01*
X184251602Y-71549418D01*
X184251605Y-71549428D01*
X184351953Y-71791690D01*
X184351958Y-71791700D01*
X184483075Y-72018803D01*
X184642718Y-72226851D01*
X184642726Y-72226860D01*
X184828140Y-72412274D01*
X184828148Y-72412281D01*
X185036196Y-72571924D01*
X185263299Y-72703041D01*
X185263309Y-72703046D01*
X185496875Y-72799792D01*
X185505581Y-72803398D01*
X185758884Y-72871270D01*
X186018880Y-72905500D01*
X186018887Y-72905500D01*
X186281113Y-72905500D01*
X186281120Y-72905500D01*
X186541116Y-72871270D01*
X186794419Y-72803398D01*
X187036697Y-72703043D01*
X187263803Y-72571924D01*
X187471851Y-72412282D01*
X187471855Y-72412277D01*
X187471860Y-72412274D01*
X187657274Y-72226860D01*
X187657277Y-72226855D01*
X187657282Y-72226851D01*
X187816924Y-72018803D01*
X187948043Y-71791697D01*
X187962307Y-71757262D01*
X188048394Y-71549428D01*
X188048398Y-71549419D01*
X188116270Y-71296116D01*
X188150500Y-71036120D01*
X188150500Y-70773880D01*
X188116270Y-70513884D01*
X188048398Y-70260581D01*
X188036891Y-70232800D01*
X187948046Y-70018309D01*
X187948041Y-70018299D01*
X187816924Y-69791196D01*
X187657281Y-69583148D01*
X187657274Y-69583140D01*
X187471860Y-69397726D01*
X187471851Y-69397718D01*
X187263803Y-69238075D01*
X187036700Y-69106958D01*
X187036690Y-69106953D01*
X186794428Y-69006605D01*
X186794421Y-69006603D01*
X186794419Y-69006602D01*
X186541116Y-68938730D01*
X186483339Y-68931123D01*
X186281127Y-68904500D01*
X186281120Y-68904500D01*
X186018880Y-68904500D01*
X186018872Y-68904500D01*
X185787772Y-68934926D01*
X185758884Y-68938730D01*
X185505581Y-69006602D01*
X185505571Y-69006605D01*
X185263309Y-69106953D01*
X185263299Y-69106958D01*
X185036196Y-69238075D01*
X184828148Y-69397718D01*
X184642718Y-69583148D01*
X184483075Y-69791196D01*
X184351958Y-70018299D01*
X184351953Y-70018309D01*
X184251605Y-70260571D01*
X184251602Y-70260581D01*
X184233892Y-70326678D01*
X184183730Y-70513885D01*
X184149500Y-70773872D01*
X175698342Y-70773872D01*
X175670548Y-70562762D01*
X175611158Y-70341113D01*
X175561190Y-70220480D01*
X175523349Y-70129123D01*
X175523346Y-70129117D01*
X175523344Y-70129112D01*
X175408611Y-69930388D01*
X175408608Y-69930385D01*
X175408607Y-69930382D01*
X175268918Y-69748338D01*
X175268911Y-69748330D01*
X175106670Y-69586089D01*
X175106661Y-69586081D01*
X174924617Y-69446392D01*
X174725890Y-69331657D01*
X174725876Y-69331650D01*
X174513887Y-69243842D01*
X174492364Y-69238075D01*
X174292238Y-69184452D01*
X174254215Y-69179446D01*
X174064741Y-69154500D01*
X174064734Y-69154500D01*
X173835266Y-69154500D01*
X173835258Y-69154500D01*
X173618715Y-69183009D01*
X173607762Y-69184452D01*
X173514076Y-69209554D01*
X173386112Y-69243842D01*
X173174123Y-69331650D01*
X173174109Y-69331657D01*
X172975382Y-69446392D01*
X172793338Y-69586081D01*
X172631081Y-69748338D01*
X172491392Y-69930382D01*
X172376657Y-70129109D01*
X172376650Y-70129123D01*
X172288842Y-70341112D01*
X172229453Y-70562759D01*
X172229451Y-70562770D01*
X172199500Y-70790258D01*
X170680000Y-70790258D01*
X170680000Y-66615150D01*
X170699685Y-66548111D01*
X170752489Y-66502356D01*
X170821647Y-66492412D01*
X170879487Y-66516775D01*
X170886197Y-66521924D01*
X170886200Y-66521925D01*
X170886203Y-66521928D01*
X171113299Y-66653041D01*
X171113309Y-66653046D01*
X171355571Y-66753394D01*
X171355581Y-66753398D01*
X171608884Y-66821270D01*
X171868880Y-66855500D01*
X171868887Y-66855500D01*
X172131113Y-66855500D01*
X172131120Y-66855500D01*
X172391116Y-66821270D01*
X172644419Y-66753398D01*
X172886697Y-66653043D01*
X173113803Y-66521924D01*
X173321851Y-66362282D01*
X173321855Y-66362277D01*
X173321860Y-66362274D01*
X173507274Y-66176860D01*
X173507277Y-66176855D01*
X173507282Y-66176851D01*
X173666924Y-65968803D01*
X173798043Y-65741697D01*
X173823393Y-65680498D01*
X173860881Y-65589993D01*
X173898398Y-65499419D01*
X173966270Y-65246116D01*
X174000500Y-64986120D01*
X174000500Y-64723880D01*
X173966270Y-64463884D01*
X173898398Y-64210581D01*
X173814298Y-64007545D01*
X173798046Y-63968309D01*
X173798041Y-63968299D01*
X173666924Y-63741196D01*
X173507281Y-63533148D01*
X173507274Y-63533140D01*
X173321860Y-63347726D01*
X173321851Y-63347718D01*
X173113803Y-63188075D01*
X172886700Y-63056958D01*
X172886690Y-63056953D01*
X172644428Y-62956605D01*
X172644421Y-62956603D01*
X172644419Y-62956602D01*
X172391116Y-62888730D01*
X172333339Y-62881123D01*
X172131127Y-62854500D01*
X172131120Y-62854500D01*
X171868880Y-62854500D01*
X171868872Y-62854500D01*
X171637772Y-62884926D01*
X171608884Y-62888730D01*
X171355581Y-62956602D01*
X171355571Y-62956605D01*
X171113309Y-63056953D01*
X171113299Y-63056958D01*
X170886195Y-63188076D01*
X170886193Y-63188077D01*
X170879484Y-63193226D01*
X170814315Y-63218419D01*
X170745870Y-63204379D01*
X170695881Y-63155565D01*
X170680000Y-63094849D01*
X170680000Y-52575596D01*
X170699685Y-52508557D01*
X170716314Y-52487920D01*
X172652139Y-50552094D01*
X172713460Y-50518611D01*
X172783152Y-50523595D01*
X172787271Y-50525216D01*
X172792679Y-50527456D01*
X172886113Y-50566158D01*
X173107762Y-50625548D01*
X173335266Y-50655500D01*
X173335273Y-50655500D01*
X173564727Y-50655500D01*
X173564734Y-50655500D01*
X173792238Y-50625548D01*
X174013887Y-50566158D01*
X174225888Y-50478344D01*
X174247000Y-50466154D01*
X174314900Y-50449682D01*
X174380927Y-50472535D01*
X174424118Y-50527456D01*
X174433000Y-50573542D01*
X174433000Y-57061589D01*
X174413315Y-57128628D01*
X174360511Y-57174383D01*
X174292814Y-57184528D01*
X174292239Y-57184452D01*
X174292238Y-57184452D01*
X174257857Y-57179925D01*
X174064741Y-57154500D01*
X174064734Y-57154500D01*
X173835266Y-57154500D01*
X173835258Y-57154500D01*
X173618715Y-57183009D01*
X173607762Y-57184452D01*
X173586034Y-57190274D01*
X173386112Y-57243842D01*
X173174123Y-57331650D01*
X173174109Y-57331657D01*
X172975382Y-57446392D01*
X172793338Y-57586081D01*
X172631081Y-57748338D01*
X172491392Y-57930382D01*
X172376657Y-58129109D01*
X172376650Y-58129123D01*
X172288842Y-58341112D01*
X172229453Y-58562759D01*
X172229451Y-58562770D01*
X172199500Y-58790258D01*
X172199500Y-59019741D01*
X172217810Y-59158811D01*
X172229452Y-59247238D01*
X172256989Y-59350007D01*
X172288842Y-59468887D01*
X172376650Y-59680876D01*
X172376657Y-59680890D01*
X172440137Y-59790841D01*
X172458415Y-59822500D01*
X172491392Y-59879617D01*
X172631081Y-60061661D01*
X172631089Y-60061670D01*
X172793330Y-60223911D01*
X172793338Y-60223918D01*
X172975382Y-60363607D01*
X172975385Y-60363608D01*
X172975388Y-60363611D01*
X173174112Y-60478344D01*
X173174117Y-60478346D01*
X173174123Y-60478349D01*
X173250519Y-60509993D01*
X173386113Y-60566158D01*
X173607762Y-60625548D01*
X173835266Y-60655500D01*
X173835273Y-60655500D01*
X174064727Y-60655500D01*
X174064734Y-60655500D01*
X174292238Y-60625548D01*
X174513887Y-60566158D01*
X174725888Y-60478344D01*
X174924612Y-60363611D01*
X175106661Y-60223919D01*
X175106665Y-60223914D01*
X175106670Y-60223911D01*
X175268911Y-60061670D01*
X175268914Y-60061665D01*
X175268919Y-60061661D01*
X175408611Y-59879612D01*
X175523344Y-59680888D01*
X175611158Y-59468887D01*
X175670548Y-59247238D01*
X175700500Y-59019734D01*
X175700500Y-58790266D01*
X175693922Y-58740301D01*
X175693357Y-58736006D01*
X175691759Y-58723872D01*
X184199500Y-58723872D01*
X184199500Y-58986127D01*
X184218700Y-59131954D01*
X184233730Y-59246116D01*
X184284503Y-59435603D01*
X184301602Y-59499418D01*
X184301605Y-59499428D01*
X184401953Y-59741690D01*
X184401958Y-59741700D01*
X184533075Y-59968803D01*
X184692718Y-60176851D01*
X184692726Y-60176860D01*
X184878140Y-60362274D01*
X184878148Y-60362281D01*
X185086196Y-60521924D01*
X185313299Y-60653041D01*
X185313309Y-60653046D01*
X185494383Y-60728049D01*
X185555581Y-60753398D01*
X185808884Y-60821270D01*
X186068880Y-60855500D01*
X186068887Y-60855500D01*
X186331113Y-60855500D01*
X186331120Y-60855500D01*
X186591116Y-60821270D01*
X186844419Y-60753398D01*
X187021340Y-60680114D01*
X187086690Y-60653046D01*
X187086691Y-60653045D01*
X187086697Y-60653043D01*
X187313803Y-60521924D01*
X187521851Y-60362282D01*
X187521855Y-60362277D01*
X187521860Y-60362274D01*
X187707274Y-60176860D01*
X187707277Y-60176855D01*
X187707282Y-60176851D01*
X187866924Y-59968803D01*
X187998043Y-59741697D01*
X188098398Y-59499419D01*
X188166270Y-59246116D01*
X188200500Y-58986120D01*
X188200500Y-58723880D01*
X188166270Y-58463884D01*
X188098398Y-58210581D01*
X188098394Y-58210571D01*
X187998046Y-57968309D01*
X187998041Y-57968299D01*
X187866924Y-57741196D01*
X187707281Y-57533148D01*
X187707274Y-57533140D01*
X187521860Y-57347726D01*
X187521851Y-57347718D01*
X187313803Y-57188075D01*
X187086700Y-57056958D01*
X187086690Y-57056953D01*
X186844428Y-56956605D01*
X186844421Y-56956603D01*
X186844419Y-56956602D01*
X186591116Y-56888730D01*
X186533339Y-56881123D01*
X186331127Y-56854500D01*
X186331120Y-56854500D01*
X186068880Y-56854500D01*
X186068872Y-56854500D01*
X185837772Y-56884926D01*
X185808884Y-56888730D01*
X185555581Y-56956602D01*
X185555571Y-56956605D01*
X185313309Y-57056953D01*
X185313299Y-57056958D01*
X185086196Y-57188075D01*
X184878148Y-57347718D01*
X184692718Y-57533148D01*
X184533075Y-57741196D01*
X184401958Y-57968299D01*
X184401953Y-57968309D01*
X184301605Y-58210571D01*
X184301602Y-58210581D01*
X184234600Y-58460639D01*
X184233730Y-58463885D01*
X184199500Y-58723872D01*
X175691759Y-58723872D01*
X175683266Y-58659361D01*
X175670548Y-58562762D01*
X175611158Y-58341113D01*
X175557585Y-58211778D01*
X175550117Y-58142313D01*
X175564759Y-58102331D01*
X175593077Y-58053284D01*
X175626007Y-57930388D01*
X175634000Y-57900558D01*
X175634000Y-57742443D01*
X175634000Y-48773872D01*
X183649500Y-48773872D01*
X183649500Y-49036127D01*
X183676123Y-49238339D01*
X183683730Y-49296116D01*
X183730023Y-49468884D01*
X183751602Y-49549418D01*
X183751605Y-49549428D01*
X183851953Y-49791690D01*
X183851958Y-49791700D01*
X183983075Y-50018803D01*
X184142718Y-50226851D01*
X184142726Y-50226860D01*
X184328140Y-50412274D01*
X184328148Y-50412281D01*
X184328149Y-50412282D01*
X184376554Y-50449424D01*
X184536196Y-50571924D01*
X184763299Y-50703041D01*
X184763309Y-50703046D01*
X185005571Y-50803394D01*
X185005581Y-50803398D01*
X185258884Y-50871270D01*
X185518880Y-50905500D01*
X185518887Y-50905500D01*
X185781113Y-50905500D01*
X185781120Y-50905500D01*
X186041116Y-50871270D01*
X186294419Y-50803398D01*
X186536697Y-50703043D01*
X186763803Y-50571924D01*
X186971851Y-50412282D01*
X186971855Y-50412277D01*
X186971860Y-50412274D01*
X187157274Y-50226860D01*
X187157277Y-50226855D01*
X187157282Y-50226851D01*
X187316924Y-50018803D01*
X187448043Y-49791697D01*
X187454427Y-49776286D01*
X187509108Y-49644274D01*
X187548398Y-49549419D01*
X187616270Y-49296116D01*
X187650500Y-49036120D01*
X187650500Y-48773880D01*
X187616270Y-48513884D01*
X187548398Y-48260581D01*
X187461556Y-48050928D01*
X187454088Y-47981461D01*
X187485363Y-47918982D01*
X187488409Y-47915824D01*
X191757416Y-43646819D01*
X191818739Y-43613334D01*
X191845097Y-43610500D01*
X203782034Y-43610500D01*
X203849073Y-43630185D01*
X203894828Y-43682989D01*
X203896595Y-43687047D01*
X203946714Y-43808045D01*
X203946719Y-43808056D01*
X204017677Y-43930957D01*
X204064727Y-44012450D01*
X204064729Y-44012453D01*
X204064730Y-44012454D01*
X204208406Y-44199697D01*
X204208412Y-44199704D01*
X204375295Y-44366587D01*
X204375301Y-44366592D01*
X204562550Y-44510273D01*
X204693918Y-44586118D01*
X204766943Y-44628280D01*
X204766948Y-44628282D01*
X204766951Y-44628284D01*
X204985007Y-44718606D01*
X205212986Y-44779693D01*
X205446989Y-44810500D01*
X205446996Y-44810500D01*
X205683004Y-44810500D01*
X205683011Y-44810500D01*
X205917014Y-44779693D01*
X206144993Y-44718606D01*
X206363049Y-44628284D01*
X206567450Y-44510273D01*
X206754699Y-44366592D01*
X206921592Y-44199699D01*
X207065273Y-44012450D01*
X207183284Y-43808049D01*
X207273606Y-43589993D01*
X207334693Y-43362014D01*
X207365500Y-43128011D01*
X207365500Y-42891989D01*
X207334693Y-42657986D01*
X207273606Y-42430007D01*
X207183284Y-42211951D01*
X207183282Y-42211948D01*
X207183280Y-42211943D01*
X207141118Y-42138918D01*
X207065273Y-42007550D01*
X206921592Y-41820301D01*
X206921587Y-41820295D01*
X206754704Y-41653412D01*
X206754697Y-41653406D01*
X206567454Y-41509730D01*
X206567453Y-41509729D01*
X206567450Y-41509727D01*
X206485957Y-41462677D01*
X206363056Y-41391719D01*
X206363045Y-41391714D01*
X206144993Y-41301394D01*
X205917010Y-41240306D01*
X205683020Y-41209501D01*
X205683017Y-41209500D01*
X205683011Y-41209500D01*
X205446989Y-41209500D01*
X205446983Y-41209500D01*
X205446979Y-41209501D01*
X205212989Y-41240306D01*
X204985006Y-41301394D01*
X204766954Y-41391714D01*
X204766943Y-41391719D01*
X204562545Y-41509730D01*
X204375302Y-41653406D01*
X204375295Y-41653412D01*
X204208412Y-41820295D01*
X204208406Y-41820302D01*
X204064730Y-42007545D01*
X203946719Y-42211943D01*
X203946714Y-42211954D01*
X203896595Y-42332953D01*
X203852754Y-42387356D01*
X203786460Y-42409421D01*
X203782034Y-42409500D01*
X191631669Y-42409500D01*
X191631653Y-42409499D01*
X191624057Y-42409499D01*
X191465943Y-42409499D01*
X191358587Y-42438265D01*
X191313210Y-42450424D01*
X191313209Y-42450425D01*
X191263096Y-42479359D01*
X191263095Y-42479360D01*
X191257234Y-42482744D01*
X191176285Y-42529479D01*
X191176282Y-42529481D01*
X191064478Y-42641286D01*
X186639202Y-47066561D01*
X186577879Y-47100046D01*
X186508187Y-47095062D01*
X186504068Y-47093441D01*
X186294428Y-47006605D01*
X186294421Y-47006603D01*
X186294419Y-47006602D01*
X186041116Y-46938730D01*
X185983339Y-46931123D01*
X185781127Y-46904500D01*
X185781120Y-46904500D01*
X185518880Y-46904500D01*
X185518872Y-46904500D01*
X185287772Y-46934926D01*
X185258884Y-46938730D01*
X185005581Y-47006602D01*
X185005571Y-47006605D01*
X184763309Y-47106953D01*
X184763299Y-47106958D01*
X184536196Y-47238075D01*
X184328148Y-47397718D01*
X184142718Y-47583148D01*
X183983075Y-47791196D01*
X183851958Y-48018299D01*
X183851953Y-48018309D01*
X183751605Y-48260571D01*
X183751602Y-48260581D01*
X183690204Y-48489725D01*
X183683730Y-48513885D01*
X183649500Y-48773872D01*
X175634000Y-48773872D01*
X175634000Y-38409443D01*
X175593077Y-38256715D01*
X175574142Y-38223919D01*
X175546967Y-38176850D01*
X175546967Y-38176849D01*
X175514024Y-38119790D01*
X175514021Y-38119786D01*
X175514020Y-38119784D01*
X175402216Y-38007980D01*
X175402215Y-38007979D01*
X175397885Y-38003649D01*
X175397874Y-38003639D01*
X175097096Y-37702861D01*
X175063611Y-37641538D01*
X175068595Y-37571846D01*
X175070200Y-37567764D01*
X175111158Y-37468887D01*
X175170548Y-37247238D01*
X175200500Y-37019734D01*
X175200500Y-36790266D01*
X175193922Y-36740301D01*
X175193357Y-36736006D01*
X175191759Y-36723872D01*
X183699500Y-36723872D01*
X183699500Y-36986127D01*
X183718700Y-37131954D01*
X183733730Y-37246116D01*
X183793420Y-37468882D01*
X183801602Y-37499418D01*
X183801605Y-37499428D01*
X183901953Y-37741690D01*
X183901958Y-37741700D01*
X184033075Y-37968803D01*
X184192717Y-38176850D01*
X184192726Y-38176860D01*
X184378140Y-38362274D01*
X184378148Y-38362281D01*
X184586196Y-38521924D01*
X184813299Y-38653041D01*
X184813309Y-38653046D01*
X184994383Y-38728049D01*
X185055581Y-38753398D01*
X185308884Y-38821270D01*
X185568880Y-38855500D01*
X185568887Y-38855500D01*
X185831113Y-38855500D01*
X185831120Y-38855500D01*
X186091116Y-38821270D01*
X186344419Y-38753398D01*
X186521340Y-38680114D01*
X186586690Y-38653046D01*
X186586691Y-38653045D01*
X186586697Y-38653043D01*
X186813803Y-38521924D01*
X187021851Y-38362282D01*
X187021855Y-38362277D01*
X187021860Y-38362274D01*
X187207274Y-38176860D01*
X187207283Y-38176850D01*
X187366924Y-37968803D01*
X187457457Y-37811995D01*
X203764500Y-37811995D01*
X203764500Y-38048004D01*
X203764501Y-38048020D01*
X203795306Y-38282010D01*
X203856394Y-38509993D01*
X203946714Y-38728045D01*
X203946719Y-38728056D01*
X204000537Y-38821270D01*
X204064727Y-38932450D01*
X204064729Y-38932453D01*
X204064730Y-38932454D01*
X204208406Y-39119697D01*
X204208412Y-39119704D01*
X204375295Y-39286587D01*
X204375301Y-39286592D01*
X204562550Y-39430273D01*
X204693918Y-39506118D01*
X204766943Y-39548280D01*
X204766948Y-39548282D01*
X204766951Y-39548284D01*
X204985007Y-39638606D01*
X205212986Y-39699693D01*
X205446989Y-39730500D01*
X205446996Y-39730500D01*
X205683004Y-39730500D01*
X205683011Y-39730500D01*
X205917014Y-39699693D01*
X206144993Y-39638606D01*
X206363049Y-39548284D01*
X206567450Y-39430273D01*
X206754699Y-39286592D01*
X206921592Y-39119699D01*
X207065273Y-38932450D01*
X207183284Y-38728049D01*
X207273606Y-38509993D01*
X207334693Y-38282014D01*
X207365500Y-38048011D01*
X207365500Y-37811989D01*
X207334693Y-37577986D01*
X207273606Y-37350007D01*
X207183284Y-37131951D01*
X207183282Y-37131948D01*
X207183280Y-37131943D01*
X207129874Y-37039442D01*
X207065273Y-36927550D01*
X206959936Y-36790272D01*
X206921593Y-36740302D01*
X206921587Y-36740295D01*
X206754704Y-36573412D01*
X206754697Y-36573406D01*
X206567454Y-36429730D01*
X206567453Y-36429729D01*
X206567450Y-36429727D01*
X206485957Y-36382677D01*
X206363056Y-36311719D01*
X206363045Y-36311714D01*
X206144993Y-36221394D01*
X206007796Y-36184632D01*
X205917014Y-36160307D01*
X205917013Y-36160306D01*
X205917010Y-36160306D01*
X205683020Y-36129501D01*
X205683017Y-36129500D01*
X205683011Y-36129500D01*
X205446989Y-36129500D01*
X205446983Y-36129500D01*
X205446979Y-36129501D01*
X205212989Y-36160306D01*
X204985006Y-36221394D01*
X204766954Y-36311714D01*
X204766943Y-36311719D01*
X204562545Y-36429730D01*
X204375302Y-36573406D01*
X204375295Y-36573412D01*
X204208412Y-36740295D01*
X204208406Y-36740302D01*
X204064730Y-36927545D01*
X203946719Y-37131943D01*
X203946714Y-37131954D01*
X203856394Y-37350006D01*
X203795306Y-37577989D01*
X203764501Y-37811979D01*
X203764500Y-37811995D01*
X187457457Y-37811995D01*
X187495599Y-37745930D01*
X187498043Y-37741697D01*
X187598398Y-37499419D01*
X187666270Y-37246116D01*
X187700500Y-36986120D01*
X187700500Y-36723880D01*
X187666270Y-36463884D01*
X187598398Y-36210581D01*
X187577574Y-36160307D01*
X187498046Y-35968309D01*
X187498041Y-35968299D01*
X187366924Y-35741196D01*
X187207281Y-35533148D01*
X187207274Y-35533140D01*
X187021860Y-35347726D01*
X187021851Y-35347718D01*
X186813803Y-35188075D01*
X186586700Y-35056958D01*
X186586690Y-35056953D01*
X186344428Y-34956605D01*
X186344421Y-34956603D01*
X186344419Y-34956602D01*
X186091116Y-34888730D01*
X186033339Y-34881123D01*
X185831127Y-34854500D01*
X185831120Y-34854500D01*
X185568880Y-34854500D01*
X185568872Y-34854500D01*
X185341347Y-34884456D01*
X185308884Y-34888730D01*
X185055581Y-34956602D01*
X185055571Y-34956605D01*
X184813309Y-35056953D01*
X184813299Y-35056958D01*
X184586196Y-35188075D01*
X184378148Y-35347718D01*
X184192718Y-35533148D01*
X184033075Y-35741196D01*
X183901958Y-35968299D01*
X183901953Y-35968309D01*
X183801605Y-36210571D01*
X183801602Y-36210581D01*
X183742882Y-36429730D01*
X183733730Y-36463885D01*
X183699500Y-36723872D01*
X175191759Y-36723872D01*
X175183742Y-36662978D01*
X175170548Y-36562762D01*
X175111158Y-36341113D01*
X175045889Y-36183540D01*
X175023349Y-36129123D01*
X175023346Y-36129117D01*
X175023344Y-36129112D01*
X174908611Y-35930388D01*
X174908608Y-35930385D01*
X174908607Y-35930382D01*
X174768918Y-35748338D01*
X174768911Y-35748330D01*
X174606670Y-35586089D01*
X174606661Y-35586081D01*
X174424617Y-35446392D01*
X174225890Y-35331657D01*
X174225876Y-35331650D01*
X174013887Y-35243842D01*
X173946306Y-35225734D01*
X173792238Y-35184452D01*
X173754215Y-35179446D01*
X173564741Y-35154500D01*
X173564734Y-35154500D01*
X173335266Y-35154500D01*
X173335258Y-35154500D01*
X173118715Y-35183009D01*
X173107762Y-35184452D01*
X173069217Y-35194780D01*
X172886112Y-35243842D01*
X172674123Y-35331650D01*
X172674109Y-35331657D01*
X172475382Y-35446392D01*
X172293338Y-35586081D01*
X172131081Y-35748338D01*
X171991392Y-35930382D01*
X171876657Y-36129109D01*
X171876650Y-36129123D01*
X171788842Y-36341112D01*
X171729453Y-36562759D01*
X171729451Y-36562770D01*
X171699500Y-36790258D01*
X171699500Y-37019741D01*
X171714274Y-37131951D01*
X171729452Y-37247238D01*
X171788841Y-37468882D01*
X171788842Y-37468887D01*
X171876650Y-37680876D01*
X171876657Y-37680890D01*
X171991392Y-37879617D01*
X172131081Y-38061661D01*
X172131089Y-38061670D01*
X172293330Y-38223911D01*
X172293338Y-38223918D01*
X172475382Y-38363607D01*
X172475385Y-38363608D01*
X172475388Y-38363611D01*
X172674112Y-38478344D01*
X172674117Y-38478346D01*
X172674123Y-38478349D01*
X172710723Y-38493509D01*
X172886113Y-38566158D01*
X173107762Y-38625548D01*
X173335266Y-38655500D01*
X173335273Y-38655500D01*
X173564727Y-38655500D01*
X173564734Y-38655500D01*
X173792238Y-38625548D01*
X174013887Y-38566158D01*
X174112728Y-38525215D01*
X174132604Y-38523078D01*
X174151334Y-38516093D01*
X174166630Y-38519420D01*
X174182196Y-38517747D01*
X174200073Y-38526695D01*
X174219607Y-38530945D01*
X174241893Y-38547628D01*
X174244675Y-38549021D01*
X174247861Y-38552096D01*
X174396681Y-38700916D01*
X174430166Y-38762239D01*
X174433000Y-38788597D01*
X174433000Y-47236457D01*
X174413315Y-47303496D01*
X174360511Y-47349251D01*
X174291353Y-47359195D01*
X174247003Y-47343846D01*
X174225889Y-47331656D01*
X174225876Y-47331650D01*
X174013887Y-47243842D01*
X173986325Y-47236457D01*
X173792238Y-47184452D01*
X173754215Y-47179446D01*
X173564741Y-47154500D01*
X173564734Y-47154500D01*
X173335266Y-47154500D01*
X173335258Y-47154500D01*
X173118715Y-47183009D01*
X173107762Y-47184452D01*
X173014076Y-47209554D01*
X172886112Y-47243842D01*
X172674123Y-47331650D01*
X172674109Y-47331657D01*
X172475382Y-47446392D01*
X172293338Y-47586081D01*
X172131081Y-47748338D01*
X171991392Y-47930382D01*
X171876657Y-48129109D01*
X171876650Y-48129123D01*
X171788842Y-48341112D01*
X171729453Y-48562759D01*
X171729451Y-48562770D01*
X171699500Y-48790258D01*
X171699500Y-49019741D01*
X171721918Y-49190016D01*
X171729452Y-49247238D01*
X171757994Y-49353760D01*
X171786281Y-49459331D01*
X171788842Y-49468887D01*
X171828120Y-49563713D01*
X171829783Y-49567726D01*
X171837252Y-49637196D01*
X171805977Y-49699675D01*
X171802903Y-49702860D01*
X169710786Y-51794978D01*
X169598981Y-51906782D01*
X169598979Y-51906785D01*
X169548861Y-51993594D01*
X169548859Y-51993596D01*
X169519925Y-52043709D01*
X169519924Y-52043710D01*
X169519923Y-52043715D01*
X169478999Y-52196443D01*
X169478999Y-52196445D01*
X169478999Y-52364546D01*
X169479000Y-52364559D01*
X169479000Y-88831434D01*
X169459315Y-88898473D01*
X169458102Y-88900325D01*
X169370109Y-89032014D01*
X169370102Y-89032027D01*
X169309764Y-89177698D01*
X169309761Y-89177710D01*
X169279000Y-89332353D01*
X169279000Y-89490046D01*
X169309761Y-89644689D01*
X169309764Y-89644701D01*
X169370102Y-89790372D01*
X169370109Y-89790385D01*
X169457710Y-89921488D01*
X169457713Y-89921492D01*
X169569207Y-90032986D01*
X169569211Y-90032989D01*
X169700314Y-90120590D01*
X169700327Y-90120597D01*
X169845998Y-90180935D01*
X169846003Y-90180937D01*
X169910647Y-90193795D01*
X170001349Y-90211838D01*
X170063260Y-90244223D01*
X170064839Y-90245774D01*
X176035081Y-96216016D01*
X176068566Y-96277339D01*
X176071400Y-96303697D01*
X176071400Y-110351634D01*
X176051715Y-110418673D01*
X176050502Y-110420525D01*
X175962509Y-110552214D01*
X175962502Y-110552227D01*
X175902164Y-110697898D01*
X175902161Y-110697908D01*
X175875331Y-110832792D01*
X175842946Y-110894703D01*
X175782230Y-110929277D01*
X175753714Y-110932600D01*
X175004769Y-110932600D01*
X175004753Y-110932599D01*
X174997157Y-110932599D01*
X174839043Y-110932599D01*
X174724497Y-110963292D01*
X174686314Y-110973523D01*
X174648304Y-110995469D01*
X174648303Y-110995469D01*
X174549387Y-111052577D01*
X174549382Y-111052581D01*
X170681881Y-114920082D01*
X170681880Y-114920084D01*
X170633367Y-115004113D01*
X170631761Y-115006894D01*
X170631759Y-115006896D01*
X170602825Y-115057009D01*
X170602824Y-115057010D01*
X170602823Y-115057015D01*
X170561899Y-115209743D01*
X170561899Y-115209745D01*
X170561899Y-115377846D01*
X170561900Y-115377859D01*
X170561900Y-115488202D01*
X170542215Y-115555241D01*
X170489411Y-115600996D01*
X170420253Y-115610940D01*
X170356697Y-115581915D01*
X170350219Y-115575883D01*
X156622619Y-101848283D01*
X156589134Y-101786960D01*
X156586300Y-101760602D01*
X156586300Y-99482135D01*
X160704500Y-99482135D01*
X160704500Y-102077870D01*
X160704501Y-102077876D01*
X160710908Y-102137483D01*
X160761202Y-102272328D01*
X160761206Y-102272335D01*
X160847452Y-102387544D01*
X160847455Y-102387547D01*
X160962664Y-102473793D01*
X160962671Y-102473797D01*
X161007618Y-102490561D01*
X161097517Y-102524091D01*
X161157127Y-102530500D01*
X161230500Y-102530499D01*
X161297538Y-102550183D01*
X161343294Y-102602986D01*
X161354500Y-102654499D01*
X161354500Y-103117230D01*
X161354499Y-103117248D01*
X161354499Y-103282954D01*
X161354498Y-103282954D01*
X161395423Y-103435685D01*
X161424358Y-103485800D01*
X161424359Y-103485804D01*
X161424360Y-103485804D01*
X161474479Y-103572614D01*
X161474481Y-103572617D01*
X161593349Y-103691485D01*
X161593355Y-103691490D01*
X165133825Y-107231960D01*
X165167310Y-107293283D01*
X165167761Y-107295449D01*
X165198661Y-107450791D01*
X165198664Y-107450801D01*
X165259002Y-107596472D01*
X165259009Y-107596485D01*
X165346610Y-107727588D01*
X165346613Y-107727592D01*
X165458107Y-107839086D01*
X165458111Y-107839089D01*
X165589214Y-107926690D01*
X165589227Y-107926697D01*
X165732945Y-107986226D01*
X165734903Y-107987037D01*
X165856388Y-108011202D01*
X165889553Y-108017799D01*
X165889556Y-108017800D01*
X165889558Y-108017800D01*
X166047244Y-108017800D01*
X166047245Y-108017799D01*
X166201897Y-107987037D01*
X166347579Y-107926694D01*
X166478689Y-107839089D01*
X166590189Y-107727589D01*
X166677794Y-107596479D01*
X166738137Y-107450797D01*
X166768900Y-107296142D01*
X166768900Y-107138458D01*
X166768900Y-107138455D01*
X166768899Y-107138453D01*
X166747272Y-107029727D01*
X166738137Y-106983803D01*
X166702848Y-106898607D01*
X166677797Y-106838127D01*
X166677790Y-106838114D01*
X166590189Y-106707011D01*
X166590186Y-106707007D01*
X166478692Y-106595513D01*
X166478688Y-106595510D01*
X166347585Y-106507909D01*
X166347572Y-106507902D01*
X166201901Y-106447564D01*
X166201891Y-106447561D01*
X166046551Y-106416662D01*
X165984641Y-106384277D01*
X165983062Y-106382726D01*
X162591819Y-102991483D01*
X162577115Y-102964555D01*
X162560523Y-102938737D01*
X162559631Y-102932536D01*
X162558334Y-102930160D01*
X162555500Y-102903802D01*
X162555500Y-102654499D01*
X162575185Y-102587460D01*
X162627989Y-102541705D01*
X162679500Y-102530499D01*
X162752871Y-102530499D01*
X162752872Y-102530499D01*
X162812483Y-102524091D01*
X162947331Y-102473796D01*
X163062546Y-102387546D01*
X163148796Y-102272331D01*
X163199091Y-102137483D01*
X163205500Y-102077873D01*
X163205499Y-100181577D01*
X165784500Y-100181577D01*
X165784500Y-101378422D01*
X165815290Y-101572826D01*
X165876117Y-101760029D01*
X165921085Y-101848283D01*
X165965476Y-101935405D01*
X166081172Y-102094646D01*
X166220354Y-102233828D01*
X166379595Y-102349524D01*
X166454214Y-102387544D01*
X166554970Y-102438882D01*
X166554972Y-102438882D01*
X166554975Y-102438884D01*
X166655317Y-102471487D01*
X166742173Y-102499709D01*
X166936578Y-102530500D01*
X166936583Y-102530500D01*
X167133422Y-102530500D01*
X167327826Y-102499709D01*
X167407574Y-102473797D01*
X167515025Y-102438884D01*
X167690405Y-102349524D01*
X167849646Y-102233828D01*
X167988828Y-102094646D01*
X168104524Y-101935405D01*
X168193884Y-101760025D01*
X168254709Y-101572826D01*
X168285500Y-101378422D01*
X168285500Y-100181577D01*
X168254709Y-99987173D01*
X168193882Y-99799970D01*
X168104523Y-99624594D01*
X167988828Y-99465354D01*
X167849646Y-99326172D01*
X167706659Y-99222285D01*
X167690407Y-99210477D01*
X167686527Y-99208100D01*
X167670341Y-99190210D01*
X167651202Y-99175537D01*
X167644613Y-99161773D01*
X167639651Y-99156289D01*
X167634644Y-99144368D01*
X167632886Y-99139485D01*
X167594577Y-98996515D01*
X167565177Y-98945594D01*
X167515520Y-98859584D01*
X167434018Y-98778082D01*
X167400534Y-98716758D01*
X167397700Y-98690401D01*
X167397700Y-60248865D01*
X167417385Y-60181826D01*
X167418598Y-60179974D01*
X167506590Y-60048285D01*
X167506590Y-60048284D01*
X167506594Y-60048279D01*
X167566937Y-59902597D01*
X167597700Y-59747942D01*
X167597700Y-59590258D01*
X167597700Y-59590255D01*
X167597699Y-59590253D01*
X167566937Y-59435603D01*
X167544927Y-59382466D01*
X167506597Y-59289927D01*
X167506590Y-59289914D01*
X167418989Y-59158811D01*
X167418986Y-59158807D01*
X167307492Y-59047313D01*
X167307488Y-59047310D01*
X167176385Y-58959709D01*
X167176372Y-58959702D01*
X167030701Y-58899364D01*
X167030689Y-58899361D01*
X166876045Y-58868600D01*
X166876042Y-58868600D01*
X166718358Y-58868600D01*
X166718355Y-58868600D01*
X166563710Y-58899361D01*
X166563698Y-58899364D01*
X166418027Y-58959702D01*
X166418014Y-58959709D01*
X166286911Y-59047310D01*
X166286907Y-59047313D01*
X166175413Y-59158807D01*
X166175410Y-59158811D01*
X166087809Y-59289914D01*
X166087802Y-59289927D01*
X166027464Y-59435598D01*
X166027461Y-59435610D01*
X165996700Y-59590253D01*
X165996700Y-59747946D01*
X166027461Y-59902589D01*
X166027464Y-59902601D01*
X166087802Y-60048272D01*
X166087809Y-60048285D01*
X166175802Y-60179974D01*
X166196680Y-60246651D01*
X166196700Y-60248865D01*
X166196700Y-98903830D01*
X166196699Y-98903848D01*
X166196699Y-99069554D01*
X166196698Y-99069554D01*
X166237398Y-99221445D01*
X166235735Y-99291295D01*
X166205305Y-99341220D01*
X166081171Y-99465355D01*
X165965476Y-99624594D01*
X165876117Y-99799970D01*
X165815290Y-99987173D01*
X165784500Y-100181577D01*
X163205499Y-100181577D01*
X163205499Y-99482128D01*
X163199091Y-99422517D01*
X163168769Y-99341220D01*
X163148797Y-99287671D01*
X163148793Y-99287664D01*
X163062547Y-99172455D01*
X163062544Y-99172452D01*
X162947335Y-99086206D01*
X162947328Y-99086202D01*
X162812482Y-99035908D01*
X162812483Y-99035908D01*
X162752883Y-99029501D01*
X162752881Y-99029500D01*
X162752873Y-99029500D01*
X162752864Y-99029500D01*
X161157129Y-99029500D01*
X161157123Y-99029501D01*
X161097516Y-99035908D01*
X160962671Y-99086202D01*
X160962664Y-99086206D01*
X160847455Y-99172452D01*
X160847452Y-99172455D01*
X160761206Y-99287664D01*
X160761202Y-99287671D01*
X160710908Y-99422517D01*
X160706303Y-99465354D01*
X160704501Y-99482123D01*
X160704500Y-99482135D01*
X156586300Y-99482135D01*
X156586300Y-66493765D01*
X156605985Y-66426726D01*
X156607198Y-66424874D01*
X156695190Y-66293185D01*
X156695190Y-66293184D01*
X156695194Y-66293179D01*
X156755537Y-66147497D01*
X156786300Y-65992842D01*
X156786300Y-65835158D01*
X156786300Y-65835155D01*
X156786299Y-65835153D01*
X156755538Y-65680510D01*
X156755537Y-65680503D01*
X156718047Y-65589993D01*
X156695197Y-65534827D01*
X156695190Y-65534814D01*
X156607589Y-65403711D01*
X156607586Y-65403707D01*
X156496092Y-65292213D01*
X156496088Y-65292210D01*
X156364985Y-65204609D01*
X156364972Y-65204602D01*
X156219301Y-65144264D01*
X156219289Y-65144261D01*
X156064640Y-65113498D01*
X156059140Y-65112957D01*
X155994354Y-65086794D01*
X155953998Y-65029757D01*
X155947300Y-64989555D01*
X155947300Y-58210046D01*
X155966985Y-58143007D01*
X156019789Y-58097252D01*
X156088947Y-58087308D01*
X156140191Y-58106944D01*
X156173950Y-58129501D01*
X156260401Y-58187266D01*
X156260403Y-58187267D01*
X156260407Y-58187269D01*
X156444660Y-58263588D01*
X156444665Y-58263590D01*
X156444669Y-58263590D01*
X156444670Y-58263591D01*
X156640274Y-58302500D01*
X156640277Y-58302500D01*
X156839725Y-58302500D01*
X156971324Y-58276322D01*
X157035335Y-58263590D01*
X157219599Y-58187266D01*
X157385431Y-58076460D01*
X157526460Y-57935431D01*
X157637266Y-57769599D01*
X157713590Y-57585335D01*
X157734220Y-57481622D01*
X157752500Y-57389725D01*
X157752500Y-57190274D01*
X157713591Y-56994670D01*
X157713590Y-56994669D01*
X157713590Y-56994665D01*
X157669711Y-56888730D01*
X157637269Y-56810407D01*
X157637262Y-56810394D01*
X157526460Y-56644569D01*
X157526457Y-56644565D01*
X157385434Y-56503542D01*
X157385430Y-56503539D01*
X157219605Y-56392737D01*
X157219592Y-56392730D01*
X157035339Y-56316411D01*
X157035329Y-56316408D01*
X156839725Y-56277500D01*
X156839723Y-56277500D01*
X156640277Y-56277500D01*
X156640275Y-56277500D01*
X156444670Y-56316408D01*
X156444660Y-56316411D01*
X156260407Y-56392730D01*
X156260394Y-56392737D01*
X156140191Y-56473055D01*
X156073513Y-56493933D01*
X156006133Y-56475448D01*
X155959443Y-56423469D01*
X155947300Y-56369953D01*
X155947300Y-42723872D01*
X169499500Y-42723872D01*
X169499500Y-42986127D01*
X169518180Y-43128004D01*
X169533730Y-43246116D01*
X169595177Y-43475440D01*
X169601602Y-43499418D01*
X169601605Y-43499428D01*
X169701953Y-43741690D01*
X169701958Y-43741700D01*
X169833075Y-43968803D01*
X169992718Y-44176851D01*
X169992726Y-44176860D01*
X170178140Y-44362274D01*
X170178148Y-44362281D01*
X170178149Y-44362282D01*
X170183766Y-44366592D01*
X170386196Y-44521924D01*
X170613299Y-44653041D01*
X170613309Y-44653046D01*
X170855571Y-44753394D01*
X170855581Y-44753398D01*
X171108884Y-44821270D01*
X171368880Y-44855500D01*
X171368887Y-44855500D01*
X171631113Y-44855500D01*
X171631120Y-44855500D01*
X171891116Y-44821270D01*
X172144419Y-44753398D01*
X172386697Y-44653043D01*
X172613803Y-44521924D01*
X172821851Y-44362282D01*
X172821855Y-44362277D01*
X172821860Y-44362274D01*
X173007274Y-44176860D01*
X173007277Y-44176855D01*
X173007282Y-44176851D01*
X173166924Y-43968803D01*
X173298043Y-43741697D01*
X173398398Y-43499419D01*
X173466270Y-43246116D01*
X173500500Y-42986120D01*
X173500500Y-42723880D01*
X173466270Y-42463884D01*
X173398398Y-42210581D01*
X173391153Y-42193090D01*
X173298046Y-41968309D01*
X173298041Y-41968299D01*
X173166924Y-41741196D01*
X173007281Y-41533148D01*
X173007274Y-41533140D01*
X172821860Y-41347726D01*
X172821851Y-41347718D01*
X172613803Y-41188075D01*
X172386700Y-41056958D01*
X172386690Y-41056953D01*
X172144428Y-40956605D01*
X172144421Y-40956603D01*
X172144419Y-40956602D01*
X171891116Y-40888730D01*
X171833339Y-40881123D01*
X171631127Y-40854500D01*
X171631120Y-40854500D01*
X171368880Y-40854500D01*
X171368872Y-40854500D01*
X171137772Y-40884926D01*
X171108884Y-40888730D01*
X170855581Y-40956602D01*
X170855571Y-40956605D01*
X170613309Y-41056953D01*
X170613299Y-41056958D01*
X170386196Y-41188075D01*
X170178148Y-41347718D01*
X169992718Y-41533148D01*
X169833075Y-41741196D01*
X169701958Y-41968299D01*
X169701953Y-41968309D01*
X169601605Y-42210571D01*
X169601602Y-42210581D01*
X169533730Y-42463884D01*
X169531692Y-42479361D01*
X169499500Y-42723872D01*
X155947300Y-42723872D01*
X155947300Y-42650860D01*
X155947301Y-42650847D01*
X155947301Y-42482744D01*
X155946395Y-42479361D01*
X155906377Y-42330016D01*
X155906373Y-42330009D01*
X155827324Y-42193090D01*
X155827318Y-42193082D01*
X153272841Y-39638605D01*
X150703960Y-37069725D01*
X155727499Y-37069725D01*
X155766408Y-37265329D01*
X155766411Y-37265339D01*
X155842730Y-37449592D01*
X155842737Y-37449605D01*
X155953539Y-37615430D01*
X155953542Y-37615434D01*
X156094565Y-37756457D01*
X156094569Y-37756460D01*
X156260394Y-37867262D01*
X156260407Y-37867269D01*
X156444660Y-37943588D01*
X156444665Y-37943590D01*
X156444669Y-37943590D01*
X156444670Y-37943591D01*
X156640274Y-37982500D01*
X156640277Y-37982500D01*
X156839725Y-37982500D01*
X156971324Y-37956322D01*
X157035335Y-37943590D01*
X157219599Y-37867266D01*
X157385431Y-37756460D01*
X157526460Y-37615431D01*
X157637266Y-37449599D01*
X157713590Y-37265335D01*
X157732463Y-37170457D01*
X157752500Y-37069725D01*
X157752500Y-36870274D01*
X157713591Y-36674670D01*
X157713590Y-36674669D01*
X157713590Y-36674665D01*
X157671650Y-36573412D01*
X157637269Y-36490407D01*
X157637262Y-36490394D01*
X157526460Y-36324569D01*
X157526457Y-36324565D01*
X157385434Y-36183542D01*
X157385430Y-36183539D01*
X157219605Y-36072737D01*
X157219592Y-36072730D01*
X157035339Y-35996411D01*
X157035329Y-35996408D01*
X156839725Y-35957500D01*
X156839723Y-35957500D01*
X156640277Y-35957500D01*
X156640275Y-35957500D01*
X156444670Y-35996408D01*
X156444660Y-35996411D01*
X156260407Y-36072730D01*
X156260394Y-36072737D01*
X156094569Y-36183539D01*
X156094565Y-36183542D01*
X155953542Y-36324565D01*
X155953539Y-36324569D01*
X155842737Y-36490394D01*
X155842730Y-36490407D01*
X155766411Y-36674660D01*
X155766408Y-36674670D01*
X155727500Y-36870274D01*
X155727500Y-36870277D01*
X155727500Y-37069723D01*
X155727500Y-37069725D01*
X155727499Y-37069725D01*
X150703960Y-37069725D01*
X149748761Y-36114526D01*
X149715277Y-36053204D01*
X149715843Y-36000478D01*
X149715651Y-36000448D01*
X149715857Y-35999143D01*
X149715871Y-35997891D01*
X149716409Y-35995646D01*
X149716413Y-35995636D01*
X149747500Y-35799361D01*
X149747500Y-35600639D01*
X149716413Y-35404364D01*
X149664257Y-35243842D01*
X149655006Y-35215370D01*
X149655005Y-35215367D01*
X149609035Y-35125149D01*
X149564787Y-35038306D01*
X149447981Y-34877536D01*
X149307464Y-34737019D01*
X149146694Y-34620213D01*
X148969632Y-34529994D01*
X148969629Y-34529993D01*
X148780637Y-34468587D01*
X148682498Y-34453043D01*
X148584361Y-34437500D01*
X148385639Y-34437500D01*
X148320214Y-34447862D01*
X148189362Y-34468587D01*
X148000370Y-34529993D01*
X148000367Y-34529994D01*
X147823305Y-34620213D01*
X147662533Y-34737021D01*
X147522021Y-34877533D01*
X147405213Y-35038305D01*
X147325485Y-35194780D01*
X147277510Y-35245576D01*
X147209689Y-35262371D01*
X147143554Y-35239833D01*
X147104515Y-35194780D01*
X147083991Y-35154500D01*
X147024787Y-35038306D01*
X146907981Y-34877536D01*
X146767464Y-34737019D01*
X146606694Y-34620213D01*
X146429632Y-34529994D01*
X146429629Y-34529993D01*
X146240637Y-34468587D01*
X146142498Y-34453043D01*
X146044361Y-34437500D01*
X145845639Y-34437500D01*
X145780214Y-34447862D01*
X145649362Y-34468587D01*
X145460370Y-34529993D01*
X145460367Y-34529994D01*
X145283305Y-34620213D01*
X145122533Y-34737021D01*
X144982021Y-34877533D01*
X144865213Y-35038305D01*
X144785485Y-35194780D01*
X144737510Y-35245576D01*
X144669689Y-35262371D01*
X144603554Y-35239833D01*
X144564515Y-35194780D01*
X144543991Y-35154500D01*
X144484787Y-35038306D01*
X144367981Y-34877536D01*
X144227464Y-34737019D01*
X144066694Y-34620213D01*
X143889632Y-34529994D01*
X143889629Y-34529993D01*
X143700637Y-34468587D01*
X143602498Y-34453043D01*
X143504361Y-34437500D01*
X143305639Y-34437500D01*
X143240214Y-34447862D01*
X143109362Y-34468587D01*
X142920370Y-34529993D01*
X142920367Y-34529994D01*
X142743305Y-34620213D01*
X142582533Y-34737021D01*
X142442021Y-34877533D01*
X142325213Y-35038305D01*
X142245485Y-35194780D01*
X142197510Y-35245576D01*
X142129689Y-35262371D01*
X142063554Y-35239833D01*
X142024515Y-35194780D01*
X142003991Y-35154500D01*
X141944787Y-35038306D01*
X141827981Y-34877536D01*
X141687464Y-34737019D01*
X141526694Y-34620213D01*
X141349632Y-34529994D01*
X141349629Y-34529993D01*
X141160637Y-34468587D01*
X141062498Y-34453043D01*
X140964361Y-34437500D01*
X140765639Y-34437500D01*
X140700214Y-34447862D01*
X140569362Y-34468587D01*
X140380370Y-34529993D01*
X140380367Y-34529994D01*
X140203305Y-34620213D01*
X140042533Y-34737021D01*
X139902021Y-34877533D01*
X139785213Y-35038305D01*
X139705485Y-35194780D01*
X139657510Y-35245576D01*
X139589689Y-35262371D01*
X139523554Y-35239833D01*
X139484515Y-35194780D01*
X139463991Y-35154500D01*
X139404787Y-35038306D01*
X139287981Y-34877536D01*
X139147464Y-34737019D01*
X138986694Y-34620213D01*
X138809632Y-34529994D01*
X138809629Y-34529993D01*
X138620637Y-34468587D01*
X138522498Y-34453043D01*
X138424361Y-34437500D01*
X138225639Y-34437500D01*
X138160214Y-34447862D01*
X138029362Y-34468587D01*
X137840370Y-34529993D01*
X137840367Y-34529994D01*
X137663305Y-34620213D01*
X137502533Y-34737021D01*
X137362021Y-34877533D01*
X137245213Y-35038305D01*
X137165485Y-35194780D01*
X137117510Y-35245576D01*
X137049689Y-35262371D01*
X136983554Y-35239833D01*
X136944515Y-35194780D01*
X136923991Y-35154500D01*
X136864787Y-35038306D01*
X136747981Y-34877536D01*
X136607464Y-34737019D01*
X136446694Y-34620213D01*
X136269632Y-34529994D01*
X136269629Y-34529993D01*
X136080637Y-34468587D01*
X135982498Y-34453043D01*
X135884361Y-34437500D01*
X135685639Y-34437500D01*
X135646384Y-34443717D01*
X135489360Y-34468587D01*
X135487087Y-34469133D01*
X135486197Y-34469088D01*
X135484552Y-34469349D01*
X135484497Y-34469003D01*
X135476722Y-34468613D01*
X135466999Y-34472240D01*
X135442424Y-34466894D01*
X135417305Y-34465635D01*
X135407052Y-34459199D01*
X135398726Y-34457388D01*
X135370472Y-34436237D01*
X135194990Y-34260755D01*
X135194988Y-34260752D01*
X135076117Y-34141881D01*
X135076116Y-34141880D01*
X134989304Y-34091760D01*
X134989304Y-34091759D01*
X134989300Y-34091758D01*
X134939185Y-34062823D01*
X134786457Y-34021899D01*
X134628343Y-34021899D01*
X134620747Y-34021899D01*
X134620731Y-34021900D01*
X127790969Y-34021900D01*
X127790953Y-34021899D01*
X127783357Y-34021899D01*
X127625243Y-34021899D01*
X127517887Y-34050665D01*
X127472510Y-34062824D01*
X127472509Y-34062825D01*
X127422396Y-34091759D01*
X127422395Y-34091760D01*
X127378989Y-34116820D01*
X127335585Y-34141879D01*
X127335582Y-34141881D01*
X127223778Y-34253686D01*
X126681635Y-34795828D01*
X126620312Y-34829313D01*
X126550620Y-34824329D01*
X126506273Y-34795828D01*
X126447466Y-34737021D01*
X126447464Y-34737019D01*
X126286694Y-34620213D01*
X126109632Y-34529994D01*
X126109629Y-34529993D01*
X125920637Y-34468587D01*
X125822498Y-34453043D01*
X125724361Y-34437500D01*
X125525639Y-34437500D01*
X125460214Y-34447862D01*
X125329362Y-34468587D01*
X125140370Y-34529993D01*
X125140367Y-34529994D01*
X124963305Y-34620213D01*
X124802533Y-34737021D01*
X124662021Y-34877533D01*
X124545213Y-35038305D01*
X124454994Y-35215367D01*
X124454993Y-35215370D01*
X124393587Y-35404362D01*
X124362500Y-35600639D01*
X124362500Y-35799360D01*
X124393587Y-35995637D01*
X124454993Y-36184629D01*
X124454994Y-36184632D01*
X124492526Y-36258291D01*
X124545213Y-36361694D01*
X124662019Y-36522464D01*
X124802536Y-36662981D01*
X124963306Y-36779787D01*
X125050149Y-36824035D01*
X125140367Y-36870005D01*
X125140370Y-36870006D01*
X125234866Y-36900709D01*
X125329364Y-36931413D01*
X125525639Y-36962500D01*
X125525640Y-36962500D01*
X125724360Y-36962500D01*
X125724361Y-36962500D01*
X125920636Y-36931413D01*
X126109632Y-36870005D01*
X126109636Y-36870003D01*
X126114204Y-36867676D01*
X126182873Y-36854779D01*
X126247614Y-36881055D01*
X126287872Y-36938161D01*
X126294500Y-36978160D01*
X126294500Y-45629902D01*
X126274815Y-45696941D01*
X126258181Y-45717583D01*
X98067582Y-73908181D01*
X98006259Y-73941666D01*
X97979901Y-73944500D01*
X95979998Y-73944500D01*
X95979981Y-73944501D01*
X95877203Y-73955000D01*
X95877200Y-73955001D01*
X95710668Y-74010185D01*
X95710663Y-74010187D01*
X95561342Y-74102289D01*
X95437289Y-74226342D01*
X95345187Y-74375663D01*
X95345185Y-74375668D01*
X95323131Y-74442222D01*
X95290001Y-74542203D01*
X95290001Y-74542204D01*
X95290000Y-74542204D01*
X95279500Y-74644983D01*
X95279500Y-76845001D01*
X95279501Y-76845018D01*
X95290000Y-76947796D01*
X95290001Y-76947799D01*
X95328959Y-77065365D01*
X95345186Y-77114334D01*
X95437288Y-77263656D01*
X95561344Y-77387712D01*
X95710666Y-77479814D01*
X95877203Y-77534999D01*
X95979991Y-77545500D01*
X98180008Y-77545499D01*
X98282797Y-77534999D01*
X98449334Y-77479814D01*
X98598656Y-77387712D01*
X98722712Y-77263656D01*
X98814814Y-77114334D01*
X98869999Y-76947797D01*
X98880500Y-76845009D01*
X98880499Y-74845095D01*
X98900184Y-74778057D01*
X98916813Y-74757420D01*
X115213595Y-58460639D01*
X124362500Y-58460639D01*
X124362500Y-58659360D01*
X124393587Y-58855637D01*
X124454993Y-59044629D01*
X124454994Y-59044632D01*
X124513170Y-59158807D01*
X124545213Y-59221694D01*
X124662019Y-59382464D01*
X124802536Y-59522981D01*
X124963306Y-59639787D01*
X125016253Y-59666765D01*
X125140367Y-59730005D01*
X125140370Y-59730006D01*
X125195579Y-59747944D01*
X125329364Y-59791413D01*
X125525639Y-59822500D01*
X125525640Y-59822500D01*
X125724360Y-59822500D01*
X125724361Y-59822500D01*
X125920636Y-59791413D01*
X126109632Y-59730005D01*
X126286694Y-59639787D01*
X126447464Y-59522981D01*
X126587981Y-59382464D01*
X126704787Y-59221694D01*
X126795005Y-59044632D01*
X126856413Y-58855636D01*
X126887500Y-58659361D01*
X126887500Y-58460639D01*
X126856413Y-58264364D01*
X126812594Y-58129501D01*
X126795006Y-58075370D01*
X126795005Y-58075367D01*
X126740450Y-57968299D01*
X126704787Y-57898306D01*
X126587981Y-57737536D01*
X126447464Y-57597019D01*
X126286694Y-57480213D01*
X126260005Y-57466614D01*
X126109632Y-57389994D01*
X126109629Y-57389993D01*
X125920637Y-57328587D01*
X125822498Y-57313043D01*
X125724361Y-57297500D01*
X125525639Y-57297500D01*
X125460214Y-57307862D01*
X125329362Y-57328587D01*
X125140370Y-57389993D01*
X125140367Y-57389994D01*
X124963305Y-57480213D01*
X124802533Y-57597021D01*
X124662021Y-57737533D01*
X124545213Y-57898305D01*
X124454994Y-58075367D01*
X124454993Y-58075370D01*
X124393587Y-58264362D01*
X124362500Y-58460639D01*
X115213595Y-58460639D01*
X127253506Y-46420728D01*
X127253511Y-46420724D01*
X127263714Y-46410520D01*
X127263716Y-46410520D01*
X127375520Y-46298716D01*
X127454577Y-46161784D01*
X127484534Y-46049981D01*
X127495500Y-46009058D01*
X127495500Y-45850943D01*
X127495500Y-35731797D01*
X127515185Y-35664758D01*
X127531819Y-35644116D01*
X127916716Y-35259219D01*
X127978039Y-35225734D01*
X128004397Y-35222900D01*
X131901877Y-35222900D01*
X131968916Y-35242585D01*
X132014671Y-35295389D01*
X132024615Y-35364547D01*
X132019807Y-35385220D01*
X132013587Y-35404361D01*
X131982500Y-35600639D01*
X131982500Y-35799360D01*
X132013587Y-35995637D01*
X132074993Y-36184629D01*
X132074994Y-36184632D01*
X132112526Y-36258291D01*
X132165213Y-36361694D01*
X132282019Y-36522464D01*
X132422536Y-36662981D01*
X132583306Y-36779787D01*
X132670149Y-36824035D01*
X132760367Y-36870005D01*
X132760370Y-36870006D01*
X132854866Y-36900709D01*
X132949364Y-36931413D01*
X133145639Y-36962500D01*
X133145640Y-36962500D01*
X133344360Y-36962500D01*
X133344361Y-36962500D01*
X133540636Y-36931413D01*
X133729632Y-36870005D01*
X133906694Y-36779787D01*
X134067464Y-36662981D01*
X134207981Y-36522464D01*
X134324787Y-36361694D01*
X134404515Y-36205218D01*
X134452490Y-36154423D01*
X134520311Y-36137628D01*
X134586446Y-36160165D01*
X134625484Y-36205218D01*
X134705213Y-36361694D01*
X134822019Y-36522464D01*
X134962536Y-36662981D01*
X135123306Y-36779787D01*
X135210149Y-36824035D01*
X135300367Y-36870005D01*
X135300370Y-36870006D01*
X135394866Y-36900709D01*
X135489364Y-36931413D01*
X135685639Y-36962500D01*
X135685640Y-36962500D01*
X135884360Y-36962500D01*
X135884361Y-36962500D01*
X136080636Y-36931413D01*
X136269632Y-36870005D01*
X136446694Y-36779787D01*
X136607464Y-36662981D01*
X136747981Y-36522464D01*
X136864787Y-36361694D01*
X136944515Y-36205218D01*
X136992490Y-36154423D01*
X137060311Y-36137628D01*
X137126446Y-36160165D01*
X137165484Y-36205218D01*
X137245213Y-36361694D01*
X137362019Y-36522464D01*
X137502536Y-36662981D01*
X137663306Y-36779787D01*
X137750149Y-36824035D01*
X137840367Y-36870005D01*
X137840370Y-36870006D01*
X137934866Y-36900709D01*
X138029364Y-36931413D01*
X138225639Y-36962500D01*
X138225640Y-36962500D01*
X138424360Y-36962500D01*
X138424361Y-36962500D01*
X138620636Y-36931413D01*
X138809632Y-36870005D01*
X138986694Y-36779787D01*
X139147464Y-36662981D01*
X139287981Y-36522464D01*
X139404787Y-36361694D01*
X139484515Y-36205218D01*
X139532490Y-36154423D01*
X139600311Y-36137628D01*
X139666446Y-36160165D01*
X139705484Y-36205218D01*
X139785213Y-36361694D01*
X139902019Y-36522464D01*
X140042536Y-36662981D01*
X140203306Y-36779787D01*
X140290149Y-36824035D01*
X140380367Y-36870005D01*
X140380370Y-36870006D01*
X140474866Y-36900709D01*
X140569364Y-36931413D01*
X140765639Y-36962500D01*
X140765640Y-36962500D01*
X140964360Y-36962500D01*
X140964361Y-36962500D01*
X141160636Y-36931413D01*
X141349632Y-36870005D01*
X141526694Y-36779787D01*
X141687464Y-36662981D01*
X141827981Y-36522464D01*
X141944787Y-36361694D01*
X142024515Y-36205218D01*
X142072490Y-36154423D01*
X142140311Y-36137628D01*
X142206446Y-36160165D01*
X142245484Y-36205218D01*
X142325213Y-36361694D01*
X142442019Y-36522464D01*
X142582536Y-36662981D01*
X142743306Y-36779787D01*
X142830149Y-36824035D01*
X142920367Y-36870005D01*
X142920370Y-36870006D01*
X143014866Y-36900709D01*
X143109364Y-36931413D01*
X143305639Y-36962500D01*
X143305640Y-36962500D01*
X143504360Y-36962500D01*
X143504361Y-36962500D01*
X143700636Y-36931413D01*
X143889632Y-36870005D01*
X144066694Y-36779787D01*
X144227464Y-36662981D01*
X144367981Y-36522464D01*
X144484787Y-36361694D01*
X144564515Y-36205218D01*
X144612490Y-36154423D01*
X144680311Y-36137628D01*
X144746446Y-36160165D01*
X144785484Y-36205218D01*
X144865213Y-36361694D01*
X144982019Y-36522464D01*
X145122536Y-36662981D01*
X145283306Y-36779787D01*
X145370149Y-36824035D01*
X145460367Y-36870005D01*
X145460370Y-36870006D01*
X145554866Y-36900709D01*
X145649364Y-36931413D01*
X145845639Y-36962500D01*
X145845640Y-36962500D01*
X146044360Y-36962500D01*
X146044361Y-36962500D01*
X146240636Y-36931413D01*
X146240646Y-36931409D01*
X146242891Y-36930871D01*
X146243778Y-36930915D01*
X146245448Y-36930651D01*
X146245503Y-36931001D01*
X146312674Y-36934357D01*
X146359527Y-36963762D01*
X154106581Y-44710816D01*
X154140066Y-44772139D01*
X154142900Y-44798497D01*
X154142900Y-57249628D01*
X154123215Y-57316667D01*
X154070411Y-57362422D01*
X154001253Y-57372366D01*
X153980582Y-57367559D01*
X153860637Y-57328587D01*
X153762498Y-57313043D01*
X153664361Y-57297500D01*
X153465639Y-57297500D01*
X153400214Y-57307862D01*
X153269362Y-57328587D01*
X153080370Y-57389993D01*
X153080367Y-57389994D01*
X152903305Y-57480213D01*
X152742533Y-57597021D01*
X152602021Y-57737533D01*
X152485213Y-57898305D01*
X152405485Y-58054780D01*
X152357510Y-58105576D01*
X152289689Y-58122371D01*
X152223554Y-58099833D01*
X152184515Y-58054780D01*
X152140450Y-57968299D01*
X152104787Y-57898306D01*
X151987981Y-57737536D01*
X151847464Y-57597019D01*
X151686694Y-57480213D01*
X151660005Y-57466614D01*
X151509632Y-57389994D01*
X151509629Y-57389993D01*
X151320637Y-57328587D01*
X151222498Y-57313043D01*
X151124361Y-57297500D01*
X150925639Y-57297500D01*
X150860214Y-57307862D01*
X150729362Y-57328587D01*
X150540370Y-57389993D01*
X150540367Y-57389994D01*
X150363305Y-57480213D01*
X150202533Y-57597021D01*
X150062021Y-57737533D01*
X149945213Y-57898305D01*
X149865485Y-58054780D01*
X149817510Y-58105576D01*
X149749689Y-58122371D01*
X149683554Y-58099833D01*
X149644515Y-58054780D01*
X149600450Y-57968299D01*
X149564787Y-57898306D01*
X149447981Y-57737536D01*
X149307464Y-57597019D01*
X149146694Y-57480213D01*
X149120005Y-57466614D01*
X148969632Y-57389994D01*
X148969629Y-57389993D01*
X148780637Y-57328587D01*
X148682498Y-57313043D01*
X148584361Y-57297500D01*
X148385639Y-57297500D01*
X148320214Y-57307862D01*
X148189362Y-57328587D01*
X148000370Y-57389993D01*
X148000367Y-57389994D01*
X147823305Y-57480213D01*
X147662533Y-57597021D01*
X147522021Y-57737533D01*
X147405213Y-57898305D01*
X147325485Y-58054780D01*
X147277510Y-58105576D01*
X147209689Y-58122371D01*
X147143554Y-58099833D01*
X147104515Y-58054780D01*
X147060450Y-57968299D01*
X147024787Y-57898306D01*
X146907981Y-57737536D01*
X146767464Y-57597019D01*
X146606694Y-57480213D01*
X146580005Y-57466614D01*
X146429632Y-57389994D01*
X146429629Y-57389993D01*
X146240637Y-57328587D01*
X146142498Y-57313043D01*
X146044361Y-57297500D01*
X145845639Y-57297500D01*
X145780214Y-57307862D01*
X145649362Y-57328587D01*
X145460370Y-57389993D01*
X145460367Y-57389994D01*
X145283305Y-57480213D01*
X145122533Y-57597021D01*
X144982021Y-57737533D01*
X144865213Y-57898305D01*
X144785485Y-58054780D01*
X144737510Y-58105576D01*
X144669689Y-58122371D01*
X144603554Y-58099833D01*
X144564515Y-58054780D01*
X144520450Y-57968299D01*
X144484787Y-57898306D01*
X144367981Y-57737536D01*
X144227464Y-57597019D01*
X144066694Y-57480213D01*
X144040005Y-57466614D01*
X143889632Y-57389994D01*
X143889629Y-57389993D01*
X143700637Y-57328587D01*
X143602498Y-57313043D01*
X143504361Y-57297500D01*
X143305639Y-57297500D01*
X143240214Y-57307862D01*
X143109362Y-57328587D01*
X142920370Y-57389993D01*
X142920367Y-57389994D01*
X142743297Y-57480217D01*
X142739150Y-57482759D01*
X142738453Y-57481622D01*
X142678361Y-57503054D01*
X142610310Y-57487219D01*
X142561622Y-57437106D01*
X142547300Y-57379255D01*
X142547300Y-50792060D01*
X142547301Y-50792047D01*
X142547301Y-50623944D01*
X142547301Y-50623943D01*
X142506377Y-50471216D01*
X142503455Y-50466155D01*
X142427324Y-50334290D01*
X142427318Y-50334282D01*
X142367822Y-50274786D01*
X142247556Y-50154521D01*
X142214072Y-50093199D01*
X142217307Y-50028523D01*
X142231046Y-49986243D01*
X142264300Y-49776287D01*
X142264300Y-49563713D01*
X142231046Y-49353757D01*
X142165357Y-49151588D01*
X142068851Y-48962184D01*
X142068849Y-48962181D01*
X142068848Y-48962179D01*
X141943909Y-48790213D01*
X141830369Y-48676673D01*
X141796884Y-48615350D01*
X141801868Y-48545658D01*
X141843740Y-48489725D01*
X141874715Y-48472810D01*
X142006131Y-48423796D01*
X142121346Y-48337546D01*
X142207596Y-48222331D01*
X142257891Y-48087483D01*
X142264300Y-48027873D01*
X142264299Y-46232128D01*
X142257891Y-46172517D01*
X142253887Y-46161783D01*
X142207597Y-46037671D01*
X142207593Y-46037664D01*
X142121347Y-45922455D01*
X142121344Y-45922452D01*
X142006135Y-45836206D01*
X142006128Y-45836202D01*
X141871282Y-45785908D01*
X141871283Y-45785908D01*
X141811683Y-45779501D01*
X141811681Y-45779500D01*
X141811673Y-45779500D01*
X141811664Y-45779500D01*
X140015929Y-45779500D01*
X140015923Y-45779501D01*
X139956316Y-45785908D01*
X139821471Y-45836202D01*
X139821464Y-45836206D01*
X139706255Y-45922452D01*
X139706252Y-45922455D01*
X139620006Y-46037664D01*
X139620002Y-46037671D01*
X139569708Y-46172517D01*
X139563301Y-46232116D01*
X139563301Y-46232123D01*
X139563300Y-46232135D01*
X139563300Y-48027870D01*
X139563301Y-48027876D01*
X139569708Y-48087483D01*
X139620002Y-48222328D01*
X139620004Y-48222331D01*
X139648097Y-48259858D01*
X139672515Y-48325322D01*
X139657664Y-48393595D01*
X139636512Y-48421851D01*
X139375234Y-48683129D01*
X139375227Y-48683136D01*
X139372086Y-48686278D01*
X139372084Y-48686280D01*
X139260280Y-48798084D01*
X139235343Y-48841277D01*
X139181223Y-48935015D01*
X139140299Y-49087743D01*
X139140299Y-49087745D01*
X139140299Y-49255846D01*
X139140300Y-49255859D01*
X139140300Y-57356129D01*
X139120615Y-57423168D01*
X139067811Y-57468923D01*
X138998653Y-57478867D01*
X138960005Y-57466614D01*
X138809632Y-57389994D01*
X138809629Y-57389993D01*
X138620637Y-57328587D01*
X138522498Y-57313043D01*
X138424361Y-57297500D01*
X138225639Y-57297500D01*
X138160214Y-57307862D01*
X138029362Y-57328587D01*
X137840370Y-57389993D01*
X137840367Y-57389994D01*
X137663305Y-57480213D01*
X137502533Y-57597021D01*
X137362021Y-57737533D01*
X137245213Y-57898305D01*
X137165485Y-58054780D01*
X137117510Y-58105576D01*
X137049689Y-58122371D01*
X136983554Y-58099833D01*
X136944515Y-58054780D01*
X136900450Y-57968299D01*
X136864787Y-57898306D01*
X136747981Y-57737536D01*
X136607464Y-57597019D01*
X136446694Y-57480213D01*
X136420005Y-57466614D01*
X136269632Y-57389994D01*
X136269629Y-57389993D01*
X136080637Y-57328587D01*
X135982498Y-57313043D01*
X135884361Y-57297500D01*
X135685639Y-57297500D01*
X135620214Y-57307862D01*
X135489362Y-57328587D01*
X135300370Y-57389993D01*
X135300367Y-57389994D01*
X135123305Y-57480213D01*
X134962533Y-57597021D01*
X134822021Y-57737533D01*
X134705213Y-57898305D01*
X134625485Y-58054780D01*
X134577510Y-58105576D01*
X134509689Y-58122371D01*
X134443554Y-58099833D01*
X134404515Y-58054780D01*
X134360450Y-57968299D01*
X134324787Y-57898306D01*
X134207981Y-57737536D01*
X134067464Y-57597019D01*
X133906694Y-57480213D01*
X133880005Y-57466614D01*
X133729632Y-57389994D01*
X133729629Y-57389993D01*
X133540637Y-57328587D01*
X133442498Y-57313043D01*
X133344361Y-57297500D01*
X133145639Y-57297500D01*
X133080214Y-57307862D01*
X132949362Y-57328587D01*
X132760370Y-57389993D01*
X132760367Y-57389994D01*
X132583305Y-57480213D01*
X132422533Y-57597021D01*
X132282021Y-57737533D01*
X132165213Y-57898305D01*
X132085485Y-58054780D01*
X132037510Y-58105576D01*
X131969689Y-58122371D01*
X131903554Y-58099833D01*
X131864515Y-58054780D01*
X131820450Y-57968299D01*
X131784787Y-57898306D01*
X131667981Y-57737536D01*
X131527464Y-57597019D01*
X131366694Y-57480213D01*
X131340005Y-57466614D01*
X131189632Y-57389994D01*
X131189629Y-57389993D01*
X131000637Y-57328587D01*
X130902498Y-57313043D01*
X130804361Y-57297500D01*
X130605639Y-57297500D01*
X130540214Y-57307862D01*
X130409362Y-57328587D01*
X130220370Y-57389993D01*
X130220367Y-57389994D01*
X130043305Y-57480213D01*
X129882533Y-57597021D01*
X129742021Y-57737533D01*
X129625213Y-57898305D01*
X129534994Y-58075367D01*
X129534993Y-58075370D01*
X129473587Y-58264362D01*
X129442500Y-58460639D01*
X129442500Y-58659360D01*
X129473586Y-58855636D01*
X129474131Y-58857903D01*
X129474086Y-58858790D01*
X129474349Y-58860448D01*
X129474000Y-58860503D01*
X129470638Y-58927685D01*
X129441237Y-58974526D01*
X121387484Y-67028281D01*
X121326161Y-67061766D01*
X121299803Y-67064600D01*
X117099770Y-67064600D01*
X117099754Y-67064599D01*
X117092158Y-67064599D01*
X116934043Y-67064599D01*
X116857679Y-67085061D01*
X116781314Y-67105523D01*
X116781309Y-67105526D01*
X116644390Y-67184575D01*
X116644382Y-67184581D01*
X115412481Y-68416482D01*
X115412479Y-68416485D01*
X115362361Y-68503294D01*
X115362359Y-68503296D01*
X115333425Y-68553409D01*
X115333424Y-68553410D01*
X115333423Y-68553415D01*
X115292499Y-68706143D01*
X115292499Y-68706145D01*
X115292499Y-68874246D01*
X115292500Y-68874259D01*
X115292500Y-71755802D01*
X115272815Y-71822841D01*
X115256181Y-71843483D01*
X113769687Y-73329977D01*
X113708364Y-73363462D01*
X113638672Y-73358478D01*
X113582739Y-73316606D01*
X113558322Y-73251142D01*
X113559067Y-73226111D01*
X113575500Y-73101288D01*
X113575500Y-72858711D01*
X113567584Y-72798586D01*
X113543838Y-72618211D01*
X113481054Y-72383900D01*
X113388224Y-72159788D01*
X113266936Y-71949711D01*
X113171098Y-71824812D01*
X113119266Y-71757263D01*
X113119260Y-71757256D01*
X112947743Y-71585739D01*
X112947736Y-71585733D01*
X112755293Y-71438067D01*
X112755292Y-71438066D01*
X112755289Y-71438064D01*
X112545212Y-71316776D01*
X112545205Y-71316773D01*
X112321104Y-71223947D01*
X112194473Y-71190016D01*
X112086789Y-71161162D01*
X112086788Y-71161161D01*
X112086785Y-71161161D01*
X111846289Y-71129500D01*
X111846288Y-71129500D01*
X111603712Y-71129500D01*
X111603711Y-71129500D01*
X111363214Y-71161161D01*
X111128895Y-71223947D01*
X110904794Y-71316773D01*
X110904785Y-71316777D01*
X110694706Y-71438067D01*
X110502263Y-71585733D01*
X110502256Y-71585739D01*
X110330739Y-71757256D01*
X110330733Y-71757263D01*
X110183067Y-71949706D01*
X110061777Y-72159785D01*
X110061773Y-72159794D01*
X109968947Y-72383895D01*
X109906161Y-72618214D01*
X109874500Y-72858711D01*
X109874500Y-73101288D01*
X109906161Y-73341785D01*
X109968947Y-73576104D01*
X109999005Y-73648670D01*
X110061776Y-73800212D01*
X110183064Y-74010289D01*
X110183066Y-74010292D01*
X110183067Y-74010293D01*
X110330733Y-74202736D01*
X110330739Y-74202743D01*
X110502256Y-74374260D01*
X110502263Y-74374266D01*
X110533103Y-74397930D01*
X110694711Y-74521936D01*
X110904788Y-74643224D01*
X111128900Y-74736054D01*
X111363211Y-74798838D01*
X111543586Y-74822584D01*
X111603711Y-74830500D01*
X111603712Y-74830500D01*
X111846289Y-74830500D01*
X111902401Y-74823112D01*
X111971110Y-74814067D01*
X112040145Y-74824833D01*
X112092401Y-74871213D01*
X112111286Y-74938482D01*
X112090805Y-75005282D01*
X112074976Y-75024687D01*
X106325386Y-80774278D01*
X106213581Y-80886082D01*
X106213579Y-80886085D01*
X106163461Y-80972894D01*
X106163459Y-80972896D01*
X106134525Y-81023009D01*
X106134524Y-81023010D01*
X106134523Y-81023015D01*
X106093599Y-81175743D01*
X106093599Y-81175745D01*
X106093599Y-81343846D01*
X106093600Y-81343859D01*
X106093600Y-99405802D01*
X106073915Y-99472841D01*
X106057281Y-99493483D01*
X97642582Y-107908181D01*
X97581259Y-107941666D01*
X97554901Y-107944500D01*
X95554998Y-107944500D01*
X95554981Y-107944501D01*
X95452203Y-107955000D01*
X95452200Y-107955001D01*
X95285668Y-108010185D01*
X95285663Y-108010187D01*
X95136342Y-108102289D01*
X95012289Y-108226342D01*
X94920187Y-108375663D01*
X94920185Y-108375668D01*
X94909760Y-108407129D01*
X94865001Y-108542203D01*
X94865001Y-108542204D01*
X94865000Y-108542204D01*
X94854500Y-108644983D01*
X80000500Y-108644983D01*
X80000500Y-91644983D01*
X94854500Y-91644983D01*
X94854500Y-93845001D01*
X94854501Y-93845018D01*
X94865000Y-93947796D01*
X94865001Y-93947799D01*
X94920185Y-94114331D01*
X94920186Y-94114334D01*
X95012288Y-94263656D01*
X95136344Y-94387712D01*
X95285666Y-94479814D01*
X95452203Y-94534999D01*
X95554991Y-94545500D01*
X97755008Y-94545499D01*
X97857797Y-94534999D01*
X98024334Y-94479814D01*
X98173656Y-94387712D01*
X98297712Y-94263656D01*
X98389814Y-94114334D01*
X98444999Y-93947797D01*
X98455500Y-93845009D01*
X98455499Y-91644992D01*
X98444999Y-91542203D01*
X98389814Y-91375666D01*
X98297712Y-91226344D01*
X98173656Y-91102288D01*
X98024334Y-91010186D01*
X97857797Y-90955001D01*
X97857795Y-90955000D01*
X97755010Y-90944500D01*
X95554998Y-90944500D01*
X95554981Y-90944501D01*
X95452203Y-90955000D01*
X95452200Y-90955001D01*
X95285668Y-91010185D01*
X95285663Y-91010187D01*
X95136342Y-91102289D01*
X95012289Y-91226342D01*
X94920187Y-91375663D01*
X94920186Y-91375666D01*
X94865001Y-91542203D01*
X94865001Y-91542204D01*
X94865000Y-91542204D01*
X94854500Y-91644983D01*
X80000500Y-91644983D01*
X80000500Y-31233711D01*
X83649500Y-31233711D01*
X83649500Y-31476288D01*
X83681161Y-31716785D01*
X83743947Y-31951104D01*
X83836773Y-32175205D01*
X83836776Y-32175212D01*
X83958064Y-32385289D01*
X83958066Y-32385292D01*
X83958067Y-32385293D01*
X84105733Y-32577736D01*
X84105739Y-32577743D01*
X84277256Y-32749260D01*
X84277262Y-32749265D01*
X84469711Y-32896936D01*
X84679788Y-33018224D01*
X84903900Y-33111054D01*
X85138211Y-33173838D01*
X85318586Y-33197584D01*
X85378711Y-33205500D01*
X85378712Y-33205500D01*
X85621289Y-33205500D01*
X85669388Y-33199167D01*
X85861789Y-33173838D01*
X86096100Y-33111054D01*
X86320212Y-33018224D01*
X86530289Y-32896936D01*
X86722738Y-32749265D01*
X86894265Y-32577738D01*
X87041936Y-32385289D01*
X87163224Y-32175212D01*
X87256054Y-31951100D01*
X87318838Y-31716789D01*
X87350500Y-31476288D01*
X87350500Y-31233712D01*
X87350500Y-31233711D01*
X219949500Y-31233711D01*
X219949500Y-31476288D01*
X219981161Y-31716785D01*
X220043947Y-31951104D01*
X220136773Y-32175205D01*
X220136776Y-32175212D01*
X220258064Y-32385289D01*
X220258066Y-32385292D01*
X220258067Y-32385293D01*
X220405733Y-32577736D01*
X220405739Y-32577743D01*
X220577256Y-32749260D01*
X220577262Y-32749265D01*
X220769711Y-32896936D01*
X220979788Y-33018224D01*
X221203900Y-33111054D01*
X221438211Y-33173838D01*
X221618586Y-33197584D01*
X221678711Y-33205500D01*
X221678712Y-33205500D01*
X221921289Y-33205500D01*
X221969388Y-33199167D01*
X222161789Y-33173838D01*
X222396100Y-33111054D01*
X222620212Y-33018224D01*
X222830289Y-32896936D01*
X223022738Y-32749265D01*
X223194265Y-32577738D01*
X223341936Y-32385289D01*
X223463224Y-32175212D01*
X223556054Y-31951100D01*
X223618838Y-31716789D01*
X223650500Y-31476288D01*
X223650500Y-31233712D01*
X223618838Y-30993211D01*
X223556054Y-30758900D01*
X223463224Y-30534788D01*
X223341936Y-30324711D01*
X223194265Y-30132262D01*
X223194260Y-30132256D01*
X223022743Y-29960739D01*
X223022736Y-29960733D01*
X222830293Y-29813067D01*
X222830292Y-29813066D01*
X222830289Y-29813064D01*
X222620212Y-29691776D01*
X222620205Y-29691773D01*
X222396104Y-29598947D01*
X222161785Y-29536161D01*
X221921289Y-29504500D01*
X221921288Y-29504500D01*
X221678712Y-29504500D01*
X221678711Y-29504500D01*
X221438214Y-29536161D01*
X221203895Y-29598947D01*
X220979794Y-29691773D01*
X220979785Y-29691777D01*
X220769706Y-29813067D01*
X220577263Y-29960733D01*
X220577256Y-29960739D01*
X220405739Y-30132256D01*
X220405733Y-30132263D01*
X220258067Y-30324706D01*
X220136777Y-30534785D01*
X220136773Y-30534794D01*
X220043947Y-30758895D01*
X219981161Y-30993214D01*
X219949500Y-31233711D01*
X87350500Y-31233711D01*
X87318838Y-30993211D01*
X87256054Y-30758900D01*
X87163224Y-30534788D01*
X87041936Y-30324711D01*
X86894265Y-30132262D01*
X86894260Y-30132256D01*
X86722743Y-29960739D01*
X86722736Y-29960733D01*
X86530293Y-29813067D01*
X86530292Y-29813066D01*
X86530289Y-29813064D01*
X86320212Y-29691776D01*
X86320205Y-29691773D01*
X86096104Y-29598947D01*
X85861785Y-29536161D01*
X85621289Y-29504500D01*
X85621288Y-29504500D01*
X85378712Y-29504500D01*
X85378711Y-29504500D01*
X85138214Y-29536161D01*
X84903895Y-29598947D01*
X84679794Y-29691773D01*
X84679785Y-29691777D01*
X84469706Y-29813067D01*
X84277263Y-29960733D01*
X84277256Y-29960739D01*
X84105739Y-30132256D01*
X84105733Y-30132263D01*
X83958067Y-30324706D01*
X83836777Y-30534785D01*
X83836773Y-30534794D01*
X83743947Y-30758895D01*
X83681161Y-30993214D01*
X83649500Y-31233711D01*
X80000500Y-31233711D01*
X80000500Y-26024500D01*
X80020185Y-25957461D01*
X80072989Y-25911706D01*
X80124500Y-25900500D01*
X227175500Y-25900500D01*
X227242539Y-25920185D01*
G37*
%TD.AperFunction*%
%TD*%
M02*
