%TF.GenerationSoftware,KiCad,Pcbnew,10.0.4*%
%TF.CreationDate,2026-07-29T18:51:37+01:00*%
%TF.ProjectId,ISLKey,49534c4b-6579-42e6-9b69-6361645f7063,rev?*%
%TF.SameCoordinates,Original*%
%TF.FileFunction,Soldermask,Top*%
%TF.FilePolarity,Negative*%
%FSLAX46Y46*%
G04 Gerber Fmt 4.6, Leading zero omitted, Abs format (unit mm)*
G04 Created by KiCad (PCBNEW 10.0.4) date 2026-07-29 18:51:37*
%MOMM*%
%LPD*%
G01*
G04 APERTURE LIST*
G04 Aperture macros list*
%AMRoundRect*
0 Rectangle with rounded corners*
0 $1 Rounding radius*
0 $2 $3 $4 $5 $6 $7 $8 $9 X,Y pos of 4 corners*
0 Add a 4 corners polygon primitive as box body*
4,1,4,$2,$3,$4,$5,$6,$7,$8,$9,$2,$3,0*
0 Add four circle primitives for the rounded corners*
1,1,$1+$1,$2,$3*
1,1,$1+$1,$4,$5*
1,1,$1+$1,$6,$7*
1,1,$1+$1,$8,$9*
0 Add four rect primitives between the rounded corners*
20,1,$1+$1,$2,$3,$4,$5,0*
20,1,$1+$1,$4,$5,$6,$7,0*
20,1,$1+$1,$6,$7,$8,$9,0*
20,1,$1+$1,$8,$9,$2,$3,0*%
G04 Aperture macros list end*
%ADD10RoundRect,0.250000X-1.000000X-0.650000X1.000000X-0.650000X1.000000X0.650000X-1.000000X0.650000X0*%
%ADD11RoundRect,0.250000X-1.050000X-1.050000X1.050000X-1.050000X1.050000X1.050000X-1.050000X1.050000X0*%
%ADD12C,2.600000*%
%ADD13C,3.000000*%
%ADD14C,2.500000*%
%ADD15RoundRect,0.250000X1.050000X-1.050000X1.050000X1.050000X-1.050000X1.050000X-1.050000X-1.050000X0*%
%ADD16RoundRect,0.250000X-0.250000X-0.475000X0.250000X-0.475000X0.250000X0.475000X-0.250000X0.475000X0*%
%ADD17RoundRect,0.243750X-0.243750X-0.456250X0.243750X-0.456250X0.243750X0.456250X-0.243750X0.456250X0*%
%ADD18RoundRect,0.500000X-0.500000X-0.900000X0.500000X-0.900000X0.500000X0.900000X-0.500000X0.900000X0*%
%ADD19O,2.000000X2.800000*%
%ADD20RoundRect,0.250000X-1.050000X1.050000X-1.050000X-1.050000X1.050000X-1.050000X1.050000X1.050000X0*%
%ADD21C,3.200000*%
%ADD22RoundRect,0.250000X-0.262500X-0.450000X0.262500X-0.450000X0.262500X0.450000X-0.262500X0.450000X0*%
%ADD23R,2.800000X2.800000*%
%ADD24C,2.800000*%
%ADD25R,1.500000X2.500000*%
%ADD26O,1.500000X2.500000*%
%ADD27C,1.524000*%
%ADD28RoundRect,0.150000X-0.875000X-0.150000X0.875000X-0.150000X0.875000X0.150000X-0.875000X0.150000X0*%
%ADD29C,2.390000*%
%ADD30C,3.450000*%
%ADD31RoundRect,0.250003X-3.499997X-2.999997X3.499997X-2.999997X3.499997X2.999997X-3.499997X2.999997X0*%
%ADD32R,5.100000X5.100000*%
%ADD33C,17.800000*%
%ADD34R,1.700000X1.700000*%
%ADD35C,1.700000*%
%ADD36RoundRect,0.250000X-1.500000X-0.550000X1.500000X-0.550000X1.500000X0.550000X-1.500000X0.550000X0*%
%ADD37R,1.050000X1.500000*%
%ADD38O,1.050000X1.500000*%
%ADD39RoundRect,0.250000X-1.950000X-1.000000X1.950000X-1.000000X1.950000X1.000000X-1.950000X1.000000X0*%
%ADD40RoundRect,0.250000X-0.700000X-0.700000X0.700000X-0.700000X0.700000X0.700000X-0.700000X0.700000X0*%
%ADD41C,1.900000*%
%ADD42C,2.700000*%
%ADD43RoundRect,0.250000X-0.550000X-0.550000X0.550000X-0.550000X0.550000X0.550000X-0.550000X0.550000X0*%
%ADD44C,1.600000*%
G04 APERTURE END LIST*
D10*
%TO.C,D2*%
X166292500Y-109110000D03*
X170292500Y-109110000D03*
%TD*%
D11*
%TO.C,J10*%
X102920000Y-144355000D03*
D12*
X108000000Y-144355000D03*
%TD*%
D13*
%TO.C,K1*%
X171500000Y-42855000D03*
D14*
X173450000Y-48905000D03*
D13*
X185650000Y-48905000D03*
X185700000Y-36855000D03*
D14*
X173450000Y-36905000D03*
%TD*%
D15*
%TO.C,J6*%
X205565000Y-48090000D03*
D12*
X205565000Y-43010000D03*
X205565000Y-37930000D03*
%TD*%
D16*
%TO.C,C6*%
X201842500Y-108340000D03*
X203742500Y-108340000D03*
%TD*%
D17*
%TO.C,D5*%
X180075000Y-108355000D03*
X181950000Y-108355000D03*
%TD*%
D18*
%TO.C,F1*%
X171650000Y-82355000D03*
X178920000Y-82355000D03*
D19*
X188000000Y-82355000D03*
X195270000Y-82355000D03*
%TD*%
D20*
%TO.C,J3*%
X97080000Y-75745000D03*
D12*
X97080000Y-80825000D03*
%TD*%
D10*
%TO.C,D1*%
X157197500Y-109110000D03*
X161197500Y-109110000D03*
%TD*%
D21*
%TO.C,H2*%
X221800000Y-31355000D03*
%TD*%
D22*
%TO.C,R3*%
X172265000Y-90355000D03*
X174090000Y-90355000D03*
%TD*%
D15*
%TO.C,J8*%
X206500000Y-83935000D03*
D12*
X206500000Y-78855000D03*
%TD*%
D20*
%TO.C,J4*%
X96655000Y-92745000D03*
D12*
X96655000Y-97825000D03*
%TD*%
D23*
%TO.C,BR1*%
X110860000Y-109855000D03*
D24*
X115940000Y-109855000D03*
X121020000Y-109855000D03*
X126100000Y-109855000D03*
%TD*%
D25*
%TO.C,U4*%
X161955000Y-100780000D03*
D26*
X164495000Y-100780000D03*
X167035000Y-100780000D03*
%TD*%
D16*
%TO.C,C3*%
X196392500Y-108340000D03*
X198292500Y-108340000D03*
%TD*%
D27*
%TO.C,M1*%
X156740000Y-36970000D03*
X156740000Y-57290000D03*
X125625000Y-58560000D03*
X128165000Y-58560000D03*
X130705000Y-58560000D03*
X133245000Y-58560000D03*
X135785000Y-58560000D03*
X138325000Y-58560000D03*
X140865000Y-58560000D03*
X143405000Y-58560000D03*
X145945000Y-58560000D03*
X148485000Y-58560000D03*
X151025000Y-58560000D03*
X153565000Y-58560000D03*
X153565000Y-35700000D03*
X151025000Y-35700000D03*
X148485000Y-35700000D03*
X145945000Y-35700000D03*
X143405000Y-35700000D03*
X140865000Y-35700000D03*
X138325000Y-35700000D03*
X135785000Y-35700000D03*
X133245000Y-35700000D03*
X130705000Y-35700000D03*
X128165000Y-35700000D03*
X125625000Y-35700000D03*
%TD*%
D28*
%TO.C,U5*%
X145540000Y-96000000D03*
X145540000Y-97270000D03*
X145540000Y-98540000D03*
X145540000Y-99810000D03*
X145540000Y-101080000D03*
X145540000Y-102350000D03*
X145540000Y-103620000D03*
X145540000Y-104890000D03*
X154840000Y-104890000D03*
X154840000Y-103620000D03*
X154840000Y-102350000D03*
X154840000Y-101080000D03*
X154840000Y-99810000D03*
X154840000Y-98540000D03*
X154840000Y-97270000D03*
X154840000Y-96000000D03*
%TD*%
D29*
%TO.C,BT1*%
X120250000Y-124855000D03*
D30*
X128760000Y-140855000D03*
X184000000Y-124855000D03*
D31*
X116690000Y-132855000D03*
X196070000Y-132855000D03*
%TD*%
D32*
%TO.C,BT3*%
X139625000Y-76927500D03*
X165225000Y-76927500D03*
D33*
X152425000Y-76927500D03*
%TD*%
D22*
%TO.C,R8*%
X183085000Y-90355000D03*
X184910000Y-90355000D03*
%TD*%
D34*
%TO.C,J15*%
X130525000Y-69380000D03*
D35*
X130525000Y-71920000D03*
%TD*%
D36*
%TO.C,C1*%
X146010000Y-111070000D03*
X151610000Y-111070000D03*
%TD*%
D22*
%TO.C,R2*%
X212720000Y-108310000D03*
X214545000Y-108310000D03*
%TD*%
%TO.C,R5*%
X188495000Y-90355000D03*
X190320000Y-90355000D03*
%TD*%
D17*
%TO.C,D3*%
X185525000Y-108355000D03*
X187400000Y-108355000D03*
%TD*%
D21*
%TO.C,H3*%
X218500000Y-146355000D03*
%TD*%
D15*
%TO.C,J7*%
X205565000Y-70090000D03*
D12*
X205565000Y-65010000D03*
X205565000Y-59930000D03*
%TD*%
D22*
%TO.C,R1*%
X207310000Y-108310000D03*
X209135000Y-108310000D03*
%TD*%
D16*
%TO.C,C2*%
X190942500Y-108340000D03*
X192842500Y-108340000D03*
%TD*%
D37*
%TO.C,Q1*%
X185960000Y-115855000D03*
D38*
X187230000Y-115855000D03*
X188500000Y-115855000D03*
%TD*%
D34*
%TO.C,J13*%
X140913800Y-47130000D03*
D35*
X140913800Y-49670000D03*
%TD*%
D17*
%TO.C,D4*%
X174625000Y-108355000D03*
X176500000Y-108355000D03*
%TD*%
D36*
%TO.C,C5*%
X134360000Y-111070000D03*
X139960000Y-111070000D03*
%TD*%
D21*
%TO.C,H1*%
X85500000Y-31355000D03*
%TD*%
D37*
%TO.C,Q2*%
X193470000Y-115855000D03*
D38*
X194740000Y-115855000D03*
X196010000Y-115855000D03*
%TD*%
D39*
%TO.C,C4*%
X131360000Y-100430000D03*
X139760000Y-100430000D03*
%TD*%
D34*
%TO.C,J9*%
X195000000Y-46855000D03*
D35*
X195000000Y-49395000D03*
%TD*%
D22*
%TO.C,R7*%
X166855000Y-90355000D03*
X168680000Y-90355000D03*
%TD*%
D21*
%TO.C,H4*%
X88000000Y-146855000D03*
%TD*%
D13*
%TO.C,K2*%
X172000000Y-64855000D03*
D14*
X173950000Y-70905000D03*
D13*
X186150000Y-70905000D03*
X186200000Y-58855000D03*
D14*
X173950000Y-58905000D03*
%TD*%
D15*
%TO.C,J11*%
X206500000Y-99435000D03*
D12*
X206500000Y-94355000D03*
%TD*%
D22*
%TO.C,R6*%
X193905000Y-90355000D03*
X195730000Y-90355000D03*
%TD*%
D40*
%TO.C,U3*%
X117525000Y-69380000D03*
D41*
X117525000Y-71920000D03*
X117525000Y-74460000D03*
X117525000Y-82080000D03*
X117525000Y-84620000D03*
X117525000Y-87160000D03*
D42*
X111725000Y-72980000D03*
X121125000Y-83580000D03*
%TD*%
D43*
%TO.C,U1*%
X173780000Y-114645000D03*
D44*
X173780000Y-117185000D03*
X181400000Y-117185000D03*
X181400000Y-114645000D03*
%TD*%
D22*
%TO.C,R4*%
X177675000Y-90355000D03*
X179500000Y-90355000D03*
%TD*%
D20*
%TO.C,J5*%
X96655000Y-109745000D03*
D12*
X96655000Y-114825000D03*
%TD*%
M02*
