%TF.GenerationSoftware,KiCad,Pcbnew,10.0.4*%
%TF.CreationDate,2026-07-30T00:06:10+01:00*%
%TF.ProjectId,ISLKey-Mini,49534c4b-6579-42d4-9d69-6e692e6b6963,rev?*%
%TF.SameCoordinates,Original*%
%TF.FileFunction,Legend,Top*%
%TF.FilePolarity,Positive*%
%FSLAX46Y46*%
G04 Gerber Fmt 4.6, Leading zero omitted, Abs format (unit mm)*
G04 Created by KiCad (PCBNEW 10.0.4) date 2026-07-30 00:06:10*
%MOMM*%
%LPD*%
G01*
G04 APERTURE LIST*
G04 Aperture macros list*
%AMRoundRect*
0 Rectangle with rounded corners*
0 $1 Rounding radius*
0 $2 $3 $4 $5 $6 $7 $8 $9 X,Y pos of 4 corners*
0 Add a 4 corners polygon primitive as box body*
4,1,4,$2,$3,$4,$5,$6,$7,$8,$9,$2,$3,0*
0 Add four circle primitives for the rounded corners*
1,1,$1+$1,$2,$3*
1,1,$1+$1,$4,$5*
1,1,$1+$1,$6,$7*
1,1,$1+$1,$8,$9*
0 Add four rect primitives between the rounded corners*
20,1,$1+$1,$2,$3,$4,$5,0*
20,1,$1+$1,$4,$5,$6,$7,0*
20,1,$1+$1,$6,$7,$8,$9,0*
20,1,$1+$1,$8,$9,$2,$3,0*%
G04 Aperture macros list end*
%ADD10C,0.150000*%
%ADD11C,0.300000*%
%ADD12C,0.100000*%
%ADD13C,0.120000*%
%ADD14C,0.000000*%
%ADD15RoundRect,0.250000X-0.250000X-0.475000X0.250000X-0.475000X0.250000X0.475000X-0.250000X0.475000X0*%
%ADD16RoundRect,0.250000X-0.262500X-0.450000X0.262500X-0.450000X0.262500X0.450000X-0.262500X0.450000X0*%
%ADD17R,1.500000X2.400000*%
%ADD18RoundRect,0.250000X-1.500000X-0.550000X1.500000X-0.550000X1.500000X0.550000X-1.500000X0.550000X0*%
%ADD19RoundRect,0.250001X-0.949999X-0.949999X0.949999X-0.949999X0.949999X0.949999X-0.949999X0.949999X0*%
%ADD20C,2.400000*%
%ADD21RoundRect,0.243750X-0.243750X-0.456250X0.243750X-0.456250X0.243750X0.456250X-0.243750X0.456250X0*%
%ADD22RoundRect,0.250000X-0.312500X-1.450000X0.312500X-1.450000X0.312500X1.450000X-0.312500X1.450000X0*%
%ADD23R,1.501140X1.501140*%
%ADD24C,1.501140*%
%ADD25C,1.524000*%
%ADD26R,1.000000X0.700000*%
%ADD27RoundRect,0.150000X-0.512500X-0.150000X0.512500X-0.150000X0.512500X0.150000X-0.512500X0.150000X0*%
%ADD28RoundRect,0.150000X-0.587500X-0.150000X0.587500X-0.150000X0.587500X0.150000X-0.587500X0.150000X0*%
%ADD29RoundRect,0.225000X-0.225000X-0.375000X0.225000X-0.375000X0.225000X0.375000X-0.225000X0.375000X0*%
G04 APERTURE END LIST*
D10*
X2295714Y-3468557D02*
X1995714Y-3039985D01*
X1781428Y-3468557D02*
X1781428Y-2568557D01*
X1781428Y-2568557D02*
X2124285Y-2568557D01*
X2124285Y-2568557D02*
X2210000Y-2611414D01*
X2210000Y-2611414D02*
X2252857Y-2654271D01*
X2252857Y-2654271D02*
X2295714Y-2739985D01*
X2295714Y-2739985D02*
X2295714Y-2868557D01*
X2295714Y-2868557D02*
X2252857Y-2954271D01*
X2252857Y-2954271D02*
X2210000Y-2997128D01*
X2210000Y-2997128D02*
X2124285Y-3039985D01*
X2124285Y-3039985D02*
X1781428Y-3039985D01*
X2681428Y-2997128D02*
X2981428Y-2997128D01*
X3110000Y-3468557D02*
X2681428Y-3468557D01*
X2681428Y-3468557D02*
X2681428Y-2568557D01*
X2681428Y-2568557D02*
X3110000Y-2568557D01*
X3924286Y-3468557D02*
X3495714Y-3468557D01*
X3495714Y-3468557D02*
X3495714Y-2568557D01*
X4181428Y-3211414D02*
X4610000Y-3211414D01*
X4095714Y-3468557D02*
X4395714Y-2568557D01*
X4395714Y-2568557D02*
X4695714Y-3468557D01*
X5167143Y-3039985D02*
X5167143Y-3468557D01*
X4867143Y-2568557D02*
X5167143Y-3039985D01*
X5167143Y-3039985D02*
X5467143Y-2568557D01*
X29682143Y-5033557D02*
X29253571Y-5033557D01*
X29253571Y-5033557D02*
X29253571Y-4133557D01*
X30153571Y-4133557D02*
X30324999Y-4133557D01*
X30324999Y-4133557D02*
X30410714Y-4176414D01*
X30410714Y-4176414D02*
X30496428Y-4262128D01*
X30496428Y-4262128D02*
X30539285Y-4433557D01*
X30539285Y-4433557D02*
X30539285Y-4733557D01*
X30539285Y-4733557D02*
X30496428Y-4904985D01*
X30496428Y-4904985D02*
X30410714Y-4990700D01*
X30410714Y-4990700D02*
X30324999Y-5033557D01*
X30324999Y-5033557D02*
X30153571Y-5033557D01*
X30153571Y-5033557D02*
X30067857Y-4990700D01*
X30067857Y-4990700D02*
X29982142Y-4904985D01*
X29982142Y-4904985D02*
X29939285Y-4733557D01*
X29939285Y-4733557D02*
X29939285Y-4433557D01*
X29939285Y-4433557D02*
X29982142Y-4262128D01*
X29982142Y-4262128D02*
X30067857Y-4176414D01*
X30067857Y-4176414D02*
X30153571Y-4133557D01*
X31439285Y-4947842D02*
X31396428Y-4990700D01*
X31396428Y-4990700D02*
X31267856Y-5033557D01*
X31267856Y-5033557D02*
X31182142Y-5033557D01*
X31182142Y-5033557D02*
X31053571Y-4990700D01*
X31053571Y-4990700D02*
X30967856Y-4904985D01*
X30967856Y-4904985D02*
X30924999Y-4819271D01*
X30924999Y-4819271D02*
X30882142Y-4647842D01*
X30882142Y-4647842D02*
X30882142Y-4519271D01*
X30882142Y-4519271D02*
X30924999Y-4347842D01*
X30924999Y-4347842D02*
X30967856Y-4262128D01*
X30967856Y-4262128D02*
X31053571Y-4176414D01*
X31053571Y-4176414D02*
X31182142Y-4133557D01*
X31182142Y-4133557D02*
X31267856Y-4133557D01*
X31267856Y-4133557D02*
X31396428Y-4176414D01*
X31396428Y-4176414D02*
X31439285Y-4219271D01*
X31824999Y-5033557D02*
X31824999Y-4133557D01*
X32339285Y-5033557D02*
X31953571Y-4519271D01*
X32339285Y-4133557D02*
X31824999Y-4647842D01*
X43217857Y-5033557D02*
X42703571Y-5033557D01*
X42960714Y-5033557D02*
X42960714Y-4133557D01*
X42960714Y-4133557D02*
X42875000Y-4262128D01*
X42875000Y-4262128D02*
X42789285Y-4347842D01*
X42789285Y-4347842D02*
X42703571Y-4390700D01*
X43560714Y-4219271D02*
X43603571Y-4176414D01*
X43603571Y-4176414D02*
X43689286Y-4133557D01*
X43689286Y-4133557D02*
X43903571Y-4133557D01*
X43903571Y-4133557D02*
X43989286Y-4176414D01*
X43989286Y-4176414D02*
X44032143Y-4219271D01*
X44032143Y-4219271D02*
X44075000Y-4304985D01*
X44075000Y-4304985D02*
X44075000Y-4390700D01*
X44075000Y-4390700D02*
X44032143Y-4519271D01*
X44032143Y-4519271D02*
X43517857Y-5033557D01*
X43517857Y-5033557D02*
X44075000Y-5033557D01*
X44332143Y-4133557D02*
X44632143Y-5033557D01*
X44632143Y-5033557D02*
X44932143Y-4133557D01*
X51596428Y-4562128D02*
X51896428Y-4562128D01*
X52025000Y-5033557D02*
X51596428Y-5033557D01*
X51596428Y-5033557D02*
X51596428Y-4133557D01*
X51596428Y-4133557D02*
X52025000Y-4133557D01*
X52325000Y-4133557D02*
X52925000Y-5033557D01*
X52925000Y-4133557D02*
X52325000Y-5033557D01*
X53267857Y-5033557D02*
X53267857Y-4133557D01*
X53567857Y-4133557D02*
X54082143Y-4133557D01*
X53825000Y-5033557D02*
X53825000Y-4133557D01*
D11*
X39340225Y-30300828D02*
X38483082Y-30300828D01*
X38911653Y-30300828D02*
X38911653Y-28800828D01*
X38911653Y-28800828D02*
X38768796Y-29015114D01*
X38768796Y-29015114D02*
X38625939Y-29157971D01*
X38625939Y-29157971D02*
X38483082Y-29229400D01*
X39983081Y-29729400D02*
X41125939Y-29729400D01*
X41840224Y-30300828D02*
X41840224Y-28800828D01*
X41840224Y-28800828D02*
X42340224Y-29872257D01*
X42340224Y-29872257D02*
X42840224Y-28800828D01*
X42840224Y-28800828D02*
X42840224Y-30300828D01*
X43554510Y-30300828D02*
X43554510Y-29300828D01*
X43554510Y-28800828D02*
X43483082Y-28872257D01*
X43483082Y-28872257D02*
X43554510Y-28943685D01*
X43554510Y-28943685D02*
X43625939Y-28872257D01*
X43625939Y-28872257D02*
X43554510Y-28800828D01*
X43554510Y-28800828D02*
X43554510Y-28943685D01*
X44268796Y-29300828D02*
X44268796Y-30300828D01*
X44268796Y-29443685D02*
X44340225Y-29372257D01*
X44340225Y-29372257D02*
X44483082Y-29300828D01*
X44483082Y-29300828D02*
X44697368Y-29300828D01*
X44697368Y-29300828D02*
X44840225Y-29372257D01*
X44840225Y-29372257D02*
X44911654Y-29515114D01*
X44911654Y-29515114D02*
X44911654Y-30300828D01*
X45625939Y-30300828D02*
X45625939Y-29300828D01*
X45625939Y-28800828D02*
X45554511Y-28872257D01*
X45554511Y-28872257D02*
X45625939Y-28943685D01*
X45625939Y-28943685D02*
X45697368Y-28872257D01*
X45697368Y-28872257D02*
X45625939Y-28800828D01*
X45625939Y-28800828D02*
X45625939Y-28943685D01*
D10*
X55558333Y-19684580D02*
X55510714Y-19732200D01*
X55510714Y-19732200D02*
X55367857Y-19779819D01*
X55367857Y-19779819D02*
X55272619Y-19779819D01*
X55272619Y-19779819D02*
X55129762Y-19732200D01*
X55129762Y-19732200D02*
X55034524Y-19636961D01*
X55034524Y-19636961D02*
X54986905Y-19541723D01*
X54986905Y-19541723D02*
X54939286Y-19351247D01*
X54939286Y-19351247D02*
X54939286Y-19208390D01*
X54939286Y-19208390D02*
X54986905Y-19017914D01*
X54986905Y-19017914D02*
X55034524Y-18922676D01*
X55034524Y-18922676D02*
X55129762Y-18827438D01*
X55129762Y-18827438D02*
X55272619Y-18779819D01*
X55272619Y-18779819D02*
X55367857Y-18779819D01*
X55367857Y-18779819D02*
X55510714Y-18827438D01*
X55510714Y-18827438D02*
X55558333Y-18875057D01*
X56510714Y-19779819D02*
X55939286Y-19779819D01*
X56225000Y-19779819D02*
X56225000Y-18779819D01*
X56225000Y-18779819D02*
X56129762Y-18922676D01*
X56129762Y-18922676D02*
X56034524Y-19017914D01*
X56034524Y-19017914D02*
X55939286Y-19065533D01*
X55558333Y-23684580D02*
X55510714Y-23732200D01*
X55510714Y-23732200D02*
X55367857Y-23779819D01*
X55367857Y-23779819D02*
X55272619Y-23779819D01*
X55272619Y-23779819D02*
X55129762Y-23732200D01*
X55129762Y-23732200D02*
X55034524Y-23636961D01*
X55034524Y-23636961D02*
X54986905Y-23541723D01*
X54986905Y-23541723D02*
X54939286Y-23351247D01*
X54939286Y-23351247D02*
X54939286Y-23208390D01*
X54939286Y-23208390D02*
X54986905Y-23017914D01*
X54986905Y-23017914D02*
X55034524Y-22922676D01*
X55034524Y-22922676D02*
X55129762Y-22827438D01*
X55129762Y-22827438D02*
X55272619Y-22779819D01*
X55272619Y-22779819D02*
X55367857Y-22779819D01*
X55367857Y-22779819D02*
X55510714Y-22827438D01*
X55510714Y-22827438D02*
X55558333Y-22875057D01*
X55939286Y-22875057D02*
X55986905Y-22827438D01*
X55986905Y-22827438D02*
X56082143Y-22779819D01*
X56082143Y-22779819D02*
X56320238Y-22779819D01*
X56320238Y-22779819D02*
X56415476Y-22827438D01*
X56415476Y-22827438D02*
X56463095Y-22875057D01*
X56463095Y-22875057D02*
X56510714Y-22970295D01*
X56510714Y-22970295D02*
X56510714Y-23065533D01*
X56510714Y-23065533D02*
X56463095Y-23208390D01*
X56463095Y-23208390D02*
X55891667Y-23779819D01*
X55891667Y-23779819D02*
X56510714Y-23779819D01*
X27058333Y-19684580D02*
X27010714Y-19732200D01*
X27010714Y-19732200D02*
X26867857Y-19779819D01*
X26867857Y-19779819D02*
X26772619Y-19779819D01*
X26772619Y-19779819D02*
X26629762Y-19732200D01*
X26629762Y-19732200D02*
X26534524Y-19636961D01*
X26534524Y-19636961D02*
X26486905Y-19541723D01*
X26486905Y-19541723D02*
X26439286Y-19351247D01*
X26439286Y-19351247D02*
X26439286Y-19208390D01*
X26439286Y-19208390D02*
X26486905Y-19017914D01*
X26486905Y-19017914D02*
X26534524Y-18922676D01*
X26534524Y-18922676D02*
X26629762Y-18827438D01*
X26629762Y-18827438D02*
X26772619Y-18779819D01*
X26772619Y-18779819D02*
X26867857Y-18779819D01*
X26867857Y-18779819D02*
X27010714Y-18827438D01*
X27010714Y-18827438D02*
X27058333Y-18875057D01*
X27963095Y-18779819D02*
X27486905Y-18779819D01*
X27486905Y-18779819D02*
X27439286Y-19256009D01*
X27439286Y-19256009D02*
X27486905Y-19208390D01*
X27486905Y-19208390D02*
X27582143Y-19160771D01*
X27582143Y-19160771D02*
X27820238Y-19160771D01*
X27820238Y-19160771D02*
X27915476Y-19208390D01*
X27915476Y-19208390D02*
X27963095Y-19256009D01*
X27963095Y-19256009D02*
X28010714Y-19351247D01*
X28010714Y-19351247D02*
X28010714Y-19589342D01*
X28010714Y-19589342D02*
X27963095Y-19684580D01*
X27963095Y-19684580D02*
X27915476Y-19732200D01*
X27915476Y-19732200D02*
X27820238Y-19779819D01*
X27820238Y-19779819D02*
X27582143Y-19779819D01*
X27582143Y-19779819D02*
X27486905Y-19732200D01*
X27486905Y-19732200D02*
X27439286Y-19684580D01*
X19538333Y-26779819D02*
X19205000Y-26303628D01*
X18966905Y-26779819D02*
X18966905Y-25779819D01*
X18966905Y-25779819D02*
X19347857Y-25779819D01*
X19347857Y-25779819D02*
X19443095Y-25827438D01*
X19443095Y-25827438D02*
X19490714Y-25875057D01*
X19490714Y-25875057D02*
X19538333Y-25970295D01*
X19538333Y-25970295D02*
X19538333Y-26113152D01*
X19538333Y-26113152D02*
X19490714Y-26208390D01*
X19490714Y-26208390D02*
X19443095Y-26256009D01*
X19443095Y-26256009D02*
X19347857Y-26303628D01*
X19347857Y-26303628D02*
X18966905Y-26303628D01*
X20395476Y-26113152D02*
X20395476Y-26779819D01*
X20157381Y-25732200D02*
X19919286Y-26446485D01*
X19919286Y-26446485D02*
X20538333Y-26446485D01*
X40608333Y-16429819D02*
X40132143Y-16429819D01*
X40132143Y-16429819D02*
X40132143Y-15429819D01*
X41465476Y-16429819D02*
X40894048Y-16429819D01*
X41179762Y-16429819D02*
X41179762Y-15429819D01*
X41179762Y-15429819D02*
X41084524Y-15572676D01*
X41084524Y-15572676D02*
X40989286Y-15667914D01*
X40989286Y-15667914D02*
X40894048Y-15715533D01*
D11*
X10178572Y-27749757D02*
X10035715Y-27678328D01*
X10035715Y-27678328D02*
X9821429Y-27678328D01*
X9821429Y-27678328D02*
X9607143Y-27749757D01*
X9607143Y-27749757D02*
X9464286Y-27892614D01*
X9464286Y-27892614D02*
X9392857Y-28035471D01*
X9392857Y-28035471D02*
X9321429Y-28321185D01*
X9321429Y-28321185D02*
X9321429Y-28535471D01*
X9321429Y-28535471D02*
X9392857Y-28821185D01*
X9392857Y-28821185D02*
X9464286Y-28964042D01*
X9464286Y-28964042D02*
X9607143Y-29106900D01*
X9607143Y-29106900D02*
X9821429Y-29178328D01*
X9821429Y-29178328D02*
X9964286Y-29178328D01*
X9964286Y-29178328D02*
X10178572Y-29106900D01*
X10178572Y-29106900D02*
X10250000Y-29035471D01*
X10250000Y-29035471D02*
X10250000Y-28535471D01*
X10250000Y-28535471D02*
X9964286Y-28535471D01*
X11107143Y-27678328D02*
X11107143Y-28035471D01*
X10750000Y-27892614D02*
X11107143Y-28035471D01*
X11107143Y-28035471D02*
X11464286Y-27892614D01*
X10892857Y-28321185D02*
X11107143Y-28035471D01*
X11107143Y-28035471D02*
X11321429Y-28321185D01*
X12250000Y-27678328D02*
X12250000Y-28035471D01*
X11892857Y-27892614D02*
X12250000Y-28035471D01*
X12250000Y-28035471D02*
X12607143Y-27892614D01*
X12035714Y-28321185D02*
X12250000Y-28035471D01*
X12250000Y-28035471D02*
X12464286Y-28321185D01*
X13392857Y-27678328D02*
X13392857Y-28035471D01*
X13035714Y-27892614D02*
X13392857Y-28035471D01*
X13392857Y-28035471D02*
X13750000Y-27892614D01*
X13178571Y-28321185D02*
X13392857Y-28035471D01*
X13392857Y-28035471D02*
X13607143Y-28321185D01*
D10*
X15538333Y-6779819D02*
X15205000Y-6303628D01*
X14966905Y-6779819D02*
X14966905Y-5779819D01*
X14966905Y-5779819D02*
X15347857Y-5779819D01*
X15347857Y-5779819D02*
X15443095Y-5827438D01*
X15443095Y-5827438D02*
X15490714Y-5875057D01*
X15490714Y-5875057D02*
X15538333Y-5970295D01*
X15538333Y-5970295D02*
X15538333Y-6113152D01*
X15538333Y-6113152D02*
X15490714Y-6208390D01*
X15490714Y-6208390D02*
X15443095Y-6256009D01*
X15443095Y-6256009D02*
X15347857Y-6303628D01*
X15347857Y-6303628D02*
X14966905Y-6303628D01*
X16490714Y-6779819D02*
X15919286Y-6779819D01*
X16205000Y-6779819D02*
X16205000Y-5779819D01*
X16205000Y-5779819D02*
X16109762Y-5922676D01*
X16109762Y-5922676D02*
X16014524Y-6017914D01*
X16014524Y-6017914D02*
X15919286Y-6065533D01*
X50658333Y-11584580D02*
X50610714Y-11632200D01*
X50610714Y-11632200D02*
X50467857Y-11679819D01*
X50467857Y-11679819D02*
X50372619Y-11679819D01*
X50372619Y-11679819D02*
X50229762Y-11632200D01*
X50229762Y-11632200D02*
X50134524Y-11536961D01*
X50134524Y-11536961D02*
X50086905Y-11441723D01*
X50086905Y-11441723D02*
X50039286Y-11251247D01*
X50039286Y-11251247D02*
X50039286Y-11108390D01*
X50039286Y-11108390D02*
X50086905Y-10917914D01*
X50086905Y-10917914D02*
X50134524Y-10822676D01*
X50134524Y-10822676D02*
X50229762Y-10727438D01*
X50229762Y-10727438D02*
X50372619Y-10679819D01*
X50372619Y-10679819D02*
X50467857Y-10679819D01*
X50467857Y-10679819D02*
X50610714Y-10727438D01*
X50610714Y-10727438D02*
X50658333Y-10775057D01*
X50991667Y-10679819D02*
X51658333Y-10679819D01*
X51658333Y-10679819D02*
X51229762Y-11679819D01*
X47538333Y-23779819D02*
X47205000Y-23303628D01*
X46966905Y-23779819D02*
X46966905Y-22779819D01*
X46966905Y-22779819D02*
X47347857Y-22779819D01*
X47347857Y-22779819D02*
X47443095Y-22827438D01*
X47443095Y-22827438D02*
X47490714Y-22875057D01*
X47490714Y-22875057D02*
X47538333Y-22970295D01*
X47538333Y-22970295D02*
X47538333Y-23113152D01*
X47538333Y-23113152D02*
X47490714Y-23208390D01*
X47490714Y-23208390D02*
X47443095Y-23256009D01*
X47443095Y-23256009D02*
X47347857Y-23303628D01*
X47347857Y-23303628D02*
X46966905Y-23303628D01*
X48395476Y-22779819D02*
X48205000Y-22779819D01*
X48205000Y-22779819D02*
X48109762Y-22827438D01*
X48109762Y-22827438D02*
X48062143Y-22875057D01*
X48062143Y-22875057D02*
X47966905Y-23017914D01*
X47966905Y-23017914D02*
X47919286Y-23208390D01*
X47919286Y-23208390D02*
X47919286Y-23589342D01*
X47919286Y-23589342D02*
X47966905Y-23684580D01*
X47966905Y-23684580D02*
X48014524Y-23732200D01*
X48014524Y-23732200D02*
X48109762Y-23779819D01*
X48109762Y-23779819D02*
X48300238Y-23779819D01*
X48300238Y-23779819D02*
X48395476Y-23732200D01*
X48395476Y-23732200D02*
X48443095Y-23684580D01*
X48443095Y-23684580D02*
X48490714Y-23589342D01*
X48490714Y-23589342D02*
X48490714Y-23351247D01*
X48490714Y-23351247D02*
X48443095Y-23256009D01*
X48443095Y-23256009D02*
X48395476Y-23208390D01*
X48395476Y-23208390D02*
X48300238Y-23160771D01*
X48300238Y-23160771D02*
X48109762Y-23160771D01*
X48109762Y-23160771D02*
X48014524Y-23208390D01*
X48014524Y-23208390D02*
X47966905Y-23256009D01*
X47966905Y-23256009D02*
X47919286Y-23351247D01*
X38558333Y-23684580D02*
X38510714Y-23732200D01*
X38510714Y-23732200D02*
X38367857Y-23779819D01*
X38367857Y-23779819D02*
X38272619Y-23779819D01*
X38272619Y-23779819D02*
X38129762Y-23732200D01*
X38129762Y-23732200D02*
X38034524Y-23636961D01*
X38034524Y-23636961D02*
X37986905Y-23541723D01*
X37986905Y-23541723D02*
X37939286Y-23351247D01*
X37939286Y-23351247D02*
X37939286Y-23208390D01*
X37939286Y-23208390D02*
X37986905Y-23017914D01*
X37986905Y-23017914D02*
X38034524Y-22922676D01*
X38034524Y-22922676D02*
X38129762Y-22827438D01*
X38129762Y-22827438D02*
X38272619Y-22779819D01*
X38272619Y-22779819D02*
X38367857Y-22779819D01*
X38367857Y-22779819D02*
X38510714Y-22827438D01*
X38510714Y-22827438D02*
X38558333Y-22875057D01*
X39415476Y-22779819D02*
X39225000Y-22779819D01*
X39225000Y-22779819D02*
X39129762Y-22827438D01*
X39129762Y-22827438D02*
X39082143Y-22875057D01*
X39082143Y-22875057D02*
X38986905Y-23017914D01*
X38986905Y-23017914D02*
X38939286Y-23208390D01*
X38939286Y-23208390D02*
X38939286Y-23589342D01*
X38939286Y-23589342D02*
X38986905Y-23684580D01*
X38986905Y-23684580D02*
X39034524Y-23732200D01*
X39034524Y-23732200D02*
X39129762Y-23779819D01*
X39129762Y-23779819D02*
X39320238Y-23779819D01*
X39320238Y-23779819D02*
X39415476Y-23732200D01*
X39415476Y-23732200D02*
X39463095Y-23684580D01*
X39463095Y-23684580D02*
X39510714Y-23589342D01*
X39510714Y-23589342D02*
X39510714Y-23351247D01*
X39510714Y-23351247D02*
X39463095Y-23256009D01*
X39463095Y-23256009D02*
X39415476Y-23208390D01*
X39415476Y-23208390D02*
X39320238Y-23160771D01*
X39320238Y-23160771D02*
X39129762Y-23160771D01*
X39129762Y-23160771D02*
X39034524Y-23208390D01*
X39034524Y-23208390D02*
X38986905Y-23256009D01*
X38986905Y-23256009D02*
X38939286Y-23351247D01*
X19006905Y-23824819D02*
X19006905Y-22824819D01*
X19006905Y-22824819D02*
X19245000Y-22824819D01*
X19245000Y-22824819D02*
X19387857Y-22872438D01*
X19387857Y-22872438D02*
X19483095Y-22967676D01*
X19483095Y-22967676D02*
X19530714Y-23062914D01*
X19530714Y-23062914D02*
X19578333Y-23253390D01*
X19578333Y-23253390D02*
X19578333Y-23396247D01*
X19578333Y-23396247D02*
X19530714Y-23586723D01*
X19530714Y-23586723D02*
X19483095Y-23681961D01*
X19483095Y-23681961D02*
X19387857Y-23777200D01*
X19387857Y-23777200D02*
X19245000Y-23824819D01*
X19245000Y-23824819D02*
X19006905Y-23824819D01*
X19911667Y-22824819D02*
X20530714Y-22824819D01*
X20530714Y-22824819D02*
X20197381Y-23205771D01*
X20197381Y-23205771D02*
X20340238Y-23205771D01*
X20340238Y-23205771D02*
X20435476Y-23253390D01*
X20435476Y-23253390D02*
X20483095Y-23301009D01*
X20483095Y-23301009D02*
X20530714Y-23396247D01*
X20530714Y-23396247D02*
X20530714Y-23634342D01*
X20530714Y-23634342D02*
X20483095Y-23729580D01*
X20483095Y-23729580D02*
X20435476Y-23777200D01*
X20435476Y-23777200D02*
X20340238Y-23824819D01*
X20340238Y-23824819D02*
X20054524Y-23824819D01*
X20054524Y-23824819D02*
X19959286Y-23777200D01*
X19959286Y-23777200D02*
X19911667Y-23729580D01*
X47538333Y-19779819D02*
X47205000Y-19303628D01*
X46966905Y-19779819D02*
X46966905Y-18779819D01*
X46966905Y-18779819D02*
X47347857Y-18779819D01*
X47347857Y-18779819D02*
X47443095Y-18827438D01*
X47443095Y-18827438D02*
X47490714Y-18875057D01*
X47490714Y-18875057D02*
X47538333Y-18970295D01*
X47538333Y-18970295D02*
X47538333Y-19113152D01*
X47538333Y-19113152D02*
X47490714Y-19208390D01*
X47490714Y-19208390D02*
X47443095Y-19256009D01*
X47443095Y-19256009D02*
X47347857Y-19303628D01*
X47347857Y-19303628D02*
X46966905Y-19303628D01*
X48443095Y-18779819D02*
X47966905Y-18779819D01*
X47966905Y-18779819D02*
X47919286Y-19256009D01*
X47919286Y-19256009D02*
X47966905Y-19208390D01*
X47966905Y-19208390D02*
X48062143Y-19160771D01*
X48062143Y-19160771D02*
X48300238Y-19160771D01*
X48300238Y-19160771D02*
X48395476Y-19208390D01*
X48395476Y-19208390D02*
X48443095Y-19256009D01*
X48443095Y-19256009D02*
X48490714Y-19351247D01*
X48490714Y-19351247D02*
X48490714Y-19589342D01*
X48490714Y-19589342D02*
X48443095Y-19684580D01*
X48443095Y-19684580D02*
X48395476Y-19732200D01*
X48395476Y-19732200D02*
X48300238Y-19779819D01*
X48300238Y-19779819D02*
X48062143Y-19779819D01*
X48062143Y-19779819D02*
X47966905Y-19732200D01*
X47966905Y-19732200D02*
X47919286Y-19684580D01*
X19641666Y-18256009D02*
X19308333Y-18256009D01*
X19308333Y-18779819D02*
X19308333Y-17779819D01*
X19308333Y-17779819D02*
X19784523Y-17779819D01*
X20689285Y-18779819D02*
X20117857Y-18779819D01*
X20403571Y-18779819D02*
X20403571Y-17779819D01*
X20403571Y-17779819D02*
X20308333Y-17922676D01*
X20308333Y-17922676D02*
X20213095Y-18017914D01*
X20213095Y-18017914D02*
X20117857Y-18065533D01*
X6521905Y-814819D02*
X6521905Y185180D01*
X7093333Y-814819D02*
X6664762Y-243390D01*
X7093333Y185180D02*
X6521905Y-386247D01*
X8045714Y-814819D02*
X7474286Y-814819D01*
X7760000Y-814819D02*
X7760000Y185180D01*
X7760000Y185180D02*
X7664762Y42323D01*
X7664762Y42323D02*
X7569524Y-52914D01*
X7569524Y-52914D02*
X7474286Y-100533D01*
X15538333Y-9779819D02*
X15205000Y-9303628D01*
X14966905Y-9779819D02*
X14966905Y-8779819D01*
X14966905Y-8779819D02*
X15347857Y-8779819D01*
X15347857Y-8779819D02*
X15443095Y-8827438D01*
X15443095Y-8827438D02*
X15490714Y-8875057D01*
X15490714Y-8875057D02*
X15538333Y-8970295D01*
X15538333Y-8970295D02*
X15538333Y-9113152D01*
X15538333Y-9113152D02*
X15490714Y-9208390D01*
X15490714Y-9208390D02*
X15443095Y-9256009D01*
X15443095Y-9256009D02*
X15347857Y-9303628D01*
X15347857Y-9303628D02*
X14966905Y-9303628D01*
X15919286Y-8875057D02*
X15966905Y-8827438D01*
X15966905Y-8827438D02*
X16062143Y-8779819D01*
X16062143Y-8779819D02*
X16300238Y-8779819D01*
X16300238Y-8779819D02*
X16395476Y-8827438D01*
X16395476Y-8827438D02*
X16443095Y-8875057D01*
X16443095Y-8875057D02*
X16490714Y-8970295D01*
X16490714Y-8970295D02*
X16490714Y-9065533D01*
X16490714Y-9065533D02*
X16443095Y-9208390D01*
X16443095Y-9208390D02*
X15871667Y-9779819D01*
X15871667Y-9779819D02*
X16490714Y-9779819D01*
X9615476Y-61469819D02*
X9615476Y-60469819D01*
X9615476Y-60469819D02*
X9948809Y-61184104D01*
X9948809Y-61184104D02*
X10282142Y-60469819D01*
X10282142Y-60469819D02*
X10282142Y-61469819D01*
X11282142Y-61469819D02*
X10710714Y-61469819D01*
X10996428Y-61469819D02*
X10996428Y-60469819D01*
X10996428Y-60469819D02*
X10901190Y-60612676D01*
X10901190Y-60612676D02*
X10805952Y-60707914D01*
X10805952Y-60707914D02*
X10710714Y-60755533D01*
D12*
X4936764Y-46721428D02*
X5543907Y-46721428D01*
X5543907Y-46721428D02*
X5615335Y-46685714D01*
X5615335Y-46685714D02*
X5651050Y-46650000D01*
X5651050Y-46650000D02*
X5686764Y-46578571D01*
X5686764Y-46578571D02*
X5686764Y-46435714D01*
X5686764Y-46435714D02*
X5651050Y-46364285D01*
X5651050Y-46364285D02*
X5615335Y-46328571D01*
X5615335Y-46328571D02*
X5543907Y-46292857D01*
X5543907Y-46292857D02*
X4936764Y-46292857D01*
X5651050Y-45971428D02*
X5686764Y-45864286D01*
X5686764Y-45864286D02*
X5686764Y-45685714D01*
X5686764Y-45685714D02*
X5651050Y-45614286D01*
X5651050Y-45614286D02*
X5615335Y-45578571D01*
X5615335Y-45578571D02*
X5543907Y-45542857D01*
X5543907Y-45542857D02*
X5472478Y-45542857D01*
X5472478Y-45542857D02*
X5401050Y-45578571D01*
X5401050Y-45578571D02*
X5365335Y-45614286D01*
X5365335Y-45614286D02*
X5329621Y-45685714D01*
X5329621Y-45685714D02*
X5293907Y-45828571D01*
X5293907Y-45828571D02*
X5258192Y-45900000D01*
X5258192Y-45900000D02*
X5222478Y-45935714D01*
X5222478Y-45935714D02*
X5151050Y-45971428D01*
X5151050Y-45971428D02*
X5079621Y-45971428D01*
X5079621Y-45971428D02*
X5008192Y-45935714D01*
X5008192Y-45935714D02*
X4972478Y-45900000D01*
X4972478Y-45900000D02*
X4936764Y-45828571D01*
X4936764Y-45828571D02*
X4936764Y-45650000D01*
X4936764Y-45650000D02*
X4972478Y-45542857D01*
X5293907Y-44971428D02*
X5329621Y-44864285D01*
X5329621Y-44864285D02*
X5365335Y-44828571D01*
X5365335Y-44828571D02*
X5436764Y-44792857D01*
X5436764Y-44792857D02*
X5543907Y-44792857D01*
X5543907Y-44792857D02*
X5615335Y-44828571D01*
X5615335Y-44828571D02*
X5651050Y-44864285D01*
X5651050Y-44864285D02*
X5686764Y-44935714D01*
X5686764Y-44935714D02*
X5686764Y-45221428D01*
X5686764Y-45221428D02*
X4936764Y-45221428D01*
X4936764Y-45221428D02*
X4936764Y-44971428D01*
X4936764Y-44971428D02*
X4972478Y-44900000D01*
X4972478Y-44900000D02*
X5008192Y-44864285D01*
X5008192Y-44864285D02*
X5079621Y-44828571D01*
X5079621Y-44828571D02*
X5151050Y-44828571D01*
X5151050Y-44828571D02*
X5222478Y-44864285D01*
X5222478Y-44864285D02*
X5258192Y-44900000D01*
X5258192Y-44900000D02*
X5293907Y-44971428D01*
X5293907Y-44971428D02*
X5293907Y-45221428D01*
X53507858Y-43997478D02*
X53865001Y-43997478D01*
X53436429Y-44211764D02*
X53686429Y-43461764D01*
X53686429Y-43461764D02*
X53936429Y-44211764D01*
X54186429Y-43711764D02*
X54186429Y-44211764D01*
X54186429Y-43783192D02*
X54222143Y-43747478D01*
X54222143Y-43747478D02*
X54293572Y-43711764D01*
X54293572Y-43711764D02*
X54400715Y-43711764D01*
X54400715Y-43711764D02*
X54472143Y-43747478D01*
X54472143Y-43747478D02*
X54507858Y-43818907D01*
X54507858Y-43818907D02*
X54507858Y-44211764D01*
X54757857Y-43711764D02*
X55043571Y-43711764D01*
X54865000Y-43461764D02*
X54865000Y-44104621D01*
X54865000Y-44104621D02*
X54900714Y-44176050D01*
X54900714Y-44176050D02*
X54972143Y-44211764D01*
X54972143Y-44211764D02*
X55043571Y-44211764D01*
D10*
X30158333Y-11584580D02*
X30110714Y-11632200D01*
X30110714Y-11632200D02*
X29967857Y-11679819D01*
X29967857Y-11679819D02*
X29872619Y-11679819D01*
X29872619Y-11679819D02*
X29729762Y-11632200D01*
X29729762Y-11632200D02*
X29634524Y-11536961D01*
X29634524Y-11536961D02*
X29586905Y-11441723D01*
X29586905Y-11441723D02*
X29539286Y-11251247D01*
X29539286Y-11251247D02*
X29539286Y-11108390D01*
X29539286Y-11108390D02*
X29586905Y-10917914D01*
X29586905Y-10917914D02*
X29634524Y-10822676D01*
X29634524Y-10822676D02*
X29729762Y-10727438D01*
X29729762Y-10727438D02*
X29872619Y-10679819D01*
X29872619Y-10679819D02*
X29967857Y-10679819D01*
X29967857Y-10679819D02*
X30110714Y-10727438D01*
X30110714Y-10727438D02*
X30158333Y-10775057D01*
X31015476Y-11013152D02*
X31015476Y-11679819D01*
X30777381Y-10632200D02*
X30539286Y-11346485D01*
X30539286Y-11346485D02*
X31158333Y-11346485D01*
X19935238Y-11181009D02*
X20078095Y-11228628D01*
X20078095Y-11228628D02*
X20125714Y-11276247D01*
X20125714Y-11276247D02*
X20173333Y-11371485D01*
X20173333Y-11371485D02*
X20173333Y-11514342D01*
X20173333Y-11514342D02*
X20125714Y-11609580D01*
X20125714Y-11609580D02*
X20078095Y-11657200D01*
X20078095Y-11657200D02*
X19982857Y-11704819D01*
X19982857Y-11704819D02*
X19601905Y-11704819D01*
X19601905Y-11704819D02*
X19601905Y-10704819D01*
X19601905Y-10704819D02*
X19935238Y-10704819D01*
X19935238Y-10704819D02*
X20030476Y-10752438D01*
X20030476Y-10752438D02*
X20078095Y-10800057D01*
X20078095Y-10800057D02*
X20125714Y-10895295D01*
X20125714Y-10895295D02*
X20125714Y-10990533D01*
X20125714Y-10990533D02*
X20078095Y-11085771D01*
X20078095Y-11085771D02*
X20030476Y-11133390D01*
X20030476Y-11133390D02*
X19935238Y-11181009D01*
X19935238Y-11181009D02*
X19601905Y-11181009D01*
X21173333Y-11704819D02*
X20840000Y-11228628D01*
X20601905Y-11704819D02*
X20601905Y-10704819D01*
X20601905Y-10704819D02*
X20982857Y-10704819D01*
X20982857Y-10704819D02*
X21078095Y-10752438D01*
X21078095Y-10752438D02*
X21125714Y-10800057D01*
X21125714Y-10800057D02*
X21173333Y-10895295D01*
X21173333Y-10895295D02*
X21173333Y-11038152D01*
X21173333Y-11038152D02*
X21125714Y-11133390D01*
X21125714Y-11133390D02*
X21078095Y-11181009D01*
X21078095Y-11181009D02*
X20982857Y-11228628D01*
X20982857Y-11228628D02*
X20601905Y-11228628D01*
X22125714Y-11704819D02*
X21554286Y-11704819D01*
X21840000Y-11704819D02*
X21840000Y-10704819D01*
X21840000Y-10704819D02*
X21744762Y-10847676D01*
X21744762Y-10847676D02*
X21649524Y-10942914D01*
X21649524Y-10942914D02*
X21554286Y-10990533D01*
X38313095Y-10954819D02*
X38313095Y-11764342D01*
X38313095Y-11764342D02*
X38360714Y-11859580D01*
X38360714Y-11859580D02*
X38408333Y-11907200D01*
X38408333Y-11907200D02*
X38503571Y-11954819D01*
X38503571Y-11954819D02*
X38694047Y-11954819D01*
X38694047Y-11954819D02*
X38789285Y-11907200D01*
X38789285Y-11907200D02*
X38836904Y-11859580D01*
X38836904Y-11859580D02*
X38884523Y-11764342D01*
X38884523Y-11764342D02*
X38884523Y-10954819D01*
X39313095Y-11050057D02*
X39360714Y-11002438D01*
X39360714Y-11002438D02*
X39455952Y-10954819D01*
X39455952Y-10954819D02*
X39694047Y-10954819D01*
X39694047Y-10954819D02*
X39789285Y-11002438D01*
X39789285Y-11002438D02*
X39836904Y-11050057D01*
X39836904Y-11050057D02*
X39884523Y-11145295D01*
X39884523Y-11145295D02*
X39884523Y-11240533D01*
X39884523Y-11240533D02*
X39836904Y-11383390D01*
X39836904Y-11383390D02*
X39265476Y-11954819D01*
X39265476Y-11954819D02*
X39884523Y-11954819D01*
X9538333Y-22779819D02*
X9205000Y-22303628D01*
X8966905Y-22779819D02*
X8966905Y-21779819D01*
X8966905Y-21779819D02*
X9347857Y-21779819D01*
X9347857Y-21779819D02*
X9443095Y-21827438D01*
X9443095Y-21827438D02*
X9490714Y-21875057D01*
X9490714Y-21875057D02*
X9538333Y-21970295D01*
X9538333Y-21970295D02*
X9538333Y-22113152D01*
X9538333Y-22113152D02*
X9490714Y-22208390D01*
X9490714Y-22208390D02*
X9443095Y-22256009D01*
X9443095Y-22256009D02*
X9347857Y-22303628D01*
X9347857Y-22303628D02*
X8966905Y-22303628D01*
X9871667Y-21779819D02*
X10538333Y-21779819D01*
X10538333Y-21779819D02*
X10109762Y-22779819D01*
X15859761Y-1875057D02*
X15764523Y-1827438D01*
X15764523Y-1827438D02*
X15669285Y-1732200D01*
X15669285Y-1732200D02*
X15526428Y-1589342D01*
X15526428Y-1589342D02*
X15431190Y-1541723D01*
X15431190Y-1541723D02*
X15335952Y-1541723D01*
X15383571Y-1779819D02*
X15288333Y-1732200D01*
X15288333Y-1732200D02*
X15193095Y-1636961D01*
X15193095Y-1636961D02*
X15145476Y-1446485D01*
X15145476Y-1446485D02*
X15145476Y-1113152D01*
X15145476Y-1113152D02*
X15193095Y-922676D01*
X15193095Y-922676D02*
X15288333Y-827438D01*
X15288333Y-827438D02*
X15383571Y-779819D01*
X15383571Y-779819D02*
X15574047Y-779819D01*
X15574047Y-779819D02*
X15669285Y-827438D01*
X15669285Y-827438D02*
X15764523Y-922676D01*
X15764523Y-922676D02*
X15812142Y-1113152D01*
X15812142Y-1113152D02*
X15812142Y-1446485D01*
X15812142Y-1446485D02*
X15764523Y-1636961D01*
X15764523Y-1636961D02*
X15669285Y-1732200D01*
X15669285Y-1732200D02*
X15574047Y-1779819D01*
X15574047Y-1779819D02*
X15383571Y-1779819D01*
X16764523Y-1779819D02*
X16193095Y-1779819D01*
X16478809Y-1779819D02*
X16478809Y-779819D01*
X16478809Y-779819D02*
X16383571Y-922676D01*
X16383571Y-922676D02*
X16288333Y-1017914D01*
X16288333Y-1017914D02*
X16193095Y-1065533D01*
X3681905Y-19129819D02*
X3681905Y-18129819D01*
X3681905Y-18129819D02*
X3920000Y-18129819D01*
X3920000Y-18129819D02*
X4062857Y-18177438D01*
X4062857Y-18177438D02*
X4158095Y-18272676D01*
X4158095Y-18272676D02*
X4205714Y-18367914D01*
X4205714Y-18367914D02*
X4253333Y-18558390D01*
X4253333Y-18558390D02*
X4253333Y-18701247D01*
X4253333Y-18701247D02*
X4205714Y-18891723D01*
X4205714Y-18891723D02*
X4158095Y-18986961D01*
X4158095Y-18986961D02*
X4062857Y-19082200D01*
X4062857Y-19082200D02*
X3920000Y-19129819D01*
X3920000Y-19129819D02*
X3681905Y-19129819D01*
X5205714Y-19129819D02*
X4634286Y-19129819D01*
X4920000Y-19129819D02*
X4920000Y-18129819D01*
X4920000Y-18129819D02*
X4824762Y-18272676D01*
X4824762Y-18272676D02*
X4729524Y-18367914D01*
X4729524Y-18367914D02*
X4634286Y-18415533D01*
X9006905Y-19324819D02*
X9006905Y-18324819D01*
X9006905Y-18324819D02*
X9245000Y-18324819D01*
X9245000Y-18324819D02*
X9387857Y-18372438D01*
X9387857Y-18372438D02*
X9483095Y-18467676D01*
X9483095Y-18467676D02*
X9530714Y-18562914D01*
X9530714Y-18562914D02*
X9578333Y-18753390D01*
X9578333Y-18753390D02*
X9578333Y-18896247D01*
X9578333Y-18896247D02*
X9530714Y-19086723D01*
X9530714Y-19086723D02*
X9483095Y-19181961D01*
X9483095Y-19181961D02*
X9387857Y-19277200D01*
X9387857Y-19277200D02*
X9245000Y-19324819D01*
X9245000Y-19324819D02*
X9006905Y-19324819D01*
X10435476Y-18658152D02*
X10435476Y-19324819D01*
X10197381Y-18277200D02*
X9959286Y-18991485D01*
X9959286Y-18991485D02*
X10578333Y-18991485D01*
%TO.C,C1*%
D13*
X55463748Y-20270000D02*
X55986252Y-20270000D01*
X55463748Y-21740000D02*
X55986252Y-21740000D01*
%TO.C,C2*%
X55463748Y-24270000D02*
X55986252Y-24270000D01*
X55463748Y-25740000D02*
X55986252Y-25740000D01*
%TO.C,C5*%
X26963748Y-20270000D02*
X27486252Y-20270000D01*
X26963748Y-21740000D02*
X27486252Y-21740000D01*
%TO.C,R4*%
X19477936Y-27240000D02*
X19932064Y-27240000D01*
X19477936Y-28710000D02*
X19932064Y-28710000D01*
%TO.C,L1*%
X37475000Y-17225000D02*
X44075000Y-17225000D01*
X37475000Y-18925000D02*
X37475000Y-17225000D01*
X37475000Y-23625000D02*
X37475000Y-21925000D01*
X44075000Y-17225000D02*
X44075000Y-18925000D01*
X44075000Y-21925000D02*
X44075000Y-23625000D01*
X44075000Y-23625000D02*
X37475000Y-23625000D01*
D14*
%TO.C,G\u002A\u002A\u002A*%
G36*
X15475824Y-29759956D02*
G01*
X15481732Y-29761597D01*
X15505320Y-29771905D01*
X15525913Y-29786276D01*
X15542640Y-29803926D01*
X15554630Y-29824074D01*
X15556507Y-29828663D01*
X15561178Y-29847978D01*
X15562173Y-29869733D01*
X15559592Y-29891710D01*
X15553538Y-29911687D01*
X15552619Y-29913765D01*
X15539607Y-29935549D01*
X15522614Y-29953761D01*
X15502501Y-29967800D01*
X15480131Y-29977065D01*
X15456471Y-29980947D01*
X15443764Y-29981015D01*
X15431762Y-29980294D01*
X15423547Y-29979035D01*
X15399241Y-29970101D01*
X15378046Y-29956596D01*
X15360624Y-29939137D01*
X15347635Y-29918339D01*
X15341708Y-29902729D01*
X15338464Y-29885504D01*
X15337559Y-29865900D01*
X15338889Y-29846140D01*
X15342353Y-29828445D01*
X15345542Y-29819452D01*
X15355124Y-29803431D01*
X15368670Y-29787823D01*
X15384333Y-29774522D01*
X15396691Y-29767036D01*
X15414204Y-29760939D01*
X15434782Y-29757628D01*
X15456098Y-29757250D01*
X15475824Y-29759956D01*
G37*
G36*
X15537761Y-30075070D02*
G01*
X15538029Y-30083673D01*
X15538286Y-30097594D01*
X15538529Y-30116493D01*
X15538758Y-30140029D01*
X15538969Y-30167860D01*
X15539161Y-30199645D01*
X15539333Y-30235044D01*
X15539481Y-30273715D01*
X15539605Y-30315318D01*
X15539703Y-30359511D01*
X15539772Y-30405953D01*
X15539810Y-30454304D01*
X15539818Y-30488409D01*
X15539818Y-30904689D01*
X15447560Y-30904689D01*
X15418825Y-30904593D01*
X15395206Y-30904308D01*
X15376889Y-30903840D01*
X15364062Y-30903195D01*
X15356911Y-30902380D01*
X15355382Y-30901689D01*
X15355381Y-30898321D01*
X15355356Y-30889370D01*
X15355309Y-30875255D01*
X15355240Y-30856393D01*
X15355153Y-30833202D01*
X15355048Y-30806100D01*
X15354927Y-30775506D01*
X15354791Y-30741836D01*
X15354643Y-30705509D01*
X15354484Y-30666943D01*
X15354316Y-30626555D01*
X15354262Y-30613666D01*
X15354106Y-30571045D01*
X15353996Y-30528882D01*
X15353932Y-30487731D01*
X15353912Y-30448145D01*
X15353935Y-30410676D01*
X15354001Y-30375877D01*
X15354108Y-30344301D01*
X15354255Y-30316502D01*
X15354441Y-30293032D01*
X15354665Y-30274444D01*
X15354926Y-30261291D01*
X15354933Y-30261062D01*
X15355557Y-30239221D01*
X15356130Y-30222545D01*
X15356754Y-30210197D01*
X15357530Y-30201344D01*
X15358559Y-30195150D01*
X15359943Y-30190781D01*
X15361784Y-30187401D01*
X15364183Y-30184177D01*
X15364304Y-30184024D01*
X15373804Y-30173977D01*
X15387669Y-30161911D01*
X15404908Y-30148514D01*
X15424529Y-30134473D01*
X15445543Y-30120474D01*
X15466957Y-30107206D01*
X15487781Y-30095355D01*
X15504481Y-30086812D01*
X15516910Y-30080953D01*
X15527354Y-30076205D01*
X15534632Y-30073093D01*
X15537484Y-30072126D01*
X15537761Y-30075070D01*
G37*
G36*
X6388539Y-29676659D02*
G01*
X6408390Y-29676889D01*
X6425509Y-29677271D01*
X6439099Y-29677814D01*
X6444486Y-29678160D01*
X6475872Y-29680593D01*
X6477619Y-29689594D01*
X6477970Y-29694648D01*
X6478177Y-29704942D01*
X6478244Y-29719718D01*
X6478172Y-29738218D01*
X6477964Y-29759683D01*
X6477622Y-29783355D01*
X6477250Y-29803603D01*
X6477013Y-29818344D01*
X6476779Y-29838683D01*
X6476550Y-29864215D01*
X6476328Y-29894538D01*
X6476114Y-29929247D01*
X6475909Y-29967940D01*
X6475716Y-30010213D01*
X6475535Y-30055663D01*
X6475370Y-30103886D01*
X6475220Y-30154479D01*
X6475089Y-30207038D01*
X6474977Y-30261161D01*
X6474886Y-30316443D01*
X6474818Y-30372481D01*
X6474786Y-30410400D01*
X6474439Y-30912190D01*
X6347189Y-30912190D01*
X6314595Y-30912151D01*
X6287565Y-30912026D01*
X6265664Y-30911803D01*
X6248457Y-30911468D01*
X6235508Y-30911009D01*
X6226381Y-30910415D01*
X6220640Y-30909671D01*
X6217851Y-30908765D01*
X6217511Y-30908440D01*
X6217246Y-30905090D01*
X6216982Y-30896089D01*
X6216720Y-30881780D01*
X6216459Y-30862507D01*
X6216202Y-30838615D01*
X6215949Y-30810447D01*
X6215701Y-30778349D01*
X6215459Y-30742663D01*
X6215223Y-30703735D01*
X6214995Y-30661907D01*
X6214776Y-30617526D01*
X6214566Y-30570933D01*
X6214367Y-30522475D01*
X6214178Y-30472494D01*
X6214002Y-30421335D01*
X6213839Y-30369342D01*
X6213689Y-30316860D01*
X6213554Y-30264232D01*
X6213435Y-30211802D01*
X6213333Y-30159915D01*
X6213248Y-30108915D01*
X6213181Y-30059146D01*
X6213133Y-30010952D01*
X6213105Y-29964677D01*
X6213099Y-29920665D01*
X6213114Y-29879261D01*
X6213152Y-29840809D01*
X6213213Y-29805652D01*
X6213299Y-29774136D01*
X6213411Y-29746603D01*
X6213549Y-29723399D01*
X6213714Y-29704867D01*
X6213907Y-29691351D01*
X6214129Y-29683197D01*
X6214343Y-29680734D01*
X6217863Y-29679937D01*
X6226588Y-29679204D01*
X6239726Y-29678542D01*
X6256483Y-29677960D01*
X6276063Y-29677468D01*
X6297674Y-29677074D01*
X6320521Y-29676787D01*
X6343810Y-29676617D01*
X6366747Y-29676571D01*
X6388539Y-29676659D01*
G37*
G36*
X13583402Y-29658496D02*
G01*
X13583497Y-29661572D01*
X13583555Y-29670303D01*
X13583578Y-29684343D01*
X13583567Y-29703346D01*
X13583524Y-29726966D01*
X13583449Y-29754859D01*
X13583343Y-29786679D01*
X13583209Y-29822079D01*
X13583046Y-29860714D01*
X13582857Y-29902238D01*
X13582643Y-29946307D01*
X13582404Y-29992573D01*
X13582141Y-30040692D01*
X13581989Y-30067623D01*
X13581684Y-30121438D01*
X13581379Y-30176695D01*
X13581077Y-30232758D01*
X13580780Y-30288994D01*
X13580492Y-30344767D01*
X13580216Y-30399445D01*
X13579956Y-30452392D01*
X13579714Y-30502974D01*
X13579493Y-30550557D01*
X13579297Y-30594506D01*
X13579128Y-30634187D01*
X13578990Y-30668966D01*
X13578911Y-30690922D01*
X13578174Y-30906189D01*
X13487162Y-30906189D01*
X13464496Y-30906118D01*
X13443904Y-30905917D01*
X13426113Y-30905603D01*
X13411849Y-30905195D01*
X13401841Y-30904711D01*
X13396814Y-30904169D01*
X13396361Y-30903939D01*
X13396369Y-30900747D01*
X13396351Y-30891862D01*
X13396306Y-30877590D01*
X13396237Y-30858240D01*
X13396144Y-30834118D01*
X13396029Y-30805531D01*
X13395893Y-30772787D01*
X13395738Y-30736192D01*
X13395565Y-30696054D01*
X13395375Y-30652680D01*
X13395169Y-30606377D01*
X13394949Y-30557453D01*
X13394716Y-30506213D01*
X13394471Y-30452967D01*
X13394216Y-30398020D01*
X13394144Y-30382648D01*
X13393887Y-30326895D01*
X13393646Y-30272527D01*
X13393419Y-30219869D01*
X13393210Y-30169246D01*
X13393019Y-30120983D01*
X13392846Y-30075404D01*
X13392694Y-30032836D01*
X13392563Y-29993602D01*
X13392454Y-29958028D01*
X13392368Y-29926439D01*
X13392306Y-29899160D01*
X13392270Y-29876516D01*
X13392261Y-29858832D01*
X13392279Y-29846433D01*
X13392326Y-29839643D01*
X13392339Y-29838983D01*
X13393588Y-29820852D01*
X13396727Y-29806723D01*
X13402421Y-29794721D01*
X13411336Y-29782975D01*
X13412810Y-29781320D01*
X13422337Y-29771846D01*
X13435953Y-29759806D01*
X13452739Y-29745939D01*
X13471776Y-29730985D01*
X13492146Y-29715682D01*
X13512568Y-29701023D01*
X13527351Y-29690917D01*
X13542019Y-29681323D01*
X13555704Y-29672761D01*
X13567539Y-29665752D01*
X13576657Y-29660818D01*
X13582191Y-29658478D01*
X13583402Y-29658496D01*
G37*
G36*
X14101556Y-30072041D02*
G01*
X14152805Y-30079171D01*
X14201363Y-30091522D01*
X14246992Y-30108915D01*
X14289454Y-30131169D01*
X14328513Y-30158103D01*
X14363932Y-30189535D01*
X14395473Y-30225285D01*
X14422899Y-30265172D01*
X14445973Y-30309016D01*
X14460870Y-30346048D01*
X14469311Y-30372337D01*
X14475581Y-30397720D01*
X14479975Y-30423934D01*
X14482790Y-30452717D01*
X14484245Y-30483156D01*
X14484227Y-30524084D01*
X14481364Y-30561040D01*
X14475358Y-30595486D01*
X14465909Y-30628885D01*
X14452717Y-30662699D01*
X14443432Y-30682672D01*
X14420178Y-30724766D01*
X14393535Y-30762538D01*
X14363808Y-30795994D01*
X14326056Y-30830252D01*
X14286018Y-30858965D01*
X14243652Y-30882153D01*
X14198916Y-30899838D01*
X14151770Y-30912037D01*
X14111935Y-30917897D01*
X14092152Y-30919684D01*
X14075955Y-30920550D01*
X14061002Y-30920495D01*
X14044947Y-30919519D01*
X14027967Y-30917891D01*
X13978710Y-30909953D01*
X13931150Y-30896858D01*
X13885809Y-30878892D01*
X13843210Y-30856341D01*
X13803877Y-30829491D01*
X13768332Y-30798630D01*
X13737097Y-30764042D01*
X13729898Y-30754678D01*
X13707073Y-30719203D01*
X13688099Y-30679852D01*
X13673055Y-30637418D01*
X13662024Y-30592695D01*
X13655086Y-30546473D01*
X13652322Y-30499548D01*
X13652510Y-30493630D01*
X13837750Y-30493630D01*
X13838643Y-30520796D01*
X13840485Y-30546698D01*
X13843228Y-30569629D01*
X13845806Y-30583664D01*
X13857279Y-30625460D01*
X13872024Y-30663447D01*
X13889815Y-30697352D01*
X13910428Y-30726900D01*
X13933638Y-30751817D01*
X13959220Y-30771827D01*
X13986950Y-30786658D01*
X14016601Y-30796033D01*
X14020426Y-30796807D01*
X14039238Y-30799144D01*
X14061036Y-30799910D01*
X14083550Y-30799171D01*
X14104514Y-30796995D01*
X14120149Y-30793870D01*
X14151161Y-30782460D01*
X14179578Y-30765861D01*
X14205230Y-30744374D01*
X14227949Y-30718297D01*
X14247564Y-30687930D01*
X14263907Y-30653573D01*
X14276808Y-30615526D01*
X14286098Y-30574087D01*
X14291607Y-30529558D01*
X14293194Y-30487656D01*
X14290982Y-30441562D01*
X14284476Y-30397745D01*
X14273836Y-30356875D01*
X14259224Y-30319620D01*
X14247715Y-30297734D01*
X14236400Y-30281446D01*
X14221520Y-30264297D01*
X14204541Y-30247678D01*
X14186930Y-30232982D01*
X14170153Y-30221600D01*
X14164036Y-30218303D01*
X14130234Y-30204914D01*
X14095356Y-30197155D01*
X14060065Y-30195028D01*
X14025023Y-30198536D01*
X13990893Y-30207682D01*
X13967694Y-30217541D01*
X13938225Y-30235412D01*
X13912441Y-30257984D01*
X13890333Y-30285270D01*
X13871896Y-30317282D01*
X13857122Y-30354031D01*
X13846003Y-30395529D01*
X13841246Y-30421651D01*
X13839003Y-30442349D01*
X13837854Y-30466912D01*
X13837750Y-30493630D01*
X13652510Y-30493630D01*
X13653812Y-30452711D01*
X13659638Y-30406755D01*
X13669881Y-30362473D01*
X13684622Y-30320658D01*
X13685416Y-30318791D01*
X13707640Y-30274273D01*
X13734307Y-30233570D01*
X13765063Y-30196891D01*
X13799556Y-30164446D01*
X13837432Y-30136445D01*
X13878337Y-30113097D01*
X13921918Y-30094612D01*
X13967821Y-30081199D01*
X14015693Y-30073068D01*
X14065181Y-30070429D01*
X14101556Y-30072041D01*
G37*
G36*
X12958373Y-30077003D02*
G01*
X13008178Y-30086395D01*
X13010212Y-30086904D01*
X13058352Y-30101891D01*
X13102829Y-30121604D01*
X13143672Y-30146068D01*
X13180911Y-30175310D01*
X13214577Y-30209355D01*
X13244700Y-30248230D01*
X13271309Y-30291961D01*
X13290138Y-30330573D01*
X13306278Y-30374518D01*
X13317043Y-30420466D01*
X13322461Y-30467812D01*
X13322558Y-30515946D01*
X13317360Y-30564261D01*
X13306895Y-30612148D01*
X13291190Y-30658999D01*
X13273921Y-30697201D01*
X13256287Y-30728616D01*
X13236810Y-30756685D01*
X13214074Y-30783292D01*
X13194349Y-30803120D01*
X13156378Y-30835252D01*
X13115287Y-30862267D01*
X13071137Y-30884134D01*
X13023990Y-30900821D01*
X12973908Y-30912300D01*
X12973568Y-30912358D01*
X12946440Y-30915815D01*
X12916014Y-30917694D01*
X12884353Y-30917996D01*
X12853523Y-30916722D01*
X12825586Y-30913873D01*
X12815604Y-30912278D01*
X12766496Y-30900499D01*
X12719983Y-30883442D01*
X12676348Y-30861254D01*
X12635877Y-30834080D01*
X12598852Y-30802066D01*
X12596431Y-30799681D01*
X12567322Y-30767142D01*
X12542478Y-30731438D01*
X12521672Y-30692127D01*
X12504675Y-30648770D01*
X12491260Y-30600924D01*
X12489396Y-30592665D01*
X12487188Y-30581815D01*
X12485524Y-30571441D01*
X12484327Y-30560420D01*
X12483522Y-30547629D01*
X12483033Y-30531947D01*
X12482784Y-30512252D01*
X12482708Y-30493657D01*
X12482746Y-30481331D01*
X12666923Y-30481331D01*
X12668210Y-30523803D01*
X12672949Y-30565400D01*
X12681143Y-30604675D01*
X12683456Y-30613019D01*
X12697251Y-30651650D01*
X12714922Y-30686551D01*
X12736170Y-30717422D01*
X12760697Y-30743962D01*
X12788205Y-30765870D01*
X12818394Y-30782847D01*
X12850967Y-30794590D01*
X12867398Y-30798287D01*
X12886773Y-30800200D01*
X12909306Y-30799841D01*
X12932686Y-30797403D01*
X12954597Y-30793075D01*
X12964232Y-30790279D01*
X12995604Y-30776804D01*
X13024395Y-30758144D01*
X13050363Y-30734637D01*
X13073268Y-30706623D01*
X13092868Y-30674442D01*
X13108923Y-30638434D01*
X13121190Y-30598937D01*
X13129185Y-30558019D01*
X13130887Y-30541286D01*
X13131960Y-30520430D01*
X13132403Y-30497294D01*
X13132215Y-30473722D01*
X13131396Y-30451558D01*
X13129947Y-30432647D01*
X13129217Y-30426602D01*
X13121204Y-30385703D01*
X13108981Y-30347666D01*
X13092813Y-30312956D01*
X13072966Y-30282035D01*
X13049703Y-30255368D01*
X13023290Y-30233418D01*
X13016242Y-30228733D01*
X12989911Y-30215126D01*
X12960093Y-30205012D01*
X12928415Y-30198738D01*
X12896498Y-30196650D01*
X12872731Y-30198118D01*
X12835838Y-30205397D01*
X12802340Y-30217612D01*
X12772296Y-30234711D01*
X12745768Y-30256640D01*
X12722815Y-30283346D01*
X12703500Y-30314777D01*
X12687882Y-30350880D01*
X12683762Y-30363134D01*
X12674701Y-30399550D01*
X12669087Y-30439431D01*
X12666923Y-30481331D01*
X12482746Y-30481331D01*
X12482790Y-30466985D01*
X12483246Y-30445126D01*
X12484218Y-30426897D01*
X12485852Y-30411113D01*
X12488293Y-30396591D01*
X12491684Y-30382148D01*
X12496170Y-30366601D01*
X12499513Y-30356052D01*
X12516429Y-30312848D01*
X12538423Y-30272261D01*
X12565748Y-30233885D01*
X12598027Y-30197943D01*
X12635050Y-30164926D01*
X12675290Y-30136773D01*
X12718284Y-30113611D01*
X12763569Y-30095563D01*
X12810683Y-30082753D01*
X12859163Y-30075307D01*
X12908547Y-30073349D01*
X12958373Y-30077003D01*
G37*
G36*
X10492870Y-30074863D02*
G01*
X10539159Y-30084710D01*
X10583291Y-30099923D01*
X10624955Y-30120388D01*
X10663839Y-30145991D01*
X10699631Y-30176618D01*
X10709633Y-30186680D01*
X10733253Y-30213580D01*
X10752458Y-30240234D01*
X10766984Y-30266154D01*
X10776570Y-30290856D01*
X10780954Y-30313851D01*
X10781211Y-30319607D01*
X10781443Y-30340573D01*
X10766442Y-30348559D01*
X10756644Y-30352964D01*
X10743305Y-30357898D01*
X10728731Y-30362534D01*
X10722939Y-30364156D01*
X10710560Y-30367318D01*
X10695890Y-30370843D01*
X10680011Y-30374497D01*
X10664005Y-30378047D01*
X10648954Y-30381260D01*
X10635940Y-30383903D01*
X10626046Y-30385742D01*
X10620353Y-30386544D01*
X10619416Y-30386477D01*
X10616800Y-30382003D01*
X10612454Y-30372815D01*
X10606258Y-30358643D01*
X10598090Y-30339215D01*
X10595183Y-30332189D01*
X10581705Y-30302310D01*
X10567847Y-30277642D01*
X10552941Y-30257406D01*
X10536320Y-30240820D01*
X10517317Y-30227103D01*
X10495648Y-30215649D01*
X10464403Y-30204548D01*
X10431825Y-30198892D01*
X10398665Y-30198497D01*
X10365677Y-30203183D01*
X10333614Y-30212767D01*
X10303226Y-30227067D01*
X10275267Y-30245900D01*
X10250488Y-30269085D01*
X10244033Y-30276561D01*
X10229962Y-30296461D01*
X10216725Y-30320406D01*
X10205331Y-30346443D01*
X10199680Y-30362632D01*
X10188842Y-30406862D01*
X10183612Y-30451918D01*
X10183916Y-30497123D01*
X10189680Y-30541801D01*
X10200831Y-30585276D01*
X10217294Y-30626872D01*
X10231409Y-30653605D01*
X10241319Y-30667900D01*
X10254776Y-30683725D01*
X10270412Y-30699759D01*
X10286859Y-30714682D01*
X10302752Y-30727172D01*
X10316407Y-30735746D01*
X10349096Y-30749753D01*
X10382932Y-30758819D01*
X10417254Y-30763083D01*
X10451400Y-30762680D01*
X10484708Y-30757748D01*
X10516517Y-30748424D01*
X10546165Y-30734846D01*
X10572990Y-30717152D01*
X10596332Y-30695477D01*
X10612796Y-30674243D01*
X10629148Y-30649414D01*
X10678294Y-30645747D01*
X10702432Y-30644144D01*
X10724968Y-30643022D01*
X10745193Y-30642385D01*
X10762400Y-30642239D01*
X10775881Y-30642587D01*
X10784931Y-30643434D01*
X10788841Y-30644783D01*
X10788944Y-30645091D01*
X10787742Y-30650022D01*
X10784479Y-30659144D01*
X10779666Y-30671226D01*
X10773815Y-30685040D01*
X10767441Y-30699356D01*
X10761053Y-30712944D01*
X10758586Y-30717948D01*
X10735798Y-30756768D01*
X10708171Y-30792165D01*
X10675955Y-30823893D01*
X10639398Y-30851708D01*
X10598752Y-30875363D01*
X10597443Y-30876020D01*
X10581436Y-30883176D01*
X10561483Y-30890821D01*
X10539530Y-30898299D01*
X10517521Y-30904951D01*
X10497400Y-30910120D01*
X10494921Y-30910672D01*
X10479862Y-30913094D01*
X10460411Y-30914969D01*
X10438155Y-30916263D01*
X10414681Y-30916940D01*
X10391577Y-30916963D01*
X10370429Y-30916298D01*
X10352824Y-30914907D01*
X10346409Y-30914023D01*
X10295667Y-30902905D01*
X10248312Y-30886950D01*
X10204501Y-30866286D01*
X10164391Y-30841044D01*
X10128138Y-30811355D01*
X10095900Y-30777349D01*
X10067833Y-30739157D01*
X10044094Y-30696908D01*
X10024839Y-30650732D01*
X10022917Y-30645169D01*
X10012693Y-30610333D01*
X10004922Y-30574112D01*
X9999843Y-30538144D01*
X9997694Y-30504068D01*
X9998401Y-30477156D01*
X10000387Y-30458305D01*
X10003497Y-30436661D01*
X10007415Y-30413898D01*
X10011826Y-30391692D01*
X10016415Y-30371718D01*
X10020866Y-30355651D01*
X10021860Y-30352617D01*
X10039265Y-30309692D01*
X10061425Y-30268323D01*
X10087689Y-30229400D01*
X10117410Y-30193814D01*
X10149936Y-30162455D01*
X10174666Y-30143038D01*
X10209467Y-30121292D01*
X10247521Y-30103503D01*
X10289229Y-30089543D01*
X10334993Y-30079280D01*
X10385216Y-30072585D01*
X10395071Y-30071724D01*
X10444737Y-30070496D01*
X10492870Y-30074863D01*
G37*
G36*
X7860377Y-29674756D02*
G01*
X7860718Y-29678054D01*
X7861057Y-29687087D01*
X7861392Y-29701589D01*
X7861722Y-29721294D01*
X7862044Y-29745937D01*
X7862358Y-29775251D01*
X7862662Y-29808972D01*
X7862954Y-29846833D01*
X7863233Y-29888568D01*
X7863498Y-29933912D01*
X7863746Y-29982599D01*
X7863976Y-30034364D01*
X7864187Y-30088940D01*
X7864377Y-30146062D01*
X7864545Y-30205463D01*
X7864689Y-30266880D01*
X7864808Y-30330044D01*
X7864900Y-30394692D01*
X7864963Y-30460557D01*
X7864973Y-30474905D01*
X7865018Y-30528340D01*
X7865082Y-30576067D01*
X7865171Y-30618378D01*
X7865287Y-30655564D01*
X7865434Y-30687919D01*
X7865615Y-30715735D01*
X7865835Y-30739303D01*
X7866096Y-30758917D01*
X7866403Y-30774867D01*
X7866759Y-30787447D01*
X7867167Y-30796948D01*
X7867632Y-30803664D01*
X7868156Y-30807885D01*
X7868744Y-30809904D01*
X7869099Y-30810182D01*
X7874284Y-30808880D01*
X7881651Y-30805709D01*
X7882342Y-30805357D01*
X7889715Y-30802916D01*
X7901908Y-30800834D01*
X7919343Y-30799051D01*
X7936948Y-30797825D01*
X7998592Y-30791147D01*
X8060120Y-30778521D01*
X8121395Y-30760000D01*
X8182282Y-30735635D01*
X8242644Y-30705480D01*
X8302345Y-30669587D01*
X8343618Y-30641113D01*
X8358565Y-30630354D01*
X8372708Y-30620374D01*
X8384980Y-30611911D01*
X8394315Y-30605703D01*
X8398840Y-30602917D01*
X8410692Y-30596256D01*
X8408585Y-30631963D01*
X8407415Y-30649094D01*
X8405892Y-30665824D01*
X8403880Y-30683067D01*
X8401240Y-30701738D01*
X8397834Y-30722749D01*
X8393525Y-30747014D01*
X8388175Y-30775448D01*
X8382705Y-30803579D01*
X8377063Y-30831699D01*
X8372187Y-30854457D01*
X8367883Y-30872414D01*
X8363961Y-30886129D01*
X8360227Y-30896165D01*
X8356490Y-30903083D01*
X8352557Y-30907442D01*
X8348237Y-30909805D01*
X8346149Y-30910360D01*
X8341972Y-30910596D01*
X8332239Y-30910804D01*
X8317392Y-30910985D01*
X8297876Y-30911138D01*
X8274134Y-30911263D01*
X8246611Y-30911362D01*
X8215748Y-30911435D01*
X8181991Y-30911481D01*
X8145783Y-30911501D01*
X8107568Y-30911495D01*
X8067789Y-30911464D01*
X8026889Y-30911408D01*
X7985314Y-30911327D01*
X7943505Y-30911222D01*
X7901908Y-30911092D01*
X7860965Y-30910938D01*
X7821120Y-30910761D01*
X7782817Y-30910560D01*
X7746500Y-30910336D01*
X7712612Y-30910089D01*
X7694950Y-30909941D01*
X7668466Y-30909689D01*
X7647374Y-30909421D01*
X7631063Y-30909099D01*
X7618925Y-30908685D01*
X7610352Y-30908140D01*
X7604733Y-30907425D01*
X7601460Y-30906502D01*
X7599924Y-30905332D01*
X7599515Y-30903897D01*
X7599366Y-30896174D01*
X7599247Y-30882987D01*
X7599157Y-30864749D01*
X7599095Y-30841874D01*
X7599060Y-30814773D01*
X7599050Y-30783861D01*
X7599064Y-30749550D01*
X7599100Y-30712254D01*
X7599158Y-30672386D01*
X7599235Y-30630358D01*
X7599330Y-30586584D01*
X7599443Y-30541477D01*
X7599571Y-30495450D01*
X7599713Y-30448916D01*
X7599869Y-30402288D01*
X7600036Y-30355979D01*
X7600213Y-30310403D01*
X7600399Y-30265972D01*
X7600592Y-30223099D01*
X7600792Y-30182198D01*
X7600996Y-30143682D01*
X7601204Y-30107964D01*
X7601413Y-30075457D01*
X7601624Y-30046573D01*
X7601834Y-30021727D01*
X7602041Y-30001330D01*
X7602245Y-29985797D01*
X7602445Y-29975541D01*
X7602591Y-29971550D01*
X7603725Y-29954674D01*
X7604896Y-29942307D01*
X7606420Y-29932962D01*
X7608611Y-29925156D01*
X7611785Y-29917402D01*
X7615871Y-29908985D01*
X7625587Y-29891943D01*
X7638877Y-29871994D01*
X7654848Y-29850239D01*
X7672610Y-29827781D01*
X7691270Y-29805721D01*
X7709937Y-29785159D01*
X7727719Y-29767199D01*
X7738975Y-29756925D01*
X7753378Y-29744927D01*
X7769228Y-29732485D01*
X7785792Y-29720092D01*
X7802342Y-29708243D01*
X7818147Y-29697432D01*
X7832477Y-29688152D01*
X7844601Y-29680899D01*
X7853790Y-29676166D01*
X7859314Y-29674448D01*
X7860377Y-29674756D01*
G37*
G36*
X9625274Y-30076882D02*
G01*
X9673168Y-30085084D01*
X9718723Y-30098593D01*
X9761632Y-30117316D01*
X9801587Y-30141159D01*
X9804867Y-30143440D01*
X9837250Y-30169803D01*
X9866561Y-30200950D01*
X9892454Y-30236318D01*
X9914582Y-30275344D01*
X9932602Y-30317467D01*
X9946167Y-30362126D01*
X9950083Y-30379648D01*
X9951585Y-30388959D01*
X9953166Y-30401933D01*
X9954746Y-30417461D01*
X9956243Y-30434434D01*
X9957577Y-30451744D01*
X9958664Y-30468281D01*
X9959426Y-30482935D01*
X9959779Y-30494599D01*
X9959643Y-30502163D01*
X9959227Y-30504404D01*
X9956114Y-30504677D01*
X9947406Y-30504912D01*
X9933509Y-30505109D01*
X9914827Y-30505267D01*
X9891768Y-30505384D01*
X9864734Y-30505460D01*
X9834133Y-30505493D01*
X9800370Y-30505484D01*
X9763850Y-30505430D01*
X9724979Y-30505332D01*
X9684161Y-30505187D01*
X9660147Y-30505084D01*
X9606131Y-30504859D01*
X9557924Y-30504709D01*
X9515337Y-30504634D01*
X9478179Y-30504636D01*
X9446259Y-30504715D01*
X9419388Y-30504874D01*
X9397374Y-30505113D01*
X9380028Y-30505433D01*
X9367159Y-30505837D01*
X9358577Y-30506324D01*
X9354092Y-30506896D01*
X9353643Y-30507031D01*
X9344954Y-30510343D01*
X9346676Y-30536913D01*
X9351673Y-30570275D01*
X9362050Y-30603660D01*
X9377296Y-30635953D01*
X9396899Y-30666040D01*
X9416336Y-30688767D01*
X9445348Y-30714503D01*
X9477453Y-30735390D01*
X9512024Y-30751291D01*
X9548437Y-30762067D01*
X9586066Y-30767580D01*
X9624287Y-30767694D01*
X9662475Y-30762268D01*
X9699634Y-30751306D01*
X9728201Y-30737962D01*
X9756116Y-30719564D01*
X9783943Y-30695721D01*
X9793242Y-30686552D01*
X9822121Y-30657170D01*
X9848746Y-30657159D01*
X9862104Y-30657006D01*
X9879325Y-30656596D01*
X9898281Y-30655991D01*
X9916842Y-30655250D01*
X9918586Y-30655171D01*
X9961800Y-30653194D01*
X9960061Y-30666157D01*
X9956681Y-30679115D01*
X9949884Y-30695473D01*
X9940291Y-30714193D01*
X9928524Y-30734238D01*
X9915204Y-30754569D01*
X9900953Y-30774148D01*
X9886392Y-30791939D01*
X9881417Y-30797464D01*
X9850292Y-30826809D01*
X9814853Y-30852602D01*
X9775793Y-30874599D01*
X9733808Y-30892552D01*
X9689590Y-30906217D01*
X9643834Y-30915348D01*
X9597233Y-30919699D01*
X9550481Y-30919024D01*
X9540494Y-30918200D01*
X9489940Y-30910726D01*
X9441778Y-30898244D01*
X9396348Y-30880971D01*
X9353989Y-30859124D01*
X9315040Y-30832920D01*
X9279843Y-30802576D01*
X9248735Y-30768308D01*
X9222058Y-30730334D01*
X9208478Y-30706171D01*
X9189068Y-30662884D01*
X9174829Y-30618359D01*
X9165522Y-30571665D01*
X9160919Y-30522159D01*
X9160281Y-30504701D01*
X9160270Y-30490282D01*
X9161025Y-30476881D01*
X9162685Y-30462474D01*
X9165390Y-30445038D01*
X9166815Y-30436652D01*
X9174952Y-30397649D01*
X9344086Y-30397649D01*
X9555981Y-30397910D01*
X9767876Y-30398171D01*
X9763806Y-30372408D01*
X9757377Y-30340292D01*
X9748771Y-30312875D01*
X9737505Y-30289103D01*
X9723095Y-30267920D01*
X9708633Y-30251778D01*
X9686978Y-30233680D01*
X9661156Y-30218202D01*
X9632740Y-30206217D01*
X9618852Y-30202016D01*
X9602233Y-30198979D01*
X9581824Y-30197277D01*
X9559683Y-30196902D01*
X9537867Y-30197850D01*
X9518436Y-30200114D01*
X9507843Y-30202346D01*
X9474774Y-30214182D01*
X9444306Y-30231038D01*
X9417076Y-30252398D01*
X9393718Y-30277741D01*
X9374869Y-30306552D01*
X9371225Y-30313643D01*
X9365890Y-30325991D01*
X9360116Y-30341659D01*
X9354802Y-30358119D01*
X9352521Y-30366147D01*
X9344086Y-30397649D01*
X9174952Y-30397649D01*
X9177637Y-30384778D01*
X9191475Y-30337824D01*
X9208563Y-30295394D01*
X9229137Y-30257092D01*
X9253429Y-30222521D01*
X9281676Y-30191286D01*
X9314111Y-30162989D01*
X9339566Y-30144629D01*
X9382381Y-30119266D01*
X9426546Y-30099638D01*
X9472422Y-30085639D01*
X9520369Y-30077159D01*
X9570746Y-30074093D01*
X9575348Y-30074078D01*
X9625274Y-30076882D01*
G37*
G36*
X16046120Y-30073685D02*
G01*
X16092405Y-30079921D01*
X16137193Y-30091604D01*
X16179968Y-30108539D01*
X16220213Y-30130531D01*
X16257413Y-30157385D01*
X16282514Y-30180111D01*
X16308686Y-30209073D01*
X16330935Y-30240150D01*
X16349440Y-30273833D01*
X16364383Y-30310613D01*
X16375945Y-30350978D01*
X16384306Y-30395420D01*
X16389648Y-30444429D01*
X16391437Y-30475197D01*
X16392921Y-30510742D01*
X16369901Y-30509038D01*
X16362289Y-30508688D01*
X16349570Y-30508360D01*
X16332246Y-30508056D01*
X16310820Y-30507777D01*
X16285793Y-30507523D01*
X16257666Y-30507295D01*
X16226941Y-30507093D01*
X16194121Y-30506919D01*
X16159706Y-30506774D01*
X16124198Y-30506657D01*
X16088100Y-30506571D01*
X16051912Y-30506514D01*
X16016137Y-30506490D01*
X15981276Y-30506497D01*
X15947831Y-30506536D01*
X15916304Y-30506610D01*
X15887196Y-30506718D01*
X15861010Y-30506860D01*
X15838246Y-30507039D01*
X15819406Y-30507254D01*
X15804993Y-30507506D01*
X15795507Y-30507796D01*
X15791452Y-30508125D01*
X15791347Y-30508174D01*
X15789482Y-30513454D01*
X15788961Y-30523304D01*
X15789677Y-30536468D01*
X15791525Y-30551692D01*
X15794399Y-30567723D01*
X15797467Y-30580664D01*
X15810490Y-30619568D01*
X15827583Y-30654488D01*
X15848566Y-30685207D01*
X15873257Y-30711507D01*
X15901474Y-30733169D01*
X15933037Y-30749976D01*
X15940926Y-30753199D01*
X15977356Y-30764198D01*
X16014841Y-30769692D01*
X16052590Y-30769753D01*
X16089814Y-30764452D01*
X16125723Y-30753860D01*
X16159527Y-30738047D01*
X16168368Y-30732781D01*
X16176533Y-30726896D01*
X16187633Y-30717824D01*
X16200395Y-30706656D01*
X16213547Y-30694482D01*
X16217877Y-30690312D01*
X16250884Y-30658172D01*
X16292607Y-30656171D01*
X16321974Y-30654951D01*
X16345829Y-30654369D01*
X16364064Y-30654424D01*
X16376568Y-30655115D01*
X16383233Y-30656443D01*
X16383751Y-30656715D01*
X16384900Y-30660797D01*
X16383476Y-30669171D01*
X16379879Y-30680915D01*
X16374510Y-30695109D01*
X16367770Y-30710832D01*
X16360061Y-30727165D01*
X16351782Y-30743186D01*
X16343335Y-30757976D01*
X16335121Y-30770613D01*
X16332702Y-30773927D01*
X16305412Y-30805242D01*
X16273417Y-30833439D01*
X16237344Y-30858147D01*
X16197823Y-30878994D01*
X16155482Y-30895609D01*
X16110951Y-30907620D01*
X16103888Y-30909047D01*
X16079239Y-30912802D01*
X16051443Y-30915378D01*
X16022712Y-30916679D01*
X15995255Y-30916605D01*
X15971282Y-30915060D01*
X15970352Y-30914958D01*
X15924308Y-30907124D01*
X15878180Y-30894170D01*
X15833828Y-30876653D01*
X15819477Y-30869754D01*
X15780875Y-30846962D01*
X15745498Y-30819345D01*
X15713591Y-30787284D01*
X15685395Y-30751161D01*
X15661154Y-30711358D01*
X15641111Y-30668255D01*
X15625509Y-30622236D01*
X15614592Y-30573681D01*
X15610141Y-30541125D01*
X15608134Y-30494063D01*
X15611714Y-30445679D01*
X15620109Y-30400102D01*
X15790297Y-30400102D01*
X15849305Y-30398125D01*
X15864526Y-30397722D01*
X15884845Y-30397346D01*
X15909356Y-30397007D01*
X15937156Y-30396712D01*
X15967341Y-30396470D01*
X15999008Y-30396291D01*
X16031252Y-30396181D01*
X16059056Y-30396149D01*
X16209800Y-30396149D01*
X16208177Y-30383398D01*
X16204688Y-30365165D01*
X16198799Y-30344085D01*
X16191254Y-30322425D01*
X16182794Y-30302451D01*
X16179501Y-30295789D01*
X16161965Y-30268422D01*
X16139846Y-30244535D01*
X16113777Y-30224647D01*
X16084393Y-30209274D01*
X16064859Y-30202258D01*
X16049985Y-30199170D01*
X16031105Y-30197277D01*
X16010093Y-30196584D01*
X15988824Y-30197096D01*
X15969175Y-30198820D01*
X15953019Y-30201759D01*
X15952351Y-30201934D01*
X15919781Y-30213240D01*
X15890211Y-30228765D01*
X15864260Y-30248039D01*
X15842549Y-30270595D01*
X15825699Y-30295964D01*
X15824304Y-30298642D01*
X15817390Y-30313590D01*
X15810172Y-30331477D01*
X15803308Y-30350437D01*
X15797457Y-30368603D01*
X15793277Y-30384110D01*
X15792090Y-30389875D01*
X15790297Y-30400102D01*
X15620109Y-30400102D01*
X15620910Y-30395756D01*
X15634891Y-30346645D01*
X15653304Y-30299973D01*
X15676256Y-30257104D01*
X15703502Y-30218224D01*
X15734793Y-30183519D01*
X15769883Y-30153174D01*
X15808524Y-30127376D01*
X15850468Y-30106311D01*
X15895469Y-30090164D01*
X15943280Y-30079121D01*
X15993652Y-30073368D01*
X15998854Y-30073090D01*
X16046120Y-30073685D01*
G37*
G36*
X12167359Y-30074332D02*
G01*
X12187054Y-30077457D01*
X12228310Y-30088829D01*
X12266051Y-30105031D01*
X12300421Y-30126138D01*
X12330522Y-30151220D01*
X12356274Y-30179656D01*
X12377174Y-30211115D01*
X12393360Y-30245887D01*
X12404968Y-30284267D01*
X12411859Y-30324144D01*
X12412331Y-30331000D01*
X12412784Y-30343099D01*
X12413214Y-30359928D01*
X12413620Y-30380973D01*
X12414000Y-30405722D01*
X12414352Y-30433662D01*
X12414674Y-30464278D01*
X12414964Y-30497059D01*
X12415219Y-30531491D01*
X12415438Y-30567061D01*
X12415619Y-30603255D01*
X12415760Y-30639561D01*
X12415859Y-30675466D01*
X12415913Y-30710455D01*
X12415921Y-30744017D01*
X12415881Y-30775637D01*
X12415791Y-30804804D01*
X12415648Y-30831003D01*
X12415451Y-30853722D01*
X12415197Y-30872447D01*
X12414885Y-30886665D01*
X12414513Y-30895863D01*
X12414120Y-30899439D01*
X12411667Y-30906189D01*
X12322119Y-30906189D01*
X12232570Y-30906189D01*
X12230199Y-30882938D01*
X12229561Y-30873294D01*
X12229015Y-30858063D01*
X12228564Y-30837660D01*
X12228208Y-30812496D01*
X12227949Y-30782987D01*
X12227788Y-30749545D01*
X12227727Y-30712583D01*
X12227768Y-30672514D01*
X12227911Y-30629753D01*
X12228158Y-30584713D01*
X12228510Y-30537806D01*
X12228880Y-30498157D01*
X12229197Y-30463508D01*
X12229347Y-30434230D01*
X12229269Y-30409691D01*
X12228902Y-30389265D01*
X12228187Y-30372320D01*
X12227063Y-30358227D01*
X12225468Y-30346358D01*
X12223342Y-30336083D01*
X12220625Y-30326771D01*
X12217257Y-30317795D01*
X12213175Y-30308524D01*
X12209970Y-30301747D01*
X12195964Y-30278994D01*
X12178174Y-30260299D01*
X12157214Y-30245641D01*
X12133700Y-30234996D01*
X12108245Y-30228341D01*
X12081464Y-30225654D01*
X12053971Y-30226910D01*
X12026380Y-30232088D01*
X11999305Y-30241164D01*
X11973362Y-30254115D01*
X11949164Y-30270918D01*
X11927326Y-30291551D01*
X11910478Y-30312959D01*
X11898316Y-30332914D01*
X11887797Y-30354107D01*
X11879775Y-30374635D01*
X11875304Y-30391450D01*
X11874605Y-30398361D01*
X11873991Y-30411052D01*
X11873461Y-30429550D01*
X11873014Y-30453884D01*
X11872652Y-30484081D01*
X11872372Y-30520169D01*
X11872176Y-30562177D01*
X11872062Y-30610132D01*
X11872029Y-30657721D01*
X11872029Y-30906189D01*
X11779343Y-30906189D01*
X11752733Y-30906151D01*
X11731534Y-30906019D01*
X11715157Y-30905765D01*
X11703011Y-30905364D01*
X11694508Y-30904788D01*
X11689058Y-30904010D01*
X11686072Y-30903004D01*
X11685012Y-30901904D01*
X11684628Y-30897613D01*
X11684593Y-30888405D01*
X11684886Y-30875349D01*
X11685484Y-30859518D01*
X11686164Y-30845649D01*
X11686568Y-30835054D01*
X11686951Y-30818972D01*
X11687309Y-30797917D01*
X11687637Y-30772404D01*
X11687933Y-30742946D01*
X11688192Y-30710057D01*
X11688410Y-30674251D01*
X11688582Y-30636042D01*
X11688706Y-30595943D01*
X11688778Y-30554470D01*
X11688792Y-30512134D01*
X11688789Y-30505143D01*
X11688747Y-30456353D01*
X11688699Y-30413196D01*
X11688673Y-30375303D01*
X11688696Y-30342307D01*
X11688794Y-30313840D01*
X11688994Y-30289534D01*
X11689322Y-30269021D01*
X11689806Y-30251934D01*
X11690472Y-30237904D01*
X11691348Y-30226564D01*
X11692459Y-30217546D01*
X11693832Y-30210481D01*
X11695496Y-30205003D01*
X11697475Y-30200743D01*
X11699797Y-30197334D01*
X11702489Y-30194407D01*
X11705577Y-30191595D01*
X11709089Y-30188529D01*
X11712031Y-30185829D01*
X11722739Y-30176238D01*
X11736165Y-30165165D01*
X11751634Y-30153076D01*
X11768467Y-30140441D01*
X11785988Y-30127728D01*
X11803519Y-30115405D01*
X11820383Y-30103940D01*
X11835902Y-30093802D01*
X11849401Y-30085458D01*
X11860200Y-30079377D01*
X11867623Y-30076028D01*
X11870994Y-30075877D01*
X11871013Y-30075907D01*
X11871640Y-30079811D01*
X11872211Y-30088863D01*
X11872699Y-30102208D01*
X11873079Y-30118993D01*
X11873325Y-30138366D01*
X11873408Y-30155105D01*
X11873508Y-30179204D01*
X11873741Y-30197821D01*
X11874132Y-30211473D01*
X11874709Y-30220678D01*
X11875498Y-30225954D01*
X11876526Y-30227817D01*
X11877148Y-30227622D01*
X11880123Y-30223813D01*
X11885130Y-30216058D01*
X11891334Y-30205685D01*
X11894966Y-30199322D01*
X11914145Y-30171079D01*
X11938327Y-30145323D01*
X11966853Y-30122546D01*
X11999068Y-30103240D01*
X12034315Y-30087897D01*
X12051198Y-30082355D01*
X12077473Y-30076509D01*
X12107048Y-30073170D01*
X12137739Y-30072418D01*
X12167359Y-30074332D01*
G37*
G36*
X11048796Y-29663181D02*
G01*
X11049840Y-29673245D01*
X11050545Y-29686671D01*
X11050780Y-29700824D01*
X11050764Y-29703095D01*
X11050044Y-29769314D01*
X11049392Y-29829766D01*
X11048808Y-29884681D01*
X11048290Y-29934294D01*
X11047835Y-29978834D01*
X11047441Y-30018536D01*
X11047107Y-30053630D01*
X11046831Y-30084350D01*
X11046610Y-30110927D01*
X11046443Y-30133593D01*
X11046328Y-30152580D01*
X11046263Y-30168121D01*
X11046245Y-30180448D01*
X11046274Y-30189793D01*
X11046347Y-30196389D01*
X11046461Y-30200466D01*
X11046574Y-30202014D01*
X11048429Y-30208056D01*
X11051730Y-30208513D01*
X11056580Y-30203330D01*
X11062295Y-30193910D01*
X11079616Y-30168140D01*
X11102019Y-30144333D01*
X11128750Y-30123059D01*
X11159055Y-30104891D01*
X11192180Y-30090399D01*
X11204477Y-30086246D01*
X11231538Y-30078910D01*
X11257457Y-30074452D01*
X11284538Y-30072590D01*
X11313167Y-30072958D01*
X11354752Y-30077317D01*
X11393745Y-30086621D01*
X11429795Y-30100684D01*
X11462551Y-30119322D01*
X11491659Y-30142348D01*
X11516770Y-30169577D01*
X11529109Y-30186830D01*
X11543815Y-30212449D01*
X11556018Y-30240472D01*
X11566085Y-30271935D01*
X11574386Y-30307876D01*
X11576843Y-30321143D01*
X11577709Y-30326642D01*
X11578476Y-30332934D01*
X11579152Y-30340412D01*
X11579745Y-30349467D01*
X11580263Y-30360492D01*
X11580712Y-30373878D01*
X11581102Y-30390018D01*
X11581439Y-30409303D01*
X11581730Y-30432126D01*
X11581985Y-30458879D01*
X11582211Y-30489954D01*
X11582414Y-30525742D01*
X11582603Y-30566636D01*
X11582786Y-30613028D01*
X11582838Y-30627167D01*
X11583834Y-30904689D01*
X11492413Y-30905417D01*
X11400992Y-30906144D01*
X11400664Y-30894916D01*
X11400264Y-30877597D01*
X11399929Y-30855796D01*
X11399659Y-30830251D01*
X11399453Y-30801697D01*
X11399309Y-30770872D01*
X11399227Y-30738513D01*
X11399206Y-30705356D01*
X11399244Y-30672140D01*
X11399342Y-30639601D01*
X11399496Y-30608475D01*
X11399708Y-30579500D01*
X11399975Y-30553413D01*
X11400297Y-30530951D01*
X11400673Y-30512851D01*
X11401101Y-30499849D01*
X11401204Y-30497719D01*
X11402580Y-30450564D01*
X11401431Y-30408632D01*
X11397673Y-30371666D01*
X11391226Y-30339408D01*
X11382009Y-30311601D01*
X11369939Y-30287989D01*
X11354936Y-30268314D01*
X11336919Y-30252319D01*
X11320303Y-30242012D01*
X11296722Y-30231698D01*
X11272034Y-30225300D01*
X11244523Y-30222428D01*
X11232709Y-30222180D01*
X11198465Y-30224633D01*
X11167023Y-30232015D01*
X11138723Y-30244200D01*
X11113906Y-30261059D01*
X11103462Y-30270642D01*
X11087097Y-30290060D01*
X11072533Y-30312841D01*
X11061424Y-30336351D01*
X11060333Y-30339289D01*
X11058039Y-30345851D01*
X11056017Y-30352229D01*
X11054249Y-30358835D01*
X11052714Y-30366081D01*
X11051394Y-30374382D01*
X11050267Y-30384148D01*
X11049316Y-30395793D01*
X11048518Y-30409729D01*
X11047856Y-30426369D01*
X11047309Y-30446126D01*
X11046858Y-30469412D01*
X11046482Y-30496639D01*
X11046162Y-30528222D01*
X11045879Y-30564571D01*
X11045612Y-30606100D01*
X11045346Y-30652669D01*
X11043928Y-30907690D01*
X10952159Y-30907690D01*
X10929302Y-30907619D01*
X10908433Y-30907418D01*
X10890291Y-30907106D01*
X10875620Y-30906699D01*
X10865159Y-30906217D01*
X10859649Y-30905676D01*
X10858992Y-30905439D01*
X10858846Y-30902250D01*
X10858704Y-30893362D01*
X10858568Y-30879076D01*
X10858437Y-30859691D01*
X10858312Y-30835508D01*
X10858195Y-30806830D01*
X10858087Y-30773955D01*
X10857987Y-30737186D01*
X10857896Y-30696823D01*
X10857817Y-30653166D01*
X10857748Y-30606517D01*
X10857691Y-30557176D01*
X10857648Y-30505444D01*
X10857617Y-30451622D01*
X10857601Y-30396011D01*
X10857599Y-30362221D01*
X10857600Y-30295395D01*
X10857604Y-30234305D01*
X10857614Y-30178682D01*
X10857634Y-30128263D01*
X10857665Y-30082780D01*
X10857711Y-30041968D01*
X10857775Y-30005561D01*
X10857860Y-29973292D01*
X10857968Y-29944897D01*
X10858104Y-29920108D01*
X10858269Y-29898660D01*
X10858467Y-29880288D01*
X10858701Y-29864725D01*
X10858973Y-29851704D01*
X10859287Y-29840962D01*
X10859645Y-29832230D01*
X10860051Y-29825244D01*
X10860508Y-29819737D01*
X10861018Y-29815444D01*
X10861585Y-29812098D01*
X10862211Y-29809434D01*
X10862899Y-29807185D01*
X10863653Y-29805086D01*
X10863818Y-29804643D01*
X10871317Y-29789905D01*
X10883442Y-29773665D01*
X10900440Y-29755649D01*
X10922557Y-29735580D01*
X10934092Y-29725931D01*
X10960812Y-29704553D01*
X10984120Y-29687031D01*
X11004724Y-29672859D01*
X11023332Y-29661529D01*
X11026505Y-29659762D01*
X11046548Y-29648768D01*
X11048796Y-29663181D01*
G37*
G36*
X9104593Y-29698257D02*
G01*
X9147266Y-29698328D01*
X9189321Y-29698440D01*
X9230320Y-29698593D01*
X9269822Y-29698785D01*
X9307389Y-29699013D01*
X9342580Y-29699277D01*
X9374955Y-29699574D01*
X9404074Y-29699902D01*
X9429499Y-29700261D01*
X9450788Y-29700648D01*
X9467503Y-29701061D01*
X9479203Y-29701500D01*
X9485449Y-29701962D01*
X9486091Y-29702077D01*
X9489694Y-29703503D01*
X9491725Y-29706497D01*
X9492627Y-29712497D01*
X9492841Y-29722941D01*
X9492842Y-29724018D01*
X9492422Y-29734550D01*
X9491271Y-29749257D01*
X9489553Y-29766379D01*
X9487430Y-29784157D01*
X9486841Y-29788601D01*
X9484624Y-29806640D01*
X9482777Y-29824840D01*
X9481467Y-29841309D01*
X9480863Y-29854155D01*
X9480841Y-29856304D01*
X9480841Y-29879696D01*
X9278573Y-29880652D01*
X9244256Y-29880851D01*
X9211699Y-29881109D01*
X9181400Y-29881418D01*
X9153855Y-29881771D01*
X9129562Y-29882157D01*
X9109019Y-29882570D01*
X9092722Y-29883001D01*
X9081168Y-29883441D01*
X9074856Y-29883882D01*
X9073807Y-29884112D01*
X9073528Y-29887342D01*
X9073257Y-29896250D01*
X9072994Y-29910517D01*
X9072742Y-29929821D01*
X9072503Y-29953840D01*
X9072278Y-29982255D01*
X9072069Y-30014743D01*
X9071878Y-30050984D01*
X9071706Y-30090657D01*
X9071556Y-30133439D01*
X9071428Y-30179012D01*
X9071326Y-30227052D01*
X9071250Y-30277239D01*
X9071202Y-30329252D01*
X9071187Y-30362650D01*
X9071159Y-30416248D01*
X9071101Y-30468587D01*
X9071017Y-30519316D01*
X9070907Y-30568084D01*
X9070774Y-30614541D01*
X9070619Y-30658335D01*
X9070444Y-30699117D01*
X9070251Y-30736534D01*
X9070041Y-30770237D01*
X9069816Y-30799874D01*
X9069578Y-30825095D01*
X9069329Y-30845549D01*
X9069070Y-30860885D01*
X9068803Y-30870752D01*
X9068663Y-30873589D01*
X9066260Y-30908494D01*
X9055283Y-30910309D01*
X9047264Y-30911356D01*
X9041786Y-30911577D01*
X9041306Y-30911513D01*
X9037655Y-30911308D01*
X9028768Y-30911024D01*
X9015409Y-30910677D01*
X8998342Y-30910286D01*
X8978331Y-30909870D01*
X8956139Y-30909446D01*
X8947794Y-30909296D01*
X8925069Y-30908832D01*
X8904308Y-30908293D01*
X8886263Y-30907706D01*
X8871686Y-30907102D01*
X8861328Y-30906508D01*
X8855943Y-30905953D01*
X8855362Y-30905765D01*
X8854416Y-30903717D01*
X8853562Y-30899413D01*
X8852799Y-30892621D01*
X8852123Y-30883110D01*
X8851534Y-30870650D01*
X8851028Y-30855010D01*
X8850604Y-30835958D01*
X8850259Y-30813265D01*
X8849991Y-30786699D01*
X8849798Y-30756030D01*
X8849677Y-30721026D01*
X8849627Y-30681457D01*
X8849644Y-30637092D01*
X8849728Y-30587701D01*
X8849876Y-30533051D01*
X8850084Y-30472913D01*
X8850353Y-30407056D01*
X8850418Y-30391989D01*
X8850696Y-30326853D01*
X8850926Y-30267461D01*
X8851106Y-30213558D01*
X8851234Y-30164887D01*
X8851307Y-30121193D01*
X8851323Y-30082220D01*
X8851280Y-30047712D01*
X8851175Y-30017412D01*
X8851006Y-29991066D01*
X8850770Y-29968417D01*
X8850466Y-29949209D01*
X8850090Y-29933186D01*
X8849641Y-29920092D01*
X8849115Y-29909672D01*
X8848511Y-29901670D01*
X8847827Y-29895829D01*
X8847059Y-29891894D01*
X8846206Y-29889609D01*
X8845751Y-29889010D01*
X8842125Y-29888309D01*
X8833125Y-29887592D01*
X8819377Y-29886867D01*
X8801509Y-29886148D01*
X8780146Y-29885443D01*
X8755915Y-29884765D01*
X8729442Y-29884123D01*
X8701354Y-29883529D01*
X8672277Y-29882993D01*
X8642838Y-29882526D01*
X8613663Y-29882139D01*
X8585379Y-29881843D01*
X8558611Y-29881648D01*
X8533988Y-29881565D01*
X8512134Y-29881605D01*
X8493677Y-29881778D01*
X8479242Y-29882096D01*
X8469761Y-29882547D01*
X8454852Y-29883556D01*
X8442237Y-29884250D01*
X8433046Y-29884579D01*
X8428411Y-29884492D01*
X8428090Y-29884395D01*
X8428264Y-29880892D01*
X8430510Y-29873088D01*
X8434383Y-29862131D01*
X8439437Y-29849165D01*
X8445224Y-29835338D01*
X8451301Y-29821795D01*
X8456997Y-29810114D01*
X8475175Y-29779275D01*
X8495539Y-29752995D01*
X8517714Y-29731658D01*
X8541323Y-29715647D01*
X8556039Y-29708751D01*
X8559385Y-29707473D01*
X8562749Y-29706362D01*
X8566568Y-29705400D01*
X8571277Y-29704571D01*
X8577311Y-29703856D01*
X8585109Y-29703238D01*
X8595104Y-29702702D01*
X8607734Y-29702229D01*
X8623434Y-29701802D01*
X8642641Y-29701404D01*
X8665789Y-29701019D01*
X8693317Y-29700628D01*
X8725658Y-29700215D01*
X8763250Y-29699763D01*
X8793787Y-29699403D01*
X8825561Y-29699078D01*
X8860237Y-29698808D01*
X8897374Y-29698591D01*
X8936533Y-29698427D01*
X8977274Y-29698313D01*
X9019158Y-29698248D01*
X9061744Y-29698230D01*
X9104593Y-29698257D01*
G37*
G36*
X16799003Y-30077552D02*
G01*
X16844884Y-30086219D01*
X16889323Y-30099284D01*
X16931493Y-30116668D01*
X16970568Y-30138296D01*
X16972431Y-30139491D01*
X16985494Y-30148453D01*
X16998763Y-30158455D01*
X17011230Y-30168634D01*
X17021887Y-30178128D01*
X17029727Y-30186077D01*
X17033741Y-30191617D01*
X17033925Y-30192098D01*
X17033997Y-30196839D01*
X17031436Y-30203314D01*
X17025905Y-30211980D01*
X17017071Y-30223293D01*
X17004599Y-30237712D01*
X16988153Y-30255693D01*
X16984462Y-30259645D01*
X16971689Y-30273671D01*
X16959178Y-30288092D01*
X16948072Y-30301545D01*
X16939512Y-30312668D01*
X16936841Y-30316479D01*
X16930056Y-30326192D01*
X16924202Y-30333763D01*
X16920271Y-30337934D01*
X16919586Y-30338345D01*
X16916651Y-30336411D01*
X16911714Y-30330365D01*
X16905667Y-30321352D01*
X16903335Y-30317507D01*
X16882852Y-30284709D01*
X16863158Y-30257294D01*
X16843739Y-30234786D01*
X16824078Y-30216710D01*
X16803664Y-30202590D01*
X16781980Y-30191953D01*
X16759414Y-30184555D01*
X16740806Y-30181184D01*
X16719501Y-30179675D01*
X16697809Y-30180028D01*
X16678042Y-30182240D01*
X16667524Y-30184615D01*
X16642309Y-30193832D01*
X16622567Y-30205309D01*
X16608151Y-30219202D01*
X16598915Y-30235666D01*
X16594711Y-30254857D01*
X16594401Y-30262407D01*
X16596224Y-30283762D01*
X16602101Y-30302477D01*
X16612640Y-30319929D01*
X16627103Y-30336173D01*
X16635520Y-30344111D01*
X16644133Y-30351323D01*
X16653529Y-30358093D01*
X16664293Y-30364707D01*
X16677011Y-30371448D01*
X16692269Y-30378603D01*
X16710652Y-30386454D01*
X16732747Y-30395289D01*
X16759139Y-30405390D01*
X16790415Y-30417043D01*
X16802918Y-30421650D01*
X16845134Y-30437767D01*
X16881922Y-30453155D01*
X16913765Y-30468099D01*
X16941149Y-30482885D01*
X16964557Y-30497797D01*
X16984476Y-30513122D01*
X17001389Y-30529144D01*
X17015782Y-30546148D01*
X17016832Y-30547551D01*
X17034023Y-30574070D01*
X17046077Y-30600892D01*
X17053427Y-30629359D01*
X17056508Y-30660812D01*
X17056665Y-30670671D01*
X17053852Y-30708322D01*
X17045529Y-30744184D01*
X17031859Y-30777782D01*
X17013008Y-30808640D01*
X17005723Y-30818085D01*
X16983670Y-30840836D01*
X16956575Y-30861505D01*
X16925140Y-30879739D01*
X16890068Y-30895186D01*
X16852061Y-30907492D01*
X16811823Y-30916306D01*
X16809007Y-30916772D01*
X16796639Y-30918212D01*
X16779967Y-30919363D01*
X16760516Y-30920199D01*
X16739807Y-30920693D01*
X16719364Y-30920821D01*
X16700709Y-30920554D01*
X16685365Y-30919868D01*
X16676908Y-30919056D01*
X16635055Y-30911274D01*
X16591981Y-30899511D01*
X16549432Y-30884388D01*
X16509151Y-30866528D01*
X16472885Y-30846554D01*
X16471765Y-30845858D01*
X16456506Y-30835953D01*
X16441506Y-30825515D01*
X16427599Y-30815200D01*
X16415616Y-30805664D01*
X16406390Y-30797563D01*
X16400755Y-30791555D01*
X16399386Y-30788811D01*
X16401221Y-30782708D01*
X16406771Y-30772709D01*
X16416103Y-30758720D01*
X16429284Y-30740647D01*
X16446381Y-30718396D01*
X16467462Y-30691872D01*
X16476821Y-30680296D01*
X16488699Y-30665834D01*
X16497493Y-30655602D01*
X16503755Y-30649056D01*
X16508039Y-30645653D01*
X16510898Y-30644851D01*
X16512271Y-30645481D01*
X16515466Y-30649595D01*
X16520500Y-30657698D01*
X16526540Y-30668407D01*
X16529964Y-30674859D01*
X16545890Y-30700908D01*
X16565929Y-30726428D01*
X16588386Y-30749375D01*
X16599797Y-30759089D01*
X16624143Y-30775553D01*
X16651652Y-30789222D01*
X16681298Y-30799918D01*
X16712054Y-30807466D01*
X16742892Y-30811688D01*
X16772784Y-30812408D01*
X16800704Y-30809448D01*
X16825623Y-30802632D01*
X16833428Y-30799311D01*
X16851341Y-30787709D01*
X16865416Y-30772191D01*
X16875374Y-30753670D01*
X16880934Y-30733061D01*
X16881816Y-30711281D01*
X16877740Y-30689243D01*
X16871768Y-30674116D01*
X16864090Y-30660843D01*
X16854560Y-30649177D01*
X16842490Y-30638667D01*
X16827189Y-30628865D01*
X16807967Y-30619321D01*
X16784134Y-30609586D01*
X16758708Y-30600472D01*
X16713212Y-30584554D01*
X16673094Y-30569744D01*
X16637886Y-30555805D01*
X16607119Y-30542502D01*
X16580322Y-30529599D01*
X16557026Y-30516859D01*
X16536763Y-30504047D01*
X16519062Y-30490926D01*
X16503456Y-30477261D01*
X16493269Y-30466971D01*
X16473264Y-30441910D01*
X16457510Y-30414498D01*
X16446810Y-30386168D01*
X16445872Y-30382648D01*
X16438645Y-30343458D01*
X16437016Y-30305555D01*
X16440812Y-30269305D01*
X16449863Y-30235071D01*
X16463998Y-30203220D01*
X16483046Y-30174115D01*
X16506836Y-30148123D01*
X16535196Y-30125608D01*
X16567957Y-30106935D01*
X16576945Y-30102853D01*
X16617619Y-30088386D01*
X16660990Y-30078699D01*
X16706229Y-30073715D01*
X16752509Y-30073359D01*
X16799003Y-30077552D01*
G37*
G36*
X7124705Y-29662572D02*
G01*
X7154361Y-29664873D01*
X7182591Y-29668681D01*
X7210889Y-29674136D01*
X7227179Y-29677926D01*
X7262710Y-29687600D01*
X7299100Y-29699290D01*
X7335373Y-29712573D01*
X7370555Y-29727026D01*
X7403673Y-29742229D01*
X7433752Y-29757757D01*
X7459816Y-29773190D01*
X7480256Y-29787601D01*
X7491330Y-29796326D01*
X7487435Y-29808965D01*
X7484540Y-29817057D01*
X7479845Y-29828782D01*
X7474087Y-29842335D01*
X7469973Y-29851606D01*
X7464263Y-29864681D01*
X7457126Y-29881697D01*
X7449251Y-29900980D01*
X7441323Y-29920853D01*
X7436151Y-29934113D01*
X7428506Y-29953578D01*
X7420342Y-29973767D01*
X7412373Y-29992953D01*
X7405312Y-30009413D01*
X7401414Y-30018120D01*
X7395179Y-30032210D01*
X7389604Y-30045763D01*
X7385390Y-30057023D01*
X7383507Y-30063047D01*
X7381295Y-30071005D01*
X7379541Y-30073964D01*
X7377346Y-30072771D01*
X7375546Y-30070548D01*
X7372751Y-30065938D01*
X7367905Y-30056956D01*
X7361549Y-30044641D01*
X7354221Y-30030035D01*
X7348747Y-30018890D01*
X7322869Y-29970259D01*
X7295330Y-29927257D01*
X7266168Y-29889934D01*
X7235421Y-29858343D01*
X7224947Y-29849198D01*
X7207050Y-29834660D01*
X7191442Y-29823147D01*
X7176196Y-29813414D01*
X7159387Y-29804216D01*
X7142716Y-29796023D01*
X7114146Y-29783706D01*
X7087756Y-29775266D01*
X7061591Y-29770231D01*
X7033696Y-29768127D01*
X7026648Y-29768007D01*
X6994423Y-29769290D01*
X6965604Y-29773908D01*
X6938377Y-29782239D01*
X6919704Y-29790285D01*
X6892630Y-29806011D01*
X6870671Y-29824819D01*
X6853874Y-29846640D01*
X6842285Y-29871401D01*
X6835951Y-29899032D01*
X6834668Y-29920129D01*
X6836426Y-29946892D01*
X6841924Y-29971153D01*
X6851626Y-29993929D01*
X6865992Y-30016238D01*
X6885486Y-30039097D01*
X6891602Y-30045408D01*
X6906738Y-30059932D01*
X6922545Y-30073471D01*
X6939601Y-30086356D01*
X6958487Y-30098915D01*
X6979782Y-30111477D01*
X7004065Y-30124372D01*
X7031916Y-30137928D01*
X7063914Y-30152475D01*
X7100639Y-30168343D01*
X7128656Y-30180074D01*
X7179882Y-30201839D01*
X7225668Y-30222440D01*
X7266412Y-30242089D01*
X7302515Y-30261000D01*
X7334375Y-30279385D01*
X7362394Y-30297455D01*
X7386970Y-30315424D01*
X7394177Y-30321191D01*
X7428441Y-30352700D01*
X7457258Y-30386648D01*
X7480593Y-30422963D01*
X7498410Y-30461573D01*
X7510676Y-30502408D01*
X7517354Y-30545396D01*
X7518686Y-30576163D01*
X7516071Y-30619477D01*
X7508144Y-30660432D01*
X7494787Y-30699303D01*
X7475880Y-30736365D01*
X7451302Y-30771893D01*
X7420934Y-30806163D01*
X7416631Y-30810465D01*
X7381333Y-30841131D01*
X7341757Y-30867821D01*
X7298208Y-30890428D01*
X7250996Y-30908846D01*
X7200425Y-30922969D01*
X7146805Y-30932689D01*
X7090441Y-30937900D01*
X7046581Y-30938787D01*
X7028208Y-30938432D01*
X7009137Y-30937761D01*
X6991566Y-30936868D01*
X6977691Y-30935848D01*
X6977144Y-30935796D01*
X6911161Y-30926631D01*
X6847189Y-30911904D01*
X6784822Y-30891496D01*
X6723656Y-30865288D01*
X6701122Y-30854032D01*
X6670592Y-30837838D01*
X6645313Y-30823621D01*
X6624962Y-30811141D01*
X6609214Y-30800157D01*
X6597745Y-30790432D01*
X6590231Y-30781724D01*
X6586346Y-30773796D01*
X6585613Y-30768716D01*
X6586919Y-30759779D01*
X6590634Y-30746214D01*
X6596449Y-30728744D01*
X6604059Y-30708094D01*
X6613157Y-30684986D01*
X6623436Y-30660143D01*
X6634589Y-30634290D01*
X6646309Y-30608149D01*
X6658291Y-30582444D01*
X6670226Y-30557898D01*
X6681809Y-30535235D01*
X6692732Y-30515178D01*
X6694263Y-30512494D01*
X6707566Y-30489328D01*
X6739271Y-30554498D01*
X6757482Y-30590765D01*
X6774527Y-30622076D01*
X6790960Y-30649223D01*
X6807333Y-30672998D01*
X6824202Y-30694194D01*
X6842119Y-30713603D01*
X6861637Y-30732018D01*
X6865844Y-30735705D01*
X6903590Y-30765550D01*
X6941952Y-30790309D01*
X6980588Y-30809852D01*
X7019157Y-30824049D01*
X7057316Y-30832769D01*
X7094726Y-30835882D01*
X7124238Y-30834205D01*
X7150457Y-30829422D01*
X7177082Y-30821789D01*
X7201807Y-30812055D01*
X7217803Y-30803777D01*
X7241610Y-30786514D01*
X7262301Y-30765132D01*
X7279104Y-30740702D01*
X7291253Y-30714292D01*
X7296831Y-30693911D01*
X7298946Y-30675561D01*
X7299238Y-30653894D01*
X7297844Y-30631249D01*
X7294901Y-30609966D01*
X7290927Y-30593547D01*
X7283183Y-30574955D01*
X7271826Y-30554976D01*
X7258184Y-30535627D01*
X7243584Y-30518925D01*
X7238837Y-30514387D01*
X7227007Y-30504176D01*
X7214540Y-30494527D01*
X7200850Y-30485125D01*
X7185353Y-30475657D01*
X7167463Y-30465806D01*
X7146596Y-30455260D01*
X7122167Y-30443703D01*
X7093592Y-30430822D01*
X7060285Y-30416301D01*
X7041227Y-30408137D01*
X6988778Y-30385358D01*
X6941702Y-30363994D01*
X6899602Y-30343802D01*
X6862083Y-30324546D01*
X6828748Y-30305983D01*
X6799203Y-30287876D01*
X6773050Y-30269985D01*
X6749893Y-30252069D01*
X6729338Y-30233889D01*
X6710988Y-30215206D01*
X6698359Y-30200627D01*
X6672395Y-30164549D01*
X6652092Y-30126560D01*
X6637491Y-30086854D01*
X6628635Y-30045627D01*
X6625567Y-30003074D01*
X6628327Y-29959392D01*
X6636783Y-29915462D01*
X6649427Y-29877891D01*
X6667469Y-29842489D01*
X6690618Y-29809523D01*
X6718583Y-29779255D01*
X6751073Y-29751950D01*
X6787796Y-29727874D01*
X6828460Y-29707290D01*
X6872775Y-29690462D01*
X6890579Y-29685089D01*
X6917525Y-29677886D01*
X6941791Y-29672343D01*
X6965007Y-29668232D01*
X6988803Y-29665324D01*
X7014808Y-29663388D01*
X7044653Y-29662196D01*
X7055150Y-29661937D01*
X7092132Y-29661640D01*
X7124705Y-29662572D01*
G37*
G36*
X10833112Y-27678777D02*
G01*
X10844378Y-27680655D01*
X10858123Y-27684000D01*
X10875069Y-27689030D01*
X10895939Y-27695963D01*
X10921456Y-27705015D01*
X10926955Y-27707017D01*
X10988747Y-27732679D01*
X11049839Y-27764250D01*
X11110125Y-27801671D01*
X11169502Y-27844881D01*
X11180475Y-27853582D01*
X11210740Y-27878904D01*
X11241473Y-27906503D01*
X11272047Y-27935698D01*
X11301833Y-27965806D01*
X11330203Y-27996146D01*
X11356529Y-28026037D01*
X11380182Y-28054797D01*
X11400534Y-28081745D01*
X11416956Y-28106199D01*
X11423399Y-28117101D01*
X11428296Y-28127060D01*
X11434262Y-28141020D01*
X11440597Y-28157247D01*
X11446600Y-28174009D01*
X11447507Y-28176698D01*
X11452964Y-28192721D01*
X11458316Y-28207897D01*
X11463023Y-28220727D01*
X11466543Y-28229711D01*
X11467150Y-28231124D01*
X11468565Y-28234666D01*
X11469763Y-28238725D01*
X11470776Y-28243863D01*
X11471637Y-28250644D01*
X11472379Y-28259630D01*
X11473035Y-28271383D01*
X11473637Y-28286468D01*
X11474220Y-28305445D01*
X11474815Y-28328879D01*
X11475456Y-28357332D01*
X11475981Y-28382042D01*
X11476462Y-28408900D01*
X11476902Y-28441175D01*
X11477299Y-28478284D01*
X11477653Y-28519644D01*
X11477964Y-28564670D01*
X11478231Y-28612781D01*
X11478452Y-28663393D01*
X11478629Y-28715922D01*
X11478759Y-28769785D01*
X11478842Y-28824399D01*
X11478877Y-28879181D01*
X11478864Y-28933547D01*
X11478803Y-28986915D01*
X11478692Y-29038700D01*
X11478530Y-29088320D01*
X11478318Y-29135191D01*
X11478054Y-29178731D01*
X11477738Y-29218355D01*
X11477369Y-29253481D01*
X11477010Y-29279569D01*
X11476447Y-29312490D01*
X11475877Y-29339781D01*
X11475281Y-29361813D01*
X11474645Y-29378956D01*
X11473951Y-29391582D01*
X11473184Y-29400060D01*
X11472328Y-29404762D01*
X11471460Y-29406071D01*
X11467098Y-29404403D01*
X11460078Y-29400170D01*
X11456197Y-29397444D01*
X11450339Y-29392489D01*
X11441053Y-29383859D01*
X11429021Y-29372250D01*
X11414927Y-29358355D01*
X11399456Y-29342868D01*
X11383291Y-29326485D01*
X11367117Y-29309898D01*
X11351617Y-29293804D01*
X11337475Y-29278895D01*
X11325376Y-29265867D01*
X11316002Y-29255413D01*
X11313974Y-29253059D01*
X11305149Y-29242362D01*
X11294020Y-29228383D01*
X11281814Y-29212691D01*
X11269760Y-29196854D01*
X11265796Y-29191554D01*
X11234309Y-29147687D01*
X11207508Y-29106919D01*
X11185193Y-29068867D01*
X11167165Y-29033147D01*
X11153223Y-28999376D01*
X11143169Y-28967169D01*
X11138678Y-28947184D01*
X11136664Y-28933115D01*
X11134888Y-28913389D01*
X11133351Y-28887973D01*
X11132052Y-28856832D01*
X11130990Y-28819933D01*
X11130164Y-28777241D01*
X11129575Y-28728723D01*
X11129220Y-28674346D01*
X11129101Y-28614074D01*
X11129215Y-28547875D01*
X11129562Y-28475715D01*
X11129570Y-28474498D01*
X11129809Y-28435267D01*
X11130031Y-28397474D01*
X11130234Y-28361588D01*
X11130414Y-28328080D01*
X11130571Y-28297420D01*
X11130701Y-28270079D01*
X11130803Y-28246528D01*
X11130874Y-28227237D01*
X11130911Y-28212677D01*
X11130913Y-28203317D01*
X11130892Y-28200115D01*
X11129746Y-28186593D01*
X11126451Y-28174228D01*
X11120486Y-28162308D01*
X11111332Y-28150124D01*
X11098465Y-28136962D01*
X11081367Y-28122114D01*
X11063150Y-28107661D01*
X11035832Y-28086578D01*
X11025647Y-28091503D01*
X11019521Y-28095601D01*
X11009569Y-28103720D01*
X10996115Y-28115554D01*
X10979488Y-28130792D01*
X10960014Y-28149126D01*
X10938019Y-28170249D01*
X10913829Y-28193850D01*
X10887773Y-28219623D01*
X10860175Y-28247258D01*
X10851604Y-28255907D01*
X10830754Y-28277127D01*
X10813955Y-28294568D01*
X10800896Y-28308575D01*
X10791269Y-28319492D01*
X10784764Y-28327664D01*
X10781072Y-28333436D01*
X10780199Y-28335485D01*
X10778890Y-28340234D01*
X10778602Y-28344696D01*
X10779677Y-28349998D01*
X10782462Y-28357271D01*
X10787301Y-28367641D01*
X10794414Y-28381989D01*
X10815111Y-28426967D01*
X10831057Y-28470024D01*
X10842620Y-28512374D01*
X10850168Y-28555229D01*
X10852101Y-28572320D01*
X10853849Y-28621153D01*
X10849891Y-28670103D01*
X10840474Y-28718542D01*
X10825845Y-28765842D01*
X10806252Y-28811375D01*
X10781943Y-28854513D01*
X10753164Y-28894629D01*
X10720164Y-28931093D01*
X10705191Y-28945092D01*
X10673571Y-28970344D01*
X10638225Y-28993555D01*
X10600484Y-29014066D01*
X10561679Y-29031216D01*
X10523142Y-29044344D01*
X10488920Y-29052330D01*
X10471658Y-29054467D01*
X10450117Y-29055787D01*
X10425960Y-29056306D01*
X10400852Y-29056039D01*
X10376456Y-29055002D01*
X10354434Y-29053213D01*
X10337408Y-29050863D01*
X10286252Y-29038767D01*
X10237816Y-29021577D01*
X10192393Y-28999544D01*
X10150277Y-28972917D01*
X10111762Y-28941945D01*
X10077142Y-28906879D01*
X10046711Y-28867968D01*
X10020761Y-28825462D01*
X9999588Y-28779611D01*
X9991219Y-28756520D01*
X9976619Y-28704079D01*
X9967922Y-28652432D01*
X9965115Y-28601367D01*
X9968183Y-28550673D01*
X9975695Y-28506379D01*
X9989408Y-28457874D01*
X10008526Y-28411545D01*
X10032716Y-28367803D01*
X10061648Y-28327059D01*
X10094990Y-28289724D01*
X10132412Y-28256210D01*
X10173582Y-28226927D01*
X10218168Y-28202287D01*
X10222131Y-28200408D01*
X10254706Y-28186212D01*
X10285020Y-28175468D01*
X10314884Y-28167747D01*
X10346111Y-28162621D01*
X10380514Y-28159659D01*
X10397413Y-28158922D01*
X10436159Y-28158697D01*
X10470891Y-28160860D01*
X10503168Y-28165581D01*
X10534550Y-28173030D01*
X10538873Y-28174274D01*
X10548717Y-28177256D01*
X10557418Y-28180193D01*
X10566074Y-28183567D01*
X10575782Y-28187861D01*
X10587639Y-28193556D01*
X10602744Y-28201135D01*
X10619602Y-28209750D01*
X10639792Y-28219418D01*
X10656444Y-28225553D01*
X10670781Y-28228279D01*
X10684022Y-28227721D01*
X10697389Y-28224003D01*
X10708965Y-28218850D01*
X10715213Y-28214681D01*
X10725056Y-28206796D01*
X10737888Y-28195767D01*
X10753104Y-28182163D01*
X10770099Y-28166555D01*
X10788267Y-28149513D01*
X10807003Y-28131607D01*
X10825702Y-28113408D01*
X10843758Y-28095486D01*
X10860565Y-28078411D01*
X10875519Y-28062754D01*
X10881404Y-28056407D01*
X10898071Y-28038322D01*
X10911300Y-28024191D01*
X10921630Y-28013474D01*
X10929598Y-28005629D01*
X10935741Y-28000116D01*
X10940597Y-27996393D01*
X10941855Y-27995563D01*
X10949254Y-27990863D01*
X10929416Y-27958159D01*
X10913079Y-27929944D01*
X10896974Y-27899761D01*
X10881981Y-27869384D01*
X10868984Y-27840585D01*
X10860457Y-27819456D01*
X10855624Y-27805845D01*
X10849844Y-27788375D01*
X10843553Y-27768496D01*
X10837190Y-27747655D01*
X10831193Y-27727302D01*
X10826000Y-27708887D01*
X10822048Y-27693856D01*
X10820491Y-27687228D01*
X10818268Y-27677019D01*
X10833112Y-27678777D01*
G37*
G36*
X12164971Y-27681980D02*
G01*
X12169068Y-27685349D01*
X12170252Y-27691471D01*
X12169119Y-27700670D01*
X12166264Y-27713265D01*
X12164515Y-27720376D01*
X12146336Y-27783849D01*
X12123895Y-27843505D01*
X12096926Y-27900009D01*
X12079436Y-27931040D01*
X12068808Y-27948860D01*
X12060955Y-27962331D01*
X12055651Y-27972299D01*
X12052672Y-27979614D01*
X12051795Y-27985122D01*
X12052793Y-27989672D01*
X12055444Y-27994110D01*
X12059522Y-27999286D01*
X12060909Y-28001009D01*
X12069379Y-28010606D01*
X12080122Y-28021452D01*
X12089979Y-28030463D01*
X12099796Y-28039105D01*
X12113247Y-28051287D01*
X12129656Y-28066376D01*
X12148345Y-28083738D01*
X12168638Y-28102740D01*
X12189856Y-28122750D01*
X12211323Y-28143133D01*
X12232362Y-28163257D01*
X12244456Y-28174903D01*
X12258788Y-28188474D01*
X12272661Y-28201124D01*
X12285147Y-28212043D01*
X12295318Y-28220419D01*
X12302245Y-28225444D01*
X12302666Y-28225697D01*
X12319917Y-28232774D01*
X12337231Y-28234038D01*
X12354011Y-28229459D01*
X12356567Y-28228203D01*
X12387803Y-28212109D01*
X12414850Y-28198843D01*
X12438664Y-28188140D01*
X12460197Y-28179735D01*
X12480404Y-28173361D01*
X12500239Y-28168754D01*
X12520654Y-28165649D01*
X12542605Y-28163779D01*
X12567044Y-28162880D01*
X12592086Y-28162682D01*
X12614204Y-28162808D01*
X12631689Y-28163211D01*
X12645909Y-28163993D01*
X12658229Y-28165261D01*
X12670014Y-28167117D01*
X12682093Y-28169549D01*
X12730518Y-28182332D01*
X12774792Y-28198995D01*
X12815651Y-28219933D01*
X12853830Y-28245543D01*
X12890065Y-28276223D01*
X12902610Y-28288419D01*
X12936446Y-28325666D01*
X12964849Y-28364135D01*
X12988379Y-28404724D01*
X13007595Y-28448332D01*
X13014804Y-28468639D01*
X13023360Y-28496646D01*
X13029462Y-28522361D01*
X13033363Y-28547629D01*
X13035315Y-28574293D01*
X13035570Y-28604197D01*
X13035237Y-28618003D01*
X13034090Y-28644252D01*
X13032267Y-28666358D01*
X13029451Y-28686166D01*
X13025326Y-28705521D01*
X13019576Y-28726269D01*
X13013293Y-28746019D01*
X12994763Y-28793337D01*
X12971486Y-28838109D01*
X12943877Y-28879918D01*
X12912349Y-28918347D01*
X12877316Y-28952979D01*
X12839193Y-28983396D01*
X12798394Y-29009181D01*
X12755332Y-29029917D01*
X12718794Y-29042809D01*
X12676422Y-29052471D01*
X12631548Y-29057319D01*
X12585119Y-29057451D01*
X12538079Y-29052965D01*
X12491375Y-29043961D01*
X12445952Y-29030534D01*
X12402755Y-29012785D01*
X12395570Y-29009279D01*
X12354546Y-28985527D01*
X12315802Y-28956687D01*
X12280013Y-28923452D01*
X12247852Y-28886515D01*
X12219994Y-28846567D01*
X12197858Y-28805894D01*
X12181249Y-28766755D01*
X12168769Y-28727843D01*
X12159924Y-28687302D01*
X12154217Y-28643277D01*
X12154095Y-28641944D01*
X12152443Y-28601265D01*
X12154598Y-28559918D01*
X12160325Y-28518954D01*
X12169391Y-28479423D01*
X12181562Y-28442373D01*
X12196603Y-28408857D01*
X12211622Y-28383708D01*
X12217877Y-28373716D01*
X12223340Y-28363551D01*
X12224908Y-28360112D01*
X12226794Y-28353289D01*
X12226674Y-28345957D01*
X12224262Y-28337761D01*
X12219271Y-28328345D01*
X12211417Y-28317355D01*
X12200412Y-28304434D01*
X12185971Y-28289228D01*
X12167807Y-28271382D01*
X12145636Y-28250539D01*
X12119171Y-28226346D01*
X12112048Y-28219911D01*
X12096245Y-28205478D01*
X12077637Y-28188190D01*
X12057681Y-28169419D01*
X12037833Y-28150534D01*
X12019548Y-28132906D01*
X12016896Y-28130325D01*
X12002361Y-28116260D01*
X11989179Y-28103710D01*
X11977974Y-28093250D01*
X11969368Y-28085458D01*
X11963987Y-28080911D01*
X11962487Y-28079967D01*
X11959048Y-28082229D01*
X11954724Y-28087602D01*
X11950516Y-28092170D01*
X11942493Y-28099336D01*
X11931718Y-28108200D01*
X11919255Y-28117864D01*
X11916126Y-28120207D01*
X11899589Y-28132671D01*
X11887298Y-28142454D01*
X11878554Y-28150275D01*
X11872658Y-28156852D01*
X11868911Y-28162903D01*
X11866613Y-28169146D01*
X11865976Y-28171707D01*
X11865645Y-28176136D01*
X11865328Y-28186177D01*
X11865027Y-28201442D01*
X11864745Y-28221543D01*
X11864484Y-28246091D01*
X11864248Y-28274699D01*
X11864038Y-28306978D01*
X11863858Y-28342539D01*
X11863711Y-28380996D01*
X11863598Y-28421958D01*
X11863523Y-28465039D01*
X11863489Y-28509849D01*
X11863487Y-28532775D01*
X11863490Y-28586768D01*
X11863475Y-28635109D01*
X11863437Y-28678146D01*
X11863373Y-28716227D01*
X11863277Y-28749700D01*
X11863145Y-28778913D01*
X11862973Y-28804215D01*
X11862756Y-28825954D01*
X11862490Y-28844478D01*
X11862170Y-28860134D01*
X11861792Y-28873273D01*
X11861351Y-28884240D01*
X11860843Y-28893385D01*
X11860264Y-28901056D01*
X11859608Y-28907602D01*
X11858872Y-28913369D01*
X11858569Y-28915432D01*
X11852920Y-28945263D01*
X11844928Y-28974692D01*
X11834310Y-29004259D01*
X11820780Y-29034502D01*
X11804055Y-29065959D01*
X11783851Y-29099169D01*
X11759882Y-29134669D01*
X11731864Y-29172999D01*
X11702400Y-29211056D01*
X11686917Y-29230264D01*
X11671695Y-29248341D01*
X11655867Y-29266236D01*
X11638563Y-29284897D01*
X11618916Y-29305273D01*
X11596058Y-29328312D01*
X11584982Y-29339316D01*
X11567669Y-29356395D01*
X11551675Y-29372048D01*
X11537505Y-29385792D01*
X11525663Y-29397143D01*
X11516654Y-29405616D01*
X11510981Y-29410728D01*
X11509179Y-29412072D01*
X11507683Y-29409349D01*
X11506101Y-29402257D01*
X11504928Y-29393630D01*
X11504623Y-29387637D01*
X11504346Y-29376038D01*
X11504098Y-29359230D01*
X11503878Y-29337606D01*
X11503685Y-29311563D01*
X11503519Y-29281495D01*
X11503380Y-29247798D01*
X11503268Y-29210866D01*
X11503181Y-29171095D01*
X11503119Y-29128880D01*
X11503082Y-29084617D01*
X11503070Y-29038700D01*
X11503082Y-28991524D01*
X11503117Y-28943485D01*
X11503176Y-28894978D01*
X11503257Y-28846398D01*
X11503361Y-28798140D01*
X11503487Y-28750599D01*
X11503634Y-28704171D01*
X11503803Y-28659250D01*
X11503992Y-28616232D01*
X11504201Y-28575513D01*
X11504430Y-28537486D01*
X11504679Y-28502547D01*
X11504946Y-28471092D01*
X11505232Y-28443516D01*
X11505536Y-28420213D01*
X11505858Y-28401579D01*
X11506004Y-28394992D01*
X11506966Y-28358126D01*
X11507953Y-28326562D01*
X11509019Y-28299599D01*
X11510216Y-28276538D01*
X11511596Y-28256679D01*
X11513211Y-28239323D01*
X11515114Y-28223770D01*
X11517357Y-28209321D01*
X11519993Y-28195277D01*
X11521484Y-28188145D01*
X11534807Y-28140236D01*
X11553866Y-28093092D01*
X11578421Y-28046959D01*
X11608230Y-28002078D01*
X11643052Y-27958692D01*
X11682645Y-27917046D01*
X11726768Y-27877381D01*
X11775181Y-27839941D01*
X11827642Y-27804969D01*
X11883910Y-27772709D01*
X11943743Y-27743402D01*
X11977018Y-27729068D01*
X12006589Y-27717502D01*
X12034339Y-27708029D01*
X12062560Y-27699955D01*
X12093546Y-27692589D01*
X12107548Y-27689619D01*
X12129250Y-27685185D01*
X12145657Y-27682220D01*
X12157366Y-27681045D01*
X12164971Y-27681980D01*
G37*
G36*
X15201806Y-29944638D02*
G01*
X15220415Y-29947715D01*
X15226308Y-29949428D01*
X15240528Y-29956200D01*
X15252478Y-29965661D01*
X15260420Y-29976389D01*
X15261114Y-29977915D01*
X15264893Y-29993881D01*
X15264591Y-30012534D01*
X15260469Y-30032422D01*
X15252792Y-30052093D01*
X15245344Y-30065103D01*
X15235465Y-30077851D01*
X15223595Y-30088826D01*
X15208958Y-30098452D01*
X15190775Y-30107155D01*
X15168268Y-30115359D01*
X15140660Y-30123490D01*
X15136435Y-30124623D01*
X15121766Y-30128571D01*
X15109317Y-30132026D01*
X15100167Y-30134681D01*
X15095398Y-30136228D01*
X15094974Y-30136438D01*
X15096639Y-30138668D01*
X15102027Y-30143695D01*
X15110142Y-30150611D01*
X15114328Y-30154026D01*
X15145316Y-30181868D01*
X15171806Y-30211677D01*
X15193433Y-30242919D01*
X15209834Y-30275060D01*
X15220643Y-30307565D01*
X15221496Y-30311235D01*
X15225626Y-30340121D01*
X15226170Y-30371617D01*
X15223278Y-30403638D01*
X15217101Y-30434097D01*
X15211364Y-30452149D01*
X15194454Y-30489213D01*
X15172888Y-30522514D01*
X15146714Y-30552017D01*
X15115980Y-30577685D01*
X15080736Y-30599481D01*
X15041029Y-30617369D01*
X14996907Y-30631311D01*
X14966773Y-30638070D01*
X14950226Y-30640392D01*
X14928341Y-30642090D01*
X14901751Y-30643151D01*
X14871086Y-30643560D01*
X14836979Y-30643302D01*
X14800062Y-30642362D01*
X14792759Y-30642105D01*
X14771372Y-30641761D01*
X14754724Y-30642734D01*
X14741635Y-30645358D01*
X14730923Y-30649970D01*
X14721409Y-30656905D01*
X14713615Y-30664626D01*
X14701615Y-30680219D01*
X14694736Y-30696027D01*
X14692282Y-30713731D01*
X14692251Y-30716238D01*
X14693049Y-30729548D01*
X14696019Y-30738668D01*
X14702025Y-30745263D01*
X14709698Y-30749894D01*
X14715672Y-30752679D01*
X14722174Y-30755053D01*
X14729742Y-30757059D01*
X14738917Y-30758742D01*
X14750236Y-30760145D01*
X14764240Y-30761311D01*
X14781467Y-30762284D01*
X14802456Y-30763108D01*
X14827747Y-30763826D01*
X14857879Y-30764482D01*
X14893390Y-30765118D01*
X14899268Y-30765216D01*
X14936369Y-30765871D01*
X14968135Y-30766555D01*
X14995229Y-30767321D01*
X15018317Y-30768224D01*
X15038063Y-30769315D01*
X15055131Y-30770649D01*
X15070186Y-30772278D01*
X15083893Y-30774257D01*
X15096916Y-30776638D01*
X15109921Y-30779475D01*
X15123570Y-30782821D01*
X15125785Y-30783388D01*
X15146561Y-30789943D01*
X15169037Y-30799059D01*
X15191101Y-30809745D01*
X15210636Y-30821011D01*
X15220293Y-30827658D01*
X15242271Y-30847340D01*
X15261723Y-30871014D01*
X15277718Y-30897244D01*
X15289327Y-30924592D01*
X15293827Y-30941079D01*
X15295790Y-30953576D01*
X15297308Y-30969383D01*
X15298151Y-30985812D01*
X15298247Y-30992250D01*
X15295956Y-31029511D01*
X15288778Y-31063936D01*
X15276449Y-31096513D01*
X15264860Y-31118334D01*
X15256785Y-31129900D01*
X15245183Y-31143867D01*
X15231285Y-31158977D01*
X15216321Y-31173971D01*
X15201518Y-31187590D01*
X15188108Y-31198575D01*
X15182790Y-31202367D01*
X15146294Y-31223664D01*
X15105137Y-31242016D01*
X15060007Y-31257198D01*
X15011594Y-31268984D01*
X14960587Y-31277145D01*
X14952640Y-31278055D01*
X14932171Y-31279658D01*
X14907232Y-31280629D01*
X14879320Y-31280992D01*
X14849930Y-31280769D01*
X14820556Y-31279983D01*
X14792696Y-31278658D01*
X14767844Y-31276817D01*
X14750871Y-31274952D01*
X14727720Y-31271764D01*
X14709071Y-31268888D01*
X14693458Y-31266021D01*
X14679415Y-31262861D01*
X14665475Y-31259106D01*
X14650172Y-31254453D01*
X14647878Y-31253726D01*
X14608747Y-31239270D01*
X14574136Y-31222323D01*
X14544264Y-31203074D01*
X14519350Y-31181713D01*
X14499611Y-31158430D01*
X14485267Y-31133414D01*
X14476536Y-31106854D01*
X14476088Y-31104676D01*
X14473771Y-31081349D01*
X14475284Y-31056931D01*
X14480408Y-31034131D01*
X14482167Y-31029158D01*
X14492007Y-31009458D01*
X14502929Y-30993850D01*
X14620529Y-30993850D01*
X14620849Y-31005112D01*
X14620984Y-31007357D01*
X14625436Y-31032072D01*
X14635388Y-31055172D01*
X14650480Y-31076339D01*
X14670354Y-31095254D01*
X14694650Y-31111598D01*
X14723009Y-31125053D01*
X14755072Y-31135301D01*
X14768757Y-31138411D01*
X14799356Y-31143613D01*
X14833101Y-31147625D01*
X14868357Y-31150363D01*
X14903486Y-31151746D01*
X14936853Y-31151693D01*
X14966821Y-31150122D01*
X14978774Y-31148896D01*
X15016934Y-31142607D01*
X15051195Y-31133628D01*
X15081281Y-31122134D01*
X15106919Y-31108300D01*
X15127833Y-31092303D01*
X15143749Y-31074318D01*
X15154392Y-31054521D01*
X15159465Y-31033313D01*
X15158569Y-31014292D01*
X15152038Y-30996529D01*
X15140156Y-30980314D01*
X15123209Y-30965937D01*
X15101483Y-30953688D01*
X15075263Y-30943855D01*
X15069709Y-30942260D01*
X15058748Y-30939432D01*
X15047377Y-30936906D01*
X15035144Y-30934651D01*
X15021600Y-30932634D01*
X15006293Y-30930824D01*
X14988773Y-30929189D01*
X14968590Y-30927698D01*
X14945292Y-30926318D01*
X14918430Y-30925017D01*
X14887552Y-30923765D01*
X14852209Y-30922528D01*
X14811949Y-30921276D01*
X14766322Y-30919976D01*
X14746256Y-30919430D01*
X14675750Y-30917532D01*
X14657790Y-30932211D01*
X14642843Y-30946579D01*
X14631616Y-30962802D01*
X14629733Y-30966292D01*
X14624402Y-30977107D01*
X14621524Y-30985404D01*
X14620529Y-30993850D01*
X14502929Y-30993850D01*
X14506049Y-30989391D01*
X14522897Y-30970749D01*
X14538065Y-30957596D01*
X14552709Y-30947482D01*
X14569700Y-30937362D01*
X14587648Y-30927915D01*
X14605162Y-30919821D01*
X14620853Y-30913758D01*
X14633330Y-30910408D01*
X14635178Y-30910139D01*
X14643739Y-30908797D01*
X14649186Y-30907314D01*
X14650219Y-30906522D01*
X14647672Y-30904549D01*
X14640832Y-30900704D01*
X14630859Y-30895614D01*
X14623143Y-30891885D01*
X14600025Y-30878714D01*
X14579088Y-30862476D01*
X14561502Y-30844255D01*
X14548436Y-30825138D01*
X14546013Y-30820347D01*
X14542275Y-30811783D01*
X14539862Y-30804132D01*
X14538491Y-30795656D01*
X14537878Y-30784619D01*
X14537739Y-30769679D01*
X14537859Y-30754717D01*
X14538420Y-30744048D01*
X14539724Y-30735963D01*
X14542074Y-30728756D01*
X14545769Y-30720721D01*
X14546740Y-30718778D01*
X14556804Y-30702532D01*
X14570822Y-30685127D01*
X14587388Y-30668102D01*
X14605099Y-30652999D01*
X14609952Y-30649410D01*
X14620754Y-30642391D01*
X14634866Y-30634175D01*
X14650113Y-30625996D01*
X14659224Y-30621465D01*
X14690004Y-30606716D01*
X14676876Y-30598510D01*
X14654196Y-30582970D01*
X14631408Y-30564889D01*
X14609823Y-30545462D01*
X14590748Y-30525886D01*
X14575492Y-30507355D01*
X14572541Y-30503192D01*
X14563915Y-30489021D01*
X14554582Y-30471173D01*
X14545508Y-30451733D01*
X14537658Y-30432787D01*
X14531996Y-30416421D01*
X14531350Y-30414151D01*
X14528009Y-30396511D01*
X14526217Y-30374996D01*
X14526024Y-30357953D01*
X14696508Y-30357953D01*
X14699068Y-30393638D01*
X14705617Y-30428953D01*
X14706041Y-30430652D01*
X14714599Y-30455901D01*
X14727044Y-30480957D01*
X14742459Y-30504474D01*
X14759925Y-30525105D01*
X14778524Y-30541505D01*
X14784458Y-30545572D01*
X14808267Y-30557230D01*
X14835308Y-30564124D01*
X14865068Y-30566176D01*
X14897037Y-30563313D01*
X14900661Y-30562696D01*
X14930677Y-30554413D01*
X14958093Y-30540884D01*
X14982608Y-30522406D01*
X15003921Y-30499278D01*
X15021730Y-30471796D01*
X15035733Y-30440257D01*
X15040810Y-30424482D01*
X15044486Y-30406889D01*
X15046876Y-30385428D01*
X15047959Y-30361949D01*
X15047715Y-30338303D01*
X15046125Y-30316340D01*
X15043167Y-30297910D01*
X15042231Y-30294141D01*
X15031252Y-30262908D01*
X15016330Y-30234696D01*
X14997959Y-30210152D01*
X14976636Y-30189925D01*
X14952854Y-30174665D01*
X14949938Y-30173236D01*
X14928928Y-30164493D01*
X14908921Y-30159123D01*
X14887394Y-30156576D01*
X14871368Y-30156175D01*
X14839062Y-30158894D01*
X14808958Y-30166737D01*
X14781572Y-30179406D01*
X14757421Y-30196608D01*
X14737020Y-30218046D01*
X14721759Y-30241732D01*
X14713341Y-30259304D01*
X14707151Y-30276157D01*
X14702610Y-30294299D01*
X14699143Y-30315739D01*
X14698104Y-30324162D01*
X14696508Y-30357953D01*
X14526024Y-30357953D01*
X14525951Y-30351521D01*
X14527187Y-30328003D01*
X14529902Y-30306357D01*
X14532856Y-30292641D01*
X14546289Y-30254062D01*
X14564812Y-30218387D01*
X14588081Y-30185976D01*
X14615753Y-30157188D01*
X14647483Y-30132381D01*
X14682927Y-30111915D01*
X14720754Y-30096475D01*
X14768499Y-30083409D01*
X14817207Y-30075777D01*
X14867427Y-30073538D01*
X14919706Y-30076647D01*
X14941849Y-30079457D01*
X14958372Y-30081737D01*
X14970212Y-30083001D01*
X14978590Y-30083290D01*
X14984729Y-30082647D01*
X14989851Y-30081113D01*
X14989853Y-30081113D01*
X14995048Y-30077727D01*
X15003883Y-30070372D01*
X15015907Y-30059463D01*
X15030667Y-30045418D01*
X15047710Y-30028655D01*
X15058280Y-30018036D01*
X15074007Y-30002286D01*
X15088797Y-29987778D01*
X15102006Y-29975121D01*
X15112992Y-29964921D01*
X15121111Y-29957786D01*
X15125720Y-29954323D01*
X15125824Y-29954269D01*
X15141157Y-29948758D01*
X15160230Y-29945254D01*
X15181095Y-29943849D01*
X15201806Y-29944638D01*
G37*
G36*
X11517875Y-25423366D02*
G01*
X11545131Y-25424701D01*
X11569914Y-25427083D01*
X11590007Y-25430377D01*
X11640800Y-25443952D01*
X11688243Y-25462140D01*
X11732108Y-25484773D01*
X11772165Y-25511685D01*
X11808186Y-25542707D01*
X11839942Y-25577673D01*
X11867206Y-25616415D01*
X11883153Y-25645012D01*
X11902791Y-25689685D01*
X11917914Y-25736330D01*
X11928287Y-25783851D01*
X11933672Y-25831153D01*
X11933833Y-25877139D01*
X11933705Y-25879294D01*
X11927640Y-25932080D01*
X11916242Y-25982282D01*
X11899619Y-26029716D01*
X11877879Y-26074200D01*
X11851132Y-26115552D01*
X11819484Y-26153590D01*
X11783044Y-26188129D01*
X11741920Y-26218989D01*
X11726455Y-26228879D01*
X11700701Y-26243313D01*
X11673749Y-26255521D01*
X11645180Y-26265951D01*
X11621303Y-26275352D01*
X11602385Y-26286416D01*
X11587826Y-26299911D01*
X11577026Y-26316607D01*
X11569384Y-26337272D01*
X11564299Y-26362677D01*
X11563230Y-26370934D01*
X11562727Y-26378195D01*
X11562244Y-26390873D01*
X11561790Y-26408381D01*
X11561372Y-26430136D01*
X11561000Y-26455552D01*
X11560681Y-26484044D01*
X11560424Y-26515028D01*
X11560237Y-26547920D01*
X11560128Y-26582133D01*
X11560114Y-26590350D01*
X11560081Y-26630947D01*
X11560101Y-26666014D01*
X11560186Y-26696023D01*
X11560342Y-26721444D01*
X11560581Y-26742747D01*
X11560911Y-26760403D01*
X11561341Y-26774883D01*
X11561881Y-26786657D01*
X11562539Y-26796197D01*
X11563325Y-26803973D01*
X11564248Y-26810456D01*
X11564437Y-26811565D01*
X11572934Y-26846510D01*
X11585477Y-26878081D01*
X11601789Y-26905859D01*
X11621590Y-26929426D01*
X11644602Y-26948360D01*
X11662056Y-26958433D01*
X11673134Y-26963412D01*
X11688197Y-26969584D01*
X11705525Y-26976275D01*
X11723403Y-26982808D01*
X11729518Y-26984949D01*
X11777620Y-27003889D01*
X11822983Y-27026390D01*
X11864707Y-27051942D01*
X11901889Y-27080030D01*
X11911531Y-27088431D01*
X11921176Y-27096796D01*
X11929422Y-27103359D01*
X11935114Y-27107230D01*
X11936789Y-27107890D01*
X11940817Y-27106617D01*
X11947200Y-27102665D01*
X11956157Y-27095841D01*
X11967906Y-27085947D01*
X11982663Y-27072788D01*
X12000648Y-27056168D01*
X12022078Y-27035892D01*
X12047171Y-27011764D01*
X12076145Y-26983587D01*
X12087042Y-26972929D01*
X12115314Y-26945158D01*
X12139512Y-26921184D01*
X12159929Y-26900688D01*
X12176860Y-26883353D01*
X12190596Y-26868862D01*
X12201433Y-26856896D01*
X12209663Y-26847139D01*
X12215581Y-26839271D01*
X12219479Y-26832975D01*
X12221651Y-26827935D01*
X12221941Y-26826907D01*
X12221309Y-26821157D01*
X12217667Y-26810651D01*
X12210968Y-26795267D01*
X12202385Y-26777354D01*
X12184800Y-26739090D01*
X12171275Y-26703312D01*
X12161438Y-26668459D01*
X12154918Y-26632971D01*
X12151343Y-26595289D01*
X12150338Y-26558847D01*
X12152258Y-26508549D01*
X12158377Y-26461926D01*
X12168901Y-26418177D01*
X12184034Y-26376502D01*
X12203980Y-26336099D01*
X12209608Y-26326329D01*
X12236394Y-26286572D01*
X12267883Y-26249393D01*
X12303341Y-26215373D01*
X12342037Y-26185092D01*
X12383240Y-26159130D01*
X12426216Y-26138069D01*
X12464576Y-26124153D01*
X12488679Y-26117193D01*
X12509776Y-26112027D01*
X12529577Y-26108419D01*
X12549796Y-26106131D01*
X12572143Y-26104925D01*
X12598331Y-26104563D01*
X12605587Y-26104577D01*
X12626177Y-26104726D01*
X12642059Y-26105066D01*
X12654524Y-26105719D01*
X12664866Y-26106810D01*
X12674377Y-26108464D01*
X12684348Y-26110805D01*
X12692273Y-26112914D01*
X12739153Y-26128159D01*
X12784518Y-26147701D01*
X12827404Y-26170998D01*
X12866845Y-26197506D01*
X12901873Y-26226685D01*
X12911437Y-26235940D01*
X12944039Y-26272775D01*
X12971746Y-26312593D01*
X12994577Y-26354930D01*
X13012552Y-26399325D01*
X13025690Y-26445315D01*
X13034009Y-26492439D01*
X13037529Y-26540233D01*
X13036269Y-26588236D01*
X13030247Y-26635986D01*
X13019483Y-26683019D01*
X13003996Y-26728875D01*
X12983804Y-26773090D01*
X12958927Y-26815202D01*
X12929384Y-26854749D01*
X12895193Y-26891270D01*
X12884068Y-26901535D01*
X12846822Y-26930841D01*
X12805785Y-26956015D01*
X12761731Y-26976820D01*
X12715436Y-26993019D01*
X12667673Y-27004374D01*
X12619216Y-27010647D01*
X12570840Y-27011601D01*
X12534808Y-27008649D01*
X12491425Y-27000716D01*
X12449434Y-26988065D01*
X12407863Y-26970340D01*
X12365740Y-26947186D01*
X12364425Y-26946383D01*
X12352719Y-26939383D01*
X12342532Y-26934023D01*
X12333308Y-26930541D01*
X12324490Y-26929179D01*
X12315519Y-26930176D01*
X12305840Y-26933771D01*
X12294895Y-26940205D01*
X12282126Y-26949716D01*
X12266977Y-26962545D01*
X12248889Y-26978931D01*
X12227307Y-26999114D01*
X12215139Y-27010603D01*
X12191011Y-27033514D01*
X12167276Y-27056249D01*
X12144382Y-27078364D01*
X12122778Y-27099416D01*
X12102912Y-27118962D01*
X12085233Y-27136557D01*
X12070190Y-27151759D01*
X12058231Y-27164124D01*
X12049805Y-27173208D01*
X12045699Y-27178096D01*
X12040972Y-27185056D01*
X12038065Y-27191446D01*
X12037215Y-27198070D01*
X12038661Y-27205733D01*
X12042639Y-27215239D01*
X12049387Y-27227391D01*
X12059143Y-27242993D01*
X12069591Y-27258984D01*
X12086620Y-27285374D01*
X12100573Y-27308410D01*
X12112138Y-27329412D01*
X12122001Y-27349699D01*
X12130851Y-27370593D01*
X12138934Y-27392177D01*
X12147363Y-27414854D01*
X12154905Y-27432772D01*
X12162107Y-27446999D01*
X12169514Y-27458603D01*
X12177673Y-27468650D01*
X12178471Y-27469524D01*
X12197809Y-27486711D01*
X12220917Y-27500225D01*
X12248194Y-27510235D01*
X12280042Y-27516910D01*
X12295032Y-27518776D01*
X12303959Y-27519364D01*
X12318562Y-27519900D01*
X12338514Y-27520380D01*
X12363491Y-27520799D01*
X12393167Y-27521155D01*
X12427218Y-27521443D01*
X12465317Y-27521660D01*
X12507140Y-27521803D01*
X12552362Y-27521868D01*
X12572152Y-27521871D01*
X12618350Y-27521855D01*
X12658962Y-27521813D01*
X12694402Y-27521726D01*
X12725083Y-27521573D01*
X12751421Y-27521333D01*
X12773830Y-27520986D01*
X12792723Y-27520511D01*
X12808515Y-27519887D01*
X12821620Y-27519095D01*
X12832453Y-27518113D01*
X12841427Y-27516921D01*
X12848957Y-27515499D01*
X12855456Y-27513826D01*
X12861340Y-27511881D01*
X12867022Y-27509644D01*
X12872916Y-27507095D01*
X12873251Y-27506947D01*
X12883583Y-27501866D01*
X12891975Y-27496213D01*
X12899004Y-27489118D01*
X12905245Y-27479710D01*
X12911273Y-27467119D01*
X12917663Y-27450477D01*
X12924992Y-27428913D01*
X12925106Y-27428566D01*
X12940759Y-27387799D01*
X12959893Y-27350956D01*
X12983249Y-27316863D01*
X13011568Y-27284351D01*
X13024425Y-27271551D01*
X13061689Y-27239565D01*
X13101454Y-27212850D01*
X13144105Y-27191205D01*
X13190027Y-27174429D01*
X13229071Y-27164444D01*
X13251689Y-27160824D01*
X13278130Y-27158501D01*
X13306491Y-27157494D01*
X13334872Y-27157822D01*
X13361369Y-27159505D01*
X13384082Y-27162561D01*
X13385648Y-27162859D01*
X13434571Y-27174837D01*
X13479399Y-27190941D01*
X13520619Y-27211423D01*
X13558720Y-27236536D01*
X13594189Y-27266532D01*
X13603394Y-27275518D01*
X13635271Y-27310982D01*
X13662032Y-27348375D01*
X13684040Y-27388381D01*
X13701661Y-27431684D01*
X13715259Y-27478969D01*
X13717776Y-27490108D01*
X13721546Y-27513490D01*
X13723897Y-27540891D01*
X13724834Y-27570502D01*
X13724357Y-27600513D01*
X13722470Y-27629112D01*
X13719175Y-27654489D01*
X13717550Y-27662934D01*
X13703956Y-27713179D01*
X13685519Y-27760237D01*
X13662410Y-27803875D01*
X13634803Y-27843862D01*
X13602870Y-27879963D01*
X13566786Y-27911945D01*
X13526722Y-27939576D01*
X13501804Y-27953478D01*
X13462252Y-27971655D01*
X13423451Y-27984897D01*
X13384032Y-27993506D01*
X13342629Y-27997782D01*
X13298751Y-27998056D01*
X13272007Y-27996740D01*
X13249197Y-27994565D01*
X13228277Y-27991171D01*
X13207201Y-27986197D01*
X13183925Y-27979284D01*
X13174132Y-27976092D01*
X13134371Y-27960672D01*
X13097712Y-27941624D01*
X13063087Y-27918272D01*
X13029429Y-27889943D01*
X13013547Y-27874623D01*
X12990495Y-27850421D01*
X12971652Y-27827933D01*
X12956108Y-27805743D01*
X12942951Y-27782436D01*
X12931272Y-27756597D01*
X12922218Y-27732694D01*
X12913059Y-27709163D01*
X12903764Y-27690757D01*
X12893549Y-27676634D01*
X12881630Y-27665952D01*
X12867225Y-27657872D01*
X12849550Y-27651550D01*
X12845606Y-27650438D01*
X12841294Y-27649292D01*
X12837035Y-27648286D01*
X12832422Y-27647409D01*
X12827047Y-27646650D01*
X12820502Y-27645998D01*
X12812379Y-27645443D01*
X12802270Y-27644972D01*
X12789768Y-27644575D01*
X12774465Y-27644241D01*
X12755953Y-27643959D01*
X12733825Y-27643717D01*
X12707671Y-27643505D01*
X12677085Y-27643312D01*
X12641659Y-27643127D01*
X12600985Y-27642938D01*
X12562234Y-27642768D01*
X12511825Y-27642573D01*
X12466901Y-27642457D01*
X12426946Y-27642430D01*
X12391446Y-27642501D01*
X12359885Y-27642680D01*
X12331747Y-27642977D01*
X12306519Y-27643401D01*
X12283683Y-27643963D01*
X12262725Y-27644670D01*
X12243131Y-27645534D01*
X12224384Y-27646564D01*
X12205969Y-27647770D01*
X12187371Y-27649160D01*
X12177499Y-27649956D01*
X12165359Y-27650209D01*
X12153055Y-27648764D01*
X12140038Y-27645342D01*
X12125756Y-27639664D01*
X12109660Y-27631450D01*
X12091198Y-27620420D01*
X12069819Y-27606294D01*
X12044974Y-27588794D01*
X12017566Y-27568717D01*
X11976203Y-27537545D01*
X11939289Y-27508568D01*
X11906271Y-27481118D01*
X11876591Y-27454529D01*
X11849694Y-27428135D01*
X11825026Y-27401269D01*
X11802030Y-27373264D01*
X11780151Y-27343454D01*
X11758833Y-27311172D01*
X11737522Y-27275752D01*
X11715661Y-27236527D01*
X11692695Y-27192830D01*
X11674658Y-27157214D01*
X11665268Y-27138879D01*
X11653657Y-27116889D01*
X11640649Y-27092762D01*
X11627066Y-27068017D01*
X11613731Y-27044170D01*
X11606351Y-27031205D01*
X11585777Y-26994962D01*
X11568289Y-26963263D01*
X11553691Y-26935626D01*
X11541786Y-26911572D01*
X11532379Y-26890620D01*
X11525271Y-26872291D01*
X11520268Y-26856105D01*
X11517172Y-26841582D01*
X11515786Y-26828242D01*
X11515914Y-26815605D01*
X11516280Y-26811269D01*
X11517043Y-26801599D01*
X11516845Y-26796095D01*
X11515538Y-26794994D01*
X11512971Y-26798534D01*
X11508996Y-26806951D01*
X11503465Y-26820482D01*
X11496227Y-26839365D01*
X11492721Y-26848736D01*
X11485230Y-26868490D01*
X11478108Y-26886296D01*
X11470919Y-26903017D01*
X11463227Y-26919514D01*
X11454594Y-26936647D01*
X11444586Y-26955280D01*
X11432764Y-26976273D01*
X11418693Y-27000487D01*
X11401936Y-27028785D01*
X11399005Y-27033700D01*
X11384781Y-27057822D01*
X11369351Y-27084469D01*
X11353628Y-27112033D01*
X11338526Y-27138905D01*
X11324956Y-27163476D01*
X11316317Y-27179457D01*
X11296927Y-27215402D01*
X11279559Y-27246669D01*
X11263706Y-27274021D01*
X11248862Y-27298223D01*
X11234521Y-27320037D01*
X11220176Y-27340228D01*
X11205322Y-27359558D01*
X11189451Y-27378792D01*
X11172058Y-27398694D01*
X11167818Y-27403414D01*
X11142103Y-27430206D01*
X11111964Y-27458712D01*
X11078426Y-27488133D01*
X11042512Y-27517667D01*
X11005248Y-27546516D01*
X10967658Y-27573881D01*
X10930766Y-27598961D01*
X10895598Y-27620957D01*
X10871520Y-27634651D01*
X10844820Y-27649087D01*
X10813132Y-27648832D01*
X10805548Y-27648763D01*
X10792438Y-27648635D01*
X10774276Y-27648453D01*
X10751535Y-27648222D01*
X10724689Y-27647946D01*
X10694212Y-27647632D01*
X10660578Y-27647282D01*
X10624260Y-27646903D01*
X10585733Y-27646500D01*
X10545469Y-27646076D01*
X10503944Y-27645638D01*
X10494921Y-27645542D01*
X10444969Y-27645020D01*
X10400642Y-27644580D01*
X10361564Y-27644232D01*
X10327359Y-27643988D01*
X10297652Y-27643857D01*
X10272066Y-27643849D01*
X10250226Y-27643976D01*
X10231757Y-27644247D01*
X10216283Y-27644672D01*
X10203428Y-27645263D01*
X10192817Y-27646029D01*
X10184074Y-27646981D01*
X10176823Y-27648129D01*
X10170689Y-27649484D01*
X10165295Y-27651056D01*
X10160268Y-27652854D01*
X10155230Y-27654891D01*
X10155186Y-27654909D01*
X10139980Y-27663658D01*
X10126269Y-27676776D01*
X10113717Y-27694711D01*
X10101992Y-27717909D01*
X10094817Y-27735593D01*
X10075278Y-27779117D01*
X10050455Y-27819864D01*
X10020289Y-27857925D01*
X10004466Y-27874693D01*
X9967675Y-27907978D01*
X9928719Y-27935880D01*
X9887056Y-27958699D01*
X9842142Y-27976739D01*
X9798908Y-27989039D01*
X9779619Y-27992583D01*
X9756144Y-27995319D01*
X9730105Y-27997195D01*
X9703126Y-27998158D01*
X9676828Y-27998158D01*
X9652834Y-27997141D01*
X9632766Y-27995056D01*
X9629164Y-27994471D01*
X9594801Y-27986655D01*
X9559736Y-27975023D01*
X9522593Y-27959111D01*
X9518344Y-27957090D01*
X9475105Y-27933117D01*
X9435807Y-27904674D01*
X9400641Y-27871974D01*
X9369800Y-27835232D01*
X9343474Y-27794663D01*
X9321857Y-27750481D01*
X9313048Y-27727596D01*
X9305870Y-27706463D01*
X9300374Y-27687999D01*
X9296343Y-27670795D01*
X9293558Y-27653446D01*
X9291802Y-27634544D01*
X9290856Y-27612683D01*
X9290503Y-27586454D01*
X9290487Y-27581928D01*
X9290531Y-27558311D01*
X9290841Y-27539578D01*
X9291483Y-27524615D01*
X9292525Y-27512307D01*
X9294033Y-27501543D01*
X9295919Y-27491921D01*
X9310007Y-27440789D01*
X9329137Y-27392910D01*
X9353317Y-27348269D01*
X9382558Y-27306850D01*
X9416868Y-27268636D01*
X9443201Y-27244386D01*
X9469339Y-27224977D01*
X9500267Y-27207026D01*
X9534846Y-27191067D01*
X9571937Y-27177634D01*
X9605059Y-27168490D01*
X9617330Y-27165716D01*
X9628134Y-27163672D01*
X9638782Y-27162248D01*
X9650586Y-27161331D01*
X9664855Y-27160808D01*
X9682903Y-27160567D01*
X9698358Y-27160507D01*
X9725066Y-27160694D01*
X9747304Y-27161515D01*
X9766586Y-27163193D01*
X9784430Y-27165953D01*
X9802350Y-27170018D01*
X9821863Y-27175612D01*
X9839850Y-27181410D01*
X9885431Y-27199602D01*
X9928290Y-27222806D01*
X9967925Y-27250641D01*
X10003829Y-27282728D01*
X10035500Y-27318687D01*
X10051815Y-27341294D01*
X10061835Y-27357773D01*
X10072602Y-27377963D01*
X10083124Y-27399829D01*
X10092407Y-27421339D01*
X10097573Y-27434916D01*
X10106275Y-27457028D01*
X10115401Y-27475690D01*
X10124500Y-27490089D01*
X10133122Y-27499413D01*
X10133495Y-27499703D01*
X10147443Y-27507733D01*
X10165895Y-27514413D01*
X10187426Y-27519302D01*
X10203898Y-27521454D01*
X10210753Y-27521787D01*
X10223119Y-27522063D01*
X10240504Y-27522283D01*
X10262418Y-27522445D01*
X10288372Y-27522548D01*
X10317875Y-27522592D01*
X10350436Y-27522575D01*
X10385565Y-27522497D01*
X10422773Y-27522357D01*
X10461569Y-27522154D01*
X10488920Y-27521977D01*
X10534328Y-27521658D01*
X10574136Y-27521369D01*
X10608747Y-27521095D01*
X10638563Y-27520827D01*
X10663984Y-27520550D01*
X10685414Y-27520253D01*
X10703252Y-27519924D01*
X10717901Y-27519551D01*
X10729763Y-27519121D01*
X10739238Y-27518622D01*
X10746729Y-27518041D01*
X10752638Y-27517368D01*
X10757364Y-27516588D01*
X10761311Y-27515691D01*
X10764880Y-27514664D01*
X10768473Y-27513494D01*
X10768566Y-27513463D01*
X10792174Y-27502862D01*
X10811367Y-27488289D01*
X10823603Y-27473620D01*
X10827853Y-27465839D01*
X10833266Y-27453770D01*
X10839242Y-27438859D01*
X10845182Y-27422555D01*
X10847165Y-27416715D01*
X10861474Y-27377598D01*
X10877894Y-27339528D01*
X10895886Y-27303521D01*
X10914909Y-27270592D01*
X10934424Y-27241756D01*
X10951124Y-27221079D01*
X10966563Y-27203758D01*
X10958383Y-27192577D01*
X10953157Y-27186336D01*
X10944099Y-27176524D01*
X10931713Y-27163633D01*
X10916507Y-27148152D01*
X10898985Y-27130572D01*
X10879655Y-27111386D01*
X10859023Y-27091084D01*
X10837594Y-27070156D01*
X10815876Y-27049094D01*
X10794374Y-27028389D01*
X10773593Y-27008532D01*
X10754042Y-26990014D01*
X10736225Y-26973325D01*
X10720649Y-26958957D01*
X10707820Y-26947401D01*
X10698245Y-26939147D01*
X10692681Y-26934852D01*
X10684911Y-26930105D01*
X10679346Y-26928458D01*
X10673363Y-26929446D01*
X10669485Y-26930751D01*
X10662678Y-26933687D01*
X10652041Y-26938875D01*
X10638964Y-26945612D01*
X10624842Y-26953195D01*
X10623159Y-26954120D01*
X10598515Y-26967230D01*
X10577002Y-26977523D01*
X10556898Y-26985705D01*
X10536478Y-26992484D01*
X10516350Y-26997985D01*
X10467354Y-27007286D01*
X10417623Y-27010812D01*
X10367677Y-27008658D01*
X10318036Y-27000918D01*
X10269220Y-26987683D01*
X10221749Y-26969049D01*
X10176144Y-26945109D01*
X10157512Y-26933389D01*
X10123916Y-26907948D01*
X10092024Y-26877540D01*
X10062594Y-26843125D01*
X10036384Y-26805665D01*
X10014153Y-26766117D01*
X9999850Y-26733894D01*
X9983413Y-26683812D01*
X9972712Y-26632634D01*
X9967693Y-26580850D01*
X9968305Y-26528949D01*
X9974495Y-26477419D01*
X9986210Y-26426750D01*
X10003399Y-26377430D01*
X10026008Y-26329949D01*
X10046799Y-26295372D01*
X10058611Y-26279324D01*
X10074027Y-26261088D01*
X10091838Y-26241882D01*
X10110830Y-26222922D01*
X10129794Y-26205425D01*
X10147518Y-26190610D01*
X10160394Y-26181237D01*
X10197289Y-26159431D01*
X10237914Y-26139998D01*
X10280190Y-26123813D01*
X10322037Y-26111750D01*
X10329908Y-26109965D01*
X10349604Y-26106877D01*
X10373483Y-26104962D01*
X10399847Y-26104208D01*
X10426998Y-26104600D01*
X10453237Y-26106127D01*
X10476865Y-26108774D01*
X10490614Y-26111216D01*
X10522263Y-26118843D01*
X10550695Y-26127682D01*
X10578625Y-26138673D01*
X10604429Y-26150619D01*
X10649360Y-26175817D01*
X10690775Y-26205629D01*
X10728336Y-26239675D01*
X10761705Y-26277577D01*
X10790542Y-26318953D01*
X10814508Y-26363425D01*
X10831282Y-26404766D01*
X10845707Y-26455364D01*
X10854300Y-26506979D01*
X10857058Y-26559205D01*
X10853976Y-26611637D01*
X10845053Y-26663870D01*
X10833508Y-26705859D01*
X10829823Y-26715562D01*
X10823965Y-26729012D01*
X10816632Y-26744684D01*
X10808523Y-26761056D01*
X10805270Y-26767364D01*
X10795498Y-26785980D01*
X10788213Y-26800106D01*
X10783294Y-26810658D01*
X10780622Y-26818549D01*
X10780075Y-26824694D01*
X10781533Y-26830008D01*
X10784876Y-26835406D01*
X10789984Y-26841801D01*
X10794705Y-26847562D01*
X10806465Y-26861560D01*
X10820638Y-26877296D01*
X10837670Y-26895230D01*
X10858007Y-26915824D01*
X10882096Y-26939542D01*
X10902953Y-26959716D01*
X10919580Y-26975964D01*
X10938386Y-26994769D01*
X10957515Y-27014249D01*
X10975108Y-27032522D01*
X10982459Y-27040307D01*
X10999892Y-27058421D01*
X11016223Y-27074424D01*
X11030907Y-27087842D01*
X11043397Y-27098201D01*
X11053147Y-27105026D01*
X11059612Y-27107843D01*
X11060244Y-27107890D01*
X11063936Y-27105991D01*
X11070824Y-27100898D01*
X11079724Y-27093519D01*
X11084688Y-27089139D01*
X11109694Y-27069008D01*
X11139631Y-27048958D01*
X11173450Y-27029560D01*
X11210101Y-27011385D01*
X11248535Y-26995006D01*
X11276275Y-26984799D01*
X11301561Y-26975811D01*
X11321963Y-26967810D01*
X11338426Y-26960355D01*
X11351894Y-26953006D01*
X11363312Y-26945321D01*
X11367050Y-26942430D01*
X11385646Y-26924049D01*
X11402193Y-26900582D01*
X11416376Y-26872688D01*
X11427878Y-26841025D01*
X11436384Y-26806253D01*
X11438688Y-26792866D01*
X11439575Y-26786188D01*
X11440319Y-26778375D01*
X11440925Y-26768957D01*
X11441397Y-26757467D01*
X11441742Y-26743435D01*
X11441964Y-26726392D01*
X11442069Y-26705871D01*
X11442063Y-26681401D01*
X11441949Y-26652515D01*
X11441735Y-26618743D01*
X11441425Y-26579618D01*
X11441283Y-26563347D01*
X11440938Y-26528670D01*
X11440533Y-26495395D01*
X11440078Y-26464067D01*
X11439586Y-26435234D01*
X11439068Y-26409441D01*
X11438534Y-26387234D01*
X11437997Y-26369158D01*
X11437468Y-26355760D01*
X11436958Y-26347585D01*
X11436750Y-26345830D01*
X11433819Y-26333980D01*
X11429082Y-26320364D01*
X11424921Y-26310812D01*
X11418076Y-26299042D01*
X11409696Y-26289433D01*
X11398794Y-26281320D01*
X11384384Y-26274038D01*
X11365479Y-26266920D01*
X11354742Y-26263436D01*
X11310886Y-26246680D01*
X11269664Y-26224659D01*
X11230883Y-26197252D01*
X11194354Y-26164338D01*
X11188821Y-26158672D01*
X11157613Y-26122760D01*
X11131659Y-26085223D01*
X11110480Y-26045186D01*
X11093596Y-26001777D01*
X11083420Y-25966300D01*
X11075332Y-25924314D01*
X11071099Y-25879912D01*
X11070672Y-25834532D01*
X11074006Y-25789613D01*
X11081052Y-25746592D01*
X11091766Y-25706906D01*
X11091875Y-25706578D01*
X11100225Y-25683925D01*
X11109903Y-25662412D01*
X11121737Y-25640423D01*
X11136555Y-25616340D01*
X11143380Y-25605943D01*
X11172686Y-25567271D01*
X11206295Y-25532667D01*
X11243946Y-25502297D01*
X11285385Y-25476328D01*
X11330352Y-25454926D01*
X11378591Y-25438258D01*
X11417602Y-25428793D01*
X11438012Y-25425791D01*
X11462643Y-25423895D01*
X11489822Y-25423092D01*
X11517875Y-25423366D01*
G37*
%TO.C,R1*%
D13*
X15477936Y-7240000D02*
X15932064Y-7240000D01*
X15477936Y-8710000D02*
X15932064Y-8710000D01*
%TO.C,C7*%
X46387500Y-13727500D02*
X47175000Y-13727500D01*
X46781250Y-13333750D02*
X46781250Y-14121250D01*
X47415000Y-13229437D02*
X47415000Y-14515000D01*
X47415000Y-13229437D02*
X48479437Y-12165000D01*
X47415000Y-17920563D02*
X47415000Y-16635000D01*
X47415000Y-17920563D02*
X48479437Y-18985000D01*
X48479437Y-12165000D02*
X54235000Y-12165000D01*
X48479437Y-18985000D02*
X54235000Y-18985000D01*
X54235000Y-12165000D02*
X54235000Y-14515000D01*
X54235000Y-18985000D02*
X54235000Y-16635000D01*
%TO.C,R6*%
X47477936Y-24240000D02*
X47932064Y-24240000D01*
X47477936Y-25710000D02*
X47932064Y-25710000D01*
%TO.C,J2*%
X28905000Y-1405000D02*
X39645000Y-1405000D01*
X28905000Y-7625000D02*
X39645000Y-7625000D01*
X28905000Y-8725000D02*
X39645000Y-8725000D01*
X28905000Y-9245000D02*
X28905000Y-1405000D01*
X30475000Y-9245000D02*
X28905000Y-9245000D01*
X39645000Y-1405000D02*
X39645000Y-9245000D01*
X39645000Y-9245000D02*
X31075000Y-9245000D01*
X30775000Y-9245000D02*
X31215000Y-9855000D01*
X30335000Y-9855000D01*
X30775000Y-9245000D01*
G36*
X31215000Y-9855000D02*
G01*
X30335000Y-9855000D01*
X30775000Y-9245000D01*
X31215000Y-9855000D01*
G37*
%TO.C,J3*%
X50905000Y-1405000D02*
X58145000Y-1405000D01*
X50905000Y-7625000D02*
X58145000Y-7625000D01*
X50905000Y-8725000D02*
X58145000Y-8725000D01*
X50905000Y-9245000D02*
X50905000Y-1405000D01*
X52475000Y-9245000D02*
X50905000Y-9245000D01*
X58145000Y-1405000D02*
X58145000Y-9245000D01*
X58145000Y-9245000D02*
X53075000Y-9245000D01*
X52775000Y-9245000D02*
X53215000Y-9855000D01*
X52335000Y-9855000D01*
X52775000Y-9245000D01*
G36*
X53215000Y-9855000D02*
G01*
X52335000Y-9855000D01*
X52775000Y-9245000D01*
X53215000Y-9855000D01*
G37*
%TO.C,J1*%
X41905000Y-1405000D02*
X49145000Y-1405000D01*
X41905000Y-7625000D02*
X49145000Y-7625000D01*
X41905000Y-8725000D02*
X49145000Y-8725000D01*
X41905000Y-9245000D02*
X41905000Y-1405000D01*
X43475000Y-9245000D02*
X41905000Y-9245000D01*
X49145000Y-1405000D02*
X49145000Y-9245000D01*
X49145000Y-9245000D02*
X44075000Y-9245000D01*
X43775000Y-9245000D02*
X44215000Y-9855000D01*
X43335000Y-9855000D01*
X43775000Y-9245000D01*
G36*
X44215000Y-9855000D02*
G01*
X43335000Y-9855000D01*
X43775000Y-9245000D01*
X44215000Y-9855000D01*
G37*
%TO.C,C6*%
X38463748Y-24270000D02*
X38986252Y-24270000D01*
X38463748Y-25740000D02*
X38986252Y-25740000D01*
%TO.C,D3*%
X18060000Y-24060000D02*
X18060000Y-25980000D01*
X18060000Y-25980000D02*
X20745000Y-25980000D01*
X20745000Y-24060000D02*
X18060000Y-24060000D01*
%TO.C,R5*%
X47477936Y-20240000D02*
X47932064Y-20240000D01*
X47477936Y-21710000D02*
X47932064Y-21710000D01*
%TO.C,F1*%
X18588748Y-19265000D02*
X21361252Y-19265000D01*
X18588748Y-22685000D02*
X21361252Y-22685000D01*
%TO.C,K1*%
X2060000Y-1060000D02*
X3660000Y-1060000D01*
X2060000Y-3060000D02*
X2060000Y-1060000D01*
X2260000Y-1260000D02*
X12460000Y-1260000D01*
X2260000Y-17360000D02*
X2260000Y-1260000D01*
X3560000Y-4260000D02*
X3560000Y-5060000D01*
X3960000Y-4660000D02*
X3160000Y-4660000D01*
X4576000Y-6997000D02*
X5846000Y-6997000D01*
X4576000Y-10934000D02*
X4576000Y-6997000D01*
X4703000Y-8394000D02*
X5846000Y-9537000D01*
X5211000Y-3060000D02*
X4830000Y-3060000D01*
X5211000Y-6870000D02*
X5211000Y-3060000D01*
X5211000Y-10934000D02*
X5211000Y-15633000D01*
X5211000Y-15633000D02*
X4957000Y-15633000D01*
X5846000Y-6997000D02*
X5846000Y-10934000D01*
X5846000Y-10934000D02*
X4576000Y-10934000D01*
X12460000Y-1260000D02*
X12460000Y-17360000D01*
X12460000Y-17360000D02*
X2260000Y-17360000D01*
%TO.C,R2*%
X15477936Y-10240000D02*
X15932064Y-10240000D01*
X15477936Y-11710000D02*
X15932064Y-11710000D01*
%TO.C,M1*%
D10*
X4075000Y-34345000D02*
X5345000Y-33075000D01*
X4075000Y-50220000D02*
X7885000Y-50220000D01*
X4075000Y-57205000D02*
X4075000Y-34345000D01*
X5345000Y-33075000D02*
X6615000Y-33075000D01*
X5345000Y-35615000D02*
X10425000Y-35615000D01*
X5345000Y-38790000D02*
X5345000Y-35615000D01*
X5345000Y-52760000D02*
X10425000Y-52760000D01*
X5345000Y-55935000D02*
X5345000Y-52760000D01*
X5345000Y-58475000D02*
X4075000Y-57205000D01*
X6615000Y-58475000D02*
X5345000Y-58475000D01*
X7885000Y-41330000D02*
X4075000Y-41330000D01*
X7885000Y-41330000D02*
X10425000Y-41330000D01*
X10425000Y-35615000D02*
X10425000Y-38790000D01*
X10425000Y-38790000D02*
X5345000Y-38790000D01*
X10425000Y-41330000D02*
X10425000Y-50220000D01*
X10425000Y-50220000D02*
X4075000Y-50220000D01*
X10425000Y-52760000D02*
X10425000Y-55935000D01*
X10425000Y-55935000D02*
X5345000Y-55935000D01*
X19315000Y-35615000D02*
X52970000Y-35615000D01*
X19315000Y-55935000D02*
X19315000Y-35615000D01*
X51065000Y-58475000D02*
X6615000Y-58475000D01*
X52335000Y-33075000D02*
X6615000Y-33075000D01*
X52970000Y-35615000D02*
X52970000Y-55935000D01*
X52970000Y-55935000D02*
X19315000Y-55935000D01*
X56145000Y-33075000D02*
X52335000Y-33075000D01*
X56145000Y-33075000D02*
X56145000Y-58475000D01*
X56145000Y-58475000D02*
X51065000Y-58475000D01*
X9274923Y-37139000D02*
G75*
G02*
X7003077Y-37139000I-1135923J0D01*
G01*
X7003077Y-37139000D02*
G75*
G02*
X9274923Y-37139000I1135923J0D01*
G01*
X9274923Y-54411000D02*
G75*
G02*
X7003077Y-54411000I-1135923J0D01*
G01*
X7003077Y-54411000D02*
G75*
G02*
X9274923Y-54411000I1135923J0D01*
G01*
X55138026Y-35615000D02*
G75*
G02*
X53341974Y-35615000I-898026J0D01*
G01*
X53341974Y-35615000D02*
G75*
G02*
X55138026Y-35615000I898026J0D01*
G01*
X55138026Y-55935000D02*
G75*
G02*
X53341974Y-55935000I-898026J0D01*
G01*
X53341974Y-55935000D02*
G75*
G02*
X55138026Y-55935000I898026J0D01*
G01*
X55773026Y-45775000D02*
G75*
G02*
X53976974Y-45775000I-898026J0D01*
G01*
X53976974Y-45775000D02*
G75*
G02*
X55773026Y-45775000I898026J0D01*
G01*
%TO.C,C4*%
D13*
X25887500Y-13727500D02*
X26675000Y-13727500D01*
X26281250Y-13333750D02*
X26281250Y-14121250D01*
X26915000Y-13229437D02*
X26915000Y-14515000D01*
X26915000Y-13229437D02*
X27979437Y-12165000D01*
X26915000Y-17920563D02*
X26915000Y-16635000D01*
X26915000Y-17920563D02*
X27979437Y-18985000D01*
X27979437Y-12165000D02*
X33735000Y-12165000D01*
X27979437Y-18985000D02*
X33735000Y-18985000D01*
X33735000Y-12165000D02*
X33735000Y-14515000D01*
X33735000Y-18985000D02*
X33735000Y-16635000D01*
%TO.C,BR1*%
X23140000Y-12340000D02*
X17840000Y-12340000D01*
X23140000Y-17550000D02*
X18540000Y-17550000D01*
X17340000Y-12340000D02*
X17060000Y-12340000D01*
X17340000Y-12060000D01*
X17340000Y-12340000D01*
G36*
X17340000Y-12340000D02*
G01*
X17060000Y-12340000D01*
X17340000Y-12060000D01*
X17340000Y-12340000D01*
G37*
%TO.C,U2*%
X38165000Y-12340000D02*
X39985000Y-12340000D01*
X38165000Y-12390000D02*
X38165000Y-12340000D01*
X38165000Y-15460000D02*
X38165000Y-15410000D01*
X39985000Y-12340000D02*
X39985000Y-12390000D01*
X39985000Y-15410000D02*
X39985000Y-15460000D01*
X39985000Y-15460000D02*
X38165000Y-15460000D01*
X37625000Y-12390000D02*
X37385000Y-12060000D01*
X37865000Y-12060000D01*
X37625000Y-12390000D01*
G36*
X37625000Y-12390000D02*
G01*
X37385000Y-12060000D01*
X37865000Y-12060000D01*
X37625000Y-12390000D01*
G37*
%TO.C,R7*%
X9477936Y-23240000D02*
X9932064Y-23240000D01*
X9477936Y-24710000D02*
X9932064Y-24710000D01*
%TO.C,Q1*%
X15195000Y-2165000D02*
X16715000Y-2165000D01*
X15195000Y-2215000D02*
X15195000Y-2165000D01*
X15195000Y-4115000D02*
X15195000Y-3335000D01*
X15195000Y-5285000D02*
X15195000Y-5235000D01*
X16715000Y-2165000D02*
X16715000Y-3165000D01*
X16715000Y-4285000D02*
X16715000Y-5285000D01*
X16715000Y-5285000D02*
X15195000Y-5285000D01*
X14655000Y-3345000D02*
X14895000Y-3675000D01*
X14415000Y-3675000D01*
X14655000Y-3345000D01*
G36*
X14895000Y-3675000D02*
G01*
X14415000Y-3675000D01*
X14655000Y-3345000D01*
X14895000Y-3675000D01*
G37*
%TO.C,D1*%
X2060000Y-19675000D02*
X2060000Y-21675000D01*
X2060000Y-19675000D02*
X6070000Y-19675000D01*
X2060000Y-21675000D02*
X6070000Y-21675000D01*
%TO.C,D4*%
X8060000Y-19560000D02*
X8060000Y-21480000D01*
X8060000Y-21480000D02*
X10745000Y-21480000D01*
X10745000Y-19560000D02*
X8060000Y-19560000D01*
%TD*%
%LPC*%
D15*
%TO.C,C1*%
X54775000Y-21005000D03*
X56675000Y-21005000D03*
%TD*%
%TO.C,C2*%
X54775000Y-25005000D03*
X56675000Y-25005000D03*
%TD*%
%TO.C,C5*%
X26275000Y-21005000D03*
X28175000Y-21005000D03*
%TD*%
D16*
%TO.C,R4*%
X18792500Y-27975000D03*
X20617500Y-27975000D03*
%TD*%
D17*
%TO.C,L1*%
X38025000Y-20425000D03*
X43525000Y-20425000D03*
%TD*%
D16*
%TO.C,R1*%
X14792500Y-7975000D03*
X16617500Y-7975000D03*
%TD*%
D18*
%TO.C,C7*%
X48025000Y-15575000D03*
X53625000Y-15575000D03*
%TD*%
D16*
%TO.C,R6*%
X46792500Y-24975000D03*
X48617500Y-24975000D03*
%TD*%
D19*
%TO.C,J2*%
X30775000Y-4625000D03*
D20*
X34275000Y-4625000D03*
X37775000Y-4625000D03*
%TD*%
D19*
%TO.C,J3*%
X52775000Y-4625000D03*
D20*
X56275000Y-4625000D03*
%TD*%
D19*
%TO.C,J1*%
X43775000Y-4625000D03*
D20*
X47275000Y-4625000D03*
%TD*%
D15*
%TO.C,C6*%
X37775000Y-25005000D03*
X39675000Y-25005000D03*
%TD*%
D21*
%TO.C,D3*%
X18807500Y-25020000D03*
X20682500Y-25020000D03*
%TD*%
D16*
%TO.C,R5*%
X46792500Y-20975000D03*
X48617500Y-20975000D03*
%TD*%
D22*
%TO.C,F1*%
X17837500Y-20975000D03*
X22112500Y-20975000D03*
%TD*%
D23*
%TO.C,K1*%
X3560000Y-3060000D03*
D24*
X3560000Y-15760000D03*
X11180000Y-15760000D03*
X11180000Y-8140000D03*
X11180000Y-3060000D03*
%TD*%
D16*
%TO.C,R2*%
X14792500Y-10975000D03*
X16617500Y-10975000D03*
%TD*%
D25*
%TO.C,M1*%
X54240000Y-35615000D03*
X54240000Y-55935000D03*
X23125000Y-57205000D03*
X25665000Y-57205000D03*
X28205000Y-57205000D03*
X30745000Y-57205000D03*
X33285000Y-57205000D03*
X35825000Y-57205000D03*
X38365000Y-57205000D03*
X40905000Y-57205000D03*
X43445000Y-57205000D03*
X45985000Y-57205000D03*
X48525000Y-57205000D03*
X51065000Y-57205000D03*
X51065000Y-34345000D03*
X48525000Y-34345000D03*
X45985000Y-34345000D03*
X43445000Y-34345000D03*
X40905000Y-34345000D03*
X38365000Y-34345000D03*
X35825000Y-34345000D03*
X33285000Y-34345000D03*
X30745000Y-34345000D03*
X28205000Y-34345000D03*
X25665000Y-34345000D03*
X23125000Y-34345000D03*
%TD*%
D18*
%TO.C,C4*%
X27525000Y-15575000D03*
X33125000Y-15575000D03*
%TD*%
D26*
%TO.C,BR1*%
X17865000Y-12950000D03*
X17865000Y-16950000D03*
X23815000Y-16950000D03*
X23815000Y-12950000D03*
%TD*%
D27*
%TO.C,U2*%
X37937500Y-12950000D03*
X37937500Y-13900000D03*
X37937500Y-14850000D03*
X40212500Y-14850000D03*
X40212500Y-13900000D03*
X40212500Y-12950000D03*
%TD*%
D16*
%TO.C,R7*%
X8792500Y-23975000D03*
X10617500Y-23975000D03*
%TD*%
D28*
%TO.C,Q1*%
X15017500Y-2775000D03*
X15017500Y-4675000D03*
X16892500Y-3725000D03*
%TD*%
D29*
%TO.C,D1*%
X2770000Y-20675000D03*
X6070000Y-20675000D03*
%TD*%
D21*
%TO.C,D4*%
X8807500Y-20520000D03*
X10682500Y-20520000D03*
%TD*%
%LPD*%
M02*
