%TF.GenerationSoftware,KiCad,Pcbnew,10.0.4*%
%TF.CreationDate,2026-07-29T20:09:02+01:00*%
%TF.ProjectId,ISLKey-Mini,49534c4b-6579-42d4-9d69-6e692e6b6963,rev?*%
%TF.SameCoordinates,Original*%
%TF.FileFunction,Paste,Top*%
%TF.FilePolarity,Positive*%
%FSLAX46Y46*%
G04 Gerber Fmt 4.6, Leading zero omitted, Abs format (unit mm)*
G04 Created by KiCad (PCBNEW 10.0.4) date 2026-07-29 20:09:02*
%MOMM*%
%LPD*%
G01*
G04 APERTURE LIST*
G04 Aperture macros list*
%AMRoundRect*
0 Rectangle with rounded corners*
0 $1 Rounding radius*
0 $2 $3 $4 $5 $6 $7 $8 $9 X,Y pos of 4 corners*
0 Add a 4 corners polygon primitive as box body*
4,1,4,$2,$3,$4,$5,$6,$7,$8,$9,$2,$3,0*
0 Add four circle primitives for the rounded corners*
1,1,$1+$1,$2,$3*
1,1,$1+$1,$4,$5*
1,1,$1+$1,$6,$7*
1,1,$1+$1,$8,$9*
0 Add four rect primitives between the rounded corners*
20,1,$1+$1,$2,$3,$4,$5,0*
20,1,$1+$1,$4,$5,$6,$7,0*
20,1,$1+$1,$6,$7,$8,$9,0*
20,1,$1+$1,$8,$9,$2,$3,0*%
G04 Aperture macros list end*
%ADD10RoundRect,0.250000X-0.250000X-0.475000X0.250000X-0.475000X0.250000X0.475000X-0.250000X0.475000X0*%
%ADD11RoundRect,0.250000X-0.262500X-0.450000X0.262500X-0.450000X0.262500X0.450000X-0.262500X0.450000X0*%
%ADD12R,1.500000X2.400000*%
%ADD13RoundRect,0.250000X-1.500000X-0.550000X1.500000X-0.550000X1.500000X0.550000X-1.500000X0.550000X0*%
%ADD14RoundRect,0.243750X-0.243750X-0.456250X0.243750X-0.456250X0.243750X0.456250X-0.243750X0.456250X0*%
%ADD15RoundRect,0.250000X-0.312500X-1.450000X0.312500X-1.450000X0.312500X1.450000X-0.312500X1.450000X0*%
%ADD16R,1.000000X0.700000*%
%ADD17RoundRect,0.150000X-0.512500X-0.150000X0.512500X-0.150000X0.512500X0.150000X-0.512500X0.150000X0*%
%ADD18RoundRect,0.150000X-0.587500X-0.150000X0.587500X-0.150000X0.587500X0.150000X-0.587500X0.150000X0*%
%ADD19RoundRect,0.225000X-0.225000X-0.375000X0.225000X-0.375000X0.225000X0.375000X-0.225000X0.375000X0*%
G04 APERTURE END LIST*
D10*
%TO.C,C1*%
X54775000Y-21005000D03*
X56675000Y-21005000D03*
%TD*%
%TO.C,C2*%
X54775000Y-25005000D03*
X56675000Y-25005000D03*
%TD*%
%TO.C,C5*%
X26275000Y-21005000D03*
X28175000Y-21005000D03*
%TD*%
D11*
%TO.C,R4*%
X18792500Y-27975000D03*
X20617500Y-27975000D03*
%TD*%
D12*
%TO.C,L1*%
X38025000Y-20425000D03*
X43525000Y-20425000D03*
%TD*%
D11*
%TO.C,R1*%
X14792500Y-7975000D03*
X16617500Y-7975000D03*
%TD*%
D13*
%TO.C,C7*%
X48025000Y-15575000D03*
X53625000Y-15575000D03*
%TD*%
D11*
%TO.C,R6*%
X46792500Y-24975000D03*
X48617500Y-24975000D03*
%TD*%
D10*
%TO.C,C6*%
X37775000Y-25005000D03*
X39675000Y-25005000D03*
%TD*%
D14*
%TO.C,D3*%
X18807500Y-25020000D03*
X20682500Y-25020000D03*
%TD*%
D11*
%TO.C,R5*%
X46792500Y-20975000D03*
X48617500Y-20975000D03*
%TD*%
D15*
%TO.C,F1*%
X17837500Y-20975000D03*
X22112500Y-20975000D03*
%TD*%
D11*
%TO.C,R2*%
X14792500Y-10975000D03*
X16617500Y-10975000D03*
%TD*%
D13*
%TO.C,C4*%
X27525000Y-15575000D03*
X33125000Y-15575000D03*
%TD*%
D16*
%TO.C,BR1*%
X17865000Y-12950000D03*
X17865000Y-16950000D03*
X23815000Y-16950000D03*
X23815000Y-12950000D03*
%TD*%
D17*
%TO.C,U2*%
X37937500Y-12950000D03*
X37937500Y-13900000D03*
X37937500Y-14850000D03*
X40212500Y-14850000D03*
X40212500Y-13900000D03*
X40212500Y-12950000D03*
%TD*%
D11*
%TO.C,R7*%
X8792500Y-23975000D03*
X10617500Y-23975000D03*
%TD*%
D18*
%TO.C,Q1*%
X15017500Y-2775000D03*
X15017500Y-4675000D03*
X16892500Y-3725000D03*
%TD*%
D19*
%TO.C,D1*%
X2770000Y-20675000D03*
X6070000Y-20675000D03*
%TD*%
D14*
%TO.C,D4*%
X8807500Y-20520000D03*
X10682500Y-20520000D03*
%TD*%
M02*
