%TF.GenerationSoftware,KiCad,Pcbnew,10.0.4*%
%TF.CreationDate,2026-07-30T00:06:10+01:00*%
%TF.ProjectId,ISLKey-Mini,49534c4b-6579-42d4-9d69-6e692e6b6963,rev?*%
%TF.SameCoordinates,Original*%
%TF.FileFunction,Legend,Bot*%
%TF.FilePolarity,Positive*%
%FSLAX46Y46*%
G04 Gerber Fmt 4.6, Leading zero omitted, Abs format (unit mm)*
G04 Created by KiCad (PCBNEW 10.0.4) date 2026-07-30 00:06:10*
%MOMM*%
%LPD*%
G01*
G04 APERTURE LIST*
G04 Aperture macros list*
%AMRoundRect*
0 Rectangle with rounded corners*
0 $1 Rounding radius*
0 $2 $3 $4 $5 $6 $7 $8 $9 X,Y pos of 4 corners*
0 Add a 4 corners polygon primitive as box body*
4,1,4,$2,$3,$4,$5,$6,$7,$8,$9,$2,$3,0*
0 Add four circle primitives for the rounded corners*
1,1,$1+$1,$2,$3*
1,1,$1+$1,$4,$5*
1,1,$1+$1,$6,$7*
1,1,$1+$1,$8,$9*
0 Add four rect primitives between the rounded corners*
20,1,$1+$1,$2,$3,$4,$5,0*
20,1,$1+$1,$4,$5,$6,$7,0*
20,1,$1+$1,$6,$7,$8,$9,0*
20,1,$1+$1,$8,$9,$2,$3,0*%
G04 Aperture macros list end*
%ADD10C,0.300000*%
%ADD11RoundRect,0.250001X-0.949999X-0.949999X0.949999X-0.949999X0.949999X0.949999X-0.949999X0.949999X0*%
%ADD12C,2.400000*%
%ADD13R,1.501140X1.501140*%
%ADD14C,1.501140*%
%ADD15C,1.524000*%
G04 APERTURE END LIST*
D10*
X53516917Y-51872257D02*
X52802632Y-51872257D01*
X53659774Y-52300828D02*
X53159774Y-50800828D01*
X53159774Y-50800828D02*
X52659774Y-52300828D01*
X51231203Y-50800828D02*
X50374061Y-50800828D01*
X50802632Y-52300828D02*
X50802632Y-50800828D01*
X49874061Y-52300828D02*
X49874061Y-50800828D01*
X49874061Y-51515114D02*
X49016918Y-51515114D01*
X49016918Y-52300828D02*
X49016918Y-50800828D01*
X48302632Y-51515114D02*
X47802632Y-51515114D01*
X47588346Y-52300828D02*
X48302632Y-52300828D01*
X48302632Y-52300828D02*
X48302632Y-50800828D01*
X48302632Y-50800828D02*
X47588346Y-50800828D01*
X45874060Y-52229400D02*
X45659775Y-52300828D01*
X45659775Y-52300828D02*
X45302632Y-52300828D01*
X45302632Y-52300828D02*
X45159775Y-52229400D01*
X45159775Y-52229400D02*
X45088346Y-52157971D01*
X45088346Y-52157971D02*
X45016917Y-52015114D01*
X45016917Y-52015114D02*
X45016917Y-51872257D01*
X45016917Y-51872257D02*
X45088346Y-51729400D01*
X45088346Y-51729400D02*
X45159775Y-51657971D01*
X45159775Y-51657971D02*
X45302632Y-51586542D01*
X45302632Y-51586542D02*
X45588346Y-51515114D01*
X45588346Y-51515114D02*
X45731203Y-51443685D01*
X45731203Y-51443685D02*
X45802632Y-51372257D01*
X45802632Y-51372257D02*
X45874060Y-51229400D01*
X45874060Y-51229400D02*
X45874060Y-51086542D01*
X45874060Y-51086542D02*
X45802632Y-50943685D01*
X45802632Y-50943685D02*
X45731203Y-50872257D01*
X45731203Y-50872257D02*
X45588346Y-50800828D01*
X45588346Y-50800828D02*
X45231203Y-50800828D01*
X45231203Y-50800828D02*
X45016917Y-50872257D01*
X44445489Y-51872257D02*
X43731204Y-51872257D01*
X44588346Y-52300828D02*
X44088346Y-50800828D01*
X44088346Y-50800828D02*
X43588346Y-52300828D01*
X43088347Y-52300828D02*
X43088347Y-50800828D01*
X43088347Y-50800828D02*
X42516918Y-50800828D01*
X42516918Y-50800828D02*
X42374061Y-50872257D01*
X42374061Y-50872257D02*
X42302632Y-50943685D01*
X42302632Y-50943685D02*
X42231204Y-51086542D01*
X42231204Y-51086542D02*
X42231204Y-51300828D01*
X42231204Y-51300828D02*
X42302632Y-51443685D01*
X42302632Y-51443685D02*
X42374061Y-51515114D01*
X42374061Y-51515114D02*
X42516918Y-51586542D01*
X42516918Y-51586542D02*
X43088347Y-51586542D01*
X41588347Y-52300828D02*
X41588347Y-50800828D01*
X41588347Y-50800828D02*
X41016918Y-50800828D01*
X41016918Y-50800828D02*
X40874061Y-50872257D01*
X40874061Y-50872257D02*
X40802632Y-50943685D01*
X40802632Y-50943685D02*
X40731204Y-51086542D01*
X40731204Y-51086542D02*
X40731204Y-51300828D01*
X40731204Y-51300828D02*
X40802632Y-51443685D01*
X40802632Y-51443685D02*
X40874061Y-51515114D01*
X40874061Y-51515114D02*
X41016918Y-51586542D01*
X41016918Y-51586542D02*
X41588347Y-51586542D01*
X40088347Y-52300828D02*
X40088347Y-50800828D01*
X40088347Y-51515114D02*
X39231204Y-51515114D01*
X39231204Y-52300828D02*
X39231204Y-50800828D01*
X38516918Y-52300828D02*
X38516918Y-50800828D01*
X36945489Y-52300828D02*
X37445489Y-51586542D01*
X37802632Y-52300828D02*
X37802632Y-50800828D01*
X37802632Y-50800828D02*
X37231203Y-50800828D01*
X37231203Y-50800828D02*
X37088346Y-50872257D01*
X37088346Y-50872257D02*
X37016917Y-50943685D01*
X37016917Y-50943685D02*
X36945489Y-51086542D01*
X36945489Y-51086542D02*
X36945489Y-51300828D01*
X36945489Y-51300828D02*
X37016917Y-51443685D01*
X37016917Y-51443685D02*
X37088346Y-51515114D01*
X37088346Y-51515114D02*
X37231203Y-51586542D01*
X37231203Y-51586542D02*
X37802632Y-51586542D01*
X36302632Y-51515114D02*
X35802632Y-51515114D01*
X35588346Y-52300828D02*
X36302632Y-52300828D01*
X36302632Y-52300828D02*
X36302632Y-50800828D01*
X36302632Y-50800828D02*
X35588346Y-50800828D01*
X33802632Y-52300828D02*
X33802632Y-50800828D01*
X33802632Y-50800828D02*
X33302632Y-51872257D01*
X33302632Y-51872257D02*
X32802632Y-50800828D01*
X32802632Y-50800828D02*
X32802632Y-52300828D01*
X32159774Y-51872257D02*
X31445489Y-51872257D01*
X32302631Y-52300828D02*
X31802631Y-50800828D01*
X31802631Y-50800828D02*
X31302631Y-52300828D01*
X29945489Y-52300828D02*
X30445489Y-51586542D01*
X30802632Y-52300828D02*
X30802632Y-50800828D01*
X30802632Y-50800828D02*
X30231203Y-50800828D01*
X30231203Y-50800828D02*
X30088346Y-50872257D01*
X30088346Y-50872257D02*
X30016917Y-50943685D01*
X30016917Y-50943685D02*
X29945489Y-51086542D01*
X29945489Y-51086542D02*
X29945489Y-51300828D01*
X29945489Y-51300828D02*
X30016917Y-51443685D01*
X30016917Y-51443685D02*
X30088346Y-51515114D01*
X30088346Y-51515114D02*
X30231203Y-51586542D01*
X30231203Y-51586542D02*
X30802632Y-51586542D01*
X28445489Y-52157971D02*
X28516917Y-52229400D01*
X28516917Y-52229400D02*
X28731203Y-52300828D01*
X28731203Y-52300828D02*
X28874060Y-52300828D01*
X28874060Y-52300828D02*
X29088346Y-52229400D01*
X29088346Y-52229400D02*
X29231203Y-52086542D01*
X29231203Y-52086542D02*
X29302632Y-51943685D01*
X29302632Y-51943685D02*
X29374060Y-51657971D01*
X29374060Y-51657971D02*
X29374060Y-51443685D01*
X29374060Y-51443685D02*
X29302632Y-51157971D01*
X29302632Y-51157971D02*
X29231203Y-51015114D01*
X29231203Y-51015114D02*
X29088346Y-50872257D01*
X29088346Y-50872257D02*
X28874060Y-50800828D01*
X28874060Y-50800828D02*
X28731203Y-50800828D01*
X28731203Y-50800828D02*
X28516917Y-50872257D01*
X28516917Y-50872257D02*
X28445489Y-50943685D01*
X27802632Y-51515114D02*
X27302632Y-51515114D01*
X27088346Y-52300828D02*
X27802632Y-52300828D01*
X27802632Y-52300828D02*
X27802632Y-50800828D01*
X27802632Y-50800828D02*
X27088346Y-50800828D01*
X25731203Y-52300828D02*
X26445489Y-52300828D01*
X26445489Y-52300828D02*
X26445489Y-50800828D01*
X23302631Y-50872257D02*
X23445489Y-50800828D01*
X23445489Y-50800828D02*
X23659774Y-50800828D01*
X23659774Y-50800828D02*
X23874060Y-50872257D01*
X23874060Y-50872257D02*
X24016917Y-51015114D01*
X24016917Y-51015114D02*
X24088346Y-51157971D01*
X24088346Y-51157971D02*
X24159774Y-51443685D01*
X24159774Y-51443685D02*
X24159774Y-51657971D01*
X24159774Y-51657971D02*
X24088346Y-51943685D01*
X24088346Y-51943685D02*
X24016917Y-52086542D01*
X24016917Y-52086542D02*
X23874060Y-52229400D01*
X23874060Y-52229400D02*
X23659774Y-52300828D01*
X23659774Y-52300828D02*
X23516917Y-52300828D01*
X23516917Y-52300828D02*
X23302631Y-52229400D01*
X23302631Y-52229400D02*
X23231203Y-52157971D01*
X23231203Y-52157971D02*
X23231203Y-51657971D01*
X23231203Y-51657971D02*
X23516917Y-51657971D01*
X21731203Y-52300828D02*
X22231203Y-51586542D01*
X22588346Y-52300828D02*
X22588346Y-50800828D01*
X22588346Y-50800828D02*
X22016917Y-50800828D01*
X22016917Y-50800828D02*
X21874060Y-50872257D01*
X21874060Y-50872257D02*
X21802631Y-50943685D01*
X21802631Y-50943685D02*
X21731203Y-51086542D01*
X21731203Y-51086542D02*
X21731203Y-51300828D01*
X21731203Y-51300828D02*
X21802631Y-51443685D01*
X21802631Y-51443685D02*
X21874060Y-51515114D01*
X21874060Y-51515114D02*
X22016917Y-51586542D01*
X22016917Y-51586542D02*
X22588346Y-51586542D01*
X20802631Y-50800828D02*
X20516917Y-50800828D01*
X20516917Y-50800828D02*
X20374060Y-50872257D01*
X20374060Y-50872257D02*
X20231203Y-51015114D01*
X20231203Y-51015114D02*
X20159774Y-51300828D01*
X20159774Y-51300828D02*
X20159774Y-51800828D01*
X20159774Y-51800828D02*
X20231203Y-52086542D01*
X20231203Y-52086542D02*
X20374060Y-52229400D01*
X20374060Y-52229400D02*
X20516917Y-52300828D01*
X20516917Y-52300828D02*
X20802631Y-52300828D01*
X20802631Y-52300828D02*
X20945489Y-52229400D01*
X20945489Y-52229400D02*
X21088346Y-52086542D01*
X21088346Y-52086542D02*
X21159774Y-51800828D01*
X21159774Y-51800828D02*
X21159774Y-51300828D01*
X21159774Y-51300828D02*
X21088346Y-51015114D01*
X21088346Y-51015114D02*
X20945489Y-50872257D01*
X20945489Y-50872257D02*
X20802631Y-50800828D01*
X19516917Y-50800828D02*
X19516917Y-52015114D01*
X19516917Y-52015114D02*
X19445488Y-52157971D01*
X19445488Y-52157971D02*
X19374060Y-52229400D01*
X19374060Y-52229400D02*
X19231202Y-52300828D01*
X19231202Y-52300828D02*
X18945488Y-52300828D01*
X18945488Y-52300828D02*
X18802631Y-52229400D01*
X18802631Y-52229400D02*
X18731202Y-52157971D01*
X18731202Y-52157971D02*
X18659774Y-52015114D01*
X18659774Y-52015114D02*
X18659774Y-50800828D01*
X17945488Y-52300828D02*
X17945488Y-50800828D01*
X17945488Y-50800828D02*
X17374059Y-50800828D01*
X17374059Y-50800828D02*
X17231202Y-50872257D01*
X17231202Y-50872257D02*
X17159773Y-50943685D01*
X17159773Y-50943685D02*
X17088345Y-51086542D01*
X17088345Y-51086542D02*
X17088345Y-51300828D01*
X17088345Y-51300828D02*
X17159773Y-51443685D01*
X17159773Y-51443685D02*
X17231202Y-51515114D01*
X17231202Y-51515114D02*
X17374059Y-51586542D01*
X17374059Y-51586542D02*
X17945488Y-51586542D01*
X14659774Y-52229400D02*
X14802631Y-52300828D01*
X14802631Y-52300828D02*
X15088345Y-52300828D01*
X15088345Y-52300828D02*
X15231202Y-52229400D01*
X15231202Y-52229400D02*
X15302631Y-52157971D01*
X15302631Y-52157971D02*
X15374059Y-52015114D01*
X15374059Y-52015114D02*
X15374059Y-51586542D01*
X15374059Y-51586542D02*
X15302631Y-51443685D01*
X15302631Y-51443685D02*
X15231202Y-51372257D01*
X15231202Y-51372257D02*
X15088345Y-51300828D01*
X15088345Y-51300828D02*
X14802631Y-51300828D01*
X14802631Y-51300828D02*
X14659774Y-51372257D01*
X13802631Y-52300828D02*
X13945488Y-52229400D01*
X13945488Y-52229400D02*
X14016917Y-52157971D01*
X14016917Y-52157971D02*
X14088345Y-52015114D01*
X14088345Y-52015114D02*
X14088345Y-51586542D01*
X14088345Y-51586542D02*
X14016917Y-51443685D01*
X14016917Y-51443685D02*
X13945488Y-51372257D01*
X13945488Y-51372257D02*
X13802631Y-51300828D01*
X13802631Y-51300828D02*
X13588345Y-51300828D01*
X13588345Y-51300828D02*
X13445488Y-51372257D01*
X13445488Y-51372257D02*
X13374060Y-51443685D01*
X13374060Y-51443685D02*
X13302631Y-51586542D01*
X13302631Y-51586542D02*
X13302631Y-52015114D01*
X13302631Y-52015114D02*
X13374060Y-52157971D01*
X13374060Y-52157971D02*
X13445488Y-52229400D01*
X13445488Y-52229400D02*
X13588345Y-52300828D01*
X13588345Y-52300828D02*
X13802631Y-52300828D01*
X12659774Y-52300828D02*
X12659774Y-51300828D01*
X12659774Y-51443685D02*
X12588345Y-51372257D01*
X12588345Y-51372257D02*
X12445488Y-51300828D01*
X12445488Y-51300828D02*
X12231202Y-51300828D01*
X12231202Y-51300828D02*
X12088345Y-51372257D01*
X12088345Y-51372257D02*
X12016917Y-51515114D01*
X12016917Y-51515114D02*
X12016917Y-52300828D01*
X12016917Y-51515114D02*
X11945488Y-51372257D01*
X11945488Y-51372257D02*
X11802631Y-51300828D01*
X11802631Y-51300828D02*
X11588345Y-51300828D01*
X11588345Y-51300828D02*
X11445488Y-51372257D01*
X11445488Y-51372257D02*
X11374059Y-51515114D01*
X11374059Y-51515114D02*
X11374059Y-52300828D01*
X10659774Y-51300828D02*
X10659774Y-52800828D01*
X10659774Y-51372257D02*
X10516917Y-51300828D01*
X10516917Y-51300828D02*
X10231202Y-51300828D01*
X10231202Y-51300828D02*
X10088345Y-51372257D01*
X10088345Y-51372257D02*
X10016917Y-51443685D01*
X10016917Y-51443685D02*
X9945488Y-51586542D01*
X9945488Y-51586542D02*
X9945488Y-52015114D01*
X9945488Y-52015114D02*
X10016917Y-52157971D01*
X10016917Y-52157971D02*
X10088345Y-52229400D01*
X10088345Y-52229400D02*
X10231202Y-52300828D01*
X10231202Y-52300828D02*
X10516917Y-52300828D01*
X10516917Y-52300828D02*
X10659774Y-52229400D01*
X8659774Y-52300828D02*
X8659774Y-51515114D01*
X8659774Y-51515114D02*
X8731202Y-51372257D01*
X8731202Y-51372257D02*
X8874059Y-51300828D01*
X8874059Y-51300828D02*
X9159774Y-51300828D01*
X9159774Y-51300828D02*
X9302631Y-51372257D01*
X8659774Y-52229400D02*
X8802631Y-52300828D01*
X8802631Y-52300828D02*
X9159774Y-52300828D01*
X9159774Y-52300828D02*
X9302631Y-52229400D01*
X9302631Y-52229400D02*
X9374059Y-52086542D01*
X9374059Y-52086542D02*
X9374059Y-51943685D01*
X9374059Y-51943685D02*
X9302631Y-51800828D01*
X9302631Y-51800828D02*
X9159774Y-51729400D01*
X9159774Y-51729400D02*
X8802631Y-51729400D01*
X8802631Y-51729400D02*
X8659774Y-51657971D01*
X7945488Y-51300828D02*
X7945488Y-52300828D01*
X7945488Y-51443685D02*
X7874059Y-51372257D01*
X7874059Y-51372257D02*
X7731202Y-51300828D01*
X7731202Y-51300828D02*
X7516916Y-51300828D01*
X7516916Y-51300828D02*
X7374059Y-51372257D01*
X7374059Y-51372257D02*
X7302631Y-51515114D01*
X7302631Y-51515114D02*
X7302631Y-52300828D01*
X6731202Y-51300828D02*
X6374059Y-52300828D01*
X6016916Y-51300828D02*
X6374059Y-52300828D01*
X6374059Y-52300828D02*
X6516916Y-52657971D01*
X6516916Y-52657971D02*
X6588345Y-52729400D01*
X6588345Y-52729400D02*
X6731202Y-52800828D01*
%LPC*%
D11*
%TO.C,J2*%
X30775000Y-4625000D03*
D12*
X34275000Y-4625000D03*
X37775000Y-4625000D03*
%TD*%
D11*
%TO.C,J3*%
X52775000Y-4625000D03*
D12*
X56275000Y-4625000D03*
%TD*%
D11*
%TO.C,J1*%
X43775000Y-4625000D03*
D12*
X47275000Y-4625000D03*
%TD*%
D13*
%TO.C,K1*%
X3560000Y-3060000D03*
D14*
X3560000Y-15760000D03*
X11180000Y-15760000D03*
X11180000Y-8140000D03*
X11180000Y-3060000D03*
%TD*%
D15*
%TO.C,M1*%
X54240000Y-35615000D03*
X54240000Y-55935000D03*
X23125000Y-57205000D03*
X25665000Y-57205000D03*
X28205000Y-57205000D03*
X30745000Y-57205000D03*
X33285000Y-57205000D03*
X35825000Y-57205000D03*
X38365000Y-57205000D03*
X40905000Y-57205000D03*
X43445000Y-57205000D03*
X45985000Y-57205000D03*
X48525000Y-57205000D03*
X51065000Y-57205000D03*
X51065000Y-34345000D03*
X48525000Y-34345000D03*
X45985000Y-34345000D03*
X43445000Y-34345000D03*
X40905000Y-34345000D03*
X38365000Y-34345000D03*
X35825000Y-34345000D03*
X33285000Y-34345000D03*
X30745000Y-34345000D03*
X28205000Y-34345000D03*
X25665000Y-34345000D03*
X23125000Y-34345000D03*
%TD*%
%LPD*%
M02*
