%TF.GenerationSoftware,KiCad,Pcbnew,10.0.4*%
%TF.CreationDate,2026-07-30T00:06:10+01:00*%
%TF.ProjectId,ISLKey-Mini,49534c4b-6579-42d4-9d69-6e692e6b6963,rev?*%
%TF.SameCoordinates,Original*%
%TF.FileFunction,Copper,L1,Top*%
%TF.FilePolarity,Positive*%
%FSLAX46Y46*%
G04 Gerber Fmt 4.6, Leading zero omitted, Abs format (unit mm)*
G04 Created by KiCad (PCBNEW 10.0.4) date 2026-07-30 00:06:10*
%MOMM*%
%LPD*%
G01*
G04 APERTURE LIST*
G04 Aperture macros list*
%AMRoundRect*
0 Rectangle with rounded corners*
0 $1 Rounding radius*
0 $2 $3 $4 $5 $6 $7 $8 $9 X,Y pos of 4 corners*
0 Add a 4 corners polygon primitive as box body*
4,1,4,$2,$3,$4,$5,$6,$7,$8,$9,$2,$3,0*
0 Add four circle primitives for the rounded corners*
1,1,$1+$1,$2,$3*
1,1,$1+$1,$4,$5*
1,1,$1+$1,$6,$7*
1,1,$1+$1,$8,$9*
0 Add four rect primitives between the rounded corners*
20,1,$1+$1,$2,$3,$4,$5,0*
20,1,$1+$1,$4,$5,$6,$7,0*
20,1,$1+$1,$6,$7,$8,$9,0*
20,1,$1+$1,$8,$9,$2,$3,0*%
G04 Aperture macros list end*
%TA.AperFunction,SMDPad,CuDef*%
%ADD10RoundRect,0.250000X-0.250000X-0.475000X0.250000X-0.475000X0.250000X0.475000X-0.250000X0.475000X0*%
%TD*%
%TA.AperFunction,SMDPad,CuDef*%
%ADD11RoundRect,0.250000X-0.262500X-0.450000X0.262500X-0.450000X0.262500X0.450000X-0.262500X0.450000X0*%
%TD*%
%TA.AperFunction,SMDPad,CuDef*%
%ADD12R,1.500000X2.400000*%
%TD*%
%TA.AperFunction,SMDPad,CuDef*%
%ADD13RoundRect,0.250000X-1.500000X-0.550000X1.500000X-0.550000X1.500000X0.550000X-1.500000X0.550000X0*%
%TD*%
%TA.AperFunction,ComponentPad*%
%ADD14RoundRect,0.250001X-0.949999X-0.949999X0.949999X-0.949999X0.949999X0.949999X-0.949999X0.949999X0*%
%TD*%
%TA.AperFunction,ComponentPad*%
%ADD15C,2.400000*%
%TD*%
%TA.AperFunction,SMDPad,CuDef*%
%ADD16RoundRect,0.243750X-0.243750X-0.456250X0.243750X-0.456250X0.243750X0.456250X-0.243750X0.456250X0*%
%TD*%
%TA.AperFunction,SMDPad,CuDef*%
%ADD17RoundRect,0.250000X-0.312500X-1.450000X0.312500X-1.450000X0.312500X1.450000X-0.312500X1.450000X0*%
%TD*%
%TA.AperFunction,ComponentPad*%
%ADD18R,1.501140X1.501140*%
%TD*%
%TA.AperFunction,ComponentPad*%
%ADD19C,1.501140*%
%TD*%
%TA.AperFunction,ComponentPad*%
%ADD20C,1.524000*%
%TD*%
%TA.AperFunction,SMDPad,CuDef*%
%ADD21R,1.000000X0.700000*%
%TD*%
%TA.AperFunction,SMDPad,CuDef*%
%ADD22RoundRect,0.150000X-0.512500X-0.150000X0.512500X-0.150000X0.512500X0.150000X-0.512500X0.150000X0*%
%TD*%
%TA.AperFunction,SMDPad,CuDef*%
%ADD23RoundRect,0.150000X-0.587500X-0.150000X0.587500X-0.150000X0.587500X0.150000X-0.587500X0.150000X0*%
%TD*%
%TA.AperFunction,SMDPad,CuDef*%
%ADD24RoundRect,0.225000X-0.225000X-0.375000X0.225000X-0.375000X0.225000X0.375000X-0.225000X0.375000X0*%
%TD*%
%TA.AperFunction,ViaPad*%
%ADD25C,0.600000*%
%TD*%
%TA.AperFunction,Conductor*%
%ADD26C,0.200000*%
%TD*%
%ADD27C,0.300000*%
%ADD28C,0.350000*%
G04 APERTURE END LIST*
D10*
%TO.P,C1,1*%
%TO.N,+5V*%
X54775000Y-21005000D03*
%TO.P,C1,2*%
%TO.N,GND*%
X56675000Y-21005000D03*
%TD*%
%TO.P,C2,1*%
%TO.N,+3V3*%
X54775000Y-25005000D03*
%TO.P,C2,2*%
%TO.N,GND*%
X56675000Y-25005000D03*
%TD*%
%TO.P,C5,1*%
%TO.N,RAWP*%
X26275000Y-21005000D03*
%TO.P,C5,2*%
%TO.N,GND*%
X28175000Y-21005000D03*
%TD*%
D11*
%TO.P,R4,1*%
%TO.N,D3K*%
X18792500Y-27975000D03*
%TO.P,R4,2*%
%TO.N,GND*%
X20617500Y-27975000D03*
%TD*%
D12*
%TO.P,L1,1*%
%TO.N,SW*%
X38025000Y-20425000D03*
%TO.P,L1,2*%
%TO.N,+5V*%
X43525000Y-20425000D03*
%TD*%
D11*
%TO.P,R1,1*%
%TO.N,RLY*%
X14792500Y-7975000D03*
%TO.P,R1,2*%
%TO.N,RLY_B*%
X16617500Y-7975000D03*
%TD*%
D13*
%TO.P,C7,1*%
%TO.N,+5V*%
X48025000Y-15575000D03*
%TO.P,C7,2*%
%TO.N,GND*%
X53625000Y-15575000D03*
%TD*%
D11*
%TO.P,R6,1*%
%TO.N,FB*%
X46792500Y-24975000D03*
%TO.P,R6,2*%
%TO.N,GND*%
X48617500Y-24975000D03*
%TD*%
D14*
%TO.P,J2,1*%
%TO.N,LK_COM*%
X30775000Y-4625000D03*
D15*
%TO.P,J2,2*%
%TO.N,LK_NO*%
X34275000Y-4625000D03*
%TO.P,J2,3*%
%TO.N,LK_NC*%
X37775000Y-4625000D03*
%TD*%
D14*
%TO.P,J3,1*%
%TO.N,EXIT*%
X52775000Y-4625000D03*
D15*
%TO.P,J3,2*%
%TO.N,GND*%
X56275000Y-4625000D03*
%TD*%
D14*
%TO.P,J1,1*%
%TO.N,ACL*%
X43775000Y-4625000D03*
D15*
%TO.P,J1,2*%
%TO.N,ACN*%
X47275000Y-4625000D03*
%TD*%
D10*
%TO.P,C6,1*%
%TO.N,BST*%
X37775000Y-25005000D03*
%TO.P,C6,2*%
%TO.N,SW*%
X39675000Y-25005000D03*
%TD*%
D16*
%TO.P,D3,1*%
%TO.N,D3K*%
X18807500Y-25020000D03*
%TO.P,D3,2*%
%TO.N,+5V*%
X20682500Y-25020000D03*
%TD*%
D11*
%TO.P,R5,1*%
%TO.N,+5V*%
X46792500Y-20975000D03*
%TO.P,R5,2*%
%TO.N,FB*%
X48617500Y-20975000D03*
%TD*%
D17*
%TO.P,F1,1*%
%TO.N,ACL*%
X17837500Y-20975000D03*
%TO.P,F1,2*%
%TO.N,ACLF*%
X22112500Y-20975000D03*
%TD*%
D18*
%TO.P,K1,1*%
%TO.N,+5V*%
X3560000Y-3060000D03*
D19*
%TO.P,K1,6*%
%TO.N,K_C*%
X3560000Y-15760000D03*
%TO.P,K1,7*%
%TO.N,LK_COM*%
X11180000Y-15760000D03*
%TO.P,K1,10*%
%TO.N,LK_NC*%
X11180000Y-8140000D03*
%TO.P,K1,12*%
%TO.N,LK_NO*%
X11180000Y-3060000D03*
%TD*%
D11*
%TO.P,R2,1*%
%TO.N,RLY_B*%
X14792500Y-10975000D03*
%TO.P,R2,2*%
%TO.N,GND*%
X16617500Y-10975000D03*
%TD*%
D20*
%TO.P,M1,1*%
%TO.N,+5V*%
X23125000Y-57205000D03*
%TO.P,M1,2*%
%TO.N,GND*%
X25665000Y-57205000D03*
%TO.P,M1,3*%
%TO.N,N/C*%
X28205000Y-57205000D03*
%TO.P,M1,4*%
X30745000Y-57205000D03*
%TO.P,M1,5*%
X33285000Y-57205000D03*
%TO.P,M1,6*%
X35825000Y-57205000D03*
%TO.P,M1,7*%
%TO.N,RLY*%
X38365000Y-57205000D03*
%TO.P,M1,8*%
%TO.N,N/C*%
X40905000Y-57205000D03*
%TO.P,M1,9*%
X43445000Y-57205000D03*
%TO.P,M1,10*%
X45985000Y-57205000D03*
%TO.P,M1,11*%
X48525000Y-57205000D03*
%TO.P,M1,12*%
%TO.N,+3V3*%
X51065000Y-57205000D03*
%TO.P,M1,13*%
%TO.N,GND*%
X51065000Y-34345000D03*
%TO.P,M1,14*%
X48525000Y-34345000D03*
%TO.P,M1,15*%
%TO.N,N/C*%
X45985000Y-34345000D03*
%TO.P,M1,16*%
X43445000Y-34345000D03*
%TO.P,M1,17*%
X40905000Y-34345000D03*
%TO.P,M1,18*%
X38365000Y-34345000D03*
%TO.P,M1,19*%
X35825000Y-34345000D03*
%TO.P,M1,20*%
%TO.N,EXIT*%
X33285000Y-34345000D03*
%TO.P,M1,21*%
%TO.N,N/C*%
X30745000Y-34345000D03*
%TO.P,M1,22*%
%TO.N,GND*%
X28205000Y-34345000D03*
%TO.P,M1,23*%
X25665000Y-34345000D03*
%TO.P,M1,24*%
%TO.N,+3V3*%
X23125000Y-34345000D03*
%TD*%
D13*
%TO.P,C4,1*%
%TO.N,RAWP*%
X27525000Y-15575000D03*
%TO.P,C4,2*%
%TO.N,GND*%
X33125000Y-15575000D03*
%TD*%
D21*
%TO.P,BR1,1*%
%TO.N,RAWP*%
X17865000Y-12950000D03*
%TO.P,BR1,2*%
%TO.N,GND*%
X17865000Y-16950000D03*
%TO.P,BR1,3*%
%TO.N,ACLF*%
X23815000Y-16950000D03*
%TO.P,BR1,4*%
%TO.N,ACN*%
X23815000Y-12950000D03*
%TD*%
D22*
%TO.P,U2,1*%
%TO.N,FB*%
X37937500Y-12950000D03*
%TO.P,U2,2*%
%TO.N,RAWP*%
X37937500Y-13900000D03*
%TO.P,U2,3*%
X37937500Y-14850000D03*
%TO.P,U2,4*%
%TO.N,GND*%
X40212500Y-14850000D03*
%TO.P,U2,5*%
%TO.N,SW*%
X40212500Y-13900000D03*
%TO.P,U2,6*%
%TO.N,BST*%
X40212500Y-12950000D03*
%TD*%
D11*
%TO.P,R7,1*%
%TO.N,D4K*%
X8792500Y-23975000D03*
%TO.P,R7,2*%
%TO.N,K_C*%
X10617500Y-23975000D03*
%TD*%
D23*
%TO.P,Q1,1*%
%TO.N,RLY_B*%
X15017500Y-2775000D03*
%TO.P,Q1,2*%
%TO.N,GND*%
X15017500Y-4675000D03*
%TO.P,Q1,3*%
%TO.N,K_C*%
X16892500Y-3725000D03*
%TD*%
D24*
%TO.P,D1,1*%
%TO.N,+5V*%
X2770000Y-20675000D03*
%TO.P,D1,2*%
%TO.N,K_C*%
X6070000Y-20675000D03*
%TD*%
D16*
%TO.P,D4,1*%
%TO.N,D4K*%
X8807500Y-20520000D03*
%TO.P,D4,2*%
%TO.N,+5V*%
X10682500Y-20520000D03*
%TD*%
D25*
%TO.N,+5V*%
X22002300Y-24266200D03*
X21400300Y-14033700D03*
%TO.N,RLY*%
X24174100Y-9473400D03*
%TO.N,K_C*%
X6976300Y-19583100D03*
%TD*%
%TO.N,+5V*%
D26*
X48025000Y-15575000D02*
X48025000Y-17237300D01*
X4463600Y-18981400D02*
X2507700Y-17025500D01*
X36568600Y-11928900D02*
X34463800Y-14033700D01*
X51007300Y-17237300D02*
X48025000Y-17237300D01*
X10682500Y-20520000D02*
X13838800Y-23676300D01*
X13838800Y-23676300D02*
X19338800Y-23676300D01*
X2507700Y-5164600D02*
X3560000Y-4112300D01*
X2507700Y-17025500D02*
X2507700Y-5164600D01*
X43525000Y-20425000D02*
X46242500Y-20425000D01*
X34463800Y-14033700D02*
X21400300Y-14033700D01*
X4463600Y-18981400D02*
X2770000Y-20675000D01*
X48025000Y-17237300D02*
X46242500Y-19019800D01*
X19338800Y-23676300D02*
X20682500Y-25020000D01*
X22002300Y-24266200D02*
X21436300Y-24266200D01*
X10682500Y-20236000D02*
X9427900Y-18981400D01*
X44378900Y-11928900D02*
X36568600Y-11928900D01*
X54775000Y-21005000D02*
X51007300Y-17237300D01*
X10682500Y-20520000D02*
X10682500Y-20236000D01*
X48025000Y-15575000D02*
X44378900Y-11928900D01*
X46242500Y-19019800D02*
X46242500Y-20425000D01*
X46242500Y-20425000D02*
X46792500Y-20975000D01*
X9427900Y-18981400D02*
X4463600Y-18981400D01*
X3560000Y-3060000D02*
X3560000Y-4112300D01*
X21436300Y-24266200D02*
X20682500Y-25020000D01*
%TO.N,GND*%
X47073800Y-26518700D02*
X36353100Y-26518700D01*
X24219900Y-24960100D02*
X23632400Y-24960100D01*
X17865000Y-16950000D02*
X17865000Y-17601700D01*
X55636400Y-22043600D02*
X56675000Y-21005000D01*
X48525000Y-34345000D02*
X51065000Y-34345000D01*
X39487500Y-15575000D02*
X33125000Y-15575000D01*
X16617500Y-15050800D02*
X16617500Y-10975000D01*
X22683100Y-35444700D02*
X20617500Y-33379100D01*
X17865000Y-16950000D02*
X17865000Y-16298300D01*
X23632400Y-24960100D02*
X20617500Y-27975000D01*
X40212500Y-14850000D02*
X39487500Y-15575000D01*
X51065000Y-34345000D02*
X51065000Y-30615000D01*
X56675000Y-18625000D02*
X56675000Y-21005000D01*
X28175000Y-21005000D02*
X24219900Y-24960100D01*
X20063300Y-19800000D02*
X20063300Y-21478400D01*
X30839400Y-21005000D02*
X28175000Y-21005000D01*
X33125000Y-16055000D02*
X28175000Y-21005000D01*
X13568400Y-19286100D02*
X17306800Y-23024500D01*
X51065000Y-30615000D02*
X56675000Y-25005000D01*
X17306800Y-23024500D02*
X18517200Y-23024500D01*
X53625000Y-15575000D02*
X56675000Y-18625000D01*
X13568400Y-6124100D02*
X13568400Y-19286100D01*
X48617500Y-24975000D02*
X49626100Y-23966400D01*
X56275000Y-4625000D02*
X56275000Y-12925000D01*
X49626100Y-23966400D02*
X55636400Y-23966400D01*
X55636400Y-23966400D02*
X55636400Y-22043600D01*
X17865000Y-17601700D02*
X20063300Y-19800000D01*
X22023100Y-23438200D02*
X22110500Y-23438200D01*
X17865000Y-16298300D02*
X16617500Y-15050800D01*
X20063300Y-21478400D02*
X22023100Y-23438200D01*
X55636400Y-23966400D02*
X56675000Y-25005000D01*
X22110500Y-23438200D02*
X23632400Y-24960100D01*
X15017500Y-4675000D02*
X13568400Y-6124100D01*
X48617500Y-24975000D02*
X47073800Y-26518700D01*
X56275000Y-12925000D02*
X53625000Y-15575000D01*
X20617500Y-33379100D02*
X20617500Y-27975000D01*
X33125000Y-15575000D02*
X33125000Y-16055000D01*
X36353100Y-26518700D02*
X30839400Y-21005000D01*
X18517200Y-23024500D02*
X20063300Y-21478400D01*
X25665000Y-34345000D02*
X28205000Y-34345000D01*
X25665000Y-34345000D02*
X24565300Y-35444700D01*
X24565300Y-35444700D02*
X22683100Y-35444700D01*
%TO.N,+3V3*%
X47255000Y-33282800D02*
X46876100Y-32903900D01*
X24566100Y-32903900D02*
X46876100Y-32903900D01*
X47255000Y-53395000D02*
X47255000Y-33282800D01*
X46876100Y-32903900D02*
X54775000Y-25005000D01*
X51065000Y-57205000D02*
X47255000Y-53395000D01*
X23125000Y-34345000D02*
X24566100Y-32903900D01*
%TO.N,RAWP*%
X26275000Y-16825000D02*
X26275000Y-21005000D01*
X27525000Y-14674000D02*
X27525000Y-15575000D01*
X17865000Y-12950000D02*
X17865000Y-13601700D01*
X37937500Y-14850000D02*
X37937500Y-14463600D01*
X17865000Y-13601700D02*
X18937300Y-14674000D01*
X18937300Y-14674000D02*
X27525000Y-14674000D01*
X27525000Y-15575000D02*
X26275000Y-16825000D01*
X27525000Y-14674000D02*
X27735400Y-14463600D01*
X27735400Y-14463600D02*
X37937500Y-14463600D01*
X37937500Y-14463600D02*
X37937500Y-13900000D01*
%TO.N,D3K*%
X18792500Y-25035000D02*
X18792500Y-27975000D01*
X18807500Y-25020000D02*
X18792500Y-25035000D01*
%TO.N,SW*%
X39675000Y-25005000D02*
X39675000Y-21023300D01*
X41195300Y-14514200D02*
X41195300Y-18306400D01*
X41195300Y-18306400D02*
X39076700Y-20425000D01*
X39675000Y-21023300D02*
X39076700Y-20425000D01*
X40581100Y-13900000D02*
X41195300Y-14514200D01*
X38025000Y-20425000D02*
X39076700Y-20425000D01*
X40212500Y-13900000D02*
X40581100Y-13900000D01*
%TO.N,RLY*%
X16290900Y-9473400D02*
X24174100Y-9473400D01*
X14792500Y-7975000D02*
X16290900Y-9473400D01*
%TO.N,RLY_B*%
X13972800Y-7981300D02*
X13971300Y-7979800D01*
X17385500Y-2775000D02*
X17951500Y-3341000D01*
X13971300Y-7301800D02*
X14325400Y-6947700D01*
X13972800Y-10155300D02*
X13972800Y-7981300D01*
X14792500Y-10975000D02*
X13972800Y-10155300D01*
X13971300Y-7979800D02*
X13971300Y-7301800D01*
X15017500Y-2775000D02*
X17385500Y-2775000D01*
X15590200Y-6947700D02*
X16617500Y-7975000D01*
X17951500Y-6641000D02*
X16617500Y-7975000D01*
X17951500Y-3341000D02*
X17951500Y-6641000D01*
X14325400Y-6947700D02*
X15590200Y-6947700D01*
%TO.N,FB*%
X37937500Y-12950000D02*
X38552600Y-12334900D01*
X40914900Y-12334900D02*
X42268400Y-13688400D01*
X42268400Y-13688400D02*
X42268400Y-21557100D01*
X45580600Y-24869300D02*
X46792500Y-24869300D01*
X38552600Y-12334900D02*
X40914900Y-12334900D01*
X46792500Y-24869300D02*
X46792500Y-24975000D01*
X42268400Y-21557100D02*
X45580600Y-24869300D01*
X48617500Y-23044300D02*
X48617500Y-20975000D01*
X46792500Y-24869300D02*
X48617500Y-23044300D01*
%TO.N,LK_NO*%
X31374500Y-1724500D02*
X12515500Y-1724500D01*
X12515500Y-1724500D02*
X11180000Y-3060000D01*
X34275000Y-4625000D02*
X31374500Y-1724500D01*
%TO.N,LK_NC*%
X22232900Y-6159200D02*
X36240800Y-6159200D01*
X11180000Y-8140000D02*
X11180000Y-5209000D01*
X14262800Y-2126200D02*
X18199900Y-2126200D01*
X36240800Y-6159200D02*
X37775000Y-4625000D01*
X11180000Y-5209000D02*
X14262800Y-2126200D01*
X18199900Y-2126200D02*
X22232900Y-6159200D01*
%TO.N,ACL*%
X15754300Y-18891800D02*
X15754300Y-10307500D01*
X17280500Y-9924500D02*
X17431200Y-10075200D01*
X17431200Y-10075200D02*
X38324800Y-10075200D01*
X15754300Y-10307500D02*
X16137300Y-9924500D01*
X38324800Y-10075200D02*
X43775000Y-4625000D01*
X17837500Y-20975000D02*
X15754300Y-18891800D01*
X16137300Y-9924500D02*
X17280500Y-9924500D01*
%TO.N,ACN*%
X40562400Y-11337600D02*
X47275000Y-4625000D01*
X24775700Y-11337600D02*
X40562400Y-11337600D01*
X23815000Y-12950000D02*
X23815000Y-12298300D01*
X23815000Y-12298300D02*
X24775700Y-11337600D01*
%TO.N,BST*%
X40192400Y-26036000D02*
X41661700Y-24566700D01*
X41661700Y-14018600D02*
X40593100Y-12950000D01*
X37775000Y-25005000D02*
X38806000Y-26036000D01*
X40593100Y-12950000D02*
X40212500Y-12950000D01*
X41661700Y-24566700D02*
X41661700Y-14018600D01*
X38806000Y-26036000D02*
X40192400Y-26036000D01*
%TO.N,ACLF*%
X23815000Y-16950000D02*
X23815000Y-17601700D01*
X23815000Y-17601700D02*
X22112500Y-19304200D01*
X22112500Y-19304200D02*
X22112500Y-20975000D01*
%TO.N,K_C*%
X6976300Y-19768700D02*
X6976300Y-19583100D01*
X7057700Y-19501700D02*
X9310700Y-19501700D01*
X9745000Y-23102500D02*
X10617500Y-23975000D01*
X9745000Y-19936000D02*
X9745000Y-23102500D01*
X16892500Y-3725000D02*
X14568700Y-3725000D01*
X9310700Y-19501700D02*
X9745000Y-19936000D01*
X12442400Y-5851300D02*
X12442400Y-8453800D01*
X5136200Y-15760000D02*
X3560000Y-15760000D01*
X6976300Y-19583100D02*
X7057700Y-19501700D01*
X12442400Y-8453800D02*
X5136200Y-15760000D01*
X14568700Y-3725000D02*
X12442400Y-5851300D01*
X6070000Y-20675000D02*
X6976300Y-19768700D01*
%TO.N,D4K*%
X8792500Y-23975000D02*
X8792500Y-20535000D01*
X8792500Y-20535000D02*
X8807500Y-20520000D01*
%TD*%
%TA.AperFunction,Conductor*%
%TO.N,GND*%
G36*
X15851231Y-4345185D02*
G01*
X15871874Y-4361820D01*
X15903129Y-4393076D01*
X15903133Y-4393079D01*
X15903135Y-4393081D01*
X16044602Y-4476744D01*
X16059310Y-4481017D01*
X16202426Y-4522597D01*
X16202429Y-4522597D01*
X16202431Y-4522598D01*
X16239306Y-4525500D01*
X17227000Y-4525500D01*
X17294039Y-4545185D01*
X17339794Y-4597989D01*
X17351000Y-4649500D01*
X17351000Y-6340902D01*
X17331315Y-6407941D01*
X17314681Y-6428583D01*
X17005083Y-6738181D01*
X16943760Y-6771666D01*
X16917402Y-6774500D01*
X16317597Y-6774500D01*
X16288156Y-6765855D01*
X16258170Y-6759332D01*
X16253154Y-6755577D01*
X16250558Y-6754815D01*
X16229916Y-6738181D01*
X16077790Y-6586055D01*
X16077788Y-6586052D01*
X15958917Y-6467181D01*
X15958916Y-6467180D01*
X15872104Y-6417060D01*
X15872104Y-6417059D01*
X15872100Y-6417058D01*
X15821985Y-6388123D01*
X15669257Y-6347199D01*
X15511143Y-6347199D01*
X15503547Y-6347199D01*
X15503531Y-6347200D01*
X14412069Y-6347200D01*
X14412053Y-6347199D01*
X14404457Y-6347199D01*
X14246343Y-6347199D01*
X14138987Y-6375965D01*
X14093610Y-6388124D01*
X14093609Y-6388125D01*
X14043496Y-6417059D01*
X14043495Y-6417060D01*
X14000089Y-6442120D01*
X13956685Y-6467179D01*
X13956682Y-6467181D01*
X13490779Y-6933084D01*
X13471502Y-6966474D01*
X13463354Y-6980588D01*
X13432658Y-7033755D01*
X13413392Y-7067125D01*
X13411723Y-7070015D01*
X13370799Y-7222743D01*
X13370799Y-7222745D01*
X13370799Y-7390846D01*
X13370800Y-7390859D01*
X13370800Y-7900739D01*
X13370799Y-7900743D01*
X13370799Y-8058857D01*
X13372187Y-8064039D01*
X13372296Y-8077382D01*
X13372245Y-8077558D01*
X13372300Y-8078386D01*
X13372300Y-10068630D01*
X13372299Y-10068648D01*
X13372299Y-10234354D01*
X13372298Y-10234354D01*
X13372299Y-10234357D01*
X13413223Y-10387085D01*
X13423578Y-10405020D01*
X13492277Y-10524012D01*
X13492281Y-10524017D01*
X13611149Y-10642885D01*
X13611155Y-10642890D01*
X13743181Y-10774916D01*
X13776666Y-10836239D01*
X13779500Y-10862597D01*
X13779500Y-11475001D01*
X13779501Y-11475019D01*
X13790000Y-11577796D01*
X13790001Y-11577799D01*
X13845185Y-11744331D01*
X13845186Y-11744334D01*
X13937288Y-11893656D01*
X14061344Y-12017712D01*
X14210666Y-12109814D01*
X14377203Y-12164999D01*
X14479991Y-12175500D01*
X15029800Y-12175499D01*
X15096839Y-12195183D01*
X15142594Y-12247987D01*
X15153800Y-12299499D01*
X15153800Y-18805130D01*
X15153799Y-18805148D01*
X15153799Y-18970854D01*
X15153798Y-18970854D01*
X15190774Y-19108846D01*
X15194723Y-19123585D01*
X15195416Y-19124785D01*
X15200151Y-19132985D01*
X15200152Y-19132988D01*
X15273777Y-19260512D01*
X15273781Y-19260517D01*
X15392649Y-19379385D01*
X15392655Y-19379390D01*
X16738181Y-20724917D01*
X16771666Y-20786240D01*
X16774500Y-20812598D01*
X16774500Y-22475001D01*
X16774501Y-22475018D01*
X16785000Y-22577796D01*
X16785001Y-22577799D01*
X16840142Y-22744202D01*
X16840186Y-22744334D01*
X16928000Y-22886704D01*
X16946440Y-22954096D01*
X16925517Y-23020759D01*
X16871875Y-23065529D01*
X16822461Y-23075800D01*
X14138897Y-23075800D01*
X14071858Y-23056115D01*
X14051216Y-23039481D01*
X11706819Y-20695084D01*
X11673334Y-20633761D01*
X11670500Y-20607403D01*
X11670500Y-20014157D01*
X11670499Y-20014144D01*
X11668166Y-19991305D01*
X11660087Y-19912225D01*
X11605362Y-19747075D01*
X11605358Y-19747069D01*
X11605357Y-19747066D01*
X11514028Y-19599000D01*
X11514025Y-19598996D01*
X11391003Y-19475974D01*
X11390999Y-19475971D01*
X11242933Y-19384642D01*
X11242927Y-19384639D01*
X11242925Y-19384638D01*
X11242922Y-19384637D01*
X11077776Y-19329913D01*
X10975855Y-19319500D01*
X10975848Y-19319500D01*
X10666597Y-19319500D01*
X10599558Y-19299815D01*
X10578916Y-19283181D01*
X9915490Y-18619755D01*
X9915488Y-18619752D01*
X9796617Y-18500881D01*
X9796616Y-18500880D01*
X9709804Y-18450760D01*
X9709804Y-18450759D01*
X9709800Y-18450758D01*
X9659685Y-18421823D01*
X9506957Y-18380899D01*
X9348843Y-18380899D01*
X9341247Y-18380899D01*
X9341231Y-18380900D01*
X4763697Y-18380900D01*
X4696658Y-18361215D01*
X4676016Y-18344581D01*
X3554186Y-17222751D01*
X3520701Y-17161428D01*
X3525685Y-17091736D01*
X3567557Y-17035803D01*
X3633021Y-17011386D01*
X3641867Y-17011070D01*
X3658466Y-17011070D01*
X3766516Y-16993956D01*
X3852960Y-16980265D01*
X4040244Y-16919412D01*
X4215704Y-16830011D01*
X4375018Y-16714263D01*
X4514263Y-16575018D01*
X4572288Y-16495153D01*
X4632875Y-16411763D01*
X4634766Y-16413136D01*
X4679536Y-16372754D01*
X4733284Y-16360500D01*
X5049531Y-16360500D01*
X5049547Y-16360501D01*
X5057143Y-16360501D01*
X5215254Y-16360501D01*
X5215257Y-16360501D01*
X5367985Y-16319577D01*
X5418104Y-16290639D01*
X5504916Y-16240520D01*
X5616720Y-16128716D01*
X5616720Y-16128714D01*
X5626928Y-16118507D01*
X5626930Y-16118504D01*
X6083901Y-15661533D01*
X9928930Y-15661533D01*
X9928930Y-15858466D01*
X9959734Y-16052956D01*
X9959735Y-16052960D01*
X10020588Y-16240244D01*
X10081861Y-16360500D01*
X10109991Y-16415707D01*
X10225731Y-16575011D01*
X10225735Y-16575016D01*
X10364983Y-16714264D01*
X10364988Y-16714268D01*
X10470037Y-16790590D01*
X10524296Y-16830011D01*
X10699756Y-16919412D01*
X10887040Y-16980265D01*
X10959977Y-16991816D01*
X11081534Y-17011070D01*
X11081539Y-17011070D01*
X11278466Y-17011070D01*
X11386516Y-16993956D01*
X11472960Y-16980265D01*
X11660244Y-16919412D01*
X11835704Y-16830011D01*
X11995018Y-16714263D01*
X12134263Y-16575018D01*
X12250011Y-16415704D01*
X12339412Y-16240244D01*
X12400265Y-16052960D01*
X12413956Y-15966516D01*
X12431070Y-15858466D01*
X12431070Y-15661533D01*
X12400265Y-15467043D01*
X12400265Y-15467040D01*
X12339412Y-15279756D01*
X12250011Y-15104296D01*
X12205271Y-15042716D01*
X12134268Y-14944988D01*
X12134264Y-14944983D01*
X11995016Y-14805735D01*
X11995011Y-14805731D01*
X11835707Y-14689991D01*
X11835706Y-14689990D01*
X11835704Y-14689989D01*
X11660244Y-14600588D01*
X11472960Y-14539735D01*
X11472958Y-14539734D01*
X11472956Y-14539734D01*
X11278466Y-14508930D01*
X11278461Y-14508930D01*
X11081539Y-14508930D01*
X11081534Y-14508930D01*
X10887043Y-14539734D01*
X10699753Y-14600589D01*
X10524292Y-14689991D01*
X10364988Y-14805731D01*
X10364983Y-14805735D01*
X10225735Y-14944983D01*
X10225731Y-14944988D01*
X10109991Y-15104292D01*
X10020589Y-15279753D01*
X9959734Y-15467043D01*
X9928930Y-15661533D01*
X6083901Y-15661533D01*
X12811113Y-8934321D01*
X12811116Y-8934320D01*
X12922920Y-8822516D01*
X12973039Y-8735704D01*
X13001977Y-8685585D01*
X13042900Y-8532857D01*
X13042900Y-8374743D01*
X13042900Y-6151397D01*
X13062585Y-6084358D01*
X13079219Y-6063716D01*
X14781116Y-4361819D01*
X14842439Y-4328334D01*
X14868797Y-4325500D01*
X15784192Y-4325500D01*
X15851231Y-4345185D01*
G37*
%TD.AperFunction*%
%TA.AperFunction,Conductor*%
G36*
X59343039Y-619685D02*
G01*
X59388794Y-672489D01*
X59400000Y-724000D01*
X59400000Y-26448417D01*
X59380315Y-26515456D01*
X59327511Y-26561211D01*
X59301781Y-26569707D01*
X59092765Y-26614134D01*
X59092764Y-26614135D01*
X58743818Y-26727514D01*
X58408624Y-26876751D01*
X58408618Y-26876754D01*
X58090878Y-27060202D01*
X58090873Y-27060205D01*
X57794047Y-27275861D01*
X57794038Y-27275868D01*
X57521376Y-27521376D01*
X57275868Y-27794038D01*
X57275861Y-27794047D01*
X57060205Y-28090873D01*
X57060202Y-28090878D01*
X56876754Y-28408618D01*
X56876751Y-28408624D01*
X56727514Y-28743818D01*
X56614135Y-29092764D01*
X56614134Y-29092765D01*
X56537853Y-29451644D01*
X56537852Y-29451650D01*
X56499500Y-29816547D01*
X56499500Y-30183453D01*
X56524407Y-30420427D01*
X56537853Y-30548355D01*
X56614134Y-30907234D01*
X56614135Y-30907235D01*
X56614136Y-30907239D01*
X56727517Y-31256189D01*
X56789152Y-31394624D01*
X56876751Y-31591375D01*
X56876754Y-31591381D01*
X57060202Y-31909121D01*
X57060205Y-31909126D01*
X57275861Y-32205952D01*
X57275868Y-32205961D01*
X57363603Y-32303400D01*
X57521376Y-32478624D01*
X57655622Y-32599500D01*
X57794038Y-32724131D01*
X57794047Y-32724138D01*
X58090873Y-32939794D01*
X58090878Y-32939797D01*
X58283514Y-33051016D01*
X58408625Y-33123249D01*
X58743811Y-33272483D01*
X59092761Y-33385864D01*
X59301782Y-33430292D01*
X59363263Y-33463484D01*
X59397039Y-33524647D01*
X59400000Y-33551582D01*
X59400000Y-59276000D01*
X59380315Y-59343039D01*
X59327511Y-59388794D01*
X59276000Y-59400000D01*
X724000Y-59400000D01*
X656961Y-59380315D01*
X611206Y-59327511D01*
X600000Y-59276000D01*
X600000Y-57105639D01*
X21862500Y-57105639D01*
X21862500Y-57304360D01*
X21893587Y-57500637D01*
X21954993Y-57689629D01*
X21954994Y-57689632D01*
X22045213Y-57866694D01*
X22162019Y-58027464D01*
X22302536Y-58167981D01*
X22463306Y-58284787D01*
X22550149Y-58329035D01*
X22640367Y-58375005D01*
X22640370Y-58375006D01*
X22734866Y-58405709D01*
X22829364Y-58436413D01*
X23025639Y-58467500D01*
X23025640Y-58467500D01*
X23224360Y-58467500D01*
X23224361Y-58467500D01*
X23420636Y-58436413D01*
X23609632Y-58375005D01*
X23786694Y-58284787D01*
X23947464Y-58167981D01*
X24087981Y-58027464D01*
X24204787Y-57866694D01*
X24295005Y-57689632D01*
X24356413Y-57500636D01*
X24387500Y-57304361D01*
X24387500Y-57105639D01*
X24356413Y-56909364D01*
X24295005Y-56720368D01*
X24295005Y-56720367D01*
X24249035Y-56630149D01*
X24204787Y-56543306D01*
X24087981Y-56382536D01*
X23947464Y-56242019D01*
X23786694Y-56125213D01*
X23609632Y-56034994D01*
X23609629Y-56034993D01*
X23420637Y-55973587D01*
X23282182Y-55951658D01*
X23224361Y-55942500D01*
X23025639Y-55942500D01*
X22967818Y-55951658D01*
X22829362Y-55973587D01*
X22640370Y-56034993D01*
X22640367Y-56034994D01*
X22463305Y-56125213D01*
X22302533Y-56242021D01*
X22162021Y-56382533D01*
X22045213Y-56543305D01*
X21954994Y-56720367D01*
X21954993Y-56720370D01*
X21893587Y-56909362D01*
X21862500Y-57105639D01*
X600000Y-57105639D01*
X600000Y-34245639D01*
X21862500Y-34245639D01*
X21862500Y-34444360D01*
X21893587Y-34640637D01*
X21954993Y-34829629D01*
X21954994Y-34829632D01*
X22026295Y-34969565D01*
X22045213Y-35006694D01*
X22162019Y-35167464D01*
X22302536Y-35307981D01*
X22463306Y-35424787D01*
X22550149Y-35469035D01*
X22640367Y-35515005D01*
X22640370Y-35515006D01*
X22734866Y-35545709D01*
X22829364Y-35576413D01*
X23025639Y-35607500D01*
X23025640Y-35607500D01*
X23224360Y-35607500D01*
X23224361Y-35607500D01*
X23420636Y-35576413D01*
X23609632Y-35515005D01*
X23786694Y-35424787D01*
X23947464Y-35307981D01*
X24087981Y-35167464D01*
X24204787Y-35006694D01*
X24295005Y-34829632D01*
X24356413Y-34640636D01*
X24387500Y-34444361D01*
X24387500Y-34245639D01*
X24356413Y-34049364D01*
X24356411Y-34049358D01*
X24355870Y-34047104D01*
X24355914Y-34046215D01*
X24355651Y-34044552D01*
X24356000Y-34044496D01*
X24359359Y-33977321D01*
X24388762Y-33930472D01*
X24778516Y-33540719D01*
X24839839Y-33507234D01*
X24866197Y-33504400D01*
X29554020Y-33504400D01*
X29621059Y-33524085D01*
X29666814Y-33576889D01*
X29676758Y-33646047D01*
X29664505Y-33684695D01*
X29574994Y-33860367D01*
X29574993Y-33860370D01*
X29513587Y-34049362D01*
X29482500Y-34245639D01*
X29482500Y-34444360D01*
X29513587Y-34640637D01*
X29574993Y-34829629D01*
X29574994Y-34829632D01*
X29646295Y-34969565D01*
X29665213Y-35006694D01*
X29782019Y-35167464D01*
X29922536Y-35307981D01*
X30083306Y-35424787D01*
X30170149Y-35469035D01*
X30260367Y-35515005D01*
X30260370Y-35515006D01*
X30354866Y-35545709D01*
X30449364Y-35576413D01*
X30645639Y-35607500D01*
X30645640Y-35607500D01*
X30844360Y-35607500D01*
X30844361Y-35607500D01*
X31040636Y-35576413D01*
X31229632Y-35515005D01*
X31406694Y-35424787D01*
X31567464Y-35307981D01*
X31707981Y-35167464D01*
X31824787Y-35006694D01*
X31904515Y-34850218D01*
X31952490Y-34799423D01*
X32020311Y-34782628D01*
X32086446Y-34805165D01*
X32125484Y-34850218D01*
X32205213Y-35006694D01*
X32322019Y-35167464D01*
X32462536Y-35307981D01*
X32623306Y-35424787D01*
X32710149Y-35469035D01*
X32800367Y-35515005D01*
X32800370Y-35515006D01*
X32894866Y-35545709D01*
X32989364Y-35576413D01*
X33185639Y-35607500D01*
X33185640Y-35607500D01*
X33384360Y-35607500D01*
X33384361Y-35607500D01*
X33580636Y-35576413D01*
X33769632Y-35515005D01*
X33946694Y-35424787D01*
X34107464Y-35307981D01*
X34247981Y-35167464D01*
X34364787Y-35006694D01*
X34444515Y-34850218D01*
X34492490Y-34799423D01*
X34560311Y-34782628D01*
X34626446Y-34805165D01*
X34665484Y-34850218D01*
X34745213Y-35006694D01*
X34862019Y-35167464D01*
X35002536Y-35307981D01*
X35163306Y-35424787D01*
X35250149Y-35469035D01*
X35340367Y-35515005D01*
X35340370Y-35515006D01*
X35434866Y-35545709D01*
X35529364Y-35576413D01*
X35725639Y-35607500D01*
X35725640Y-35607500D01*
X35924360Y-35607500D01*
X35924361Y-35607500D01*
X36120636Y-35576413D01*
X36309632Y-35515005D01*
X36486694Y-35424787D01*
X36647464Y-35307981D01*
X36787981Y-35167464D01*
X36904787Y-35006694D01*
X36984515Y-34850218D01*
X37032490Y-34799423D01*
X37100311Y-34782628D01*
X37166446Y-34805165D01*
X37205484Y-34850218D01*
X37285213Y-35006694D01*
X37402019Y-35167464D01*
X37542536Y-35307981D01*
X37703306Y-35424787D01*
X37790149Y-35469035D01*
X37880367Y-35515005D01*
X37880370Y-35515006D01*
X37974866Y-35545709D01*
X38069364Y-35576413D01*
X38265639Y-35607500D01*
X38265640Y-35607500D01*
X38464360Y-35607500D01*
X38464361Y-35607500D01*
X38660636Y-35576413D01*
X38849632Y-35515005D01*
X39026694Y-35424787D01*
X39187464Y-35307981D01*
X39327981Y-35167464D01*
X39444787Y-35006694D01*
X39524515Y-34850218D01*
X39572490Y-34799423D01*
X39640311Y-34782628D01*
X39706446Y-34805165D01*
X39745484Y-34850218D01*
X39825213Y-35006694D01*
X39942019Y-35167464D01*
X40082536Y-35307981D01*
X40243306Y-35424787D01*
X40330149Y-35469035D01*
X40420367Y-35515005D01*
X40420370Y-35515006D01*
X40514866Y-35545709D01*
X40609364Y-35576413D01*
X40805639Y-35607500D01*
X40805640Y-35607500D01*
X41004360Y-35607500D01*
X41004361Y-35607500D01*
X41200636Y-35576413D01*
X41389632Y-35515005D01*
X41566694Y-35424787D01*
X41727464Y-35307981D01*
X41867981Y-35167464D01*
X41984787Y-35006694D01*
X42064515Y-34850218D01*
X42112490Y-34799423D01*
X42180311Y-34782628D01*
X42246446Y-34805165D01*
X42285484Y-34850218D01*
X42365213Y-35006694D01*
X42482019Y-35167464D01*
X42622536Y-35307981D01*
X42783306Y-35424787D01*
X42870149Y-35469035D01*
X42960367Y-35515005D01*
X42960370Y-35515006D01*
X43054866Y-35545709D01*
X43149364Y-35576413D01*
X43345639Y-35607500D01*
X43345640Y-35607500D01*
X43544360Y-35607500D01*
X43544361Y-35607500D01*
X43740636Y-35576413D01*
X43929632Y-35515005D01*
X44106694Y-35424787D01*
X44267464Y-35307981D01*
X44407981Y-35167464D01*
X44524787Y-35006694D01*
X44604515Y-34850218D01*
X44652490Y-34799423D01*
X44720311Y-34782628D01*
X44786446Y-34805165D01*
X44825484Y-34850218D01*
X44905213Y-35006694D01*
X45022019Y-35167464D01*
X45162536Y-35307981D01*
X45323306Y-35424787D01*
X45410149Y-35469035D01*
X45500367Y-35515005D01*
X45500370Y-35515006D01*
X45594866Y-35545709D01*
X45689364Y-35576413D01*
X45885639Y-35607500D01*
X45885640Y-35607500D01*
X46084360Y-35607500D01*
X46084361Y-35607500D01*
X46280636Y-35576413D01*
X46469632Y-35515005D01*
X46469636Y-35515003D01*
X46474204Y-35512676D01*
X46542873Y-35499779D01*
X46607614Y-35526055D01*
X46647872Y-35583161D01*
X46654500Y-35623160D01*
X46654500Y-53308330D01*
X46654499Y-53308348D01*
X46654499Y-53474054D01*
X46654498Y-53474054D01*
X46695423Y-53626785D01*
X46724358Y-53676900D01*
X46724359Y-53676904D01*
X46724360Y-53676904D01*
X46774479Y-53763714D01*
X46774481Y-53763717D01*
X46893349Y-53882585D01*
X46893355Y-53882590D01*
X48745306Y-55734542D01*
X48778791Y-55795865D01*
X48773807Y-55865557D01*
X48731935Y-55921490D01*
X48666471Y-55945907D01*
X48638233Y-55944697D01*
X48624361Y-55942500D01*
X48425639Y-55942500D01*
X48367818Y-55951658D01*
X48229362Y-55973587D01*
X48040370Y-56034993D01*
X48040367Y-56034994D01*
X47863305Y-56125213D01*
X47702533Y-56242021D01*
X47562021Y-56382533D01*
X47445213Y-56543305D01*
X47365485Y-56699780D01*
X47317510Y-56750576D01*
X47249689Y-56767371D01*
X47183554Y-56744833D01*
X47144515Y-56699780D01*
X47117474Y-56646709D01*
X47064787Y-56543306D01*
X46947981Y-56382536D01*
X46807464Y-56242019D01*
X46646694Y-56125213D01*
X46469632Y-56034994D01*
X46469629Y-56034993D01*
X46280637Y-55973587D01*
X46142182Y-55951658D01*
X46084361Y-55942500D01*
X45885639Y-55942500D01*
X45827818Y-55951658D01*
X45689362Y-55973587D01*
X45500370Y-56034993D01*
X45500367Y-56034994D01*
X45323305Y-56125213D01*
X45162533Y-56242021D01*
X45022021Y-56382533D01*
X44905213Y-56543305D01*
X44825485Y-56699780D01*
X44777510Y-56750576D01*
X44709689Y-56767371D01*
X44643554Y-56744833D01*
X44604515Y-56699780D01*
X44577474Y-56646709D01*
X44524787Y-56543306D01*
X44407981Y-56382536D01*
X44267464Y-56242019D01*
X44106694Y-56125213D01*
X43929632Y-56034994D01*
X43929629Y-56034993D01*
X43740637Y-55973587D01*
X43602182Y-55951658D01*
X43544361Y-55942500D01*
X43345639Y-55942500D01*
X43287818Y-55951658D01*
X43149362Y-55973587D01*
X42960370Y-56034993D01*
X42960367Y-56034994D01*
X42783305Y-56125213D01*
X42622533Y-56242021D01*
X42482021Y-56382533D01*
X42365213Y-56543305D01*
X42285485Y-56699780D01*
X42237510Y-56750576D01*
X42169689Y-56767371D01*
X42103554Y-56744833D01*
X42064515Y-56699780D01*
X42037474Y-56646709D01*
X41984787Y-56543306D01*
X41867981Y-56382536D01*
X41727464Y-56242019D01*
X41566694Y-56125213D01*
X41389632Y-56034994D01*
X41389629Y-56034993D01*
X41200637Y-55973587D01*
X41062182Y-55951658D01*
X41004361Y-55942500D01*
X40805639Y-55942500D01*
X40747818Y-55951658D01*
X40609362Y-55973587D01*
X40420370Y-56034993D01*
X40420367Y-56034994D01*
X40243305Y-56125213D01*
X40082533Y-56242021D01*
X39942021Y-56382533D01*
X39825213Y-56543305D01*
X39745485Y-56699780D01*
X39697510Y-56750576D01*
X39629689Y-56767371D01*
X39563554Y-56744833D01*
X39524515Y-56699780D01*
X39497474Y-56646709D01*
X39444787Y-56543306D01*
X39327981Y-56382536D01*
X39187464Y-56242019D01*
X39026694Y-56125213D01*
X38849632Y-56034994D01*
X38849629Y-56034993D01*
X38660637Y-55973587D01*
X38522182Y-55951658D01*
X38464361Y-55942500D01*
X38265639Y-55942500D01*
X38207818Y-55951658D01*
X38069362Y-55973587D01*
X37880370Y-56034993D01*
X37880367Y-56034994D01*
X37703305Y-56125213D01*
X37542533Y-56242021D01*
X37402021Y-56382533D01*
X37285213Y-56543305D01*
X37205485Y-56699780D01*
X37157510Y-56750576D01*
X37089689Y-56767371D01*
X37023554Y-56744833D01*
X36984515Y-56699780D01*
X36957474Y-56646709D01*
X36904787Y-56543306D01*
X36787981Y-56382536D01*
X36647464Y-56242019D01*
X36486694Y-56125213D01*
X36309632Y-56034994D01*
X36309629Y-56034993D01*
X36120637Y-55973587D01*
X35982182Y-55951658D01*
X35924361Y-55942500D01*
X35725639Y-55942500D01*
X35667818Y-55951658D01*
X35529362Y-55973587D01*
X35340370Y-56034993D01*
X35340367Y-56034994D01*
X35163305Y-56125213D01*
X35002533Y-56242021D01*
X34862021Y-56382533D01*
X34745213Y-56543305D01*
X34665485Y-56699780D01*
X34617510Y-56750576D01*
X34549689Y-56767371D01*
X34483554Y-56744833D01*
X34444515Y-56699780D01*
X34417474Y-56646709D01*
X34364787Y-56543306D01*
X34247981Y-56382536D01*
X34107464Y-56242019D01*
X33946694Y-56125213D01*
X33769632Y-56034994D01*
X33769629Y-56034993D01*
X33580637Y-55973587D01*
X33442182Y-55951658D01*
X33384361Y-55942500D01*
X33185639Y-55942500D01*
X33127818Y-55951658D01*
X32989362Y-55973587D01*
X32800370Y-56034993D01*
X32800367Y-56034994D01*
X32623305Y-56125213D01*
X32462533Y-56242021D01*
X32322021Y-56382533D01*
X32205213Y-56543305D01*
X32125485Y-56699780D01*
X32077510Y-56750576D01*
X32009689Y-56767371D01*
X31943554Y-56744833D01*
X31904515Y-56699780D01*
X31877474Y-56646709D01*
X31824787Y-56543306D01*
X31707981Y-56382536D01*
X31567464Y-56242019D01*
X31406694Y-56125213D01*
X31229632Y-56034994D01*
X31229629Y-56034993D01*
X31040637Y-55973587D01*
X30902182Y-55951658D01*
X30844361Y-55942500D01*
X30645639Y-55942500D01*
X30587818Y-55951658D01*
X30449362Y-55973587D01*
X30260370Y-56034993D01*
X30260367Y-56034994D01*
X30083305Y-56125213D01*
X29922533Y-56242021D01*
X29782021Y-56382533D01*
X29665213Y-56543305D01*
X29585485Y-56699780D01*
X29537510Y-56750576D01*
X29469689Y-56767371D01*
X29403554Y-56744833D01*
X29364515Y-56699780D01*
X29337474Y-56646709D01*
X29284787Y-56543306D01*
X29167981Y-56382536D01*
X29027464Y-56242019D01*
X28866694Y-56125213D01*
X28689632Y-56034994D01*
X28689629Y-56034993D01*
X28500637Y-55973587D01*
X28362182Y-55951658D01*
X28304361Y-55942500D01*
X28105639Y-55942500D01*
X28047818Y-55951658D01*
X27909362Y-55973587D01*
X27720370Y-56034993D01*
X27720367Y-56034994D01*
X27543305Y-56125213D01*
X27382533Y-56242021D01*
X27242021Y-56382533D01*
X27125213Y-56543305D01*
X27034994Y-56720367D01*
X27034993Y-56720370D01*
X26973587Y-56909362D01*
X26942500Y-57105639D01*
X26942500Y-57304360D01*
X26973587Y-57500637D01*
X27034993Y-57689629D01*
X27034994Y-57689632D01*
X27125213Y-57866694D01*
X27242019Y-58027464D01*
X27382536Y-58167981D01*
X27543306Y-58284787D01*
X27630149Y-58329035D01*
X27720367Y-58375005D01*
X27720370Y-58375006D01*
X27814866Y-58405709D01*
X27909364Y-58436413D01*
X28105639Y-58467500D01*
X28105640Y-58467500D01*
X28304360Y-58467500D01*
X28304361Y-58467500D01*
X28500636Y-58436413D01*
X28689632Y-58375005D01*
X28866694Y-58284787D01*
X29027464Y-58167981D01*
X29167981Y-58027464D01*
X29284787Y-57866694D01*
X29364515Y-57710218D01*
X29412490Y-57659423D01*
X29480311Y-57642628D01*
X29546446Y-57665165D01*
X29585484Y-57710218D01*
X29665213Y-57866694D01*
X29782019Y-58027464D01*
X29922536Y-58167981D01*
X30083306Y-58284787D01*
X30170149Y-58329035D01*
X30260367Y-58375005D01*
X30260370Y-58375006D01*
X30354866Y-58405709D01*
X30449364Y-58436413D01*
X30645639Y-58467500D01*
X30645640Y-58467500D01*
X30844360Y-58467500D01*
X30844361Y-58467500D01*
X31040636Y-58436413D01*
X31229632Y-58375005D01*
X31406694Y-58284787D01*
X31567464Y-58167981D01*
X31707981Y-58027464D01*
X31824787Y-57866694D01*
X31904515Y-57710218D01*
X31952490Y-57659423D01*
X32020311Y-57642628D01*
X32086446Y-57665165D01*
X32125484Y-57710218D01*
X32205213Y-57866694D01*
X32322019Y-58027464D01*
X32462536Y-58167981D01*
X32623306Y-58284787D01*
X32710149Y-58329035D01*
X32800367Y-58375005D01*
X32800370Y-58375006D01*
X32894866Y-58405709D01*
X32989364Y-58436413D01*
X33185639Y-58467500D01*
X33185640Y-58467500D01*
X33384360Y-58467500D01*
X33384361Y-58467500D01*
X33580636Y-58436413D01*
X33769632Y-58375005D01*
X33946694Y-58284787D01*
X34107464Y-58167981D01*
X34247981Y-58027464D01*
X34364787Y-57866694D01*
X34444515Y-57710218D01*
X34492490Y-57659423D01*
X34560311Y-57642628D01*
X34626446Y-57665165D01*
X34665484Y-57710218D01*
X34745213Y-57866694D01*
X34862019Y-58027464D01*
X35002536Y-58167981D01*
X35163306Y-58284787D01*
X35250149Y-58329035D01*
X35340367Y-58375005D01*
X35340370Y-58375006D01*
X35434866Y-58405709D01*
X35529364Y-58436413D01*
X35725639Y-58467500D01*
X35725640Y-58467500D01*
X35924360Y-58467500D01*
X35924361Y-58467500D01*
X36120636Y-58436413D01*
X36309632Y-58375005D01*
X36486694Y-58284787D01*
X36647464Y-58167981D01*
X36787981Y-58027464D01*
X36904787Y-57866694D01*
X36984515Y-57710218D01*
X37032490Y-57659423D01*
X37100311Y-57642628D01*
X37166446Y-57665165D01*
X37205484Y-57710218D01*
X37285213Y-57866694D01*
X37402019Y-58027464D01*
X37542536Y-58167981D01*
X37703306Y-58284787D01*
X37790149Y-58329035D01*
X37880367Y-58375005D01*
X37880370Y-58375006D01*
X37974866Y-58405709D01*
X38069364Y-58436413D01*
X38265639Y-58467500D01*
X38265640Y-58467500D01*
X38464360Y-58467500D01*
X38464361Y-58467500D01*
X38660636Y-58436413D01*
X38849632Y-58375005D01*
X39026694Y-58284787D01*
X39187464Y-58167981D01*
X39327981Y-58027464D01*
X39444787Y-57866694D01*
X39524515Y-57710218D01*
X39572490Y-57659423D01*
X39640311Y-57642628D01*
X39706446Y-57665165D01*
X39745484Y-57710218D01*
X39825213Y-57866694D01*
X39942019Y-58027464D01*
X40082536Y-58167981D01*
X40243306Y-58284787D01*
X40330149Y-58329035D01*
X40420367Y-58375005D01*
X40420370Y-58375006D01*
X40514866Y-58405709D01*
X40609364Y-58436413D01*
X40805639Y-58467500D01*
X40805640Y-58467500D01*
X41004360Y-58467500D01*
X41004361Y-58467500D01*
X41200636Y-58436413D01*
X41389632Y-58375005D01*
X41566694Y-58284787D01*
X41727464Y-58167981D01*
X41867981Y-58027464D01*
X41984787Y-57866694D01*
X42064515Y-57710218D01*
X42112490Y-57659423D01*
X42180311Y-57642628D01*
X42246446Y-57665165D01*
X42285484Y-57710218D01*
X42365213Y-57866694D01*
X42482019Y-58027464D01*
X42622536Y-58167981D01*
X42783306Y-58284787D01*
X42870149Y-58329035D01*
X42960367Y-58375005D01*
X42960370Y-58375006D01*
X43054866Y-58405709D01*
X43149364Y-58436413D01*
X43345639Y-58467500D01*
X43345640Y-58467500D01*
X43544360Y-58467500D01*
X43544361Y-58467500D01*
X43740636Y-58436413D01*
X43929632Y-58375005D01*
X44106694Y-58284787D01*
X44267464Y-58167981D01*
X44407981Y-58027464D01*
X44524787Y-57866694D01*
X44604515Y-57710218D01*
X44652490Y-57659423D01*
X44720311Y-57642628D01*
X44786446Y-57665165D01*
X44825484Y-57710218D01*
X44905213Y-57866694D01*
X45022019Y-58027464D01*
X45162536Y-58167981D01*
X45323306Y-58284787D01*
X45410149Y-58329035D01*
X45500367Y-58375005D01*
X45500370Y-58375006D01*
X45594866Y-58405709D01*
X45689364Y-58436413D01*
X45885639Y-58467500D01*
X45885640Y-58467500D01*
X46084360Y-58467500D01*
X46084361Y-58467500D01*
X46280636Y-58436413D01*
X46469632Y-58375005D01*
X46646694Y-58284787D01*
X46807464Y-58167981D01*
X46947981Y-58027464D01*
X47064787Y-57866694D01*
X47144515Y-57710218D01*
X47192490Y-57659423D01*
X47260311Y-57642628D01*
X47326446Y-57665165D01*
X47365484Y-57710218D01*
X47445213Y-57866694D01*
X47562019Y-58027464D01*
X47702536Y-58167981D01*
X47863306Y-58284787D01*
X47950149Y-58329035D01*
X48040367Y-58375005D01*
X48040370Y-58375006D01*
X48134866Y-58405709D01*
X48229364Y-58436413D01*
X48425639Y-58467500D01*
X48425640Y-58467500D01*
X48624360Y-58467500D01*
X48624361Y-58467500D01*
X48820636Y-58436413D01*
X49009632Y-58375005D01*
X49186694Y-58284787D01*
X49347464Y-58167981D01*
X49487981Y-58027464D01*
X49604787Y-57866694D01*
X49684515Y-57710218D01*
X49732490Y-57659423D01*
X49800311Y-57642628D01*
X49866446Y-57665165D01*
X49905484Y-57710218D01*
X49985213Y-57866694D01*
X50102019Y-58027464D01*
X50242536Y-58167981D01*
X50403306Y-58284787D01*
X50490149Y-58329035D01*
X50580367Y-58375005D01*
X50580370Y-58375006D01*
X50674866Y-58405709D01*
X50769364Y-58436413D01*
X50965639Y-58467500D01*
X50965640Y-58467500D01*
X51164360Y-58467500D01*
X51164361Y-58467500D01*
X51360636Y-58436413D01*
X51549632Y-58375005D01*
X51726694Y-58284787D01*
X51887464Y-58167981D01*
X52027981Y-58027464D01*
X52144787Y-57866694D01*
X52235005Y-57689632D01*
X52296413Y-57500636D01*
X52327500Y-57304361D01*
X52327500Y-57105639D01*
X52296413Y-56909364D01*
X52235005Y-56720368D01*
X52235005Y-56720367D01*
X52189035Y-56630149D01*
X52144787Y-56543306D01*
X52027981Y-56382536D01*
X51887464Y-56242019D01*
X51726694Y-56125213D01*
X51549632Y-56034994D01*
X51549629Y-56034993D01*
X51548804Y-56034725D01*
X53227499Y-56034725D01*
X53266408Y-56230329D01*
X53266411Y-56230339D01*
X53342730Y-56414592D01*
X53342737Y-56414605D01*
X53453539Y-56580430D01*
X53453542Y-56580434D01*
X53594565Y-56721457D01*
X53594569Y-56721460D01*
X53760394Y-56832262D01*
X53760407Y-56832269D01*
X53944660Y-56908588D01*
X53944665Y-56908590D01*
X53944669Y-56908590D01*
X53944670Y-56908591D01*
X54140274Y-56947500D01*
X54140277Y-56947500D01*
X54339725Y-56947500D01*
X54471324Y-56921322D01*
X54535335Y-56908590D01*
X54719599Y-56832266D01*
X54885431Y-56721460D01*
X55026460Y-56580431D01*
X55137266Y-56414599D01*
X55213590Y-56230335D01*
X55234500Y-56125213D01*
X55252500Y-56034725D01*
X55252500Y-55835274D01*
X55213591Y-55639670D01*
X55213590Y-55639669D01*
X55213590Y-55639665D01*
X55213588Y-55639660D01*
X55137269Y-55455407D01*
X55137262Y-55455394D01*
X55026460Y-55289569D01*
X55026457Y-55289565D01*
X54885434Y-55148542D01*
X54885430Y-55148539D01*
X54719605Y-55037737D01*
X54719592Y-55037730D01*
X54535339Y-54961411D01*
X54535329Y-54961408D01*
X54339725Y-54922500D01*
X54339723Y-54922500D01*
X54140277Y-54922500D01*
X54140275Y-54922500D01*
X53944670Y-54961408D01*
X53944660Y-54961411D01*
X53760407Y-55037730D01*
X53760394Y-55037737D01*
X53594569Y-55148539D01*
X53594565Y-55148542D01*
X53453542Y-55289565D01*
X53453539Y-55289569D01*
X53342737Y-55455394D01*
X53342730Y-55455407D01*
X53266411Y-55639660D01*
X53266408Y-55639670D01*
X53227500Y-55835274D01*
X53227500Y-55835277D01*
X53227500Y-56034723D01*
X53227500Y-56034725D01*
X53227499Y-56034725D01*
X51548804Y-56034725D01*
X51360637Y-55973587D01*
X51222182Y-55951658D01*
X51164361Y-55942500D01*
X50965639Y-55942500D01*
X50916570Y-55950271D01*
X50769361Y-55973587D01*
X50767088Y-55974133D01*
X50766198Y-55974088D01*
X50764553Y-55974349D01*
X50764498Y-55974003D01*
X50697306Y-55970635D01*
X50650473Y-55941237D01*
X47891819Y-53182583D01*
X47858334Y-53121260D01*
X47855500Y-53094902D01*
X47855500Y-35714725D01*
X53227499Y-35714725D01*
X53266408Y-35910329D01*
X53266411Y-35910339D01*
X53342730Y-36094592D01*
X53342737Y-36094605D01*
X53453539Y-36260430D01*
X53453542Y-36260434D01*
X53594565Y-36401457D01*
X53594569Y-36401460D01*
X53760394Y-36512262D01*
X53760407Y-36512269D01*
X53944660Y-36588588D01*
X53944665Y-36588590D01*
X53944669Y-36588590D01*
X53944670Y-36588591D01*
X54140274Y-36627500D01*
X54140277Y-36627500D01*
X54339725Y-36627500D01*
X54471324Y-36601322D01*
X54535335Y-36588590D01*
X54719599Y-36512266D01*
X54885431Y-36401460D01*
X55026460Y-36260431D01*
X55137266Y-36094599D01*
X55213590Y-35910335D01*
X55252500Y-35714723D01*
X55252500Y-35515277D01*
X55252500Y-35515274D01*
X55213591Y-35319670D01*
X55213590Y-35319669D01*
X55213590Y-35319665D01*
X55150547Y-35167464D01*
X55137269Y-35135407D01*
X55137262Y-35135394D01*
X55026460Y-34969569D01*
X55026457Y-34969565D01*
X54885434Y-34828542D01*
X54885430Y-34828539D01*
X54719605Y-34717737D01*
X54719592Y-34717730D01*
X54535339Y-34641411D01*
X54535329Y-34641408D01*
X54339725Y-34602500D01*
X54339723Y-34602500D01*
X54140277Y-34602500D01*
X54140275Y-34602500D01*
X53944670Y-34641408D01*
X53944660Y-34641411D01*
X53760407Y-34717730D01*
X53760394Y-34717737D01*
X53594569Y-34828539D01*
X53594565Y-34828542D01*
X53453542Y-34969565D01*
X53453539Y-34969569D01*
X53342737Y-35135394D01*
X53342730Y-35135407D01*
X53266411Y-35319660D01*
X53266408Y-35319670D01*
X53227500Y-35515274D01*
X53227500Y-35515277D01*
X53227500Y-35714723D01*
X53227500Y-35714725D01*
X53227499Y-35714725D01*
X47855500Y-35714725D01*
X47855500Y-33371860D01*
X47855501Y-33371847D01*
X47855501Y-33203744D01*
X47855501Y-33203743D01*
X47814577Y-33051016D01*
X47775637Y-32983569D01*
X47759166Y-32915669D01*
X47782018Y-32849642D01*
X47795338Y-32833895D01*
X54364139Y-26265095D01*
X54425460Y-26231612D01*
X54464421Y-26229420D01*
X54474991Y-26230500D01*
X55075008Y-26230499D01*
X55075016Y-26230498D01*
X55075019Y-26230498D01*
X55131302Y-26224748D01*
X55177797Y-26219999D01*
X55344334Y-26164814D01*
X55493656Y-26072712D01*
X55617712Y-25948656D01*
X55709814Y-25799334D01*
X55764999Y-25632797D01*
X55775500Y-25530009D01*
X55775499Y-24479992D01*
X55769995Y-24426115D01*
X55764999Y-24377203D01*
X55764998Y-24377200D01*
X55754343Y-24345046D01*
X55709814Y-24210666D01*
X55617712Y-24061344D01*
X55493656Y-23937288D01*
X55344334Y-23845186D01*
X55177797Y-23790001D01*
X55177795Y-23790000D01*
X55075010Y-23779500D01*
X54474998Y-23779500D01*
X54474980Y-23779501D01*
X54372203Y-23790000D01*
X54372200Y-23790001D01*
X54205668Y-23845185D01*
X54205663Y-23845187D01*
X54056342Y-23937289D01*
X53932289Y-24061342D01*
X53840187Y-24210663D01*
X53840185Y-24210668D01*
X53818272Y-24276799D01*
X53785001Y-24377203D01*
X53785001Y-24377204D01*
X53785000Y-24377204D01*
X53774500Y-24479983D01*
X53774500Y-25104901D01*
X53754815Y-25171940D01*
X53738181Y-25192582D01*
X46663684Y-32267081D01*
X46602361Y-32300566D01*
X46576003Y-32303400D01*
X31979749Y-32303400D01*
X31912710Y-32283715D01*
X31866955Y-32230911D01*
X31857011Y-32161753D01*
X31886036Y-32098197D01*
X31927345Y-32067018D01*
X32080062Y-31995805D01*
X32080070Y-31995800D01*
X32080080Y-31995796D01*
X32420421Y-31799300D01*
X32742341Y-31573889D01*
X33043391Y-31321278D01*
X33321278Y-31043391D01*
X33573889Y-30742341D01*
X33799300Y-30420421D01*
X33995796Y-30080080D01*
X34161881Y-29723908D01*
X34296293Y-29354616D01*
X34398007Y-28975015D01*
X34466249Y-28587993D01*
X34500500Y-28196496D01*
X34500500Y-27803504D01*
X34466249Y-27412007D01*
X34398007Y-27024985D01*
X34296293Y-26645384D01*
X34161881Y-26276092D01*
X34161876Y-26276083D01*
X34161875Y-26276078D01*
X33995804Y-25919937D01*
X33995792Y-25919913D01*
X33926177Y-25799336D01*
X33799300Y-25579579D01*
X33573889Y-25257659D01*
X33573888Y-25257658D01*
X33573884Y-25257652D01*
X33403572Y-25054683D01*
X33321278Y-24956609D01*
X33043391Y-24678722D01*
X32923116Y-24577799D01*
X32742347Y-24426115D01*
X32420427Y-24200704D01*
X32420424Y-24200702D01*
X32420421Y-24200700D01*
X32179053Y-24061346D01*
X32080086Y-24004207D01*
X32080062Y-24004195D01*
X31723921Y-23838124D01*
X31723910Y-23838120D01*
X31723908Y-23838119D01*
X31354616Y-23703707D01*
X31113960Y-23639223D01*
X30975016Y-23601993D01*
X30975005Y-23601991D01*
X30587997Y-23533751D01*
X30196500Y-23499500D01*
X30196496Y-23499500D01*
X29803504Y-23499500D01*
X29803499Y-23499500D01*
X29412004Y-23533751D01*
X29412000Y-23533751D01*
X29024994Y-23601991D01*
X29024983Y-23601993D01*
X28865220Y-23644802D01*
X28645384Y-23703707D01*
X28645381Y-23703708D01*
X28645380Y-23703708D01*
X28276078Y-23838124D01*
X27919937Y-24004195D01*
X27919913Y-24004207D01*
X27579587Y-24200695D01*
X27579572Y-24200704D01*
X27257652Y-24426115D01*
X26956606Y-24678724D01*
X26678724Y-24956606D01*
X26426115Y-25257652D01*
X26200704Y-25579572D01*
X26200695Y-25579587D01*
X26004207Y-25919913D01*
X26004195Y-25919937D01*
X25838124Y-26276078D01*
X25706941Y-26636500D01*
X25703707Y-26645384D01*
X25666969Y-26782491D01*
X25601993Y-27024983D01*
X25601991Y-27024994D01*
X25533751Y-27412000D01*
X25533751Y-27412004D01*
X25499500Y-27803499D01*
X25499500Y-28196500D01*
X25533751Y-28587995D01*
X25533751Y-28587999D01*
X25601991Y-28975005D01*
X25601993Y-28975016D01*
X25629247Y-29076730D01*
X25703707Y-29354616D01*
X25703708Y-29354618D01*
X25703708Y-29354619D01*
X25838124Y-29723921D01*
X26004195Y-30080062D01*
X26004207Y-30080086D01*
X26200695Y-30420412D01*
X26200704Y-30420427D01*
X26426115Y-30742347D01*
X26564477Y-30907239D01*
X26678722Y-31043391D01*
X26956609Y-31321278D01*
X27044019Y-31394624D01*
X27257652Y-31573884D01*
X27257658Y-31573888D01*
X27257659Y-31573889D01*
X27579579Y-31799300D01*
X27898546Y-31983455D01*
X27919913Y-31995792D01*
X27919937Y-31995805D01*
X28072655Y-32067018D01*
X28125095Y-32113190D01*
X28144247Y-32180383D01*
X28124031Y-32247265D01*
X28070866Y-32292599D01*
X28020251Y-32303400D01*
X24645157Y-32303400D01*
X24487043Y-32303400D01*
X24334315Y-32344323D01*
X24334314Y-32344323D01*
X24334312Y-32344324D01*
X24334309Y-32344325D01*
X24284196Y-32373259D01*
X24284195Y-32373260D01*
X24240789Y-32398320D01*
X24197385Y-32423379D01*
X24197382Y-32423381D01*
X24085578Y-32535186D01*
X23539526Y-33081237D01*
X23478203Y-33114722D01*
X23425478Y-33114158D01*
X23425448Y-33114349D01*
X23424156Y-33114144D01*
X23422903Y-33114131D01*
X23420636Y-33113586D01*
X23251196Y-33086750D01*
X23224361Y-33082500D01*
X23025639Y-33082500D01*
X22960214Y-33092862D01*
X22829362Y-33113587D01*
X22640370Y-33174993D01*
X22640367Y-33174994D01*
X22463305Y-33265213D01*
X22302533Y-33382021D01*
X22162021Y-33522533D01*
X22045213Y-33683305D01*
X21954994Y-33860367D01*
X21954993Y-33860370D01*
X21893587Y-34049362D01*
X21862500Y-34245639D01*
X600000Y-34245639D01*
X600000Y-33551582D01*
X619685Y-33484543D01*
X672489Y-33438788D01*
X698215Y-33430293D01*
X907239Y-33385864D01*
X1256189Y-33272483D01*
X1591375Y-33123249D01*
X1909125Y-32939795D01*
X2205959Y-32724133D01*
X2478624Y-32478624D01*
X2724133Y-32205959D01*
X2939795Y-31909125D01*
X3123249Y-31591375D01*
X3272483Y-31256189D01*
X3385864Y-30907239D01*
X3462148Y-30548350D01*
X3500500Y-30183453D01*
X3500500Y-29816547D01*
X3462148Y-29451650D01*
X3385864Y-29092761D01*
X3272483Y-28743811D01*
X3123249Y-28408625D01*
X2939795Y-28090875D01*
X2749015Y-27828288D01*
X2724138Y-27794047D01*
X2724131Y-27794038D01*
X2525224Y-27573131D01*
X2478624Y-27521376D01*
X2312951Y-27372203D01*
X2205961Y-27275868D01*
X2205952Y-27275861D01*
X1909126Y-27060205D01*
X1909121Y-27060202D01*
X1591381Y-26876754D01*
X1591375Y-26876751D01*
X1466277Y-26821054D01*
X1256189Y-26727517D01*
X1256184Y-26727515D01*
X1256181Y-26727514D01*
X976065Y-26636499D01*
X907239Y-26614136D01*
X907236Y-26614135D01*
X907235Y-26614135D01*
X907234Y-26614134D01*
X698219Y-26569707D01*
X636737Y-26536514D01*
X602961Y-26475351D01*
X600000Y-26448417D01*
X600000Y-20251647D01*
X1819500Y-20251647D01*
X1819500Y-21098337D01*
X1819501Y-21098355D01*
X1829650Y-21197707D01*
X1829651Y-21197710D01*
X1882996Y-21358694D01*
X1883001Y-21358705D01*
X1972029Y-21503040D01*
X1972032Y-21503044D01*
X2091955Y-21622967D01*
X2091959Y-21622970D01*
X2236294Y-21711998D01*
X2236297Y-21711999D01*
X2236303Y-21712003D01*
X2397292Y-21765349D01*
X2496655Y-21775500D01*
X3043344Y-21775499D01*
X3043352Y-21775498D01*
X3043355Y-21775498D01*
X3097760Y-21769940D01*
X3142708Y-21765349D01*
X3303697Y-21712003D01*
X3448044Y-21622968D01*
X3567968Y-21503044D01*
X3657003Y-21358697D01*
X3710349Y-21197708D01*
X3720500Y-21098345D01*
X3720499Y-20625095D01*
X3740183Y-20558057D01*
X3756813Y-20537420D01*
X4676016Y-19618219D01*
X4737339Y-19584734D01*
X4763697Y-19581900D01*
X5237726Y-19581900D01*
X5304765Y-19601585D01*
X5350520Y-19654389D01*
X5360464Y-19723547D01*
X5331439Y-19787103D01*
X5325407Y-19793581D01*
X5272032Y-19846955D01*
X5272029Y-19846959D01*
X5183001Y-19991294D01*
X5182996Y-19991305D01*
X5129651Y-20152290D01*
X5119500Y-20251647D01*
X5119500Y-21098337D01*
X5119501Y-21098355D01*
X5129650Y-21197707D01*
X5129651Y-21197710D01*
X5182996Y-21358694D01*
X5183001Y-21358705D01*
X5272029Y-21503040D01*
X5272032Y-21503044D01*
X5391955Y-21622967D01*
X5391959Y-21622970D01*
X5536294Y-21711998D01*
X5536297Y-21711999D01*
X5536303Y-21712003D01*
X5697292Y-21765349D01*
X5796655Y-21775500D01*
X6343344Y-21775499D01*
X6343352Y-21775498D01*
X6343355Y-21775498D01*
X6397760Y-21769940D01*
X6442708Y-21765349D01*
X6603697Y-21712003D01*
X6748044Y-21622968D01*
X6867968Y-21503044D01*
X6957003Y-21358697D01*
X7010349Y-21197708D01*
X7020500Y-21098345D01*
X7020499Y-20625096D01*
X7040183Y-20558058D01*
X7056813Y-20537421D01*
X7246305Y-20347929D01*
X7286527Y-20321053D01*
X7355479Y-20292494D01*
X7486589Y-20204889D01*
X7552960Y-20138517D01*
X7579891Y-20123811D01*
X7605705Y-20107223D01*
X7611904Y-20106331D01*
X7614281Y-20105034D01*
X7640640Y-20102200D01*
X7695500Y-20102200D01*
X7762539Y-20121885D01*
X7808294Y-20174689D01*
X7819500Y-20226200D01*
X7819500Y-21025855D01*
X7829913Y-21127776D01*
X7884637Y-21292922D01*
X7884642Y-21292933D01*
X7975971Y-21440999D01*
X7975974Y-21441003D01*
X8098997Y-21564026D01*
X8133097Y-21585059D01*
X8179821Y-21637005D01*
X8192000Y-21690597D01*
X8192000Y-22782491D01*
X8172315Y-22849530D01*
X8133098Y-22888029D01*
X8061344Y-22932287D01*
X7937289Y-23056342D01*
X7845187Y-23205663D01*
X7845186Y-23205666D01*
X7790001Y-23372203D01*
X7790001Y-23372204D01*
X7790000Y-23372204D01*
X7779500Y-23474983D01*
X7779500Y-24475001D01*
X7779501Y-24475019D01*
X7790000Y-24577796D01*
X7790001Y-24577799D01*
X7845185Y-24744331D01*
X7845186Y-24744334D01*
X7937288Y-24893656D01*
X8061344Y-25017712D01*
X8210666Y-25109814D01*
X8377203Y-25164999D01*
X8479991Y-25175500D01*
X9105008Y-25175499D01*
X9105016Y-25175498D01*
X9105019Y-25175498D01*
X9161302Y-25169748D01*
X9207797Y-25164999D01*
X9374334Y-25109814D01*
X9523656Y-25017712D01*
X9617319Y-24924049D01*
X9678642Y-24890564D01*
X9748334Y-24895548D01*
X9792681Y-24924049D01*
X9886344Y-25017712D01*
X10035666Y-25109814D01*
X10202203Y-25164999D01*
X10304991Y-25175500D01*
X10930008Y-25175499D01*
X10930016Y-25175498D01*
X10930019Y-25175498D01*
X10986302Y-25169748D01*
X11032797Y-25164999D01*
X11199334Y-25109814D01*
X11348656Y-25017712D01*
X11472712Y-24893656D01*
X11564814Y-24744334D01*
X11619999Y-24577797D01*
X11630500Y-24475009D01*
X11630499Y-23474992D01*
X11619999Y-23372203D01*
X11564814Y-23205666D01*
X11472712Y-23056344D01*
X11348656Y-22932288D01*
X11199334Y-22840186D01*
X11032797Y-22785001D01*
X11032795Y-22785000D01*
X10930016Y-22774500D01*
X10930009Y-22774500D01*
X10469500Y-22774500D01*
X10402461Y-22754815D01*
X10356706Y-22702011D01*
X10345500Y-22650500D01*
X10345500Y-21844500D01*
X10365185Y-21777461D01*
X10417989Y-21731706D01*
X10469500Y-21720500D01*
X10975840Y-21720500D01*
X10975848Y-21720500D01*
X10975856Y-21720499D01*
X10975918Y-21720496D01*
X10975935Y-21720500D01*
X10979005Y-21720500D01*
X10979005Y-21721233D01*
X11043873Y-21736738D01*
X11069919Y-21756654D01*
X13353939Y-24040674D01*
X13353949Y-24040685D01*
X13358279Y-24045015D01*
X13358280Y-24045016D01*
X13470084Y-24156820D01*
X13541383Y-24197984D01*
X13607015Y-24235877D01*
X13759742Y-24276800D01*
X13759743Y-24276800D01*
X17706435Y-24276800D01*
X17773474Y-24296485D01*
X17819229Y-24349289D01*
X17829792Y-24413401D01*
X17828494Y-24426115D01*
X17819500Y-24514144D01*
X17819500Y-25525855D01*
X17829913Y-25627776D01*
X17884637Y-25792922D01*
X17884642Y-25792933D01*
X17975971Y-25940999D01*
X17975974Y-25941003D01*
X18098997Y-26064026D01*
X18133097Y-26085059D01*
X18179821Y-26137005D01*
X18192000Y-26190597D01*
X18192000Y-26782491D01*
X18172315Y-26849530D01*
X18133098Y-26888029D01*
X18061344Y-26932287D01*
X17937289Y-27056342D01*
X17845187Y-27205663D01*
X17845186Y-27205666D01*
X17790001Y-27372203D01*
X17790001Y-27372204D01*
X17790000Y-27372204D01*
X17779500Y-27474983D01*
X17779500Y-28475001D01*
X17779501Y-28475019D01*
X17790000Y-28577796D01*
X17790001Y-28577799D01*
X17845013Y-28743811D01*
X17845186Y-28744334D01*
X17937288Y-28893656D01*
X18061344Y-29017712D01*
X18210666Y-29109814D01*
X18377203Y-29164999D01*
X18479991Y-29175500D01*
X19105008Y-29175499D01*
X19105016Y-29175498D01*
X19105019Y-29175498D01*
X19161302Y-29169748D01*
X19207797Y-29164999D01*
X19374334Y-29109814D01*
X19523656Y-29017712D01*
X19647712Y-28893656D01*
X19739814Y-28744334D01*
X19794999Y-28577797D01*
X19805500Y-28475009D01*
X19805499Y-27474992D01*
X19794999Y-27372203D01*
X19739814Y-27205666D01*
X19647712Y-27056344D01*
X19523656Y-26932288D01*
X19523655Y-26932287D01*
X19451902Y-26888029D01*
X19405178Y-26836081D01*
X19393000Y-26782491D01*
X19393000Y-26209102D01*
X19412685Y-26142063D01*
X19451903Y-26103564D01*
X19490971Y-26079465D01*
X19516003Y-26064026D01*
X19639026Y-25941003D01*
X19639458Y-25940301D01*
X19639881Y-25939921D01*
X19643507Y-25935336D01*
X19644290Y-25935955D01*
X19691402Y-25893575D01*
X19760364Y-25882349D01*
X19824448Y-25910188D01*
X19846342Y-25935455D01*
X19846493Y-25935336D01*
X19849143Y-25938687D01*
X19850540Y-25940299D01*
X19850972Y-25940999D01*
X19850975Y-25941004D01*
X19973996Y-26064025D01*
X19974000Y-26064028D01*
X20122066Y-26155357D01*
X20122069Y-26155358D01*
X20122075Y-26155362D01*
X20287225Y-26210087D01*
X20389152Y-26220500D01*
X20389157Y-26220500D01*
X20975843Y-26220500D01*
X20975848Y-26220500D01*
X21077775Y-26210087D01*
X21242925Y-26155362D01*
X21391003Y-26064026D01*
X21514026Y-25941003D01*
X21605362Y-25792925D01*
X21660087Y-25627775D01*
X21670500Y-25525848D01*
X21670500Y-25167477D01*
X21690185Y-25100438D01*
X21742989Y-25054683D01*
X21812147Y-25044739D01*
X21818663Y-25045855D01*
X21902700Y-25062571D01*
X21923457Y-25066700D01*
X21923458Y-25066700D01*
X22081144Y-25066700D01*
X22081145Y-25066699D01*
X22235797Y-25035937D01*
X22381479Y-24975594D01*
X22512589Y-24887989D01*
X22624089Y-24776489D01*
X22711694Y-24645379D01*
X22772037Y-24499697D01*
X22802800Y-24345042D01*
X22802800Y-24187358D01*
X22802800Y-24187355D01*
X22802799Y-24187353D01*
X22796726Y-24156821D01*
X22772037Y-24032703D01*
X22760234Y-24004207D01*
X22711697Y-23887027D01*
X22711690Y-23887014D01*
X22624089Y-23755911D01*
X22624086Y-23755907D01*
X22512592Y-23644413D01*
X22512588Y-23644410D01*
X22381485Y-23556809D01*
X22381472Y-23556802D01*
X22235801Y-23496464D01*
X22235789Y-23496461D01*
X22081145Y-23465700D01*
X22081142Y-23465700D01*
X21923458Y-23465700D01*
X21923455Y-23465700D01*
X21768810Y-23496461D01*
X21768798Y-23496464D01*
X21623127Y-23556802D01*
X21623114Y-23556809D01*
X21491425Y-23644802D01*
X21424747Y-23665680D01*
X21422534Y-23665700D01*
X21357243Y-23665700D01*
X21204515Y-23706623D01*
X21204514Y-23706623D01*
X21204512Y-23706624D01*
X21204509Y-23706625D01*
X21155801Y-23734747D01*
X21155765Y-23734768D01*
X21154395Y-23735560D01*
X21067584Y-23785680D01*
X21059538Y-23793725D01*
X21047017Y-23801397D01*
X21026884Y-23806841D01*
X21008577Y-23816834D01*
X20981830Y-23819023D01*
X20979570Y-23819635D01*
X20979005Y-23819455D01*
X20979005Y-23819500D01*
X20976014Y-23819500D01*
X20975953Y-23819505D01*
X20975854Y-23819500D01*
X20975848Y-23819500D01*
X20389152Y-23819500D01*
X20389138Y-23819500D01*
X20389039Y-23819505D01*
X20389018Y-23819500D01*
X20385996Y-23819500D01*
X20385996Y-23818776D01*
X20321089Y-23803240D01*
X20295080Y-23783345D01*
X19826390Y-23314655D01*
X19826388Y-23314652D01*
X19707517Y-23195781D01*
X19707512Y-23195777D01*
X19582075Y-23123357D01*
X19582073Y-23123356D01*
X19582071Y-23123355D01*
X19570585Y-23116723D01*
X19417857Y-23075799D01*
X19259743Y-23075799D01*
X19252147Y-23075799D01*
X19252131Y-23075800D01*
X18852539Y-23075800D01*
X18785500Y-23056115D01*
X18739745Y-23003311D01*
X18729801Y-22934153D01*
X18746999Y-22886705D01*
X18834814Y-22744334D01*
X18889999Y-22577797D01*
X18900500Y-22475009D01*
X18900499Y-19474992D01*
X18900498Y-19474983D01*
X21049500Y-19474983D01*
X21049500Y-22475001D01*
X21049501Y-22475018D01*
X21060000Y-22577796D01*
X21060001Y-22577799D01*
X21115142Y-22744202D01*
X21115186Y-22744334D01*
X21207288Y-22893656D01*
X21331344Y-23017712D01*
X21480666Y-23109814D01*
X21647203Y-23164999D01*
X21749991Y-23175500D01*
X22475008Y-23175499D01*
X22475016Y-23175498D01*
X22475019Y-23175498D01*
X22531302Y-23169748D01*
X22577797Y-23164999D01*
X22744334Y-23109814D01*
X22893656Y-23017712D01*
X23017712Y-22893656D01*
X23109814Y-22744334D01*
X23164999Y-22577797D01*
X23175500Y-22475009D01*
X23175499Y-19474992D01*
X23164999Y-19372203D01*
X23121539Y-19241052D01*
X23119138Y-19171225D01*
X23151563Y-19114370D01*
X24295520Y-17970416D01*
X24368127Y-17844654D01*
X24418692Y-17796441D01*
X24432176Y-17790475D01*
X24557331Y-17743796D01*
X24672546Y-17657546D01*
X24758796Y-17542331D01*
X24809091Y-17407483D01*
X24815500Y-17347873D01*
X24815499Y-16552128D01*
X24809091Y-16492517D01*
X24764422Y-16372754D01*
X24758797Y-16357671D01*
X24758793Y-16357664D01*
X24672547Y-16242455D01*
X24672544Y-16242452D01*
X24557335Y-16156206D01*
X24557328Y-16156202D01*
X24422482Y-16105908D01*
X24422483Y-16105908D01*
X24362883Y-16099501D01*
X24362881Y-16099500D01*
X24362873Y-16099500D01*
X24362864Y-16099500D01*
X23267129Y-16099500D01*
X23267123Y-16099501D01*
X23207516Y-16105908D01*
X23072671Y-16156202D01*
X23072664Y-16156206D01*
X22957455Y-16242452D01*
X22957452Y-16242455D01*
X22871206Y-16357664D01*
X22871202Y-16357671D01*
X22820908Y-16492517D01*
X22814501Y-16552116D01*
X22814501Y-16552123D01*
X22814500Y-16552135D01*
X22814500Y-17347870D01*
X22814501Y-17347876D01*
X22820908Y-17407483D01*
X22871202Y-17542328D01*
X22871204Y-17542332D01*
X22872715Y-17544350D01*
X22873594Y-17546709D01*
X22875454Y-17550114D01*
X22874964Y-17550381D01*
X22897128Y-17609816D01*
X22882273Y-17678088D01*
X22861125Y-17706337D01*
X21829000Y-18738462D01*
X21767677Y-18771947D01*
X21753103Y-18773897D01*
X21753132Y-18774180D01*
X21647202Y-18785001D01*
X21647200Y-18785001D01*
X21480668Y-18840185D01*
X21480663Y-18840187D01*
X21331342Y-18932289D01*
X21207289Y-19056342D01*
X21115187Y-19205663D01*
X21115185Y-19205668D01*
X21106388Y-19232216D01*
X21060001Y-19372203D01*
X21060001Y-19372204D01*
X21060000Y-19372204D01*
X21049500Y-19474983D01*
X18900498Y-19474983D01*
X18889999Y-19372203D01*
X18834814Y-19205666D01*
X18742712Y-19056344D01*
X18618656Y-18932288D01*
X18513543Y-18867454D01*
X18469336Y-18840187D01*
X18469331Y-18840185D01*
X18467862Y-18839698D01*
X18302797Y-18785001D01*
X18302795Y-18785000D01*
X18200010Y-18774500D01*
X17474998Y-18774500D01*
X17474980Y-18774501D01*
X17372203Y-18785000D01*
X17372200Y-18785001D01*
X17205668Y-18840185D01*
X17205663Y-18840187D01*
X17056342Y-18932289D01*
X16937865Y-19050767D01*
X16876542Y-19084252D01*
X16806850Y-19079268D01*
X16762503Y-19050767D01*
X16391119Y-18679383D01*
X16357634Y-18618060D01*
X16354800Y-18591702D01*
X16354800Y-10649000D01*
X16374485Y-10581961D01*
X16427289Y-10536206D01*
X16478800Y-10525000D01*
X16980402Y-10525000D01*
X17044266Y-10542711D01*
X17057316Y-10550552D01*
X17062484Y-10555720D01*
X17149295Y-10605839D01*
X17150224Y-10606375D01*
X17150250Y-10606391D01*
X17177197Y-10621949D01*
X17199415Y-10634777D01*
X17352143Y-10675701D01*
X17352146Y-10675701D01*
X17517853Y-10675701D01*
X17517869Y-10675700D01*
X24289002Y-10675700D01*
X24356041Y-10695385D01*
X24401796Y-10748189D01*
X24411740Y-10817347D01*
X24382715Y-10880903D01*
X24376683Y-10887381D01*
X23334481Y-11929582D01*
X23334477Y-11929587D01*
X23289232Y-12007956D01*
X23289231Y-12007958D01*
X23261871Y-12055345D01*
X23211303Y-12103560D01*
X23197819Y-12109525D01*
X23072669Y-12156203D01*
X23072664Y-12156206D01*
X22957455Y-12242452D01*
X22957452Y-12242455D01*
X22871206Y-12357664D01*
X22871202Y-12357671D01*
X22820908Y-12492517D01*
X22814827Y-12549085D01*
X22814501Y-12552123D01*
X22814500Y-12552135D01*
X22814501Y-13309200D01*
X22794817Y-13376239D01*
X22742013Y-13421994D01*
X22690501Y-13433200D01*
X21980066Y-13433200D01*
X21913027Y-13413515D01*
X21911175Y-13412302D01*
X21779485Y-13324309D01*
X21779472Y-13324302D01*
X21633801Y-13263964D01*
X21633789Y-13263961D01*
X21479145Y-13233200D01*
X21479142Y-13233200D01*
X21321458Y-13233200D01*
X21321455Y-13233200D01*
X21166810Y-13263961D01*
X21166798Y-13263964D01*
X21021127Y-13324302D01*
X21021114Y-13324309D01*
X20890011Y-13411910D01*
X20890007Y-13411913D01*
X20778513Y-13523407D01*
X20778510Y-13523411D01*
X20690909Y-13654514D01*
X20690902Y-13654527D01*
X20630564Y-13800198D01*
X20630561Y-13800210D01*
X20599800Y-13954853D01*
X20599203Y-13960918D01*
X20596524Y-13960654D01*
X20580115Y-14016539D01*
X20527311Y-14062294D01*
X20475800Y-14073500D01*
X19237397Y-14073500D01*
X19170358Y-14053815D01*
X19149716Y-14037181D01*
X18818873Y-13706338D01*
X18785388Y-13645015D01*
X18790372Y-13575323D01*
X18807289Y-13544344D01*
X18808796Y-13542331D01*
X18821013Y-13509577D01*
X18850840Y-13429604D01*
X18859091Y-13407483D01*
X18865500Y-13347873D01*
X18865499Y-12552128D01*
X18859091Y-12492517D01*
X18808796Y-12357669D01*
X18808795Y-12357668D01*
X18808793Y-12357664D01*
X18722547Y-12242455D01*
X18722544Y-12242452D01*
X18607335Y-12156206D01*
X18607328Y-12156202D01*
X18472482Y-12105908D01*
X18472483Y-12105908D01*
X18412883Y-12099501D01*
X18412881Y-12099500D01*
X18412873Y-12099500D01*
X18412864Y-12099500D01*
X17317129Y-12099500D01*
X17317123Y-12099501D01*
X17257516Y-12105908D01*
X17122671Y-12156202D01*
X17122664Y-12156206D01*
X17007455Y-12242452D01*
X17007452Y-12242455D01*
X16921206Y-12357664D01*
X16921202Y-12357671D01*
X16870908Y-12492517D01*
X16864827Y-12549085D01*
X16864501Y-12552123D01*
X16864500Y-12552135D01*
X16864500Y-13347870D01*
X16864501Y-13347876D01*
X16870908Y-13407483D01*
X16921202Y-13542328D01*
X16921206Y-13542335D01*
X17007452Y-13657544D01*
X17007455Y-13657547D01*
X17122664Y-13743793D01*
X17122671Y-13743797D01*
X17247818Y-13790474D01*
X17267830Y-13805454D01*
X17290052Y-13816910D01*
X17299955Y-13829503D01*
X17303752Y-13832345D01*
X17311870Y-13844653D01*
X17334357Y-13883599D01*
X17334358Y-13883604D01*
X17334360Y-13883604D01*
X17378996Y-13960918D01*
X17384479Y-13970414D01*
X17384481Y-13970417D01*
X17503349Y-14089285D01*
X17503355Y-14089290D01*
X18452439Y-15038374D01*
X18452449Y-15038385D01*
X18456779Y-15042715D01*
X18456780Y-15042716D01*
X18568584Y-15154520D01*
X18648091Y-15200423D01*
X18705515Y-15233577D01*
X18858242Y-15274500D01*
X18858243Y-15274500D01*
X25150500Y-15274500D01*
X25217539Y-15294185D01*
X25263294Y-15346989D01*
X25274500Y-15398500D01*
X25274500Y-16175001D01*
X25274501Y-16175019D01*
X25285000Y-16277796D01*
X25285001Y-16277799D01*
X25329393Y-16411763D01*
X25340186Y-16444334D01*
X25406673Y-16552128D01*
X25432289Y-16593657D01*
X25556344Y-16717712D01*
X25615595Y-16754258D01*
X25622418Y-16761844D01*
X25631700Y-16766083D01*
X25645388Y-16787381D01*
X25662320Y-16806206D01*
X25664964Y-16817841D01*
X25669475Y-16824860D01*
X25674498Y-16859791D01*
X25674499Y-16859795D01*
X25674499Y-16904057D01*
X25674499Y-16904059D01*
X25674500Y-16914053D01*
X25674500Y-19795201D01*
X25654815Y-19862240D01*
X25615598Y-19900739D01*
X25556344Y-19937287D01*
X25432289Y-20061342D01*
X25340187Y-20210663D01*
X25340185Y-20210668D01*
X25313072Y-20292490D01*
X25285001Y-20377203D01*
X25285001Y-20377204D01*
X25285000Y-20377204D01*
X25274500Y-20479983D01*
X25274500Y-21530001D01*
X25274501Y-21530019D01*
X25285000Y-21632796D01*
X25285001Y-21632799D01*
X25332288Y-21775499D01*
X25340186Y-21799334D01*
X25432288Y-21948656D01*
X25556344Y-22072712D01*
X25705666Y-22164814D01*
X25872203Y-22219999D01*
X25974991Y-22230500D01*
X26575008Y-22230499D01*
X26575016Y-22230498D01*
X26575019Y-22230498D01*
X26631302Y-22224748D01*
X26677797Y-22219999D01*
X26844334Y-22164814D01*
X26993656Y-22072712D01*
X27117712Y-21948656D01*
X27209814Y-21799334D01*
X27264999Y-21632797D01*
X27275500Y-21530009D01*
X27275499Y-20479992D01*
X27264999Y-20377203D01*
X27209814Y-20210666D01*
X27117712Y-20061344D01*
X26993656Y-19937288D01*
X26993655Y-19937287D01*
X26934402Y-19900739D01*
X26887678Y-19848791D01*
X26875500Y-19795201D01*
X26875500Y-17125096D01*
X26884144Y-17095655D01*
X26890668Y-17065669D01*
X26894422Y-17060653D01*
X26895185Y-17058057D01*
X26911815Y-17037419D01*
X27037416Y-16911817D01*
X27098739Y-16878333D01*
X27125097Y-16875499D01*
X29075002Y-16875499D01*
X29075008Y-16875499D01*
X29177797Y-16864999D01*
X29344334Y-16809814D01*
X29493656Y-16717712D01*
X29617712Y-16593656D01*
X29709814Y-16444334D01*
X29764999Y-16277797D01*
X29775500Y-16175009D01*
X29775499Y-15188099D01*
X29795183Y-15121061D01*
X29847987Y-15075306D01*
X29899499Y-15064100D01*
X36673124Y-15064100D01*
X36740163Y-15083785D01*
X36785918Y-15136589D01*
X36792200Y-15153505D01*
X36823254Y-15260393D01*
X36823255Y-15260396D01*
X36823256Y-15260398D01*
X36860681Y-15323681D01*
X36906917Y-15401862D01*
X36906923Y-15401870D01*
X37023129Y-15518076D01*
X37023133Y-15518079D01*
X37023135Y-15518081D01*
X37164602Y-15601744D01*
X37206224Y-15613836D01*
X37322426Y-15647597D01*
X37322429Y-15647597D01*
X37322431Y-15647598D01*
X37359306Y-15650500D01*
X37359314Y-15650500D01*
X38515686Y-15650500D01*
X38515694Y-15650500D01*
X38552569Y-15647598D01*
X38552571Y-15647597D01*
X38552573Y-15647597D01*
X38594191Y-15635505D01*
X38710398Y-15601744D01*
X38851865Y-15518081D01*
X38968081Y-15401865D01*
X39051744Y-15260398D01*
X39097096Y-15104296D01*
X39097597Y-15102573D01*
X39097598Y-15102567D01*
X39099076Y-15083785D01*
X39100500Y-15065694D01*
X39100500Y-14667895D01*
X39120185Y-14600856D01*
X39172989Y-14555101D01*
X39242147Y-14545157D01*
X39290496Y-14565671D01*
X39291420Y-14564110D01*
X39298135Y-14568081D01*
X39439602Y-14651744D01*
X39481224Y-14663836D01*
X39597426Y-14697597D01*
X39597429Y-14697597D01*
X39597431Y-14697598D01*
X39634306Y-14700500D01*
X40470800Y-14700500D01*
X40537839Y-14720185D01*
X40583594Y-14772989D01*
X40594800Y-14824500D01*
X40594800Y-18006302D01*
X40575115Y-18073341D01*
X40558481Y-18093983D01*
X39477130Y-19175333D01*
X39415807Y-19208818D01*
X39346115Y-19203834D01*
X39290182Y-19161962D01*
X39272652Y-19124467D01*
X39271802Y-19124785D01*
X39218797Y-18982671D01*
X39218793Y-18982664D01*
X39132547Y-18867455D01*
X39132544Y-18867452D01*
X39017335Y-18781206D01*
X39017328Y-18781202D01*
X38882482Y-18730908D01*
X38882483Y-18730908D01*
X38822883Y-18724501D01*
X38822881Y-18724500D01*
X38822873Y-18724500D01*
X38822864Y-18724500D01*
X37227129Y-18724500D01*
X37227123Y-18724501D01*
X37167516Y-18730908D01*
X37032671Y-18781202D01*
X37032664Y-18781206D01*
X36917455Y-18867452D01*
X36917452Y-18867455D01*
X36831206Y-18982664D01*
X36831202Y-18982671D01*
X36780908Y-19117517D01*
X36774726Y-19175022D01*
X36774501Y-19177123D01*
X36774500Y-19177135D01*
X36774500Y-21672870D01*
X36774501Y-21672876D01*
X36780908Y-21732483D01*
X36831202Y-21867328D01*
X36831206Y-21867335D01*
X36917452Y-21982544D01*
X36917455Y-21982547D01*
X37032664Y-22068793D01*
X37032671Y-22068797D01*
X37167517Y-22119091D01*
X37167516Y-22119091D01*
X37174444Y-22119835D01*
X37227127Y-22125500D01*
X38822872Y-22125499D01*
X38882483Y-22119091D01*
X38907165Y-22109884D01*
X38976856Y-22104899D01*
X39038180Y-22138384D01*
X39071666Y-22199706D01*
X39074500Y-22226066D01*
X39074500Y-23795201D01*
X39054815Y-23862240D01*
X39015598Y-23900739D01*
X38956344Y-23937287D01*
X38832285Y-24061346D01*
X38830537Y-24064182D01*
X38828829Y-24065717D01*
X38827807Y-24067011D01*
X38827585Y-24066836D01*
X38778589Y-24110905D01*
X38709626Y-24122126D01*
X38645544Y-24094282D01*
X38619463Y-24064182D01*
X38617714Y-24061346D01*
X38493657Y-23937289D01*
X38493656Y-23937288D01*
X38344334Y-23845186D01*
X38177797Y-23790001D01*
X38177795Y-23790000D01*
X38075010Y-23779500D01*
X37474998Y-23779500D01*
X37474980Y-23779501D01*
X37372203Y-23790000D01*
X37372200Y-23790001D01*
X37205668Y-23845185D01*
X37205663Y-23845187D01*
X37056342Y-23937289D01*
X36932289Y-24061342D01*
X36840187Y-24210663D01*
X36840185Y-24210668D01*
X36818272Y-24276799D01*
X36785001Y-24377203D01*
X36785001Y-24377204D01*
X36785000Y-24377204D01*
X36774500Y-24479983D01*
X36774500Y-25530001D01*
X36774501Y-25530019D01*
X36785000Y-25632796D01*
X36785001Y-25632799D01*
X36790661Y-25649879D01*
X36840186Y-25799334D01*
X36932288Y-25948656D01*
X37056344Y-26072712D01*
X37205666Y-26164814D01*
X37372203Y-26219999D01*
X37474991Y-26230500D01*
X38075008Y-26230499D01*
X38085576Y-26229419D01*
X38087500Y-26229777D01*
X38089334Y-26229093D01*
X38121694Y-26236132D01*
X38154268Y-26242187D01*
X38156300Y-26243660D01*
X38157607Y-26243945D01*
X38185861Y-26265096D01*
X38321139Y-26400374D01*
X38321149Y-26400385D01*
X38325479Y-26404715D01*
X38325480Y-26404716D01*
X38437284Y-26516520D01*
X38514693Y-26561211D01*
X38524095Y-26566639D01*
X38524097Y-26566641D01*
X38562151Y-26588611D01*
X38574215Y-26595577D01*
X38726943Y-26636500D01*
X40105731Y-26636500D01*
X40105747Y-26636501D01*
X40113343Y-26636501D01*
X40271454Y-26636501D01*
X40271457Y-26636501D01*
X40424185Y-26595577D01*
X40474304Y-26566639D01*
X40561116Y-26516520D01*
X40672920Y-26404716D01*
X40672920Y-26404714D01*
X40683128Y-26394507D01*
X40683130Y-26394504D01*
X42020206Y-25057428D01*
X42020211Y-25057424D01*
X42030414Y-25047220D01*
X42030416Y-25047220D01*
X42142220Y-24935416D01*
X42205520Y-24825777D01*
X42221277Y-24798485D01*
X42262201Y-24645757D01*
X42262201Y-24487643D01*
X42262201Y-24480048D01*
X42262200Y-24480030D01*
X42262200Y-22699497D01*
X42281885Y-22632458D01*
X42334689Y-22586703D01*
X42403847Y-22576759D01*
X42467403Y-22605784D01*
X42473881Y-22611816D01*
X45095739Y-25233674D01*
X45095749Y-25233685D01*
X45100079Y-25238015D01*
X45100080Y-25238016D01*
X45211884Y-25349820D01*
X45298695Y-25399939D01*
X45298697Y-25399941D01*
X45336751Y-25421911D01*
X45348815Y-25428877D01*
X45501543Y-25469800D01*
X45659657Y-25469800D01*
X45666991Y-25469800D01*
X45734030Y-25489485D01*
X45779785Y-25542289D01*
X45787679Y-25571374D01*
X45788585Y-25571181D01*
X45790001Y-25577799D01*
X45845185Y-25744331D01*
X45845186Y-25744334D01*
X45937288Y-25893656D01*
X46061344Y-26017712D01*
X46210666Y-26109814D01*
X46377203Y-26164999D01*
X46479991Y-26175500D01*
X47105008Y-26175499D01*
X47105016Y-26175498D01*
X47105019Y-26175498D01*
X47161302Y-26169748D01*
X47207797Y-26164999D01*
X47374334Y-26109814D01*
X47523656Y-26017712D01*
X47647712Y-25893656D01*
X47739814Y-25744334D01*
X47794999Y-25577797D01*
X47805500Y-25475009D01*
X47805499Y-24756896D01*
X47825183Y-24689858D01*
X47841813Y-24669221D01*
X49098020Y-23413016D01*
X49177077Y-23276084D01*
X49218001Y-23123357D01*
X49218001Y-22965242D01*
X49218001Y-22957647D01*
X49218000Y-22957629D01*
X49218000Y-22167507D01*
X49237685Y-22100468D01*
X49276903Y-22061968D01*
X49348656Y-22017712D01*
X49472712Y-21893656D01*
X49564814Y-21744334D01*
X49619999Y-21577797D01*
X49630500Y-21475009D01*
X49630499Y-20474992D01*
X49619999Y-20372203D01*
X49564814Y-20205666D01*
X49472712Y-20056344D01*
X49348656Y-19932288D01*
X49238606Y-19864409D01*
X49199336Y-19840187D01*
X49199331Y-19840185D01*
X49197862Y-19839698D01*
X49032797Y-19785001D01*
X49032795Y-19785000D01*
X48930010Y-19774500D01*
X48304998Y-19774500D01*
X48304980Y-19774501D01*
X48202203Y-19785000D01*
X48202200Y-19785001D01*
X48035668Y-19840185D01*
X48035663Y-19840187D01*
X47886342Y-19932289D01*
X47792681Y-20025951D01*
X47731358Y-20059436D01*
X47661666Y-20054452D01*
X47617319Y-20025951D01*
X47523657Y-19932289D01*
X47523656Y-19932288D01*
X47413606Y-19864409D01*
X47374336Y-19840187D01*
X47374331Y-19840185D01*
X47372862Y-19839698D01*
X47207797Y-19785001D01*
X47207795Y-19785000D01*
X47105016Y-19774500D01*
X47105009Y-19774500D01*
X46967000Y-19774500D01*
X46899961Y-19754815D01*
X46854206Y-19702011D01*
X46843000Y-19650500D01*
X46843000Y-19319897D01*
X46862685Y-19252858D01*
X46879319Y-19232216D01*
X48237417Y-17874119D01*
X48298740Y-17840634D01*
X48325098Y-17837800D01*
X50707203Y-17837800D01*
X50774242Y-17857485D01*
X50794884Y-17874119D01*
X53738181Y-20817416D01*
X53771666Y-20878739D01*
X53774500Y-20905097D01*
X53774500Y-21530001D01*
X53774501Y-21530019D01*
X53785000Y-21632796D01*
X53785001Y-21632799D01*
X53832288Y-21775499D01*
X53840186Y-21799334D01*
X53932288Y-21948656D01*
X54056344Y-22072712D01*
X54205666Y-22164814D01*
X54372203Y-22219999D01*
X54474991Y-22230500D01*
X55075008Y-22230499D01*
X55075016Y-22230498D01*
X55075019Y-22230498D01*
X55131302Y-22224748D01*
X55177797Y-22219999D01*
X55344334Y-22164814D01*
X55493656Y-22072712D01*
X55617712Y-21948656D01*
X55709814Y-21799334D01*
X55764999Y-21632797D01*
X55775500Y-21530009D01*
X55775499Y-20479992D01*
X55764999Y-20377203D01*
X55709814Y-20210666D01*
X55617712Y-20061344D01*
X55493656Y-19937288D01*
X55344334Y-19845186D01*
X55177797Y-19790001D01*
X55177795Y-19790000D01*
X55075010Y-19779500D01*
X54474999Y-19779500D01*
X54474983Y-19779501D01*
X54464413Y-19780581D01*
X54395721Y-19767807D01*
X54364138Y-19744903D01*
X51494890Y-16875655D01*
X51494888Y-16875652D01*
X51376017Y-16756781D01*
X51376016Y-16756780D01*
X51289204Y-16706660D01*
X51289204Y-16706659D01*
X51289200Y-16706658D01*
X51239085Y-16677723D01*
X51086357Y-16636799D01*
X50928243Y-16636799D01*
X50920647Y-16636799D01*
X50920631Y-16636800D01*
X50313275Y-16636800D01*
X50246236Y-16617115D01*
X50200481Y-16564311D01*
X50190537Y-16495153D01*
X50207734Y-16447707D01*
X50208581Y-16446332D01*
X50209814Y-16444334D01*
X50264999Y-16277797D01*
X50275500Y-16175009D01*
X50275499Y-14974992D01*
X50272433Y-14944982D01*
X50264999Y-14872203D01*
X50264998Y-14872200D01*
X50242974Y-14805737D01*
X50209814Y-14705666D01*
X50117712Y-14556344D01*
X49993656Y-14432288D01*
X49844334Y-14340186D01*
X49677797Y-14285001D01*
X49677795Y-14285000D01*
X49575016Y-14274500D01*
X49575009Y-14274500D01*
X47625097Y-14274500D01*
X47558058Y-14254815D01*
X47537416Y-14238181D01*
X44866490Y-11567255D01*
X44866488Y-11567252D01*
X44747617Y-11448381D01*
X44747616Y-11448380D01*
X44660804Y-11398260D01*
X44660804Y-11398259D01*
X44660800Y-11398258D01*
X44610685Y-11369323D01*
X44457957Y-11328399D01*
X44299843Y-11328399D01*
X44292247Y-11328399D01*
X44292231Y-11328400D01*
X41720197Y-11328400D01*
X41653158Y-11308715D01*
X41607403Y-11255911D01*
X41597459Y-11186753D01*
X41626484Y-11123197D01*
X41632516Y-11116719D01*
X46515406Y-6233828D01*
X46576729Y-6200343D01*
X46646421Y-6205327D01*
X46650532Y-6206944D01*
X46727219Y-6238710D01*
X46942537Y-6296404D01*
X47163543Y-6325500D01*
X47163550Y-6325500D01*
X47386450Y-6325500D01*
X47386457Y-6325500D01*
X47607463Y-6296404D01*
X47822781Y-6238710D01*
X48028726Y-6153405D01*
X48221774Y-6041948D01*
X48398624Y-5906247D01*
X48556247Y-5748624D01*
X48691948Y-5571774D01*
X48803405Y-5378726D01*
X48888710Y-5172781D01*
X48946404Y-4957463D01*
X48975500Y-4736457D01*
X48975500Y-4513543D01*
X48946404Y-4292537D01*
X48888710Y-4077219D01*
X48867612Y-4026285D01*
X48803406Y-3871277D01*
X48803405Y-3871274D01*
X48691948Y-3678226D01*
X48651094Y-3624984D01*
X51074500Y-3624984D01*
X51074500Y-5625015D01*
X51085000Y-5727795D01*
X51085001Y-5727797D01*
X51091904Y-5748629D01*
X51140186Y-5894335D01*
X51140187Y-5894337D01*
X51232286Y-6043651D01*
X51232289Y-6043655D01*
X51356344Y-6167710D01*
X51356348Y-6167713D01*
X51505662Y-6259812D01*
X51505664Y-6259813D01*
X51505666Y-6259814D01*
X51672203Y-6314999D01*
X51774992Y-6325500D01*
X51774997Y-6325500D01*
X53775003Y-6325500D01*
X53775008Y-6325500D01*
X53877797Y-6314999D01*
X54044334Y-6259814D01*
X54193655Y-6167711D01*
X54317711Y-6043655D01*
X54409814Y-5894334D01*
X54464999Y-5727797D01*
X54475500Y-5625008D01*
X54475500Y-3624992D01*
X54464999Y-3522203D01*
X54409814Y-3355666D01*
X54408142Y-3352956D01*
X54317713Y-3206348D01*
X54317710Y-3206344D01*
X54193655Y-3082289D01*
X54193651Y-3082286D01*
X54044337Y-2990187D01*
X54044335Y-2990186D01*
X53922982Y-2949974D01*
X53877797Y-2935001D01*
X53877795Y-2935000D01*
X53775015Y-2924500D01*
X53775008Y-2924500D01*
X51774992Y-2924500D01*
X51774984Y-2924500D01*
X51672204Y-2935000D01*
X51672203Y-2935001D01*
X51505664Y-2990186D01*
X51505662Y-2990187D01*
X51356348Y-3082286D01*
X51356344Y-3082289D01*
X51232289Y-3206344D01*
X51232286Y-3206348D01*
X51140187Y-3355662D01*
X51140186Y-3355664D01*
X51085001Y-3522203D01*
X51085000Y-3522204D01*
X51074500Y-3624984D01*
X48651094Y-3624984D01*
X48586071Y-3540244D01*
X48556248Y-3501377D01*
X48556242Y-3501370D01*
X48398629Y-3343757D01*
X48398622Y-3343751D01*
X48221782Y-3208058D01*
X48221780Y-3208057D01*
X48221774Y-3208052D01*
X48028726Y-3096595D01*
X48028722Y-3096593D01*
X47822790Y-3011293D01*
X47822783Y-3011291D01*
X47822781Y-3011290D01*
X47607463Y-2953596D01*
X47607457Y-2953595D01*
X47607452Y-2953594D01*
X47386466Y-2924501D01*
X47386463Y-2924500D01*
X47386457Y-2924500D01*
X47163543Y-2924500D01*
X47163537Y-2924500D01*
X47163533Y-2924501D01*
X46942547Y-2953594D01*
X46942540Y-2953595D01*
X46942537Y-2953596D01*
X46805981Y-2990186D01*
X46727219Y-3011290D01*
X46727209Y-3011293D01*
X46521277Y-3096593D01*
X46521273Y-3096595D01*
X46328226Y-3208052D01*
X46328217Y-3208058D01*
X46151377Y-3343751D01*
X46151370Y-3343757D01*
X45993757Y-3501370D01*
X45993751Y-3501377D01*
X45858058Y-3678217D01*
X45858052Y-3678226D01*
X45746595Y-3871273D01*
X45746593Y-3871277D01*
X45714061Y-3949817D01*
X45670220Y-4004220D01*
X45603926Y-4026285D01*
X45536226Y-4009006D01*
X45488616Y-3957868D01*
X45475500Y-3902364D01*
X45475500Y-3624997D01*
X45475499Y-3624984D01*
X45464999Y-3522204D01*
X45464999Y-3522203D01*
X45409814Y-3355666D01*
X45408142Y-3352956D01*
X45317713Y-3206348D01*
X45317710Y-3206344D01*
X45193655Y-3082289D01*
X45193651Y-3082286D01*
X45044337Y-2990187D01*
X45044335Y-2990186D01*
X44922982Y-2949974D01*
X44877797Y-2935001D01*
X44877795Y-2935000D01*
X44775015Y-2924500D01*
X44775008Y-2924500D01*
X42774992Y-2924500D01*
X42774984Y-2924500D01*
X42672204Y-2935000D01*
X42672203Y-2935001D01*
X42505664Y-2990186D01*
X42505662Y-2990187D01*
X42356348Y-3082286D01*
X42356344Y-3082289D01*
X42232289Y-3206344D01*
X42232286Y-3206348D01*
X42140187Y-3355662D01*
X42140186Y-3355664D01*
X42085001Y-3522203D01*
X42085000Y-3522204D01*
X42074500Y-3624984D01*
X42074500Y-5424902D01*
X42054815Y-5491941D01*
X42038181Y-5512583D01*
X38112384Y-9438381D01*
X38051061Y-9471866D01*
X38024703Y-9474700D01*
X25092306Y-9474700D01*
X25025267Y-9455015D01*
X24979512Y-9402211D01*
X24970689Y-9374892D01*
X24943838Y-9239908D01*
X24943837Y-9239907D01*
X24943837Y-9239903D01*
X24943835Y-9239898D01*
X24883497Y-9094227D01*
X24883490Y-9094214D01*
X24795889Y-8963111D01*
X24795886Y-8963107D01*
X24684392Y-8851613D01*
X24684388Y-8851610D01*
X24553285Y-8764009D01*
X24553272Y-8764002D01*
X24407601Y-8703664D01*
X24407589Y-8703661D01*
X24252945Y-8672900D01*
X24252942Y-8672900D01*
X24095258Y-8672900D01*
X24095255Y-8672900D01*
X23940610Y-8703661D01*
X23940598Y-8703664D01*
X23794927Y-8764002D01*
X23794914Y-8764009D01*
X23663225Y-8852002D01*
X23596547Y-8872880D01*
X23594334Y-8872900D01*
X17693931Y-8872900D01*
X17626892Y-8853215D01*
X17581137Y-8800411D01*
X17571193Y-8731253D01*
X17576223Y-8709902D01*
X17619999Y-8577797D01*
X17630500Y-8475009D01*
X17630499Y-7862595D01*
X17650183Y-7795557D01*
X17666813Y-7774920D01*
X18310006Y-7131728D01*
X18310011Y-7131724D01*
X18320214Y-7121520D01*
X18320216Y-7121520D01*
X18432020Y-7009716D01*
X18483970Y-6919735D01*
X18511077Y-6872785D01*
X18552001Y-6720057D01*
X18552001Y-6561943D01*
X18552001Y-6554348D01*
X18552000Y-6554330D01*
X18552000Y-3626897D01*
X18571685Y-3559858D01*
X18624489Y-3514103D01*
X18693647Y-3504159D01*
X18757203Y-3533184D01*
X18763681Y-3539216D01*
X21748039Y-6523574D01*
X21748049Y-6523585D01*
X21752379Y-6527915D01*
X21752380Y-6527916D01*
X21864184Y-6639720D01*
X21950995Y-6689839D01*
X21950997Y-6689841D01*
X22001113Y-6718776D01*
X22001115Y-6718777D01*
X22153842Y-6759700D01*
X22153843Y-6759700D01*
X36154131Y-6759700D01*
X36154147Y-6759701D01*
X36161743Y-6759701D01*
X36319854Y-6759701D01*
X36319857Y-6759701D01*
X36472585Y-6718777D01*
X36522704Y-6689839D01*
X36609516Y-6639720D01*
X36721320Y-6527916D01*
X36721320Y-6527914D01*
X36731528Y-6517707D01*
X36731530Y-6517704D01*
X37015407Y-6233826D01*
X37076728Y-6200343D01*
X37146420Y-6205327D01*
X37150539Y-6206948D01*
X37179588Y-6218980D01*
X37227219Y-6238710D01*
X37442537Y-6296404D01*
X37663543Y-6325500D01*
X37663550Y-6325500D01*
X37886450Y-6325500D01*
X37886457Y-6325500D01*
X38107463Y-6296404D01*
X38322781Y-6238710D01*
X38528726Y-6153405D01*
X38721774Y-6041948D01*
X38898624Y-5906247D01*
X39056247Y-5748624D01*
X39191948Y-5571774D01*
X39303405Y-5378726D01*
X39388710Y-5172781D01*
X39446404Y-4957463D01*
X39475500Y-4736457D01*
X39475500Y-4513543D01*
X39446404Y-4292537D01*
X39388710Y-4077219D01*
X39367612Y-4026285D01*
X39303406Y-3871277D01*
X39303405Y-3871274D01*
X39191948Y-3678226D01*
X39086071Y-3540244D01*
X39056248Y-3501377D01*
X39056242Y-3501370D01*
X38898629Y-3343757D01*
X38898622Y-3343751D01*
X38721782Y-3208058D01*
X38721780Y-3208057D01*
X38721774Y-3208052D01*
X38528726Y-3096595D01*
X38528722Y-3096593D01*
X38322790Y-3011293D01*
X38322783Y-3011291D01*
X38322781Y-3011290D01*
X38107463Y-2953596D01*
X38107457Y-2953595D01*
X38107452Y-2953594D01*
X37886466Y-2924501D01*
X37886463Y-2924500D01*
X37886457Y-2924500D01*
X37663543Y-2924500D01*
X37663537Y-2924500D01*
X37663533Y-2924501D01*
X37442547Y-2953594D01*
X37442540Y-2953595D01*
X37442537Y-2953596D01*
X37305981Y-2990186D01*
X37227219Y-3011290D01*
X37227209Y-3011293D01*
X37021277Y-3096593D01*
X37021273Y-3096595D01*
X36828226Y-3208052D01*
X36828217Y-3208058D01*
X36651377Y-3343751D01*
X36651370Y-3343757D01*
X36493757Y-3501370D01*
X36493751Y-3501377D01*
X36358058Y-3678217D01*
X36358052Y-3678226D01*
X36246595Y-3871273D01*
X36246593Y-3871277D01*
X36161293Y-4077209D01*
X36161291Y-4077216D01*
X36161290Y-4077219D01*
X36144774Y-4138857D01*
X36108410Y-4198516D01*
X36045563Y-4229045D01*
X35976187Y-4220750D01*
X35922309Y-4176265D01*
X35905226Y-4138858D01*
X35888710Y-4077219D01*
X35867612Y-4026285D01*
X35803406Y-3871277D01*
X35803405Y-3871274D01*
X35691948Y-3678226D01*
X35586071Y-3540244D01*
X35556248Y-3501377D01*
X35556242Y-3501370D01*
X35398629Y-3343757D01*
X35398622Y-3343751D01*
X35221782Y-3208058D01*
X35221780Y-3208057D01*
X35221774Y-3208052D01*
X35028726Y-3096595D01*
X35028722Y-3096593D01*
X34822790Y-3011293D01*
X34822783Y-3011291D01*
X34822781Y-3011290D01*
X34607463Y-2953596D01*
X34607457Y-2953595D01*
X34607452Y-2953594D01*
X34386466Y-2924501D01*
X34386463Y-2924500D01*
X34386457Y-2924500D01*
X34163543Y-2924500D01*
X34163537Y-2924500D01*
X34163533Y-2924501D01*
X33942547Y-2953594D01*
X33942540Y-2953595D01*
X33942537Y-2953596D01*
X33805981Y-2990186D01*
X33727219Y-3011290D01*
X33727209Y-3011293D01*
X33650540Y-3043051D01*
X33581070Y-3050520D01*
X33518591Y-3019245D01*
X33515406Y-3016171D01*
X31862090Y-1362855D01*
X31862088Y-1362852D01*
X31743217Y-1243981D01*
X31743216Y-1243980D01*
X31656404Y-1193860D01*
X31656404Y-1193859D01*
X31656400Y-1193858D01*
X31606285Y-1164923D01*
X31453557Y-1123999D01*
X31295443Y-1123999D01*
X31287847Y-1123999D01*
X31287831Y-1124000D01*
X12594557Y-1124000D01*
X12436442Y-1124000D01*
X12283715Y-1164923D01*
X12283714Y-1164923D01*
X12283712Y-1164924D01*
X12283709Y-1164925D01*
X12233596Y-1193859D01*
X12233595Y-1193860D01*
X12190189Y-1218920D01*
X12146785Y-1243979D01*
X12146782Y-1243981D01*
X12034978Y-1355786D01*
X11585018Y-1805745D01*
X11523695Y-1839230D01*
X11478042Y-1838784D01*
X11477771Y-1840497D01*
X11278466Y-1808930D01*
X11278461Y-1808930D01*
X11081539Y-1808930D01*
X11081534Y-1808930D01*
X10887043Y-1839734D01*
X10699753Y-1900589D01*
X10524292Y-1989991D01*
X10364988Y-2105731D01*
X10364983Y-2105735D01*
X10225735Y-2244983D01*
X10225731Y-2244988D01*
X10109991Y-2404292D01*
X10020589Y-2579753D01*
X9959734Y-2767043D01*
X9928930Y-2961533D01*
X9928930Y-3158466D01*
X9958277Y-3343757D01*
X9959735Y-3352960D01*
X10020588Y-3540244D01*
X10093749Y-3683832D01*
X10109991Y-3715707D01*
X10225731Y-3875011D01*
X10225735Y-3875016D01*
X10364983Y-4014264D01*
X10364988Y-4014268D01*
X10503942Y-4115223D01*
X10524296Y-4130011D01*
X10699756Y-4219412D01*
X10887040Y-4280265D01*
X10964505Y-4292534D01*
X10968205Y-4293120D01*
X11031340Y-4323049D01*
X11068272Y-4382360D01*
X11067274Y-4452222D01*
X11036489Y-4503274D01*
X10814404Y-4725359D01*
X10814397Y-4725366D01*
X10811286Y-4728478D01*
X10811284Y-4728480D01*
X10699480Y-4840284D01*
X10674991Y-4882701D01*
X10669061Y-4892971D01*
X10669060Y-4892973D01*
X10631833Y-4957452D01*
X10620423Y-4977215D01*
X10579499Y-5129943D01*
X10579499Y-5129945D01*
X10579499Y-5298046D01*
X10579500Y-5298059D01*
X10579500Y-6966716D01*
X10559815Y-7033755D01*
X10527212Y-7065714D01*
X10528237Y-7067125D01*
X10364988Y-7185731D01*
X10364983Y-7185735D01*
X10225735Y-7324983D01*
X10225731Y-7324988D01*
X10109991Y-7484292D01*
X10020589Y-7659753D01*
X9959734Y-7847043D01*
X9928930Y-8041533D01*
X9928930Y-8238466D01*
X9959734Y-8432956D01*
X9959735Y-8432960D01*
X10020588Y-8620244D01*
X10093838Y-8764006D01*
X10109991Y-8795707D01*
X10225731Y-8955011D01*
X10225735Y-8955016D01*
X10364983Y-9094264D01*
X10364988Y-9094268D01*
X10471850Y-9171907D01*
X10524296Y-9210011D01*
X10568355Y-9232460D01*
X10579349Y-9238062D01*
X10630145Y-9286037D01*
X10646940Y-9353858D01*
X10624402Y-9419993D01*
X10610735Y-9436228D01*
X4923784Y-15123181D01*
X4896856Y-15137884D01*
X4871038Y-15154477D01*
X4864837Y-15155368D01*
X4862461Y-15156666D01*
X4836103Y-15159500D01*
X4733284Y-15159500D01*
X4666245Y-15139815D01*
X4634285Y-15107212D01*
X4632875Y-15108237D01*
X4514268Y-14944988D01*
X4514264Y-14944983D01*
X4375016Y-14805735D01*
X4375011Y-14805731D01*
X4215707Y-14689991D01*
X4215706Y-14689990D01*
X4215704Y-14689989D01*
X4040244Y-14600588D01*
X3852960Y-14539735D01*
X3852958Y-14539734D01*
X3852956Y-14539734D01*
X3658466Y-14508930D01*
X3658461Y-14508930D01*
X3461539Y-14508930D01*
X3461534Y-14508930D01*
X3267036Y-14539735D01*
X3262297Y-14540873D01*
X3261815Y-14538864D01*
X3200620Y-14540584D01*
X3140804Y-14504475D01*
X3110006Y-14441760D01*
X3108200Y-14420673D01*
X3108200Y-5464696D01*
X3127885Y-5397657D01*
X3144515Y-5377019D01*
X3918506Y-4603027D01*
X3918511Y-4603024D01*
X3928714Y-4592820D01*
X3928716Y-4592820D01*
X4040520Y-4481016D01*
X4102843Y-4373069D01*
X4153409Y-4324854D01*
X4210230Y-4311069D01*
X4358441Y-4311069D01*
X4358442Y-4311069D01*
X4418053Y-4304661D01*
X4552901Y-4254366D01*
X4668116Y-4168116D01*
X4754366Y-4052901D01*
X4804661Y-3918053D01*
X4811070Y-3858443D01*
X4811069Y-2261558D01*
X4804661Y-2201947D01*
X4768776Y-2105735D01*
X4754367Y-2067101D01*
X4754363Y-2067094D01*
X4668117Y-1951885D01*
X4668114Y-1951882D01*
X4552905Y-1865636D01*
X4552898Y-1865632D01*
X4418052Y-1815338D01*
X4418053Y-1815338D01*
X4358453Y-1808931D01*
X4358451Y-1808930D01*
X4358443Y-1808930D01*
X4358434Y-1808930D01*
X2761559Y-1808930D01*
X2761553Y-1808931D01*
X2701946Y-1815338D01*
X2567101Y-1865632D01*
X2567094Y-1865636D01*
X2451885Y-1951882D01*
X2451882Y-1951885D01*
X2365636Y-2067094D01*
X2365632Y-2067101D01*
X2315338Y-2201947D01*
X2310712Y-2244982D01*
X2308931Y-2261553D01*
X2308930Y-2261565D01*
X2308930Y-3858440D01*
X2308931Y-3858446D01*
X2315338Y-3918053D01*
X2365632Y-4052898D01*
X2365636Y-4052905D01*
X2451882Y-4168114D01*
X2451883Y-4168114D01*
X2451884Y-4168116D01*
X2453457Y-4169294D01*
X2454635Y-4170867D01*
X2458155Y-4174387D01*
X2457648Y-4174893D01*
X2495326Y-4225228D01*
X2500308Y-4294920D01*
X2466824Y-4356239D01*
X2142181Y-4680882D01*
X2142174Y-4680889D01*
X2138986Y-4684078D01*
X2138984Y-4684080D01*
X2027180Y-4795884D01*
X2001546Y-4840284D01*
X1995673Y-4850454D01*
X1995672Y-4850457D01*
X1977056Y-4882701D01*
X1948123Y-4932815D01*
X1907199Y-5085543D01*
X1907199Y-5085545D01*
X1907199Y-5253646D01*
X1907200Y-5253659D01*
X1907200Y-16938830D01*
X1907199Y-16938848D01*
X1907199Y-17104554D01*
X1907198Y-17104554D01*
X1907199Y-17104557D01*
X1948123Y-17257285D01*
X1975971Y-17305519D01*
X1975971Y-17305520D01*
X2027175Y-17394209D01*
X2027181Y-17394217D01*
X2146049Y-17513085D01*
X2146055Y-17513090D01*
X3526683Y-18893718D01*
X3560168Y-18955041D01*
X3555184Y-19024733D01*
X3526683Y-19069080D01*
X3057582Y-19538181D01*
X2996259Y-19571666D01*
X2969901Y-19574500D01*
X2496662Y-19574500D01*
X2496644Y-19574501D01*
X2397292Y-19584650D01*
X2397289Y-19584651D01*
X2236305Y-19637996D01*
X2236294Y-19638001D01*
X2091959Y-19727029D01*
X2091955Y-19727032D01*
X1972032Y-19846955D01*
X1972029Y-19846959D01*
X1883001Y-19991294D01*
X1882996Y-19991305D01*
X1829651Y-20152290D01*
X1819500Y-20251647D01*
X600000Y-20251647D01*
X600000Y-724000D01*
X619685Y-656961D01*
X672489Y-611206D01*
X724000Y-600000D01*
X59276000Y-600000D01*
X59343039Y-619685D01*
G37*
%TD.AperFunction*%
%TD*%
D27*
X22002300Y-24266200D03*
X21400300Y-14033700D03*
X24174100Y-9473400D03*
X6976300Y-19583100D03*
D28*
X30775000Y-4625000D03*
X34275000Y-4625000D03*
X37775000Y-4625000D03*
X52775000Y-4625000D03*
X56275000Y-4625000D03*
X43775000Y-4625000D03*
X47275000Y-4625000D03*
X3560000Y-3060000D03*
X3560000Y-15760000D03*
X11180000Y-15760000D03*
X11180000Y-8140000D03*
X11180000Y-3060000D03*
X54240000Y-35615000D03*
X54240000Y-55935000D03*
X23125000Y-57205000D03*
X25665000Y-57205000D03*
X28205000Y-57205000D03*
X30745000Y-57205000D03*
X33285000Y-57205000D03*
X35825000Y-57205000D03*
X38365000Y-57205000D03*
X40905000Y-57205000D03*
X43445000Y-57205000D03*
X45985000Y-57205000D03*
X48525000Y-57205000D03*
X51065000Y-57205000D03*
X51065000Y-34345000D03*
X48525000Y-34345000D03*
X45985000Y-34345000D03*
X43445000Y-34345000D03*
X40905000Y-34345000D03*
X38365000Y-34345000D03*
X35825000Y-34345000D03*
X33285000Y-34345000D03*
X30745000Y-34345000D03*
X28205000Y-34345000D03*
X25665000Y-34345000D03*
X23125000Y-34345000D03*
M02*
