%TF.GenerationSoftware,KiCad,Pcbnew,10.0.4*%
%TF.CreationDate,2026-07-29T20:09:02+01:00*%
%TF.ProjectId,ISLKey-Mini,49534c4b-6579-42d4-9d69-6e692e6b6963,rev?*%
%TF.SameCoordinates,Original*%
%TF.FileFunction,Copper,L2,Bot*%
%TF.FilePolarity,Positive*%
%FSLAX46Y46*%
G04 Gerber Fmt 4.6, Leading zero omitted, Abs format (unit mm)*
G04 Created by KiCad (PCBNEW 10.0.4) date 2026-07-29 20:09:02*
%MOMM*%
%LPD*%
G01*
G04 APERTURE LIST*
G04 Aperture macros list*
%AMRoundRect*
0 Rectangle with rounded corners*
0 $1 Rounding radius*
0 $2 $3 $4 $5 $6 $7 $8 $9 X,Y pos of 4 corners*
0 Add a 4 corners polygon primitive as box body*
4,1,4,$2,$3,$4,$5,$6,$7,$8,$9,$2,$3,0*
0 Add four circle primitives for the rounded corners*
1,1,$1+$1,$2,$3*
1,1,$1+$1,$4,$5*
1,1,$1+$1,$6,$7*
1,1,$1+$1,$8,$9*
0 Add four rect primitives between the rounded corners*
20,1,$1+$1,$2,$3,$4,$5,0*
20,1,$1+$1,$4,$5,$6,$7,0*
20,1,$1+$1,$6,$7,$8,$9,0*
20,1,$1+$1,$8,$9,$2,$3,0*%
G04 Aperture macros list end*
%TA.AperFunction,ComponentPad*%
%ADD10RoundRect,0.250001X-0.949999X-0.949999X0.949999X-0.949999X0.949999X0.949999X-0.949999X0.949999X0*%
%TD*%
%TA.AperFunction,ComponentPad*%
%ADD11C,2.400000*%
%TD*%
%TA.AperFunction,ComponentPad*%
%ADD12R,1.501140X1.501140*%
%TD*%
%TA.AperFunction,ComponentPad*%
%ADD13C,1.501140*%
%TD*%
%TA.AperFunction,ComponentPad*%
%ADD14C,1.524000*%
%TD*%
%TA.AperFunction,ViaPad*%
%ADD15C,0.600000*%
%TD*%
%TA.AperFunction,Conductor*%
%ADD16C,0.200000*%
%TD*%
G04 APERTURE END LIST*
D10*
%TO.P,J2,1*%
%TO.N,LK_COM*%
X30775000Y-4625000D03*
D11*
%TO.P,J2,2*%
%TO.N,LK_NO*%
X34275000Y-4625000D03*
%TO.P,J2,3*%
%TO.N,LK_NC*%
X37775000Y-4625000D03*
%TD*%
D10*
%TO.P,J3,1*%
%TO.N,EXIT*%
X52775000Y-4625000D03*
D11*
%TO.P,J3,2*%
%TO.N,GND*%
X56275000Y-4625000D03*
%TD*%
D10*
%TO.P,J1,1*%
%TO.N,ACL*%
X43775000Y-4625000D03*
D11*
%TO.P,J1,2*%
%TO.N,ACN*%
X47275000Y-4625000D03*
%TD*%
D12*
%TO.P,K1,1*%
%TO.N,+5V*%
X3560000Y-3060000D03*
D13*
%TO.P,K1,6*%
%TO.N,K_C*%
X3560000Y-15760000D03*
%TO.P,K1,7*%
%TO.N,LK_COM*%
X11180000Y-15760000D03*
%TO.P,K1,10*%
%TO.N,LK_NC*%
X11180000Y-8140000D03*
%TO.P,K1,12*%
%TO.N,LK_NO*%
X11180000Y-3060000D03*
%TD*%
D14*
%TO.P,M1,1*%
%TO.N,+5V*%
X23125000Y-57205000D03*
%TO.P,M1,2*%
%TO.N,GND*%
X25665000Y-57205000D03*
%TO.P,M1,3*%
%TO.N,N/C*%
X28205000Y-57205000D03*
%TO.P,M1,4*%
X30745000Y-57205000D03*
%TO.P,M1,5*%
X33285000Y-57205000D03*
%TO.P,M1,6*%
X35825000Y-57205000D03*
%TO.P,M1,7*%
%TO.N,RLY*%
X38365000Y-57205000D03*
%TO.P,M1,8*%
%TO.N,N/C*%
X40905000Y-57205000D03*
%TO.P,M1,9*%
X43445000Y-57205000D03*
%TO.P,M1,10*%
X45985000Y-57205000D03*
%TO.P,M1,11*%
X48525000Y-57205000D03*
%TO.P,M1,12*%
%TO.N,+3V3*%
X51065000Y-57205000D03*
%TO.P,M1,13*%
%TO.N,GND*%
X51065000Y-34345000D03*
%TO.P,M1,14*%
X48525000Y-34345000D03*
%TO.P,M1,15*%
%TO.N,N/C*%
X45985000Y-34345000D03*
%TO.P,M1,16*%
X43445000Y-34345000D03*
%TO.P,M1,17*%
X40905000Y-34345000D03*
%TO.P,M1,18*%
X38365000Y-34345000D03*
%TO.P,M1,19*%
X35825000Y-34345000D03*
%TO.P,M1,20*%
%TO.N,EXIT*%
X33285000Y-34345000D03*
%TO.P,M1,21*%
%TO.N,N/C*%
X30745000Y-34345000D03*
%TO.P,M1,22*%
%TO.N,GND*%
X28205000Y-34345000D03*
%TO.P,M1,23*%
X25665000Y-34345000D03*
%TO.P,M1,24*%
%TO.N,+3V3*%
X23125000Y-34345000D03*
%TD*%
D15*
%TO.N,+5V*%
X22002300Y-24266200D03*
X21400300Y-14033700D03*
%TO.N,RLY*%
X24174100Y-9473400D03*
%TO.N,K_C*%
X6976300Y-19583100D03*
%TD*%
%TO.N,+5V*%
D16*
X21400300Y-23664200D02*
X21400300Y-14033700D01*
X22002300Y-24266200D02*
X21400300Y-23664200D01*
X22002300Y-56082300D02*
X22002300Y-24266200D01*
X23125000Y-57205000D02*
X22002300Y-56082300D01*
%TO.N,GND*%
X25665000Y-57205000D02*
X25665000Y-34345000D01*
%TO.N,RLY*%
X26935000Y-45775000D02*
X26935000Y-33282600D01*
X26935000Y-33282600D02*
X24174100Y-30521700D01*
X24174100Y-30521700D02*
X24174100Y-9473400D01*
X38365000Y-57205000D02*
X26935000Y-45775000D01*
%TO.N,LK_COM*%
X22315000Y-4625000D02*
X30775000Y-4625000D01*
X11180000Y-15760000D02*
X22315000Y-4625000D01*
%TO.N,EXIT*%
X52775000Y-4625000D02*
X52775000Y-14855000D01*
X52775000Y-14855000D02*
X33285000Y-34345000D01*
%TO.N,K_C*%
X3560000Y-15760000D02*
X6976300Y-19176300D01*
X6976300Y-19176300D02*
X6976300Y-19583100D01*
%TD*%
%TA.AperFunction,Conductor*%
%TO.N,GND*%
G36*
X59343039Y-619685D02*
G01*
X59388794Y-672489D01*
X59400000Y-724000D01*
X59400000Y-26448417D01*
X59380315Y-26515456D01*
X59327511Y-26561211D01*
X59301781Y-26569707D01*
X59092765Y-26614134D01*
X59092764Y-26614135D01*
X58743818Y-26727514D01*
X58408624Y-26876751D01*
X58408618Y-26876754D01*
X58090878Y-27060202D01*
X58090873Y-27060205D01*
X57794047Y-27275861D01*
X57794038Y-27275868D01*
X57521376Y-27521376D01*
X57275868Y-27794038D01*
X57275861Y-27794047D01*
X57060205Y-28090873D01*
X57060202Y-28090878D01*
X56876754Y-28408618D01*
X56876751Y-28408624D01*
X56727514Y-28743818D01*
X56614135Y-29092764D01*
X56614134Y-29092765D01*
X56537853Y-29451644D01*
X56537852Y-29451650D01*
X56499500Y-29816547D01*
X56499500Y-30183453D01*
X56526742Y-30442643D01*
X56537853Y-30548355D01*
X56614134Y-30907234D01*
X56614135Y-30907235D01*
X56614136Y-30907239D01*
X56727517Y-31256189D01*
X56789152Y-31394624D01*
X56876751Y-31591375D01*
X56876754Y-31591381D01*
X57060202Y-31909121D01*
X57060205Y-31909126D01*
X57275861Y-32205952D01*
X57275868Y-32205961D01*
X57357202Y-32296291D01*
X57521376Y-32478624D01*
X57655622Y-32599500D01*
X57794038Y-32724131D01*
X57794047Y-32724138D01*
X58090873Y-32939794D01*
X58090878Y-32939797D01*
X58283166Y-33050815D01*
X58408625Y-33123249D01*
X58743811Y-33272483D01*
X59092761Y-33385864D01*
X59301782Y-33430292D01*
X59363263Y-33463484D01*
X59397039Y-33524647D01*
X59400000Y-33551582D01*
X59400000Y-59276000D01*
X59380315Y-59343039D01*
X59327511Y-59388794D01*
X59276000Y-59400000D01*
X724000Y-59400000D01*
X656961Y-59380315D01*
X611206Y-59327511D01*
X600000Y-59276000D01*
X600000Y-33551582D01*
X619685Y-33484543D01*
X672489Y-33438788D01*
X698215Y-33430293D01*
X907239Y-33385864D01*
X1256189Y-33272483D01*
X1591375Y-33123249D01*
X1909125Y-32939795D01*
X2205959Y-32724133D01*
X2478624Y-32478624D01*
X2724133Y-32205959D01*
X2939795Y-31909125D01*
X3123249Y-31591375D01*
X3272483Y-31256189D01*
X3385864Y-30907239D01*
X3462148Y-30548350D01*
X3500500Y-30183453D01*
X3500500Y-29816547D01*
X3462148Y-29451650D01*
X3385864Y-29092761D01*
X3272483Y-28743811D01*
X3123249Y-28408625D01*
X2939795Y-28090875D01*
X2749015Y-27828288D01*
X2724138Y-27794047D01*
X2724131Y-27794038D01*
X2525224Y-27573131D01*
X2478624Y-27521376D01*
X2334310Y-27391435D01*
X2205961Y-27275868D01*
X2205952Y-27275861D01*
X1909126Y-27060205D01*
X1909121Y-27060202D01*
X1591381Y-26876754D01*
X1591375Y-26876751D01*
X1466277Y-26821054D01*
X1256189Y-26727517D01*
X1256184Y-26727515D01*
X1256181Y-26727514D01*
X1003398Y-26645380D01*
X907239Y-26614136D01*
X907236Y-26614135D01*
X907235Y-26614135D01*
X907234Y-26614134D01*
X698219Y-26569707D01*
X636737Y-26536514D01*
X602961Y-26475351D01*
X600000Y-26448417D01*
X600000Y-15661533D01*
X2308930Y-15661533D01*
X2308930Y-15858466D01*
X2339734Y-16052956D01*
X2339735Y-16052960D01*
X2376145Y-16165018D01*
X2400589Y-16240246D01*
X2489991Y-16415707D01*
X2605731Y-16575011D01*
X2605735Y-16575016D01*
X2744983Y-16714264D01*
X2744988Y-16714268D01*
X2883942Y-16815223D01*
X2904296Y-16830011D01*
X3079756Y-16919412D01*
X3267040Y-16980265D01*
X3339977Y-16991816D01*
X3461534Y-17011070D01*
X3461539Y-17011070D01*
X3658466Y-17011070D01*
X3857772Y-16979503D01*
X3858163Y-16981977D01*
X3917571Y-16984644D01*
X3965018Y-17014254D01*
X6175840Y-19225076D01*
X6209325Y-19286399D01*
X6207036Y-19343485D01*
X6207751Y-19343628D01*
X6206848Y-19348164D01*
X6206826Y-19348730D01*
X6206564Y-19349592D01*
X6175800Y-19504253D01*
X6175800Y-19661946D01*
X6206561Y-19816589D01*
X6206564Y-19816601D01*
X6266902Y-19962272D01*
X6266909Y-19962285D01*
X6354510Y-20093388D01*
X6354513Y-20093392D01*
X6466007Y-20204886D01*
X6466011Y-20204889D01*
X6597114Y-20292490D01*
X6597127Y-20292497D01*
X6742798Y-20352835D01*
X6742803Y-20352837D01*
X6897453Y-20383599D01*
X6897456Y-20383600D01*
X6897458Y-20383600D01*
X7055144Y-20383600D01*
X7055145Y-20383599D01*
X7209797Y-20352837D01*
X7355479Y-20292494D01*
X7486589Y-20204889D01*
X7598089Y-20093389D01*
X7685694Y-19962279D01*
X7746037Y-19816597D01*
X7776800Y-19661942D01*
X7776800Y-19504258D01*
X7776800Y-19504255D01*
X7776799Y-19504253D01*
X7746038Y-19349610D01*
X7746037Y-19349603D01*
X7746035Y-19349598D01*
X7685697Y-19203927D01*
X7685690Y-19203914D01*
X7598089Y-19072811D01*
X7598086Y-19072807D01*
X7583559Y-19058280D01*
X7551465Y-19002692D01*
X7535877Y-18944515D01*
X7456820Y-18807584D01*
X4814254Y-16165018D01*
X4780769Y-16103695D01*
X4781374Y-16058068D01*
X4779503Y-16057772D01*
X4811070Y-15858466D01*
X4811070Y-15661533D01*
X9928930Y-15661533D01*
X9928930Y-15858466D01*
X9959734Y-16052956D01*
X9959735Y-16052960D01*
X9996145Y-16165018D01*
X10020589Y-16240246D01*
X10109991Y-16415707D01*
X10225731Y-16575011D01*
X10225735Y-16575016D01*
X10364983Y-16714264D01*
X10364988Y-16714268D01*
X10503942Y-16815223D01*
X10524296Y-16830011D01*
X10699756Y-16919412D01*
X10887040Y-16980265D01*
X10959977Y-16991816D01*
X11081534Y-17011070D01*
X11081539Y-17011070D01*
X11278466Y-17011070D01*
X11386516Y-16993956D01*
X11472960Y-16980265D01*
X11660244Y-16919412D01*
X11835704Y-16830011D01*
X11995018Y-16714263D01*
X12134263Y-16575018D01*
X12250011Y-16415704D01*
X12339412Y-16240244D01*
X12400265Y-16052960D01*
X12413956Y-15966516D01*
X12431070Y-15858466D01*
X12431070Y-15661533D01*
X12399503Y-15462228D01*
X12401874Y-15461852D01*
X12404809Y-15401946D01*
X12434252Y-15354981D01*
X13834380Y-13954853D01*
X20599800Y-13954853D01*
X20599800Y-14112546D01*
X20630561Y-14267189D01*
X20630564Y-14267201D01*
X20690902Y-14412872D01*
X20690909Y-14412885D01*
X20778902Y-14544574D01*
X20799780Y-14611251D01*
X20799800Y-14613465D01*
X20799800Y-23577530D01*
X20799799Y-23577548D01*
X20799799Y-23743254D01*
X20799798Y-23743254D01*
X20840723Y-23895985D01*
X20869658Y-23946100D01*
X20869659Y-23946104D01*
X20869660Y-23946104D01*
X20903203Y-24004204D01*
X20919779Y-24032914D01*
X20919781Y-24032917D01*
X21167725Y-24280861D01*
X21201210Y-24342184D01*
X21201661Y-24344350D01*
X21232561Y-24499691D01*
X21232564Y-24499701D01*
X21292902Y-24645372D01*
X21292909Y-24645385D01*
X21380902Y-24777074D01*
X21401780Y-24843751D01*
X21401800Y-24845965D01*
X21401800Y-55995630D01*
X21401799Y-55995648D01*
X21401799Y-56161354D01*
X21401798Y-56161354D01*
X21401799Y-56161357D01*
X21442723Y-56314085D01*
X21442724Y-56314087D01*
X21442723Y-56314087D01*
X21448159Y-56323501D01*
X21448160Y-56323502D01*
X21521777Y-56451012D01*
X21521781Y-56451017D01*
X21640649Y-56569885D01*
X21640655Y-56569890D01*
X21861237Y-56790472D01*
X21894722Y-56851795D01*
X21894160Y-56904522D01*
X21894349Y-56904552D01*
X21894146Y-56905831D01*
X21894133Y-56907087D01*
X21893587Y-56909360D01*
X21862500Y-57105639D01*
X21862500Y-57304360D01*
X21893587Y-57500637D01*
X21954993Y-57689629D01*
X21954994Y-57689632D01*
X22045213Y-57866694D01*
X22162019Y-58027464D01*
X22302536Y-58167981D01*
X22463306Y-58284787D01*
X22550149Y-58329035D01*
X22640367Y-58375005D01*
X22640370Y-58375006D01*
X22734866Y-58405709D01*
X22829364Y-58436413D01*
X23025639Y-58467500D01*
X23025640Y-58467500D01*
X23224360Y-58467500D01*
X23224361Y-58467500D01*
X23420636Y-58436413D01*
X23609632Y-58375005D01*
X23786694Y-58284787D01*
X23947464Y-58167981D01*
X24087981Y-58027464D01*
X24204787Y-57866694D01*
X24295005Y-57689632D01*
X24356413Y-57500636D01*
X24387500Y-57304361D01*
X24387500Y-57105639D01*
X24356413Y-56909364D01*
X24295005Y-56720368D01*
X24295005Y-56720367D01*
X24249035Y-56630149D01*
X24204787Y-56543306D01*
X24087981Y-56382536D01*
X23947464Y-56242019D01*
X23786694Y-56125213D01*
X23609632Y-56034994D01*
X23609629Y-56034993D01*
X23420637Y-55973587D01*
X23282182Y-55951658D01*
X23224361Y-55942500D01*
X23025639Y-55942500D01*
X22967818Y-55951658D01*
X22829362Y-55973587D01*
X22827092Y-55974132D01*
X22826203Y-55974087D01*
X22824552Y-55974349D01*
X22824497Y-55974001D01*
X22816724Y-55973612D01*
X22806999Y-55977240D01*
X22782425Y-55971894D01*
X22757310Y-55970636D01*
X22747056Y-55964200D01*
X22738726Y-55962388D01*
X22710472Y-55941237D01*
X22639118Y-55869882D01*
X22605634Y-55808558D01*
X22602800Y-55782201D01*
X22602800Y-35673469D01*
X22622485Y-35606430D01*
X22675289Y-35560675D01*
X22744447Y-35550731D01*
X22765111Y-35555536D01*
X22829364Y-35576413D01*
X23025639Y-35607500D01*
X23025640Y-35607500D01*
X23224360Y-35607500D01*
X23224361Y-35607500D01*
X23420636Y-35576413D01*
X23609632Y-35515005D01*
X23786694Y-35424787D01*
X23947464Y-35307981D01*
X24087981Y-35167464D01*
X24204787Y-35006694D01*
X24295005Y-34829632D01*
X24356413Y-34640636D01*
X24387500Y-34444361D01*
X24387500Y-34245639D01*
X24356413Y-34049364D01*
X24295005Y-33860368D01*
X24295005Y-33860367D01*
X24204786Y-33683305D01*
X24112540Y-33556339D01*
X24087981Y-33522536D01*
X23947464Y-33382019D01*
X23786694Y-33265213D01*
X23609632Y-33174994D01*
X23609629Y-33174993D01*
X23420637Y-33113587D01*
X23322498Y-33098043D01*
X23224361Y-33082500D01*
X23025639Y-33082500D01*
X23011768Y-33084697D01*
X22829360Y-33113587D01*
X22765117Y-33134461D01*
X22695276Y-33136456D01*
X22635444Y-33100375D01*
X22604616Y-33037674D01*
X22602800Y-33016530D01*
X22602800Y-24845965D01*
X22622485Y-24778926D01*
X22623698Y-24777074D01*
X22711690Y-24645385D01*
X22711690Y-24645384D01*
X22711694Y-24645379D01*
X22772037Y-24499697D01*
X22802800Y-24345042D01*
X22802800Y-24187358D01*
X22802800Y-24187355D01*
X22802799Y-24187353D01*
X22794319Y-24144720D01*
X22772037Y-24032703D01*
X22760234Y-24004207D01*
X22711697Y-23887027D01*
X22711690Y-23887014D01*
X22624089Y-23755911D01*
X22624086Y-23755907D01*
X22512592Y-23644413D01*
X22512588Y-23644410D01*
X22381485Y-23556809D01*
X22381472Y-23556802D01*
X22235801Y-23496464D01*
X22235791Y-23496461D01*
X22100608Y-23469571D01*
X22038697Y-23437186D01*
X22004123Y-23376470D01*
X22000800Y-23347954D01*
X22000800Y-14613465D01*
X22020485Y-14546426D01*
X22021698Y-14544574D01*
X22109690Y-14412885D01*
X22109690Y-14412884D01*
X22109694Y-14412879D01*
X22170037Y-14267197D01*
X22200800Y-14112542D01*
X22200800Y-13954858D01*
X22200800Y-13954855D01*
X22200799Y-13954853D01*
X22170038Y-13800210D01*
X22170037Y-13800203D01*
X22170035Y-13800198D01*
X22109697Y-13654527D01*
X22109690Y-13654514D01*
X22022089Y-13523411D01*
X22022086Y-13523407D01*
X21910592Y-13411913D01*
X21910588Y-13411910D01*
X21779485Y-13324309D01*
X21779472Y-13324302D01*
X21633801Y-13263964D01*
X21633789Y-13263961D01*
X21479145Y-13233200D01*
X21479142Y-13233200D01*
X21321458Y-13233200D01*
X21321455Y-13233200D01*
X21166810Y-13263961D01*
X21166798Y-13263964D01*
X21021127Y-13324302D01*
X21021114Y-13324309D01*
X20890011Y-13411910D01*
X20890007Y-13411913D01*
X20778513Y-13523407D01*
X20778510Y-13523411D01*
X20690909Y-13654514D01*
X20690902Y-13654527D01*
X20630564Y-13800198D01*
X20630561Y-13800210D01*
X20599800Y-13954853D01*
X13834380Y-13954853D01*
X18394681Y-9394553D01*
X23373600Y-9394553D01*
X23373600Y-9552246D01*
X23404361Y-9706889D01*
X23404364Y-9706901D01*
X23464702Y-9852572D01*
X23464709Y-9852585D01*
X23552702Y-9984274D01*
X23573580Y-10050951D01*
X23573600Y-10053165D01*
X23573600Y-30435030D01*
X23573599Y-30435048D01*
X23573599Y-30600754D01*
X23573598Y-30600754D01*
X23614523Y-30753485D01*
X23643458Y-30803600D01*
X23643459Y-30803604D01*
X23643460Y-30803604D01*
X23693579Y-30890414D01*
X23693581Y-30890417D01*
X23812449Y-31009285D01*
X23812455Y-31009290D01*
X26298181Y-33495016D01*
X26331666Y-33556339D01*
X26334500Y-33582697D01*
X26334500Y-45688330D01*
X26334499Y-45688348D01*
X26334499Y-45854054D01*
X26334498Y-45854054D01*
X26375423Y-46006785D01*
X26404358Y-46056900D01*
X26404359Y-46056904D01*
X26404360Y-46056904D01*
X26454479Y-46143714D01*
X26454481Y-46143717D01*
X26573349Y-46262585D01*
X26573355Y-46262590D01*
X36045307Y-55734542D01*
X36078792Y-55795865D01*
X36073808Y-55865557D01*
X36031936Y-55921490D01*
X35966472Y-55945907D01*
X35938232Y-55944697D01*
X35924361Y-55942500D01*
X35725639Y-55942500D01*
X35667818Y-55951658D01*
X35529362Y-55973587D01*
X35340370Y-56034993D01*
X35340367Y-56034994D01*
X35163305Y-56125213D01*
X35002533Y-56242021D01*
X34862021Y-56382533D01*
X34745213Y-56543305D01*
X34665485Y-56699780D01*
X34617510Y-56750576D01*
X34549689Y-56767371D01*
X34483554Y-56744833D01*
X34444515Y-56699780D01*
X34417473Y-56646708D01*
X34364787Y-56543306D01*
X34247981Y-56382536D01*
X34107464Y-56242019D01*
X33946694Y-56125213D01*
X33769632Y-56034994D01*
X33769629Y-56034993D01*
X33580637Y-55973587D01*
X33442182Y-55951658D01*
X33384361Y-55942500D01*
X33185639Y-55942500D01*
X33127818Y-55951658D01*
X32989362Y-55973587D01*
X32800370Y-56034993D01*
X32800367Y-56034994D01*
X32623305Y-56125213D01*
X32462533Y-56242021D01*
X32322021Y-56382533D01*
X32205213Y-56543305D01*
X32125485Y-56699780D01*
X32077510Y-56750576D01*
X32009689Y-56767371D01*
X31943554Y-56744833D01*
X31904515Y-56699780D01*
X31877473Y-56646708D01*
X31824787Y-56543306D01*
X31707981Y-56382536D01*
X31567464Y-56242019D01*
X31406694Y-56125213D01*
X31229632Y-56034994D01*
X31229629Y-56034993D01*
X31040637Y-55973587D01*
X30902182Y-55951658D01*
X30844361Y-55942500D01*
X30645639Y-55942500D01*
X30587818Y-55951658D01*
X30449362Y-55973587D01*
X30260370Y-56034993D01*
X30260367Y-56034994D01*
X30083305Y-56125213D01*
X29922533Y-56242021D01*
X29782021Y-56382533D01*
X29665213Y-56543305D01*
X29585485Y-56699780D01*
X29537510Y-56750576D01*
X29469689Y-56767371D01*
X29403554Y-56744833D01*
X29364515Y-56699780D01*
X29337473Y-56646708D01*
X29284787Y-56543306D01*
X29167981Y-56382536D01*
X29027464Y-56242019D01*
X28866694Y-56125213D01*
X28689632Y-56034994D01*
X28689629Y-56034993D01*
X28500637Y-55973587D01*
X28362182Y-55951658D01*
X28304361Y-55942500D01*
X28105639Y-55942500D01*
X28047818Y-55951658D01*
X27909362Y-55973587D01*
X27720370Y-56034993D01*
X27720367Y-56034994D01*
X27543305Y-56125213D01*
X27382533Y-56242021D01*
X27242021Y-56382533D01*
X27125213Y-56543305D01*
X27034994Y-56720367D01*
X27034993Y-56720370D01*
X26973587Y-56909362D01*
X26942500Y-57105639D01*
X26942500Y-57304360D01*
X26973587Y-57500637D01*
X27034993Y-57689629D01*
X27034994Y-57689632D01*
X27125213Y-57866694D01*
X27242019Y-58027464D01*
X27382536Y-58167981D01*
X27543306Y-58284787D01*
X27630149Y-58329035D01*
X27720367Y-58375005D01*
X27720370Y-58375006D01*
X27814866Y-58405709D01*
X27909364Y-58436413D01*
X28105639Y-58467500D01*
X28105640Y-58467500D01*
X28304360Y-58467500D01*
X28304361Y-58467500D01*
X28500636Y-58436413D01*
X28689632Y-58375005D01*
X28866694Y-58284787D01*
X29027464Y-58167981D01*
X29167981Y-58027464D01*
X29284787Y-57866694D01*
X29364515Y-57710218D01*
X29412490Y-57659423D01*
X29480311Y-57642628D01*
X29546446Y-57665165D01*
X29585484Y-57710218D01*
X29665213Y-57866694D01*
X29782019Y-58027464D01*
X29922536Y-58167981D01*
X30083306Y-58284787D01*
X30170149Y-58329035D01*
X30260367Y-58375005D01*
X30260370Y-58375006D01*
X30354866Y-58405709D01*
X30449364Y-58436413D01*
X30645639Y-58467500D01*
X30645640Y-58467500D01*
X30844360Y-58467500D01*
X30844361Y-58467500D01*
X31040636Y-58436413D01*
X31229632Y-58375005D01*
X31406694Y-58284787D01*
X31567464Y-58167981D01*
X31707981Y-58027464D01*
X31824787Y-57866694D01*
X31904515Y-57710218D01*
X31952490Y-57659423D01*
X32020311Y-57642628D01*
X32086446Y-57665165D01*
X32125484Y-57710218D01*
X32205213Y-57866694D01*
X32322019Y-58027464D01*
X32462536Y-58167981D01*
X32623306Y-58284787D01*
X32710149Y-58329035D01*
X32800367Y-58375005D01*
X32800370Y-58375006D01*
X32894866Y-58405709D01*
X32989364Y-58436413D01*
X33185639Y-58467500D01*
X33185640Y-58467500D01*
X33384360Y-58467500D01*
X33384361Y-58467500D01*
X33580636Y-58436413D01*
X33769632Y-58375005D01*
X33946694Y-58284787D01*
X34107464Y-58167981D01*
X34247981Y-58027464D01*
X34364787Y-57866694D01*
X34444515Y-57710218D01*
X34492490Y-57659423D01*
X34560311Y-57642628D01*
X34626446Y-57665165D01*
X34665484Y-57710218D01*
X34745213Y-57866694D01*
X34862019Y-58027464D01*
X35002536Y-58167981D01*
X35163306Y-58284787D01*
X35250149Y-58329035D01*
X35340367Y-58375005D01*
X35340370Y-58375006D01*
X35434866Y-58405709D01*
X35529364Y-58436413D01*
X35725639Y-58467500D01*
X35725640Y-58467500D01*
X35924360Y-58467500D01*
X35924361Y-58467500D01*
X36120636Y-58436413D01*
X36309632Y-58375005D01*
X36486694Y-58284787D01*
X36647464Y-58167981D01*
X36787981Y-58027464D01*
X36904787Y-57866694D01*
X36984515Y-57710218D01*
X37032490Y-57659423D01*
X37100311Y-57642628D01*
X37166446Y-57665165D01*
X37205484Y-57710218D01*
X37285213Y-57866694D01*
X37402019Y-58027464D01*
X37542536Y-58167981D01*
X37703306Y-58284787D01*
X37790149Y-58329035D01*
X37880367Y-58375005D01*
X37880370Y-58375006D01*
X37974866Y-58405709D01*
X38069364Y-58436413D01*
X38265639Y-58467500D01*
X38265640Y-58467500D01*
X38464360Y-58467500D01*
X38464361Y-58467500D01*
X38660636Y-58436413D01*
X38849632Y-58375005D01*
X39026694Y-58284787D01*
X39187464Y-58167981D01*
X39327981Y-58027464D01*
X39444787Y-57866694D01*
X39524515Y-57710218D01*
X39572490Y-57659423D01*
X39640311Y-57642628D01*
X39706446Y-57665165D01*
X39745484Y-57710218D01*
X39825213Y-57866694D01*
X39942019Y-58027464D01*
X40082536Y-58167981D01*
X40243306Y-58284787D01*
X40330149Y-58329035D01*
X40420367Y-58375005D01*
X40420370Y-58375006D01*
X40514866Y-58405709D01*
X40609364Y-58436413D01*
X40805639Y-58467500D01*
X40805640Y-58467500D01*
X41004360Y-58467500D01*
X41004361Y-58467500D01*
X41200636Y-58436413D01*
X41389632Y-58375005D01*
X41566694Y-58284787D01*
X41727464Y-58167981D01*
X41867981Y-58027464D01*
X41984787Y-57866694D01*
X42064515Y-57710218D01*
X42112490Y-57659423D01*
X42180311Y-57642628D01*
X42246446Y-57665165D01*
X42285484Y-57710218D01*
X42365213Y-57866694D01*
X42482019Y-58027464D01*
X42622536Y-58167981D01*
X42783306Y-58284787D01*
X42870149Y-58329035D01*
X42960367Y-58375005D01*
X42960370Y-58375006D01*
X43054866Y-58405709D01*
X43149364Y-58436413D01*
X43345639Y-58467500D01*
X43345640Y-58467500D01*
X43544360Y-58467500D01*
X43544361Y-58467500D01*
X43740636Y-58436413D01*
X43929632Y-58375005D01*
X44106694Y-58284787D01*
X44267464Y-58167981D01*
X44407981Y-58027464D01*
X44524787Y-57866694D01*
X44604515Y-57710218D01*
X44652490Y-57659423D01*
X44720311Y-57642628D01*
X44786446Y-57665165D01*
X44825484Y-57710218D01*
X44905213Y-57866694D01*
X45022019Y-58027464D01*
X45162536Y-58167981D01*
X45323306Y-58284787D01*
X45410149Y-58329035D01*
X45500367Y-58375005D01*
X45500370Y-58375006D01*
X45594866Y-58405709D01*
X45689364Y-58436413D01*
X45885639Y-58467500D01*
X45885640Y-58467500D01*
X46084360Y-58467500D01*
X46084361Y-58467500D01*
X46280636Y-58436413D01*
X46469632Y-58375005D01*
X46646694Y-58284787D01*
X46807464Y-58167981D01*
X46947981Y-58027464D01*
X47064787Y-57866694D01*
X47144515Y-57710218D01*
X47192490Y-57659423D01*
X47260311Y-57642628D01*
X47326446Y-57665165D01*
X47365484Y-57710218D01*
X47445213Y-57866694D01*
X47562019Y-58027464D01*
X47702536Y-58167981D01*
X47863306Y-58284787D01*
X47950149Y-58329035D01*
X48040367Y-58375005D01*
X48040370Y-58375006D01*
X48134866Y-58405709D01*
X48229364Y-58436413D01*
X48425639Y-58467500D01*
X48425640Y-58467500D01*
X48624360Y-58467500D01*
X48624361Y-58467500D01*
X48820636Y-58436413D01*
X49009632Y-58375005D01*
X49186694Y-58284787D01*
X49347464Y-58167981D01*
X49487981Y-58027464D01*
X49604787Y-57866694D01*
X49684515Y-57710218D01*
X49732490Y-57659423D01*
X49800311Y-57642628D01*
X49866446Y-57665165D01*
X49905484Y-57710218D01*
X49985213Y-57866694D01*
X50102019Y-58027464D01*
X50242536Y-58167981D01*
X50403306Y-58284787D01*
X50490149Y-58329035D01*
X50580367Y-58375005D01*
X50580370Y-58375006D01*
X50674866Y-58405709D01*
X50769364Y-58436413D01*
X50965639Y-58467500D01*
X50965640Y-58467500D01*
X51164360Y-58467500D01*
X51164361Y-58467500D01*
X51360636Y-58436413D01*
X51549632Y-58375005D01*
X51726694Y-58284787D01*
X51887464Y-58167981D01*
X52027981Y-58027464D01*
X52144787Y-57866694D01*
X52235005Y-57689632D01*
X52296413Y-57500636D01*
X52327500Y-57304361D01*
X52327500Y-57105639D01*
X52296413Y-56909364D01*
X52235005Y-56720368D01*
X52235005Y-56720367D01*
X52189035Y-56630149D01*
X52144787Y-56543306D01*
X52027981Y-56382536D01*
X51887464Y-56242019D01*
X51726694Y-56125213D01*
X51549632Y-56034994D01*
X51549629Y-56034993D01*
X51548804Y-56034725D01*
X53227499Y-56034725D01*
X53266408Y-56230329D01*
X53266411Y-56230339D01*
X53342730Y-56414592D01*
X53342737Y-56414605D01*
X53453539Y-56580430D01*
X53453542Y-56580434D01*
X53594565Y-56721457D01*
X53594569Y-56721460D01*
X53760394Y-56832262D01*
X53760407Y-56832269D01*
X53934844Y-56904522D01*
X53944665Y-56908590D01*
X53944669Y-56908590D01*
X53944670Y-56908591D01*
X54140274Y-56947500D01*
X54140277Y-56947500D01*
X54339725Y-56947500D01*
X54471324Y-56921322D01*
X54535335Y-56908590D01*
X54719599Y-56832266D01*
X54885431Y-56721460D01*
X55026460Y-56580431D01*
X55137266Y-56414599D01*
X55213590Y-56230335D01*
X55234500Y-56125213D01*
X55252500Y-56034725D01*
X55252500Y-55835274D01*
X55213591Y-55639670D01*
X55213590Y-55639669D01*
X55213590Y-55639665D01*
X55213588Y-55639660D01*
X55137269Y-55455407D01*
X55137262Y-55455394D01*
X55026460Y-55289569D01*
X55026457Y-55289565D01*
X54885434Y-55148542D01*
X54885430Y-55148539D01*
X54719605Y-55037737D01*
X54719592Y-55037730D01*
X54535339Y-54961411D01*
X54535329Y-54961408D01*
X54339725Y-54922500D01*
X54339723Y-54922500D01*
X54140277Y-54922500D01*
X54140275Y-54922500D01*
X53944670Y-54961408D01*
X53944660Y-54961411D01*
X53760407Y-55037730D01*
X53760394Y-55037737D01*
X53594569Y-55148539D01*
X53594565Y-55148542D01*
X53453542Y-55289565D01*
X53453539Y-55289569D01*
X53342737Y-55455394D01*
X53342730Y-55455407D01*
X53266411Y-55639660D01*
X53266408Y-55639670D01*
X53227500Y-55835274D01*
X53227500Y-55835277D01*
X53227500Y-56034723D01*
X53227500Y-56034725D01*
X53227499Y-56034725D01*
X51548804Y-56034725D01*
X51360637Y-55973587D01*
X51222182Y-55951658D01*
X51164361Y-55942500D01*
X50965639Y-55942500D01*
X50907818Y-55951658D01*
X50769362Y-55973587D01*
X50580370Y-56034993D01*
X50580367Y-56034994D01*
X50403305Y-56125213D01*
X50242533Y-56242021D01*
X50102021Y-56382533D01*
X49985213Y-56543305D01*
X49905485Y-56699780D01*
X49857510Y-56750576D01*
X49789689Y-56767371D01*
X49723554Y-56744833D01*
X49684515Y-56699780D01*
X49657473Y-56646708D01*
X49604787Y-56543306D01*
X49487981Y-56382536D01*
X49347464Y-56242019D01*
X49186694Y-56125213D01*
X49009632Y-56034994D01*
X49009629Y-56034993D01*
X48820637Y-55973587D01*
X48682182Y-55951658D01*
X48624361Y-55942500D01*
X48425639Y-55942500D01*
X48367818Y-55951658D01*
X48229362Y-55973587D01*
X48040370Y-56034993D01*
X48040367Y-56034994D01*
X47863305Y-56125213D01*
X47702533Y-56242021D01*
X47562021Y-56382533D01*
X47445213Y-56543305D01*
X47365485Y-56699780D01*
X47317510Y-56750576D01*
X47249689Y-56767371D01*
X47183554Y-56744833D01*
X47144515Y-56699780D01*
X47117473Y-56646708D01*
X47064787Y-56543306D01*
X46947981Y-56382536D01*
X46807464Y-56242019D01*
X46646694Y-56125213D01*
X46469632Y-56034994D01*
X46469629Y-56034993D01*
X46280637Y-55973587D01*
X46142182Y-55951658D01*
X46084361Y-55942500D01*
X45885639Y-55942500D01*
X45827818Y-55951658D01*
X45689362Y-55973587D01*
X45500370Y-56034993D01*
X45500367Y-56034994D01*
X45323305Y-56125213D01*
X45162533Y-56242021D01*
X45022021Y-56382533D01*
X44905213Y-56543305D01*
X44825485Y-56699780D01*
X44777510Y-56750576D01*
X44709689Y-56767371D01*
X44643554Y-56744833D01*
X44604515Y-56699780D01*
X44577473Y-56646708D01*
X44524787Y-56543306D01*
X44407981Y-56382536D01*
X44267464Y-56242019D01*
X44106694Y-56125213D01*
X43929632Y-56034994D01*
X43929629Y-56034993D01*
X43740637Y-55973587D01*
X43602182Y-55951658D01*
X43544361Y-55942500D01*
X43345639Y-55942500D01*
X43287818Y-55951658D01*
X43149362Y-55973587D01*
X42960370Y-56034993D01*
X42960367Y-56034994D01*
X42783305Y-56125213D01*
X42622533Y-56242021D01*
X42482021Y-56382533D01*
X42365213Y-56543305D01*
X42285485Y-56699780D01*
X42237510Y-56750576D01*
X42169689Y-56767371D01*
X42103554Y-56744833D01*
X42064515Y-56699780D01*
X42037473Y-56646708D01*
X41984787Y-56543306D01*
X41867981Y-56382536D01*
X41727464Y-56242019D01*
X41566694Y-56125213D01*
X41389632Y-56034994D01*
X41389629Y-56034993D01*
X41200637Y-55973587D01*
X41062182Y-55951658D01*
X41004361Y-55942500D01*
X40805639Y-55942500D01*
X40747818Y-55951658D01*
X40609362Y-55973587D01*
X40420370Y-56034993D01*
X40420367Y-56034994D01*
X40243305Y-56125213D01*
X40082533Y-56242021D01*
X39942021Y-56382533D01*
X39825213Y-56543305D01*
X39745485Y-56699780D01*
X39697510Y-56750576D01*
X39629689Y-56767371D01*
X39563554Y-56744833D01*
X39524515Y-56699780D01*
X39497473Y-56646708D01*
X39444787Y-56543306D01*
X39327981Y-56382536D01*
X39187464Y-56242019D01*
X39026694Y-56125213D01*
X38849632Y-56034994D01*
X38849629Y-56034993D01*
X38660637Y-55973587D01*
X38522182Y-55951658D01*
X38464361Y-55942500D01*
X38265639Y-55942500D01*
X38226384Y-55948717D01*
X38069360Y-55973587D01*
X38067087Y-55974133D01*
X38066197Y-55974088D01*
X38064552Y-55974349D01*
X38064497Y-55974003D01*
X37997305Y-55970635D01*
X37950472Y-55941237D01*
X27571819Y-45562584D01*
X27538334Y-45501261D01*
X27535500Y-45474903D01*
X27535500Y-35714725D01*
X53227499Y-35714725D01*
X53266408Y-35910329D01*
X53266411Y-35910339D01*
X53342730Y-36094592D01*
X53342737Y-36094605D01*
X53453539Y-36260430D01*
X53453542Y-36260434D01*
X53594565Y-36401457D01*
X53594569Y-36401460D01*
X53760394Y-36512262D01*
X53760407Y-36512269D01*
X53944660Y-36588588D01*
X53944665Y-36588590D01*
X53944669Y-36588590D01*
X53944670Y-36588591D01*
X54140274Y-36627500D01*
X54140277Y-36627500D01*
X54339725Y-36627500D01*
X54471324Y-36601322D01*
X54535335Y-36588590D01*
X54719599Y-36512266D01*
X54885431Y-36401460D01*
X55026460Y-36260431D01*
X55137266Y-36094599D01*
X55213590Y-35910335D01*
X55252500Y-35714723D01*
X55252500Y-35515277D01*
X55252500Y-35515274D01*
X55213591Y-35319670D01*
X55213590Y-35319669D01*
X55213590Y-35319665D01*
X55150547Y-35167464D01*
X55137269Y-35135407D01*
X55137262Y-35135394D01*
X55026460Y-34969569D01*
X55026457Y-34969565D01*
X54885434Y-34828542D01*
X54885430Y-34828539D01*
X54719605Y-34717737D01*
X54719592Y-34717730D01*
X54535339Y-34641411D01*
X54535329Y-34641408D01*
X54339725Y-34602500D01*
X54339723Y-34602500D01*
X54140277Y-34602500D01*
X54140275Y-34602500D01*
X53944670Y-34641408D01*
X53944660Y-34641411D01*
X53760407Y-34717730D01*
X53760394Y-34717737D01*
X53594569Y-34828539D01*
X53594565Y-34828542D01*
X53453542Y-34969565D01*
X53453539Y-34969569D01*
X53342737Y-35135394D01*
X53342730Y-35135407D01*
X53266411Y-35319660D01*
X53266408Y-35319670D01*
X53227500Y-35515274D01*
X53227500Y-35515277D01*
X53227500Y-35714723D01*
X53227500Y-35714725D01*
X53227499Y-35714725D01*
X27535500Y-35714725D01*
X27535500Y-34245639D01*
X29482500Y-34245639D01*
X29482500Y-34444360D01*
X29513587Y-34640637D01*
X29574993Y-34829629D01*
X29574994Y-34829632D01*
X29646295Y-34969565D01*
X29665213Y-35006694D01*
X29782019Y-35167464D01*
X29922536Y-35307981D01*
X30083306Y-35424787D01*
X30170149Y-35469035D01*
X30260367Y-35515005D01*
X30260370Y-35515006D01*
X30354866Y-35545709D01*
X30449364Y-35576413D01*
X30645639Y-35607500D01*
X30645640Y-35607500D01*
X30844360Y-35607500D01*
X30844361Y-35607500D01*
X31040636Y-35576413D01*
X31229632Y-35515005D01*
X31406694Y-35424787D01*
X31567464Y-35307981D01*
X31707981Y-35167464D01*
X31824787Y-35006694D01*
X31904515Y-34850218D01*
X31952490Y-34799423D01*
X32020311Y-34782628D01*
X32086446Y-34805165D01*
X32125484Y-34850218D01*
X32205213Y-35006694D01*
X32322019Y-35167464D01*
X32462536Y-35307981D01*
X32623306Y-35424787D01*
X32710149Y-35469035D01*
X32800367Y-35515005D01*
X32800370Y-35515006D01*
X32894866Y-35545709D01*
X32989364Y-35576413D01*
X33185639Y-35607500D01*
X33185640Y-35607500D01*
X33384360Y-35607500D01*
X33384361Y-35607500D01*
X33580636Y-35576413D01*
X33769632Y-35515005D01*
X33946694Y-35424787D01*
X34107464Y-35307981D01*
X34247981Y-35167464D01*
X34364787Y-35006694D01*
X34444515Y-34850218D01*
X34492490Y-34799423D01*
X34560311Y-34782628D01*
X34626446Y-34805165D01*
X34665484Y-34850218D01*
X34745213Y-35006694D01*
X34862019Y-35167464D01*
X35002536Y-35307981D01*
X35163306Y-35424787D01*
X35250149Y-35469035D01*
X35340367Y-35515005D01*
X35340370Y-35515006D01*
X35434866Y-35545709D01*
X35529364Y-35576413D01*
X35725639Y-35607500D01*
X35725640Y-35607500D01*
X35924360Y-35607500D01*
X35924361Y-35607500D01*
X36120636Y-35576413D01*
X36309632Y-35515005D01*
X36486694Y-35424787D01*
X36647464Y-35307981D01*
X36787981Y-35167464D01*
X36904787Y-35006694D01*
X36984515Y-34850218D01*
X37032490Y-34799423D01*
X37100311Y-34782628D01*
X37166446Y-34805165D01*
X37205484Y-34850218D01*
X37285213Y-35006694D01*
X37402019Y-35167464D01*
X37542536Y-35307981D01*
X37703306Y-35424787D01*
X37790149Y-35469035D01*
X37880367Y-35515005D01*
X37880370Y-35515006D01*
X37974866Y-35545709D01*
X38069364Y-35576413D01*
X38265639Y-35607500D01*
X38265640Y-35607500D01*
X38464360Y-35607500D01*
X38464361Y-35607500D01*
X38660636Y-35576413D01*
X38849632Y-35515005D01*
X39026694Y-35424787D01*
X39187464Y-35307981D01*
X39327981Y-35167464D01*
X39444787Y-35006694D01*
X39524515Y-34850218D01*
X39572490Y-34799423D01*
X39640311Y-34782628D01*
X39706446Y-34805165D01*
X39745484Y-34850218D01*
X39825213Y-35006694D01*
X39942019Y-35167464D01*
X40082536Y-35307981D01*
X40243306Y-35424787D01*
X40330149Y-35469035D01*
X40420367Y-35515005D01*
X40420370Y-35515006D01*
X40514866Y-35545709D01*
X40609364Y-35576413D01*
X40805639Y-35607500D01*
X40805640Y-35607500D01*
X41004360Y-35607500D01*
X41004361Y-35607500D01*
X41200636Y-35576413D01*
X41389632Y-35515005D01*
X41566694Y-35424787D01*
X41727464Y-35307981D01*
X41867981Y-35167464D01*
X41984787Y-35006694D01*
X42064515Y-34850218D01*
X42112490Y-34799423D01*
X42180311Y-34782628D01*
X42246446Y-34805165D01*
X42285484Y-34850218D01*
X42365213Y-35006694D01*
X42482019Y-35167464D01*
X42622536Y-35307981D01*
X42783306Y-35424787D01*
X42870149Y-35469035D01*
X42960367Y-35515005D01*
X42960370Y-35515006D01*
X43054866Y-35545709D01*
X43149364Y-35576413D01*
X43345639Y-35607500D01*
X43345640Y-35607500D01*
X43544360Y-35607500D01*
X43544361Y-35607500D01*
X43740636Y-35576413D01*
X43929632Y-35515005D01*
X44106694Y-35424787D01*
X44267464Y-35307981D01*
X44407981Y-35167464D01*
X44524787Y-35006694D01*
X44604515Y-34850218D01*
X44652490Y-34799423D01*
X44720311Y-34782628D01*
X44786446Y-34805165D01*
X44825484Y-34850218D01*
X44905213Y-35006694D01*
X45022019Y-35167464D01*
X45162536Y-35307981D01*
X45323306Y-35424787D01*
X45410149Y-35469035D01*
X45500367Y-35515005D01*
X45500370Y-35515006D01*
X45594866Y-35545709D01*
X45689364Y-35576413D01*
X45885639Y-35607500D01*
X45885640Y-35607500D01*
X46084360Y-35607500D01*
X46084361Y-35607500D01*
X46280636Y-35576413D01*
X46469632Y-35515005D01*
X46646694Y-35424787D01*
X46807464Y-35307981D01*
X46947981Y-35167464D01*
X47064787Y-35006694D01*
X47155005Y-34829632D01*
X47216413Y-34640636D01*
X47247500Y-34444361D01*
X47247500Y-34245639D01*
X47216413Y-34049364D01*
X47155005Y-33860368D01*
X47155005Y-33860367D01*
X47064786Y-33683305D01*
X46972540Y-33556339D01*
X46947981Y-33522536D01*
X46807464Y-33382019D01*
X46646694Y-33265213D01*
X46469632Y-33174994D01*
X46469629Y-33174993D01*
X46280637Y-33113587D01*
X46182498Y-33098043D01*
X46084361Y-33082500D01*
X45885639Y-33082500D01*
X45820214Y-33092862D01*
X45689362Y-33113587D01*
X45500370Y-33174993D01*
X45500367Y-33174994D01*
X45323305Y-33265213D01*
X45162533Y-33382021D01*
X45022021Y-33522533D01*
X44905213Y-33683305D01*
X44825485Y-33839780D01*
X44777510Y-33890576D01*
X44709689Y-33907371D01*
X44643554Y-33884833D01*
X44604515Y-33839780D01*
X44524786Y-33683305D01*
X44432540Y-33556339D01*
X44407981Y-33522536D01*
X44267464Y-33382019D01*
X44106694Y-33265213D01*
X43929632Y-33174994D01*
X43929629Y-33174993D01*
X43740637Y-33113587D01*
X43642498Y-33098043D01*
X43544361Y-33082500D01*
X43345639Y-33082500D01*
X43280214Y-33092862D01*
X43149362Y-33113587D01*
X42960370Y-33174993D01*
X42960367Y-33174994D01*
X42783305Y-33265213D01*
X42622533Y-33382021D01*
X42482021Y-33522533D01*
X42365213Y-33683305D01*
X42285485Y-33839780D01*
X42237510Y-33890576D01*
X42169689Y-33907371D01*
X42103554Y-33884833D01*
X42064515Y-33839780D01*
X41984786Y-33683305D01*
X41892540Y-33556339D01*
X41867981Y-33522536D01*
X41727464Y-33382019D01*
X41566694Y-33265213D01*
X41389632Y-33174994D01*
X41389629Y-33174993D01*
X41200637Y-33113587D01*
X41102498Y-33098043D01*
X41004361Y-33082500D01*
X40805639Y-33082500D01*
X40740214Y-33092862D01*
X40609362Y-33113587D01*
X40420370Y-33174993D01*
X40420367Y-33174994D01*
X40243305Y-33265213D01*
X40082533Y-33382021D01*
X39942021Y-33522533D01*
X39825213Y-33683305D01*
X39745485Y-33839780D01*
X39697510Y-33890576D01*
X39629689Y-33907371D01*
X39563554Y-33884833D01*
X39524515Y-33839780D01*
X39444786Y-33683305D01*
X39352540Y-33556339D01*
X39327981Y-33522536D01*
X39187464Y-33382019D01*
X39026694Y-33265213D01*
X38849632Y-33174994D01*
X38849629Y-33174993D01*
X38660637Y-33113587D01*
X38562498Y-33098043D01*
X38464361Y-33082500D01*
X38265639Y-33082500D01*
X38200214Y-33092862D01*
X38069362Y-33113587D01*
X37880370Y-33174993D01*
X37880367Y-33174994D01*
X37703305Y-33265213D01*
X37542533Y-33382021D01*
X37402021Y-33522533D01*
X37285213Y-33683305D01*
X37205485Y-33839780D01*
X37157510Y-33890576D01*
X37089689Y-33907371D01*
X37023554Y-33884833D01*
X36984515Y-33839780D01*
X36904786Y-33683305D01*
X36812540Y-33556339D01*
X36787981Y-33522536D01*
X36647464Y-33382019D01*
X36486694Y-33265213D01*
X36309632Y-33174994D01*
X36309629Y-33174993D01*
X36120637Y-33113587D01*
X36022498Y-33098043D01*
X35924361Y-33082500D01*
X35725639Y-33082500D01*
X35721920Y-33083089D01*
X35711765Y-33084697D01*
X35642472Y-33075739D01*
X35589022Y-33030741D01*
X35568385Y-32963989D01*
X35587113Y-32896676D01*
X35604687Y-32874546D01*
X53133506Y-15345728D01*
X53133511Y-15345724D01*
X53143714Y-15335520D01*
X53143716Y-15335520D01*
X53255520Y-15223716D01*
X53334577Y-15086784D01*
X53375500Y-14934057D01*
X53375500Y-6449500D01*
X53395185Y-6382461D01*
X53447989Y-6336706D01*
X53499500Y-6325500D01*
X53775003Y-6325500D01*
X53775008Y-6325500D01*
X53877797Y-6314999D01*
X54044334Y-6259814D01*
X54193655Y-6167711D01*
X54317711Y-6043655D01*
X54409814Y-5894334D01*
X54464999Y-5727797D01*
X54475500Y-5625008D01*
X54475500Y-3624992D01*
X54464999Y-3522203D01*
X54409814Y-3355666D01*
X54408142Y-3352956D01*
X54317713Y-3206348D01*
X54317710Y-3206344D01*
X54193655Y-3082289D01*
X54193651Y-3082286D01*
X54044337Y-2990187D01*
X54044335Y-2990186D01*
X53933907Y-2953594D01*
X53877797Y-2935001D01*
X53877795Y-2935000D01*
X53775015Y-2924500D01*
X53775008Y-2924500D01*
X51774992Y-2924500D01*
X51774984Y-2924500D01*
X51672204Y-2935000D01*
X51672203Y-2935001D01*
X51505664Y-2990186D01*
X51505662Y-2990187D01*
X51356348Y-3082286D01*
X51356344Y-3082289D01*
X51232289Y-3206344D01*
X51232286Y-3206348D01*
X51140187Y-3355662D01*
X51140186Y-3355664D01*
X51085001Y-3522203D01*
X51085000Y-3522204D01*
X51074500Y-3624984D01*
X51074500Y-5625015D01*
X51085000Y-5727795D01*
X51085001Y-5727797D01*
X51091904Y-5748629D01*
X51140186Y-5894335D01*
X51140187Y-5894337D01*
X51232286Y-6043651D01*
X51232289Y-6043655D01*
X51356344Y-6167710D01*
X51356348Y-6167713D01*
X51505662Y-6259812D01*
X51505664Y-6259813D01*
X51505666Y-6259814D01*
X51672203Y-6314999D01*
X51774992Y-6325500D01*
X52050500Y-6325500D01*
X52117539Y-6345185D01*
X52163294Y-6397989D01*
X52174500Y-6449500D01*
X52174500Y-14554902D01*
X52154815Y-14621941D01*
X52138181Y-14642583D01*
X33699526Y-33081237D01*
X33638203Y-33114722D01*
X33585478Y-33114158D01*
X33585448Y-33114349D01*
X33584156Y-33114144D01*
X33582903Y-33114131D01*
X33580636Y-33113586D01*
X33398232Y-33084697D01*
X33384361Y-33082500D01*
X33185639Y-33082500D01*
X33120214Y-33092862D01*
X32989362Y-33113587D01*
X32800370Y-33174993D01*
X32800367Y-33174994D01*
X32623305Y-33265213D01*
X32462533Y-33382021D01*
X32322021Y-33522533D01*
X32205213Y-33683305D01*
X32125485Y-33839780D01*
X32077510Y-33890576D01*
X32009689Y-33907371D01*
X31943554Y-33884833D01*
X31904515Y-33839780D01*
X31824786Y-33683305D01*
X31732540Y-33556339D01*
X31707981Y-33522536D01*
X31567464Y-33382019D01*
X31406694Y-33265213D01*
X31229632Y-33174994D01*
X31229629Y-33174993D01*
X31040637Y-33113587D01*
X30942498Y-33098043D01*
X30844361Y-33082500D01*
X30645639Y-33082500D01*
X30580214Y-33092862D01*
X30449362Y-33113587D01*
X30260370Y-33174993D01*
X30260367Y-33174994D01*
X30083305Y-33265213D01*
X29922533Y-33382021D01*
X29782021Y-33522533D01*
X29665213Y-33683305D01*
X29574994Y-33860367D01*
X29574993Y-33860370D01*
X29513587Y-34049362D01*
X29482500Y-34245639D01*
X27535500Y-34245639D01*
X27535500Y-33203546D01*
X27535500Y-33203543D01*
X27513986Y-33123249D01*
X27494577Y-33050815D01*
X27465639Y-33000695D01*
X27415520Y-32913884D01*
X27303716Y-32802080D01*
X27303715Y-32802079D01*
X27299385Y-32797749D01*
X27299374Y-32797739D01*
X24810919Y-30309284D01*
X24777434Y-30247961D01*
X24774600Y-30221603D01*
X24774600Y-27803499D01*
X25499500Y-27803499D01*
X25499500Y-28196500D01*
X25533751Y-28587995D01*
X25533751Y-28587999D01*
X25577908Y-28838424D01*
X25601993Y-28975015D01*
X25703707Y-29354616D01*
X25703708Y-29354618D01*
X25703708Y-29354619D01*
X25838124Y-29723921D01*
X26004195Y-30080062D01*
X26004207Y-30080086D01*
X26200695Y-30420412D01*
X26200704Y-30420427D01*
X26426115Y-30742347D01*
X26564477Y-30907239D01*
X26678722Y-31043391D01*
X26956609Y-31321278D01*
X27044019Y-31394624D01*
X27257652Y-31573884D01*
X27257658Y-31573888D01*
X27257659Y-31573889D01*
X27579579Y-31799300D01*
X27919920Y-31995796D01*
X27919934Y-31995802D01*
X27919937Y-31995804D01*
X28276078Y-32161875D01*
X28276083Y-32161876D01*
X28276092Y-32161881D01*
X28645384Y-32296293D01*
X29024985Y-32398007D01*
X29412007Y-32466249D01*
X29803502Y-32500499D01*
X29803503Y-32500500D01*
X29803504Y-32500500D01*
X30196497Y-32500500D01*
X30196497Y-32500499D01*
X30587993Y-32466249D01*
X30975015Y-32398007D01*
X31354616Y-32296293D01*
X31723908Y-32161881D01*
X32080080Y-31995796D01*
X32420421Y-31799300D01*
X32742341Y-31573889D01*
X33043391Y-31321278D01*
X33321278Y-31043391D01*
X33573889Y-30742341D01*
X33799300Y-30420421D01*
X33995796Y-30080080D01*
X34161881Y-29723908D01*
X34296293Y-29354616D01*
X34398007Y-28975015D01*
X34466249Y-28587993D01*
X34500500Y-28196496D01*
X34500500Y-27803504D01*
X34466249Y-27412007D01*
X34398007Y-27024985D01*
X34296293Y-26645384D01*
X34161881Y-26276092D01*
X34161876Y-26276083D01*
X34161875Y-26276078D01*
X33995804Y-25919937D01*
X33995792Y-25919913D01*
X33983455Y-25898546D01*
X33799300Y-25579579D01*
X33573889Y-25257659D01*
X33573888Y-25257658D01*
X33573884Y-25257652D01*
X33321275Y-24956606D01*
X33043393Y-24678724D01*
X33003661Y-24645385D01*
X32955981Y-24605376D01*
X32742347Y-24426115D01*
X32420427Y-24200704D01*
X32420424Y-24200702D01*
X32420421Y-24200700D01*
X32319305Y-24142320D01*
X32080086Y-24004207D01*
X32080062Y-24004195D01*
X31723921Y-23838124D01*
X31723910Y-23838120D01*
X31723908Y-23838119D01*
X31354616Y-23703707D01*
X31113960Y-23639223D01*
X30975016Y-23601993D01*
X30975005Y-23601991D01*
X30587997Y-23533751D01*
X30196500Y-23499500D01*
X30196496Y-23499500D01*
X29803504Y-23499500D01*
X29803499Y-23499500D01*
X29412004Y-23533751D01*
X29412000Y-23533751D01*
X29024994Y-23601991D01*
X29024983Y-23601993D01*
X28821555Y-23656502D01*
X28645384Y-23703707D01*
X28645381Y-23703708D01*
X28645380Y-23703708D01*
X28276078Y-23838124D01*
X27919937Y-24004195D01*
X27919913Y-24004207D01*
X27579587Y-24200695D01*
X27579572Y-24200704D01*
X27257652Y-24426115D01*
X26956606Y-24678724D01*
X26678724Y-24956606D01*
X26426115Y-25257652D01*
X26200704Y-25579572D01*
X26200695Y-25579587D01*
X26004207Y-25919913D01*
X26004195Y-25919937D01*
X25838124Y-26276078D01*
X25715081Y-26614135D01*
X25703707Y-26645384D01*
X25656636Y-26821054D01*
X25601993Y-27024983D01*
X25601991Y-27024994D01*
X25533751Y-27412000D01*
X25533751Y-27412004D01*
X25499500Y-27803499D01*
X24774600Y-27803499D01*
X24774600Y-10053165D01*
X24794285Y-9986126D01*
X24795498Y-9984274D01*
X24883490Y-9852585D01*
X24883490Y-9852584D01*
X24883494Y-9852579D01*
X24943837Y-9706897D01*
X24974600Y-9552242D01*
X24974600Y-9394558D01*
X24974600Y-9394555D01*
X24974599Y-9394553D01*
X24943838Y-9239910D01*
X24943837Y-9239903D01*
X24943835Y-9239898D01*
X24883497Y-9094227D01*
X24883490Y-9094214D01*
X24795889Y-8963111D01*
X24795886Y-8963107D01*
X24684392Y-8851613D01*
X24684388Y-8851610D01*
X24553285Y-8764009D01*
X24553272Y-8764002D01*
X24407601Y-8703664D01*
X24407589Y-8703661D01*
X24252945Y-8672900D01*
X24252942Y-8672900D01*
X24095258Y-8672900D01*
X24095255Y-8672900D01*
X23940610Y-8703661D01*
X23940598Y-8703664D01*
X23794927Y-8764002D01*
X23794914Y-8764009D01*
X23663811Y-8851610D01*
X23663807Y-8851613D01*
X23552313Y-8963107D01*
X23552310Y-8963111D01*
X23464709Y-9094214D01*
X23464702Y-9094227D01*
X23404364Y-9239898D01*
X23404361Y-9239910D01*
X23373600Y-9394553D01*
X18394681Y-9394553D01*
X22527416Y-5261819D01*
X22588739Y-5228334D01*
X22615097Y-5225500D01*
X28950500Y-5225500D01*
X29017539Y-5245185D01*
X29063294Y-5297989D01*
X29074500Y-5349500D01*
X29074500Y-5625015D01*
X29085000Y-5727795D01*
X29085001Y-5727797D01*
X29091904Y-5748629D01*
X29140186Y-5894335D01*
X29140187Y-5894337D01*
X29232286Y-6043651D01*
X29232289Y-6043655D01*
X29356344Y-6167710D01*
X29356348Y-6167713D01*
X29505662Y-6259812D01*
X29505664Y-6259813D01*
X29505666Y-6259814D01*
X29672203Y-6314999D01*
X29774992Y-6325500D01*
X29774997Y-6325500D01*
X31775003Y-6325500D01*
X31775008Y-6325500D01*
X31877797Y-6314999D01*
X32044334Y-6259814D01*
X32193655Y-6167711D01*
X32317711Y-6043655D01*
X32409814Y-5894334D01*
X32464999Y-5727797D01*
X32475500Y-5625008D01*
X32475500Y-5347635D01*
X32495185Y-5280596D01*
X32547989Y-5234841D01*
X32617147Y-5224897D01*
X32680703Y-5253922D01*
X32714061Y-5300183D01*
X32746590Y-5378717D01*
X32746593Y-5378722D01*
X32746595Y-5378726D01*
X32858052Y-5571774D01*
X32858057Y-5571780D01*
X32858058Y-5571782D01*
X32993751Y-5748622D01*
X32993757Y-5748629D01*
X33151370Y-5906242D01*
X33151376Y-5906247D01*
X33328226Y-6041948D01*
X33521274Y-6153405D01*
X33727219Y-6238710D01*
X33942537Y-6296404D01*
X34163543Y-6325500D01*
X34163550Y-6325500D01*
X34386450Y-6325500D01*
X34386457Y-6325500D01*
X34607463Y-6296404D01*
X34822781Y-6238710D01*
X35028726Y-6153405D01*
X35221774Y-6041948D01*
X35398624Y-5906247D01*
X35556247Y-5748624D01*
X35691948Y-5571774D01*
X35803405Y-5378726D01*
X35888710Y-5172781D01*
X35905225Y-5111142D01*
X35941590Y-5051483D01*
X36004437Y-5020954D01*
X36073812Y-5029249D01*
X36127690Y-5073734D01*
X36144773Y-5111141D01*
X36161290Y-5172780D01*
X36161293Y-5172790D01*
X36234489Y-5349500D01*
X36246595Y-5378726D01*
X36358052Y-5571774D01*
X36358057Y-5571780D01*
X36358058Y-5571782D01*
X36493751Y-5748622D01*
X36493757Y-5748629D01*
X36651370Y-5906242D01*
X36651376Y-5906247D01*
X36828226Y-6041948D01*
X37021274Y-6153405D01*
X37227219Y-6238710D01*
X37442537Y-6296404D01*
X37663543Y-6325500D01*
X37663550Y-6325500D01*
X37886450Y-6325500D01*
X37886457Y-6325500D01*
X38107463Y-6296404D01*
X38322781Y-6238710D01*
X38528726Y-6153405D01*
X38721774Y-6041948D01*
X38898624Y-5906247D01*
X39056247Y-5748624D01*
X39191948Y-5571774D01*
X39303405Y-5378726D01*
X39388710Y-5172781D01*
X39446404Y-4957463D01*
X39475500Y-4736457D01*
X39475500Y-4513543D01*
X39446404Y-4292537D01*
X39388710Y-4077219D01*
X39367612Y-4026285D01*
X39303406Y-3871277D01*
X39303405Y-3871274D01*
X39191948Y-3678226D01*
X39151094Y-3624984D01*
X42074500Y-3624984D01*
X42074500Y-5625015D01*
X42085000Y-5727795D01*
X42085001Y-5727797D01*
X42091904Y-5748629D01*
X42140186Y-5894335D01*
X42140187Y-5894337D01*
X42232286Y-6043651D01*
X42232289Y-6043655D01*
X42356344Y-6167710D01*
X42356348Y-6167713D01*
X42505662Y-6259812D01*
X42505664Y-6259813D01*
X42505666Y-6259814D01*
X42672203Y-6314999D01*
X42774992Y-6325500D01*
X42774997Y-6325500D01*
X44775003Y-6325500D01*
X44775008Y-6325500D01*
X44877797Y-6314999D01*
X45044334Y-6259814D01*
X45193655Y-6167711D01*
X45317711Y-6043655D01*
X45409814Y-5894334D01*
X45464999Y-5727797D01*
X45475500Y-5625008D01*
X45475500Y-5347635D01*
X45495185Y-5280596D01*
X45547989Y-5234841D01*
X45617147Y-5224897D01*
X45680703Y-5253922D01*
X45714061Y-5300183D01*
X45746590Y-5378717D01*
X45746593Y-5378722D01*
X45746595Y-5378726D01*
X45858052Y-5571774D01*
X45858057Y-5571780D01*
X45858058Y-5571782D01*
X45993751Y-5748622D01*
X45993757Y-5748629D01*
X46151370Y-5906242D01*
X46151376Y-5906247D01*
X46328226Y-6041948D01*
X46521274Y-6153405D01*
X46727219Y-6238710D01*
X46942537Y-6296404D01*
X47163543Y-6325500D01*
X47163550Y-6325500D01*
X47386450Y-6325500D01*
X47386457Y-6325500D01*
X47607463Y-6296404D01*
X47822781Y-6238710D01*
X48028726Y-6153405D01*
X48221774Y-6041948D01*
X48398624Y-5906247D01*
X48556247Y-5748624D01*
X48691948Y-5571774D01*
X48803405Y-5378726D01*
X48888710Y-5172781D01*
X48946404Y-4957463D01*
X48975500Y-4736457D01*
X48975500Y-4513543D01*
X48946404Y-4292537D01*
X48888710Y-4077219D01*
X48867612Y-4026285D01*
X48803406Y-3871277D01*
X48803405Y-3871274D01*
X48691948Y-3678226D01*
X48556247Y-3501376D01*
X48556242Y-3501370D01*
X48398629Y-3343757D01*
X48398622Y-3343751D01*
X48221782Y-3208058D01*
X48221780Y-3208057D01*
X48221774Y-3208052D01*
X48028726Y-3096595D01*
X48028722Y-3096593D01*
X47822790Y-3011293D01*
X47822783Y-3011291D01*
X47822781Y-3011290D01*
X47607463Y-2953596D01*
X47607457Y-2953595D01*
X47607452Y-2953594D01*
X47386466Y-2924501D01*
X47386463Y-2924500D01*
X47386457Y-2924500D01*
X47163543Y-2924500D01*
X47163537Y-2924500D01*
X47163533Y-2924501D01*
X46942547Y-2953594D01*
X46942540Y-2953595D01*
X46942537Y-2953596D01*
X46805981Y-2990186D01*
X46727219Y-3011290D01*
X46727209Y-3011293D01*
X46521277Y-3096593D01*
X46521273Y-3096595D01*
X46328226Y-3208052D01*
X46328217Y-3208058D01*
X46151377Y-3343751D01*
X46151370Y-3343757D01*
X45993757Y-3501370D01*
X45993751Y-3501377D01*
X45858058Y-3678217D01*
X45858052Y-3678226D01*
X45746595Y-3871273D01*
X45746593Y-3871277D01*
X45714061Y-3949817D01*
X45670220Y-4004220D01*
X45603926Y-4026285D01*
X45536226Y-4009006D01*
X45488616Y-3957868D01*
X45475500Y-3902364D01*
X45475500Y-3624997D01*
X45475499Y-3624984D01*
X45464999Y-3522204D01*
X45464999Y-3522203D01*
X45409814Y-3355666D01*
X45408142Y-3352956D01*
X45317713Y-3206348D01*
X45317710Y-3206344D01*
X45193655Y-3082289D01*
X45193651Y-3082286D01*
X45044337Y-2990187D01*
X45044335Y-2990186D01*
X44933907Y-2953594D01*
X44877797Y-2935001D01*
X44877795Y-2935000D01*
X44775015Y-2924500D01*
X44775008Y-2924500D01*
X42774992Y-2924500D01*
X42774984Y-2924500D01*
X42672204Y-2935000D01*
X42672203Y-2935001D01*
X42505664Y-2990186D01*
X42505662Y-2990187D01*
X42356348Y-3082286D01*
X42356344Y-3082289D01*
X42232289Y-3206344D01*
X42232286Y-3206348D01*
X42140187Y-3355662D01*
X42140186Y-3355664D01*
X42085001Y-3522203D01*
X42085000Y-3522204D01*
X42074500Y-3624984D01*
X39151094Y-3624984D01*
X39056247Y-3501376D01*
X39056242Y-3501370D01*
X38898629Y-3343757D01*
X38898622Y-3343751D01*
X38721782Y-3208058D01*
X38721780Y-3208057D01*
X38721774Y-3208052D01*
X38528726Y-3096595D01*
X38528722Y-3096593D01*
X38322790Y-3011293D01*
X38322783Y-3011291D01*
X38322781Y-3011290D01*
X38107463Y-2953596D01*
X38107457Y-2953595D01*
X38107452Y-2953594D01*
X37886466Y-2924501D01*
X37886463Y-2924500D01*
X37886457Y-2924500D01*
X37663543Y-2924500D01*
X37663537Y-2924500D01*
X37663533Y-2924501D01*
X37442547Y-2953594D01*
X37442540Y-2953595D01*
X37442537Y-2953596D01*
X37305981Y-2990186D01*
X37227219Y-3011290D01*
X37227209Y-3011293D01*
X37021277Y-3096593D01*
X37021273Y-3096595D01*
X36828226Y-3208052D01*
X36828217Y-3208058D01*
X36651377Y-3343751D01*
X36651370Y-3343757D01*
X36493757Y-3501370D01*
X36493751Y-3501377D01*
X36358058Y-3678217D01*
X36358052Y-3678226D01*
X36246595Y-3871273D01*
X36246593Y-3871277D01*
X36161293Y-4077209D01*
X36161291Y-4077216D01*
X36161290Y-4077219D01*
X36144774Y-4138857D01*
X36108410Y-4198516D01*
X36045563Y-4229045D01*
X35976187Y-4220750D01*
X35922309Y-4176265D01*
X35905226Y-4138858D01*
X35888710Y-4077219D01*
X35867612Y-4026285D01*
X35803406Y-3871277D01*
X35803405Y-3871274D01*
X35691948Y-3678226D01*
X35556247Y-3501376D01*
X35556242Y-3501370D01*
X35398629Y-3343757D01*
X35398622Y-3343751D01*
X35221782Y-3208058D01*
X35221780Y-3208057D01*
X35221774Y-3208052D01*
X35028726Y-3096595D01*
X35028722Y-3096593D01*
X34822790Y-3011293D01*
X34822783Y-3011291D01*
X34822781Y-3011290D01*
X34607463Y-2953596D01*
X34607457Y-2953595D01*
X34607452Y-2953594D01*
X34386466Y-2924501D01*
X34386463Y-2924500D01*
X34386457Y-2924500D01*
X34163543Y-2924500D01*
X34163537Y-2924500D01*
X34163533Y-2924501D01*
X33942547Y-2953594D01*
X33942540Y-2953595D01*
X33942537Y-2953596D01*
X33805981Y-2990186D01*
X33727219Y-3011290D01*
X33727209Y-3011293D01*
X33521277Y-3096593D01*
X33521273Y-3096595D01*
X33328226Y-3208052D01*
X33328217Y-3208058D01*
X33151377Y-3343751D01*
X33151370Y-3343757D01*
X32993757Y-3501370D01*
X32993751Y-3501377D01*
X32858058Y-3678217D01*
X32858052Y-3678226D01*
X32746595Y-3871273D01*
X32746593Y-3871277D01*
X32714061Y-3949817D01*
X32670220Y-4004220D01*
X32603926Y-4026285D01*
X32536226Y-4009006D01*
X32488616Y-3957868D01*
X32475500Y-3902364D01*
X32475500Y-3624997D01*
X32475499Y-3624984D01*
X32464999Y-3522204D01*
X32464999Y-3522203D01*
X32409814Y-3355666D01*
X32408142Y-3352956D01*
X32317713Y-3206348D01*
X32317710Y-3206344D01*
X32193655Y-3082289D01*
X32193651Y-3082286D01*
X32044337Y-2990187D01*
X32044335Y-2990186D01*
X31933907Y-2953594D01*
X31877797Y-2935001D01*
X31877795Y-2935000D01*
X31775015Y-2924500D01*
X31775008Y-2924500D01*
X29774992Y-2924500D01*
X29774984Y-2924500D01*
X29672204Y-2935000D01*
X29672203Y-2935001D01*
X29505664Y-2990186D01*
X29505662Y-2990187D01*
X29356348Y-3082286D01*
X29356344Y-3082289D01*
X29232289Y-3206344D01*
X29232286Y-3206348D01*
X29140187Y-3355662D01*
X29140186Y-3355664D01*
X29085001Y-3522203D01*
X29085000Y-3522204D01*
X29074500Y-3624984D01*
X29074500Y-3900500D01*
X29054815Y-3967539D01*
X29002011Y-4013294D01*
X28950500Y-4024500D01*
X22401669Y-4024500D01*
X22401653Y-4024499D01*
X22394057Y-4024499D01*
X22235943Y-4024499D01*
X22129958Y-4052898D01*
X22083210Y-4065424D01*
X22083209Y-4065425D01*
X22033096Y-4094359D01*
X22033095Y-4094360D01*
X21989689Y-4119420D01*
X21946285Y-4144479D01*
X21946282Y-4144481D01*
X21834478Y-4256286D01*
X11585018Y-14505745D01*
X11523695Y-14539230D01*
X11478042Y-14538784D01*
X11477771Y-14540497D01*
X11278466Y-14508930D01*
X11278461Y-14508930D01*
X11081539Y-14508930D01*
X11081534Y-14508930D01*
X10887043Y-14539734D01*
X10699753Y-14600589D01*
X10524292Y-14689991D01*
X10364988Y-14805731D01*
X10364983Y-14805735D01*
X10225735Y-14944983D01*
X10225731Y-14944988D01*
X10109991Y-15104292D01*
X10020589Y-15279753D01*
X9959734Y-15467043D01*
X9928930Y-15661533D01*
X4811070Y-15661533D01*
X4780265Y-15467043D01*
X4780265Y-15467040D01*
X4719412Y-15279756D01*
X4630011Y-15104296D01*
X4615223Y-15083942D01*
X4514268Y-14944988D01*
X4514264Y-14944983D01*
X4375016Y-14805735D01*
X4375011Y-14805731D01*
X4215707Y-14689991D01*
X4215706Y-14689990D01*
X4215704Y-14689989D01*
X4040244Y-14600588D01*
X3852960Y-14539735D01*
X3852958Y-14539734D01*
X3852956Y-14539734D01*
X3658466Y-14508930D01*
X3658461Y-14508930D01*
X3461539Y-14508930D01*
X3461534Y-14508930D01*
X3267043Y-14539734D01*
X3079753Y-14600589D01*
X2904292Y-14689991D01*
X2744988Y-14805731D01*
X2744983Y-14805735D01*
X2605735Y-14944983D01*
X2605731Y-14944988D01*
X2489991Y-15104292D01*
X2400589Y-15279753D01*
X2339734Y-15467043D01*
X2308930Y-15661533D01*
X600000Y-15661533D01*
X600000Y-8041533D01*
X9928930Y-8041533D01*
X9928930Y-8238466D01*
X9959734Y-8432956D01*
X9959735Y-8432960D01*
X10020588Y-8620244D01*
X10093838Y-8764006D01*
X10109991Y-8795707D01*
X10225731Y-8955011D01*
X10225735Y-8955016D01*
X10364983Y-9094264D01*
X10364988Y-9094268D01*
X10503942Y-9195223D01*
X10524296Y-9210011D01*
X10699756Y-9299412D01*
X10887040Y-9360265D01*
X10959977Y-9371816D01*
X11081534Y-9391070D01*
X11081539Y-9391070D01*
X11278466Y-9391070D01*
X11386516Y-9373956D01*
X11472960Y-9360265D01*
X11660244Y-9299412D01*
X11835704Y-9210011D01*
X11995018Y-9094263D01*
X12134263Y-8955018D01*
X12250011Y-8795704D01*
X12339412Y-8620244D01*
X12400265Y-8432960D01*
X12413956Y-8346516D01*
X12431070Y-8238466D01*
X12431070Y-8041533D01*
X12400265Y-7847043D01*
X12400265Y-7847040D01*
X12339412Y-7659756D01*
X12250011Y-7484296D01*
X12235223Y-7463942D01*
X12134268Y-7324988D01*
X12134264Y-7324983D01*
X11995016Y-7185735D01*
X11995011Y-7185731D01*
X11835707Y-7069991D01*
X11835706Y-7069990D01*
X11835704Y-7069989D01*
X11660244Y-6980588D01*
X11472960Y-6919735D01*
X11472958Y-6919734D01*
X11472956Y-6919734D01*
X11278466Y-6888930D01*
X11278461Y-6888930D01*
X11081539Y-6888930D01*
X11081534Y-6888930D01*
X10887043Y-6919734D01*
X10699753Y-6980589D01*
X10524292Y-7069991D01*
X10364988Y-7185731D01*
X10364983Y-7185735D01*
X10225735Y-7324983D01*
X10225731Y-7324988D01*
X10109991Y-7484292D01*
X10020589Y-7659753D01*
X9959734Y-7847043D01*
X9928930Y-8041533D01*
X600000Y-8041533D01*
X600000Y-2261565D01*
X2308930Y-2261565D01*
X2308930Y-3858440D01*
X2308931Y-3858446D01*
X2315338Y-3918053D01*
X2365632Y-4052898D01*
X2365636Y-4052905D01*
X2451882Y-4168114D01*
X2451885Y-4168117D01*
X2567094Y-4254363D01*
X2567101Y-4254367D01*
X2701947Y-4304661D01*
X2701946Y-4304661D01*
X2708874Y-4305405D01*
X2761557Y-4311070D01*
X4358442Y-4311069D01*
X4418053Y-4304661D01*
X4552901Y-4254366D01*
X4668116Y-4168116D01*
X4754366Y-4052901D01*
X4804661Y-3918053D01*
X4811070Y-3858443D01*
X4811069Y-2961533D01*
X9928930Y-2961533D01*
X9928930Y-3158466D01*
X9958277Y-3343757D01*
X9959735Y-3352960D01*
X10020588Y-3540244D01*
X10093749Y-3683832D01*
X10109991Y-3715707D01*
X10225731Y-3875011D01*
X10225735Y-3875016D01*
X10364983Y-4014264D01*
X10364988Y-4014268D01*
X10475225Y-4094359D01*
X10524296Y-4130011D01*
X10699756Y-4219412D01*
X10887040Y-4280265D01*
X10959977Y-4291816D01*
X11081534Y-4311070D01*
X11081539Y-4311070D01*
X11278466Y-4311070D01*
X11395495Y-4292534D01*
X11472960Y-4280265D01*
X11660244Y-4219412D01*
X11835704Y-4130011D01*
X11995018Y-4014263D01*
X12134263Y-3875018D01*
X12250011Y-3715704D01*
X12339412Y-3540244D01*
X12400265Y-3352960D01*
X12423486Y-3206348D01*
X12431070Y-3158466D01*
X12431070Y-2961533D01*
X12400265Y-2767043D01*
X12400265Y-2767040D01*
X12339412Y-2579756D01*
X12250011Y-2404296D01*
X12235223Y-2383942D01*
X12134268Y-2244988D01*
X12134264Y-2244983D01*
X11995016Y-2105735D01*
X11995011Y-2105731D01*
X11835707Y-1989991D01*
X11835706Y-1989990D01*
X11835704Y-1989989D01*
X11660244Y-1900588D01*
X11472960Y-1839735D01*
X11472958Y-1839734D01*
X11472956Y-1839734D01*
X11278466Y-1808930D01*
X11278461Y-1808930D01*
X11081539Y-1808930D01*
X11081534Y-1808930D01*
X10887043Y-1839734D01*
X10699753Y-1900589D01*
X10524292Y-1989991D01*
X10364988Y-2105731D01*
X10364983Y-2105735D01*
X10225735Y-2244983D01*
X10225731Y-2244988D01*
X10109991Y-2404292D01*
X10020589Y-2579753D01*
X9959734Y-2767043D01*
X9928930Y-2961533D01*
X4811069Y-2961533D01*
X4811069Y-2261558D01*
X4804661Y-2201947D01*
X4768776Y-2105735D01*
X4754367Y-2067101D01*
X4754363Y-2067094D01*
X4668117Y-1951885D01*
X4668114Y-1951882D01*
X4552905Y-1865636D01*
X4552898Y-1865632D01*
X4418052Y-1815338D01*
X4418053Y-1815338D01*
X4358453Y-1808931D01*
X4358451Y-1808930D01*
X4358443Y-1808930D01*
X4358434Y-1808930D01*
X2761559Y-1808930D01*
X2761553Y-1808931D01*
X2701946Y-1815338D01*
X2567101Y-1865632D01*
X2567094Y-1865636D01*
X2451885Y-1951882D01*
X2451882Y-1951885D01*
X2365636Y-2067094D01*
X2365632Y-2067101D01*
X2315338Y-2201947D01*
X2310712Y-2244982D01*
X2308931Y-2261553D01*
X2308930Y-2261565D01*
X600000Y-2261565D01*
X600000Y-724000D01*
X619685Y-656961D01*
X672489Y-611206D01*
X724000Y-600000D01*
X59276000Y-600000D01*
X59343039Y-619685D01*
G37*
%TD.AperFunction*%
%TD*%
M02*
