M48
; DRILL file KiCad 10.0.4 date 2026-07-29T20:09:02
; FORMAT={-:-/ absolute / metric / decimal}
; #@! TF.CreationDate,2026-07-29T20:09:02+01:00
; #@! TF.GenerationSoftware,Kicad,Pcbnew,10.0.4
; #@! TF.FileFunction,MixedPlating,1,2
FMAT,2
METRIC
; #@! TA.AperFunction,Plated,PTH,ViaDrill
T1C0.300
; #@! TA.AperFunction,Plated,PTH,ComponentDrill
T2C0.762
; #@! TA.AperFunction,Plated,PTH,ComponentDrill
T3C0.800
; #@! TA.AperFunction,Plated,PTH,ComponentDrill
T4C1.200
; #@! TA.AperFunction,NonPlated,NPTH,ComponentDrill
T5C1.524
%
G90
G05
T1
X6.976Y-19.583
X21.4Y-14.034
X22.002Y-24.266
X24.174Y-9.473
T2
X23.125Y-34.345
X23.125Y-57.205
X25.665Y-34.345
X25.665Y-57.205
X28.205Y-34.345
X28.205Y-57.205
X30.745Y-34.345
X30.745Y-57.205
X33.285Y-34.345
X33.285Y-57.205
X35.825Y-34.345
X35.825Y-57.205
X38.365Y-34.345
X38.365Y-57.205
X40.905Y-34.345
X40.905Y-57.205
X43.445Y-34.345
X43.445Y-57.205
X45.985Y-34.345
X45.985Y-57.205
X48.525Y-34.345
X48.525Y-57.205
X51.065Y-34.345
X51.065Y-57.205
T3
X3.56Y-3.06
X3.56Y-15.76
X11.18Y-3.06
X11.18Y-8.14
X11.18Y-15.76
T4
X30.775Y-4.625
X34.275Y-4.625
X37.775Y-4.625
X43.775Y-4.625
X47.275Y-4.625
X52.775Y-4.625
X56.275Y-4.625
T5
X54.24Y-35.615
X54.24Y-55.935
M30
